<?xml version="1.0" encoding="utf-8"?>
<!-- Generator: Adobe Illustrator 16.0.0, SVG Export Plug-In . SVG Version: 6.00 Build 0)  -->
<!DOCTYPE svg PUBLIC "-//W3C//DTD SVG 1.1//EN" "http://www.w3.org/Graphics/SVG/1.1/DTD/svg11.dtd">
<svg version="1.1" id="Layer_1" xmlns="http://www.w3.org/2000/svg" xmlns:xlink="http://www.w3.org/1999/xlink" x="0px" y="0px"
	 width="250px" height="250px" viewBox="0 0 250 250" enable-background="new 0 0 250 250" xml:space="preserve">
<g>
	<g id="Layer_2" display="none">
	</g>
	<path fill-rule="evenodd" clip-rule="evenodd" fill="#3B3B3B" d="M124.97,249.803c-34.461,0.001-68.921,0.016-103.381-0.008
		c-14.513-0.01-19.808-5.313-19.813-19.84C1.758,160.438,1.758,90.922,1.771,21.408C1.773,6.879,6.993,1.68,21.626,1.677
		C91.142,1.66,160.654,1.66,230.171,1.68c14.633,0.004,19.815,5.187,19.819,19.77c0.014,69.515,0.014,139.029-0.004,208.546
		c-0.003,14.496-5.308,19.79-19.854,19.8C195.078,249.818,160.024,249.803,124.97,249.803z M233.237,233.196
		c0-56.615,0-112.535,0-168.335c-72.081,0-143.477,0-214.852,0c0,56.406,0,112.12,0,168.335
		C90.079,233.196,161.232,233.196,233.237,233.196z M18.326,47.443c72.256,0,143.593,0,215.071,0c0-10.084,0-19.449,0-29.222
		c-71.874,0-143.231,0-215.071,0C18.326,28.064,18.326,37.427,18.326,47.443z"/>
	<path fill-rule="evenodd" clip-rule="evenodd" fill="#3B3B3B" d="M137.778,91.686c5.517,2.064,9.868,3.693,15.029,5.623
		c-13.065,35.222-25.871,69.741-38.955,105.016c-5.047-1.907-9.365-3.541-14.921-5.643
		C111.826,161.829,124.586,127.337,137.778,91.686z"/>
	<path fill-rule="evenodd" clip-rule="evenodd" fill="#3B3B3B" d="M209.144,149.367c-12.591,12.818-25.667,26.126-39.311,40.009
		c-3.315-3.79-6.559-7.499-10.268-11.742c9.244-8.758,18.875-17.878,29.366-27.815c-10.94-10.229-20.784-19.43-30.788-28.784
		c4.922-4.723,8.464-8.121,11.623-11.15C182.86,123.013,196.158,136.35,209.144,149.367z"/>
	<path fill-rule="evenodd" clip-rule="evenodd" fill="#3B3B3B" d="M82.893,109.972c2.83,2.619,6.258,5.793,10.854,10.045
		c-10.396,9.794-20.223,19.051-30.824,29.04c10.576,10.051,20.206,19.205,30.034,28.546c-4.271,4.058-7.822,7.431-11.298,10.732
		c-12.794-13.063-25.809-26.354-38.322-39.132C55.828,136.814,69.187,123.566,82.893,109.972z"/>
	<circle fill-rule="evenodd" clip-rule="evenodd" fill="#3B3B3B" cx="33.687" cy="33.114" r="7.537"/>
	<circle fill-rule="evenodd" clip-rule="evenodd" fill="#3B3B3B" cx="53.719" cy="33.114" r="7.537"/>
	<circle fill-rule="evenodd" clip-rule="evenodd" fill="#3B3B3B" cx="73.75" cy="33.114" r="7.537"/>
</g>
</svg>
