<?xml version="1.0" encoding="utf-8"?>
<!-- Generator: Adobe Illustrator 16.0.0, SVG Export Plug-In . SVG Version: 6.00 Build 0)  -->
<!DOCTYPE svg PUBLIC "-//W3C//DTD SVG 1.1//EN" "http://www.w3.org/Graphics/SVG/1.1/DTD/svg11.dtd">
<svg version="1.1" id="Layer_1" xmlns="http://www.w3.org/2000/svg" xmlns:xlink="http://www.w3.org/1999/xlink" x="0px" y="0px"
	 width="72px" height="72px" viewBox="0 0 72 72" enable-background="new 0 0 72 72" xml:space="preserve">
<g id="Layer_4">
	<path fill="#167EC2" d="M69.627,22.778c0,0,0.733-3.632-2.924-6.356L38.674,1.439c0,0-3.167-1.816-6.824,0.682L6.989,15.514
		c0,0-4.63,1.814-4.63,6.81v26.785c0,0-0.836,5.266,4.56,7.465l24.667,13.301l-0.005-0.088l0.756,0.434c0,0,3.409,2.04,6.823,0.228
		l27.785-14.755c0,0,3.172-0.909,2.682-7.266V22.778z"/>
</g>
<g>
	<g>
		<path fill="#FFFFFF" d="M28.881,15.902c-0.836,0-1.484,0.313-1.94,0.941c-0.46,0.628-0.689,1.503-0.689,2.625
			c0,2.332,0.878,3.5,2.63,3.5c0.736,0,1.625-0.184,2.67-0.552v1.863c-0.861,0.358-1.819,0.537-2.88,0.537
			c-1.521,0-2.686-0.461-3.492-1.387c-0.807-0.92-1.211-2.247-1.211-3.975c0-1.087,0.199-2.042,0.595-2.861
			c0.396-0.82,0.964-1.447,1.708-1.883c0.744-0.437,1.611-0.657,2.61-0.657c1.018,0,2.037,0.246,3.064,0.738l-0.716,1.805
			c-0.393-0.187-0.785-0.349-1.18-0.489C29.651,15.973,29.261,15.902,28.881,15.902z"/>
		<path fill="#FFFFFF" d="M39.957,21.766c0,0.946-0.341,1.691-1.021,2.234c-0.678,0.542-1.626,0.816-2.839,0.816
			c-1.118,0-2.105-0.208-2.963-0.63v-2.062c0.707,0.315,1.304,0.537,1.795,0.665c0.487,0.129,0.937,0.193,1.341,0.193
			c0.487,0,0.86-0.092,1.118-0.279c0.265-0.186,0.394-0.463,0.394-0.831c0-0.206-0.056-0.388-0.172-0.548
			c-0.111-0.16-0.281-0.313-0.503-0.462c-0.224-0.146-0.673-0.383-1.356-0.708c-0.64-0.301-1.12-0.591-1.439-0.866
			c-0.319-0.275-0.575-0.599-0.766-0.968c-0.192-0.369-0.288-0.795-0.288-1.288c0-0.926,0.314-1.654,0.941-2.184
			c0.63-0.528,1.496-0.795,2.604-0.795c0.544,0,1.063,0.064,1.559,0.193c0.492,0.13,1.007,0.312,1.548,0.545L39.19,16.52
			c-0.558-0.229-1.018-0.388-1.382-0.48c-0.365-0.09-0.725-0.136-1.079-0.136c-0.419,0-0.742,0.097-0.968,0.293
			c-0.224,0.196-0.334,0.451-0.334,0.767c0,0.197,0.043,0.367,0.137,0.511c0.092,0.146,0.234,0.288,0.432,0.423
			c0.198,0.137,0.667,0.382,1.403,0.735c0.981,0.468,1.654,0.937,2.017,1.407C39.774,20.507,39.957,21.083,39.957,21.766z"/>
		<path fill="#FFFFFF" d="M48.031,21.766c0,0.946-0.341,1.691-1.021,2.234c-0.678,0.542-1.628,0.816-2.841,0.816
			c-1.115,0-2.102-0.208-2.962-0.63v-2.062c0.706,0.315,1.303,0.537,1.792,0.665c0.489,0.129,0.939,0.193,1.344,0.193
			c0.489,0,0.862-0.092,1.121-0.279c0.262-0.186,0.389-0.463,0.389-0.831c0-0.206-0.057-0.388-0.171-0.548
			c-0.113-0.159-0.282-0.313-0.503-0.462c-0.223-0.146-0.674-0.383-1.358-0.708c-0.638-0.301-1.119-0.591-1.437-0.866
			c-0.319-0.275-0.577-0.599-0.771-0.968c-0.188-0.369-0.282-0.795-0.282-1.288c0-0.926,0.313-1.654,0.941-2.184
			c0.628-0.528,1.492-0.795,2.604-0.795c0.544,0,1.063,0.064,1.556,0.193c0.493,0.13,1.011,0.312,1.549,0.545l-0.716,1.725
			c-0.557-0.229-1.02-0.388-1.385-0.48c-0.367-0.09-0.724-0.136-1.076-0.136c-0.42,0-0.744,0.097-0.967,0.293
			c-0.227,0.196-0.338,0.451-0.338,0.767c0,0.197,0.047,0.367,0.138,0.511c0.09,0.146,0.233,0.288,0.433,0.423
			c0.197,0.137,0.666,0.382,1.407,0.735c0.977,0.468,1.648,0.937,2.01,1.407C47.853,20.509,48.031,21.083,48.031,21.766z"/>
	</g>
	<polygon fill="#FFFFFF" points="22.373,27.975 49.627,27.975 49.627,33.275 37.325,38.439 48.738,38.576 47.519,55.023 
		36.373,58.692 25.023,55.229 24.479,47.005 29.576,47.073 29.85,50.945 36.373,52.645 42.488,51.288 42.965,43.946 24.139,43.812 
		23.868,38.782 35.896,33.413 23.256,33.209 	"/>
</g>
</svg>
