<?xml version="1.0" encoding="utf-8"?>
<!-- Generator: Adobe Illustrator 16.0.0, SVG Export Plug-In . SVG Version: 6.00 Build 0)  -->
<!DOCTYPE svg PUBLIC "-//W3C//DTD SVG 1.1//EN" "http://www.w3.org/Graphics/SVG/1.1/DTD/svg11.dtd">
<svg version="1.1" id="Layer_2" xmlns="http://www.w3.org/2000/svg" xmlns:xlink="http://www.w3.org/1999/xlink" x="0px" y="0px"
	 width="75px" height="75px" viewBox="0 0 75 75" enable-background="new 0 0 75 75" xml:space="preserve">
<g>
	<polygon fill="#C12127" points="31.833,4.182 66.534,4.182 57.569,28.705 49.131,12.356 40.641,28.441 	"/>
	<circle fill="#C12127" cx="15.537" cy="36.853" r="4.879"/>
	<circle fill="#C12127" cx="38.033" cy="36.852" r="4.878"/>
	<circle fill="#C12127" cx="60.569" cy="36.852" r="4.878"/>
	<path fill="#C12127" d="M46.494,37.934h4.746c0,0,4.747,11.866,13.712,6.065c0,0,6.856,12.128-11.074,15.028
		c0,0-12.395,1.847-21.096,7.912c0,0-18.458,10.283-23.996-2.638c0,0-2.109-15.294,4.482-18.985c0,0,0.528,12.657,7.911,12.394
		c0,0,6.592,0.264,15.559-12.13C36.738,45.58,45.967,45.844,46.494,37.934z"/>
</g>
</svg>
