<?xml version="1.0" encoding="utf-8"?>
<!-- Generator: Adobe Illustrator 16.0.0, SVG Export Plug-In . SVG Version: 6.00 Build 0)  -->
<!DOCTYPE svg PUBLIC "-//W3C//DTD SVG 1.1//EN" "http://www.w3.org/Graphics/SVG/1.1/DTD/svg11.dtd">
<svg version="1.1" id="Layer_1" xmlns="http://www.w3.org/2000/svg" xmlns:xlink="http://www.w3.org/1999/xlink" x="0px" y="0px"
	 width="500px" height="500px" viewBox="0 0 500 500" enable-background="new 0 0 500 500" xml:space="preserve">
<circle fill-rule="evenodd" clip-rule="evenodd" cx="250" cy="250" r="247.395"/>
<g>
	<path fill-rule="evenodd" clip-rule="evenodd" fill="#FFFFFF" d="M287.807,197.864c2.112,0,4.229,0,9.131,0
		c-7.934,5.226-13.276,10.598-19.621,12.354c-5.424,1.501-13.309,0.717-17.73-2.413c-5.784-4.093-4.513-12.055-0.54-17.618
		c4.379-6.132,9.426-12.149,15.32-16.771c19.855-15.569,43.546-21.58,68.001-23.604c20.454-1.69,41.176-1.565,61.063,5.06
		c6.902,2.3,13.791,5.103,20.075,8.729c24.971,14.397,34.652,37.014,28.261,65.109c-5.834,25.652-20.185,46.198-39.563,63.251
		c-40.667,35.785-87.256,56.642-142.488,55.216c-21.942-0.568-30.378-12.774-20.325-32.391c8.953-17.475,19.239-34.362,30.084-50.75
		c18.001-27.204,36.866-53.837,55.484-80.631c6.409-9.225,19.765-11.813,31.628-5.409c-30.964,47.665-61.873,95.238-92.78,142.813
		c0.392,1,0.785,1.998,1.181,2.999c8.503-0.532,17.244,0.02,25.474-1.774c45.914-9.997,83.746-33.361,111.959-71.089
		c29.652-39.651,4.224-71.218-33.536-78.375c-27.971-5.302-54.229,0.721-78.994,13.948c-4.753,2.541-8.879,6.254-13.292,9.426
		C286.998,196.585,287.401,197.226,287.807,197.864z"/>
	<path fill-rule="evenodd" clip-rule="evenodd" fill="#FFFFFF" d="M232.802,149.343c1.428-2.126,3.217-7.879,10.521-3.502
		c9.168,5.495,11.721,9.184,8.163,17.317c-17.86,40.883-35.78,81.74-54.164,122.386c-8.339,18.44-17.751,36.395-26.767,54.523
		c-7.198,14.474-20.241,15.958-36.298,15.661c11.371-24.326,22.192-47.478,33.421-71.501c-18.268-0.746-35.418-1.669-52.579-1.886
		c-2.391-0.032-5.489,2.959-7.137,5.33c-12.899,18.56-25.67,37.209-38.144,56.057c-3.81,5.756-7.18,11.202-15.229,7.611
		c-7.527-3.367-10.64-10.184-6.264-18.443c6.975-13.17,15.38-25.593,23.348-38.227c2.491-3.949,5.521-7.56,9.137-12.451
		c-7.463,0-13.956,0.121-20.441-0.06c-2.641-0.074-7.25-0.279-7.523-1.324c-0.808-3.099-1.185-8.436,0.563-9.687
		c5.943-4.248,13.102-10.352,19.384-9.908c19.99,1.409,32.628-7.156,45.317-21.839c25.353-29.34,53.233-56.445,85.623-78.326
		c4.614-3.116,9.344-6.227,14.415-8.43C222.061,150.944,226.594,150.669,232.802,149.343z M132.582,257.413
		c0.221,1.188,0.442,2.379,0.662,3.565c13.73,0,27.471,0.297,41.178-0.265c2.522-0.104,5.916-3.177,7.186-5.735
		c9.789-19.691,19.155-39.595,28.651-59.433c2.72-5.685,5.438-11.37,8.16-17.051C186.067,201.266,157.949,227.884,132.582,257.413z"
		/>
</g>
</svg>
