<?xml version="1.0" encoding="utf-8"?>
<!-- Generator: Adobe Illustrator 16.0.0, SVG Export Plug-In . SVG Version: 6.00 Build 0)  -->
<!DOCTYPE svg PUBLIC "-//W3C//DTD SVG 1.1//EN" "http://www.w3.org/Graphics/SVG/1.1/DTD/svg11.dtd">
<svg version="1.1" xmlns="http://www.w3.org/2000/svg" xmlns:xlink="http://www.w3.org/1999/xlink" x="0px" y="0px" width="72px"
	 height="72px" viewBox="0 0 72 72" enable-background="new 0 0 72 72" xml:space="preserve">
<g id="Layer_2">
	<rect x="-0.25" y="-0.25" fill="#0B374F" width="72.5" height="72.5"/>
	<rect x="3.375" y="3.375" fill="#0E66AD" width="65.25" height="65.25"/>
</g>
<g id="Layer_3">
	<g>
		<path fill="#FFFFFF" d="M10.246,20.143H5.546l9.9,32.217l6.207-19.967l6.209,20.135l8.557-28.525l6.711,0.167l-5.369,9.396v2.181
			c0,0,6.543-1.511,7.215,5.035c0,0,0.84,4.697-3.02,7.213c0,0-3.357,1.848-5.538-3.855l-3.188,1.678c0,0,3.357,10.066,12.583,4.865
			c0,0,4.697-3.523,3.521-10.57c0,0,0-5.538-6.039-8.055L49,22.158v-2.014H33.399l-5.704,19.128l-5.704-19.129h-4.195l1.847,6.209
			l-4.027,12.92L10.246,20.143z"/>
		<path fill="#FFFFFF" d="M52.695,37.93c0,0-3.859-8.726,2.014-16.611c0,0,4.193-4.531,8.557,2.685l2.352-4.531l0.67,4.195
			l-2.518,4.195c0,0-5.957-11.663-9.98,1.763C53.787,29.623,52.221,34.097,52.695,37.93z"/>
		<path fill="#FFFFFF" d="M65.783,42.795l0.67,3.189c0,0-3.523,7.885-10.568,5.033c0,0-4.699-3.355-5.705-9.063
			c0,0,3.857,8.559,9.898,6.209C60.078,48.164,62.764,47.828,65.783,42.795z"/>
	</g>
</g>
</svg>
