<?xml version="1.0" encoding="utf-8"?>
<!-- Generator: Adobe Illustrator 16.0.0, SVG Export Plug-In . SVG Version: 6.00 Build 0)  -->
<!DOCTYPE svg PUBLIC "-//W3C//DTD SVG 1.1//EN" "http://www.w3.org/Graphics/SVG/1.1/DTD/svg11.dtd">
<svg version="1.1" xmlns="http://www.w3.org/2000/svg" xmlns:xlink="http://www.w3.org/1999/xlink" x="0px" y="0px" width="1000px"
	 height="1000px" viewBox="0 0 1000 1000" enable-background="new 0 0 1000 1000" xml:space="preserve">
<g id="Layer_1">
	<path opacity="0.3" fill="#010101" enable-background="new    " d="M506.923,887.086c178.551,0,323.328,22.359,323.328,49.955
		s-144.777,49.955-323.328,49.955c-178.55,0-323.31-22.359-323.31-49.955S328.373,887.086,506.923,887.086z"/>
	<g id="Layer_1_1_" display="none">
		<g display="inline">
			<g>
				<path opacity="0.2" fill="#010101" enable-background="new    " d="M883.458,650.888H122.486c0,0-103.073-15.01-108.374-120.368
					c0,0-36.849-156.295,149.288-184.388c0,0-73.77-219.514,166.818-309.066c0,0,201.926-59.704,300.292,151.029
					c0,0,87.796-64.99,187.869-1.749c0,0,87.813,59.68,59.729,173.843c0,0,112.384,15.799,115.896,151.029
					C994.02,511.201,1004.671,604.444,883.458,650.888z"/>
				<path fill="#FFFFFF" d="M878.026,634.626H117.071c0,0-103.09-15.025-108.35-120.368c0,0-36.864-156.289,149.264-184.371
					c0,0-73.746-219.506,166.819-309.075c0,0,201.942-59.695,300.291,151.029c0,0,87.78-64.973,187.901-1.748
					c0,0,87.765,59.696,59.697,173.86c0,0,112.383,15.806,115.895,151.004C988.588,494.924,999.239,588.199,878.026,634.626z"/>
				<path opacity="0.2" fill="#010101" enable-background="new    " d="M159.05,623.438h675.103c0,0,91.455-13.334,96.139-106.789
					c0,0,32.717-138.662-132.434-163.573c0,0,65.437-194.74-148.013-274.217c0,0-179.161-52.972-266.411,133.995
					c0,0-77.885-57.648-166.688-1.562c0,0-77.908,52.964-52.964,154.241c0,0-99.715,14.042-102.829,133.961
					C60.969,499.494,51.513,582.232,159.05,623.438z"/>
				<path fill="#FFFFFF" d="M163.88,609.047H839c0,0,91.421-13.058,96.104-104.479c0,0,32.701-135.636-132.434-160.012
					c0,0,65.436-190.495-147.995-268.226c0,0-179.145-51.809-266.412,131.06c0,0-77.917-56.396-166.721-1.512
					c0,0-77.893,51.809-52.98,150.882c0,0-99.715,13.708-102.813,131.061C65.783,487.801,56.31,568.751,163.88,609.047z"/>
				<path fill="#E4E6ED" d="M337.293,675.508c25,0,45.271,20.262,45.271,45.272c0,25.01-20.271,45.271-45.271,45.271
					c-25.002,0-45.281-20.261-45.281-45.271C292.012,695.77,312.291,675.508,337.293,675.508z"/>
				<path fill="#C2C4CE" d="M356.708,683.247c9.726,7.563,16.035,19.4,16.035,32.687c0,22.831-18.53,41.369-41.361,41.369
					c-7.408,0-14.351-1.951-20.384-5.382c6.992,5.431,15.773,8.666,25.328,8.666c22.847,0,41.345-18.521,41.345-41.337
					C377.686,703.818,369.246,690.338,356.708,683.247z"/>
				<path fill="#E4E6ED" d="M501.932,716.665c25.012,0,45.272,20.278,45.272,45.288c0,24.994-20.262,45.271-45.272,45.271
					c-25.01,0-45.279-20.276-45.279-45.271C456.651,736.943,476.921,716.665,501.932,716.665z"/>
				<path fill="#C2C4CE" d="M521.348,724.39c9.741,7.609,16.019,19.448,16.019,32.719c0,22.831-18.538,41.353-41.369,41.353
					c-7.407,0-14.334-1.936-20.359-5.35c6.992,5.415,15.767,8.65,25.32,8.65c22.863,0,41.351-18.538,41.351-41.337
					C542.308,744.943,533.854,731.48,521.348,724.39z"/>
				<path fill="#E4E6ED" d="M666.514,689.248c24.994,0,45.272,20.278,45.272,45.271c0,24.994-20.278,45.272-45.272,45.272
					c-24.992,0-45.288-20.278-45.288-45.272C621.226,709.526,641.521,689.248,666.514,689.248z"/>
				<path fill="#C2C4CE" d="M685.962,696.956c9.74,7.578,16.019,19.416,16.019,32.687c0,22.848-18.507,41.354-41.368,41.354
					c-7.399,0-14.344-1.936-20.359-5.334c6.976,5.398,15.789,8.651,25.303,8.651c22.896,0,41.386-18.508,41.386-41.337
					C706.924,717.527,698.469,704.046,685.962,696.956z"/>
			</g>
			<path opacity="0.3" fill="#010101" enable-background="new    " d="M506.923,887.086c178.551,0,323.328,22.359,323.328,49.955
				s-144.777,49.955-323.328,49.955c-178.55,0-323.31-22.359-323.31-49.955S328.373,887.086,506.923,887.086z"/>
		</g>
	</g>
</g>
<g id="Layer_2">
	<g>
		<g id="Layer_7">
			<path fill="#1D1E1C" d="M72.583,558.633c0,0-5.696-84.481,129.095-169.912l3.798-32.274
				C205.475,356.446,37.461,452.321,72.583,558.633z"/>
		</g>
		<g id="Layer_6">
			<path fill="#2F312E" d="M195.033,386.347c0,0-183.201,125.298-108.212,219.272c0,0,68.345,112.482,274.328,93.498
				c0,0,166.116-28.477,228.764-71.192c0,0,39.868-19.933,59.803-33.222c0,0,107.263-60.75,121.5-68.344
				c0,0,56.005-24.207,101.567-51.734c0,0,59.948-44.728,56.006-54.581c-3.799-9.491-82.584-53.156-110.111-60.751
				C790.295,351.464,538.179,229.722,195.033,386.347z"/>
		</g>
		<g id="Layer_9">
			<path fill="#1D1E1C" d="M924.04,396.314c0,0-97.058-61.464-152.351-65.497l17.086,32.748c0,0,69.769,17.086,136.215,60.751
				C930.746,428.099,922.898,395.496,924.04,396.314z"/>
		</g>
		<g id="Layer_14">
			<path opacity="0.05" enable-background="new    " d="M203.577,382.076c0,0-105.364,37.02-122.45,119.602
				c0,0-64.058,92.539,116.755,56.954c0,0,59.801-99.668,54.105-119.603S203.577,382.076,203.577,382.076z"/>
			<path opacity="0.1" enable-background="new    " d="M926.903,431.899c0,0-88.294-41.281-133.855-24.195l-2.849-48.411
				C790.199,359.294,924.055,406.27,926.903,431.899z"/>
		</g>
		<g id="Layer_5">
			<path fill="#2F312E" d="M198.832,473.201c0,0,0.328-57.961,5.448-117.048c3.574-41.226,9.478-83.002,19.231-106.019
				c0,0,19.934-85.431,168.013-128.146c0,0,74.991-30.375,212.628-19.934c0,0,118.651,4.746,177.503,78.786
				c0,0,28.478,30.375,31.325,93.974c0,0,2.848,86.379,0,150.927v50.31c0,0-392.03,234.46-615.099,53.156L198.832,473.201z"/>
		</g>
		<g id="Layer_13">
			<path opacity="0.06" enable-background="new    " d="M210.218,473.201c0,0,0.329-57.961,5.45-117.048
				c3.573-41.226,9.477-83.002,19.23-106.019c0,0,19.934-85.431,168.014-128.146c0,0,52.579-21.286,150.468-22.089
				c-105.197-0.852-161.859,22.089-161.859,22.089c-148.08,42.715-168.014,128.146-168.014,128.146
				c-9.753,23.018-15.658,64.793-19.23,106.019c-5.12,59.087-5.449,117.048-5.449,117.048l-0.95,56.005
				c3.803,3.091,7.661,6.051,11.558,8.904L210.218,473.201z"/>
		</g>
		<g id="Ribbon">
			<path fill="#181918" d="M197.47,551.204l1.835-87.02c0,0,80.507,121.328,372.137,71.58c0,0,119.089-43.578,154.21-31.238
				c0,0,19.934-16.136,24.681-13.289c0,0,44.615-61.699,61.7-67.394c0,0,9.032-28.014,2.388-51.745c0,0,9.003,39.404,9.003,56.49
				c0,0,2.848,62.649-2.847,68.345c0,0-189.848,112.959-203.136,112.009c0,0-73.09,35.121-163.268,31.325
				C454.173,640.267,218.89,641.546,197.47,551.204z"/>
		</g>
		<g id="Layer_8">
			<path fill="#181918" d="M69.38,510.578c0,0-28.833,106.074,59.207,164.81c0,0,85.431,70.242,245.852,53.156
				c0,0,156.623-19.932,271.479-87.329c0,0,189.373-89.702,218.799-113.434c0,0,77.784-49.281,76.411-77.36
				c0,0,1.426-49.835-23.729-57.429c0,0,17.087,30.851-21.833,58.377c0,0-87.329,54.106-90.177,55.056
				c0,0-130.994,66.445-169.911,93.973c0,0-110.109,53.156-135.739,60.751c0,0-106.314,45.563-221.17,34.173
				c0,0-139.537-7.951-194.592-108.569C83.974,586.753,64.752,541.546,69.38,510.578z"/>
		</g>
		<g id="Layer_3">
			<path fill="#1D1E1C" d="M567.132,530.154c0,0,3.798,67.397,2.847,75.94c0,0,7.595,12.819,7.595,22.313
				c0,0,38.918-15.67,38.918-18.517c0-2.849,0,2.847,0,2.847S717.108,551.039,728.5,548.19c0,0,86.38-48.411,97.771-51.258
				c0,0,1.897-67.395-15.188-67.395c0,0-58.851,39.868-62.647,59.801c0,0-18.986,7.593-23.731,12.339
				C724.703,501.678,613.644,508.322,567.132,530.154z"/>
		</g>
		<g id="Layer_4">
			<path fill="#181918" d="M723.754,503.577c0,0,9.968,30.849,3.322,46.037c0,0,34.647-11.865,33.698-16.611
				c0,0-4.746-40.816-11.391-44.614C749.384,488.389,722.807,496.934,723.754,503.577z"/>
		</g>
	</g>
</g>
</svg>
