<?xml version="1.0" encoding="utf-8"?>
<!-- Generator: Adobe Illustrator 16.0.0, SVG Export Plug-In . SVG Version: 6.00 Build 0)  -->
<!DOCTYPE svg PUBLIC "-//W3C//DTD SVG 1.1//EN" "http://www.w3.org/Graphics/SVG/1.1/DTD/svg11.dtd">
<svg version="1.1" xmlns="http://www.w3.org/2000/svg" xmlns:xlink="http://www.w3.org/1999/xlink" x="0px" y="0px" width="1000px"
	 height="1000px" viewBox="0 0 1000 1000" enable-background="new 0 0 1000 1000" xml:space="preserve">
<g id="Layer_1">
	<path opacity="0.3" fill="#010101" enable-background="new    " d="M506.923,887.086c178.551,0,323.328,22.359,323.328,49.955
		s-144.777,49.955-323.328,49.955c-178.55,0-323.31-22.359-323.31-49.955S328.373,887.086,506.923,887.086z"/>
	<g id="Layer_1_1_" display="none">
		<g display="inline">
			<g>
				<path opacity="0.2" fill="#010101" enable-background="new    " d="M883.458,650.888H122.486c0,0-103.073-15.01-108.374-120.368
					c0,0-36.849-156.295,149.288-184.388c0,0-73.77-219.514,166.818-309.066c0,0,201.926-59.704,300.292,151.029
					c0,0,87.796-64.99,187.869-1.749c0,0,87.813,59.68,59.729,173.843c0,0,112.384,15.799,115.896,151.029
					C994.02,511.201,1004.671,604.444,883.458,650.888z"/>
				<path fill="#FFFFFF" d="M878.026,634.626H117.071c0,0-103.09-15.025-108.35-120.368c0,0-36.864-156.289,149.264-184.371
					c0,0-73.746-219.506,166.819-309.075c0,0,201.942-59.695,300.291,151.029c0,0,87.78-64.973,187.901-1.748
					c0,0,87.765,59.696,59.697,173.86c0,0,112.383,15.806,115.895,151.004C988.588,494.924,999.239,588.199,878.026,634.626z"/>
				<path opacity="0.2" fill="#010101" enable-background="new    " d="M159.05,623.438h675.103c0,0,91.455-13.334,96.139-106.789
					c0,0,32.717-138.662-132.434-163.573c0,0,65.437-194.74-148.013-274.217c0,0-179.161-52.972-266.411,133.995
					c0,0-77.885-57.648-166.688-1.562c0,0-77.908,52.964-52.964,154.241c0,0-99.715,14.042-102.829,133.961
					C60.969,499.494,51.513,582.232,159.05,623.438z"/>
				<path fill="#FFFFFF" d="M163.88,609.047H839c0,0,91.421-13.058,96.104-104.479c0,0,32.701-135.636-132.434-160.012
					c0,0,65.436-190.495-147.995-268.226c0,0-179.145-51.809-266.412,131.06c0,0-77.917-56.396-166.721-1.512
					c0,0-77.893,51.809-52.98,150.882c0,0-99.715,13.708-102.813,131.061C65.783,487.801,56.31,568.751,163.88,609.047z"/>
				<path fill="#E4E6ED" d="M337.293,675.508c25,0,45.271,20.262,45.271,45.272c0,25.01-20.271,45.271-45.271,45.271
					c-25.002,0-45.281-20.261-45.281-45.271C292.012,695.77,312.291,675.508,337.293,675.508z"/>
				<path fill="#C2C4CE" d="M356.708,683.247c9.726,7.563,16.035,19.4,16.035,32.687c0,22.831-18.53,41.369-41.361,41.369
					c-7.408,0-14.351-1.951-20.384-5.382c6.992,5.431,15.773,8.666,25.328,8.666c22.847,0,41.345-18.521,41.345-41.337
					C377.686,703.818,369.246,690.338,356.708,683.247z"/>
				<path fill="#E4E6ED" d="M501.932,716.665c25.012,0,45.272,20.278,45.272,45.288c0,24.994-20.262,45.271-45.272,45.271
					c-25.01,0-45.279-20.276-45.279-45.271C456.651,736.943,476.921,716.665,501.932,716.665z"/>
				<path fill="#C2C4CE" d="M521.348,724.39c9.741,7.609,16.019,19.448,16.019,32.719c0,22.831-18.538,41.353-41.369,41.353
					c-7.407,0-14.334-1.936-20.359-5.35c6.992,5.415,15.767,8.65,25.32,8.65c22.863,0,41.351-18.538,41.351-41.337
					C542.308,744.943,533.854,731.48,521.348,724.39z"/>
				<path fill="#E4E6ED" d="M666.514,689.248c24.994,0,45.272,20.278,45.272,45.271c0,24.994-20.278,45.272-45.272,45.272
					c-24.992,0-45.288-20.278-45.288-45.272C621.226,709.526,641.521,689.248,666.514,689.248z"/>
				<path fill="#C2C4CE" d="M685.962,696.956c9.74,7.578,16.019,19.416,16.019,32.687c0,22.848-18.507,41.354-41.368,41.354
					c-7.399,0-14.344-1.936-20.359-5.334c6.976,5.398,15.789,8.651,25.303,8.651c22.896,0,41.386-18.508,41.386-41.337
					C706.924,717.527,698.469,704.046,685.962,696.956z"/>
			</g>
			<path opacity="0.3" fill="#010101" enable-background="new    " d="M506.923,887.086c178.551,0,323.328,22.359,323.328,49.955
				s-144.777,49.955-323.328,49.955c-178.55,0-323.31-22.359-323.31-49.955S328.373,887.086,506.923,887.086z"/>
		</g>
	</g>
</g>
<g id="Layer_2">
	<g>
		<path d="M895.022,484.297c0,0,13.98,24.305-1.597,47.437c-3.782-5.296-22.319-40.021-21.43-40.834
			C876.662,486.632,888.597,481.288,895.022,484.297z"/>
		<g>
			<path fill="#636028" d="M592.276,491.793l-22.387,8.135C569.89,499.928,591.575,551.345,592.276,491.793z"/>
			<path d="M531.499,424.411c0,0,28.291-58.763,32.482-51.712c0,0-13.621,63.467-33.529,86.971
				C530.452,459.67,522.069,452.619,531.499,424.411z"/>
			<path d="M562.935,370.348c0,0,20.959,42.31,30.389,119.88c0,0-16.767,18.806-22.005,9.402
				C571.318,499.63,555.599,391.505,562.935,370.348z"/>
			<path d="M577.415,512.659c0,0,6.375,0.778,14.503-8.685c0,0,17.705,9.515,21.259,37.979c0,0-10.003,15.117-9.164,24.141
				C604.013,566.094,576.673,533.72,577.415,512.659z"/>
		</g>
		<g>
			<g>
				<path d="M699.152,420.26c0,0,25.575,9.457,40.643,50.23l24.516,15.194c0,0,15.716-20.862,4.253-36.034
					C768.563,449.65,708.144,364.914,699.152,420.26z"/>
				<path fill="#FFFFFF" d="M728.452,430.6c0,0-5.431-2.005-8.63-10.663l-5.206-3.228c0,0-3.334,4.429-0.9,7.65
					C713.716,424.359,726.543,442.358,728.452,430.6z"/>
				<path d="M764.342,472.625c0,0-27.205,18.749,8.7,88.294c0,0,16.175,8.908,24.03-1.518
					C797.072,559.402,796.717,477.39,764.342,472.625z"/>
			</g>
			<path fill="#636028" d="M776.178,465.594L747.8,485.905C747.8,485.905,771.58,510.767,776.178,465.594z"/>
		</g>
		<g>
			<g>
				<path d="M606.151,410.337c0,0,29.873,11.041,47.473,58.667l28.634,17.747c0,0,18.358-24.366,4.967-42.089
					C687.225,444.661,616.654,345.688,606.151,410.337z"/>
				<path fill="#FFFFFF" d="M640.373,422.412c0,0-6.34-2.341-10.077-12.456l-6.084-3.769c0,0-3.894,5.171-1.051,8.937
					C623.161,415.124,638.145,436.146,640.373,422.412z"/>
				<path d="M682.296,471.499c0,0-31.778,21.9,10.16,103.125c0,0,18.894,10.407,28.067-1.771
					C720.523,572.854,720.107,477.063,682.296,471.499z"/>
			</g>
			<path fill="#636028" d="M696.12,463.285l-33.146,23.722C662.975,487.007,690.747,516.047,696.12,463.285z"/>
		</g>
		<path d="M907.194,381.133c0.125-4.23-18.009-8.78-40.498-10.161c-22.484-1.387-40.821,0.916-40.945,5.149
			c-0.126,4.23,18.006,8.777,40.495,10.16C888.733,387.668,907.07,385.363,907.194,381.133z"/>
		<path d="M958.692,465.386c2.162-2.863-8.435-24.583-23.654-48.507c-15.224-23.93-29.316-41.007-31.479-38.144
			c-2.164,2.866,8.429,24.583,23.655,48.506C942.436,451.168,956.531,468.251,958.692,465.386z"/>
		<path fill="#F6EB0F" d="M496.691,280.722c0,0-354.135-9.837-285.275,311.508c0,0,134.44,16.395,291.834-114.766
			C503.25,477.464,595.063,284.001,496.691,280.722z"/>
		<ellipse fill="#F6EB0F" cx="622.925" cy="384.012" rx="142.638" ry="129.521"/>
		<path fill="#F6EB0F" d="M876.217,516.957c-33.213,31.045-95.636,18.229-139.433-28.618
			c-43.789-46.854-52.371-109.998-19.158-141.043c33.216-31.048,95.643-18.237,139.436,28.611
			C900.858,422.758,909.434,485.908,876.217,516.957z"/>
		<path opacity="0.9" d="M784.443,459.311c-15.371,2.411-30.591-13.209-33.998-34.891c-3.401-21.685,6.298-41.222,21.665-43.633
			c15.378-2.415,30.598,13.206,34.005,34.891C809.522,437.36,799.819,456.893,784.443,459.311z"/>
		<path opacity="0.85" fill="#FFFFFF" d="M766.234,417.859c-5.574-2.171-7.614-10.305-4.556-18.167
			c3.061-7.867,10.061-12.481,15.632-10.314c5.576,2.168,7.619,10.302,4.561,18.167
			C778.813,415.409,771.813,420.026,766.234,417.859z"/>
		<path fill="#FFFFFF" d="M769.859,408.998c-3.314-1.29-4.528-6.125-2.709-10.801c1.822-4.678,5.984-7.426,9.297-6.135
			c3.316,1.287,4.531,6.125,2.712,10.804S773.181,410.289,769.859,408.998z"/>
		<path opacity="0.95" d="M208.95,456.15c0,0-20.487,93.452-0.813,136.08c0,0,147.556,22.953,301.671-121.324
			c0,0-98.371,72.139-147.556-49.186c0,0-28.698-83.286,46.719-132.471c0,0-148.37,30.821-46.719,191.494l16.395,32.79
			c0,0-157.394-95.092-59.022-193.463c0,0-144.277,78.697,9.837,193.463c0,0-127.882-26.232-88.534-124.603
			c0,0-49.186,68.86,16.395,137.719C257.322,526.649,228.624,525.01,208.95,456.15z"/>
		<path opacity="0.95" d="M499.971,369.256c0,0,13.115,196.742,222.975,108.208c0,0-129.34-88.534-64.769-127.883
			c0,0,103.322-42.627,19.374-85.254C677.551,264.327,516.116,205.305,499.971,369.256z"/>
		<path d="M833.701,364.059c0.077-5.524-10.558-11.467-23.734-13.267c-13.184-1.813-23.936,1.194-24.007,6.725
			c-0.074,5.523,10.555,11.46,23.741,13.266C822.881,372.596,833.631,369.583,833.701,364.059z"/>
		<path d="M863.892,474.089c1.269-3.74-4.944-32.105-13.869-63.345c-8.921-31.253-17.183-53.553-18.45-49.816
			c-1.268,3.743,4.944,32.105,13.865,63.349C854.365,455.523,862.623,477.833,863.892,474.089z"/>
		<g>
			<path fill="#636028" d="M372.79,511.465l50.217,8.134C423.006,519.599,374.358,571.016,372.79,511.465z"/>
			<path d="M509.125,444.082c0,0-63.467-58.764-72.868-51.712c0,0,30.558,63.467,75.219,86.971
				C511.476,479.341,530.282,472.289,509.125,444.082z"/>
			<path d="M438.607,390.019c0,0-47.011,42.311-68.168,119.879c0,0,37.609,18.807,49.365,9.402
				C419.804,519.301,455.063,411.176,438.607,390.019z"/>
			<path d="M406.127,532.33c0,0-14.304,0.778-32.534-8.685c0,0-39.717,9.514-47.69,37.979c0,0,22.441,15.117,20.558,24.141
				C346.461,585.765,407.789,553.391,406.127,532.33z"/>
		</g>
		<g>
			<g>
				<path d="M574.113,453.771c0,0-19.087,27.202-5.946,78.518l-14.045,32.226c0,0-30.213-10.028-29.232-33.184
					C524.89,531.331,526.747,404.509,574.113,453.771z"/>
				<path fill="#FFFFFF" d="M551.903,484.436c0,0,4.054-5.767,1.265-16.665l2.981-6.843c0,0,6.411,2.13,6.203,7.042
					C562.353,467.97,561.962,494.902,551.903,484.436z"/>
				<path d="M545.044,551.441c0,0,40.262-0.052,52.455,94.547c0,0-10.039,20.145-25.144,15.131
					C572.355,661.119,515.888,578.652,545.044,551.441z"/>
			</g>
			<path fill="#636028" d="M528.3,552.591l42.531,0.704C570.831,553.295,564.216,594.699,528.3,552.591z"/>
		</g>
		<g>
			<g>
				<path d="M636.547,461.418c0,0-10.581,24.602,8.235,62.92l-5.776,27.733c0,0-25.483-2.939-28.521-21.364
					C610.484,530.707,591.072,430.354,636.547,461.418z"/>
				<path fill="#FFFFFF" d="M624.074,489.267c0,0,2.247-5.219-1.749-13.356l1.23-5.889c0,0,5.405,0.622,6.052,4.535
					C629.607,474.557,633.732,495.867,624.074,489.267z"/>
				<path d="M629.691,543.253c0,0,31.756-6.67,56.946,65.952c0,0-4.604,17.541-17.346,16.072
					C669.292,625.277,611.169,569.517,629.691,543.253z"/>
			</g>
			<path fill="#636028" d="M619.924,545.231l21.861-4.374C641.785,540.857,634.132,561.627,619.924,545.231z"/>
		</g>
		<path d="M824.755,533.208c0,0,22.019,7.871,58.712,6.558c0,0-16.05-48.212-24.216-42.631
			C846.773,505.665,829.158,526.649,824.755,533.208z"/>
		<path d="M895.401,485.114c0,0,7.614,10.011,4.191,28.451c0,0-17.922-16.767-16.29-20.731
			C884.927,488.873,891.148,485.348,895.401,485.114z"/>
		<path opacity="0.3" fill="#EDECED" d="M647.024,302.281c0,0-13.831-4.879-39.854,24.815c0,0-193.191-12.176-366.851,26.077
			c0,0-158.615,26.458-199.291-8.108c0,0,66.283-77.691,196.025-97.229C237.053,247.836,487.584,242.922,647.024,302.281z"/>
		<path opacity="0.2" fill="#EDECED" d="M316.005,267.271c0,0-2.76-1.383-8.973,4.141c0,0-40.04-7.593-77.313-4.141
			c0,0-33.827,1.38-41.423-6.904c0,0,15.876-14.496,43.492-15.188C231.788,245.18,284.252,250.704,316.005,267.271z"/>
		<path opacity="0.3" fill="#EDECED" d="M671.047,279.016c0,0-12.373-7.87-44.417,15.199c0,0-185.483-55.383-363.297-57.232
			c0,0-160.498-9.954-192.342-52.793c0,0,82.081-60.763,212.887-50.575C283.878,133.614,529.078,185.266,671.047,279.016z"/>
		<path opacity="0.2" fill="#EDECED" d="M348.93,172.42c0,0-2.607-1.659-9.351,3.197c0,0-39.054-11.658-76.487-12.046
			c0,0-33.79-2.096-40.495-11.115c0,0,17.282-12.792,44.818-10.648C267.416,141.807,319.038,152.682,348.93,172.42z"/>
	</g>
</g>
</svg>
