<?xml version="1.0" encoding="utf-8"?>
<!-- Generator: Adobe Illustrator 16.0.0, SVG Export Plug-In . SVG Version: 6.00 Build 0)  -->
<!DOCTYPE svg PUBLIC "-//W3C//DTD SVG 1.1//EN" "http://www.w3.org/Graphics/SVG/1.1/DTD/svg11.dtd">
<svg version="1.1" id="Layer_1" xmlns="http://www.w3.org/2000/svg" xmlns:xlink="http://www.w3.org/1999/xlink" x="0px" y="0px"
	 width="1000px" height="1000px" viewBox="0 0 1000 1000" enable-background="new 0 0 1000 1000" xml:space="preserve">
<path fill="#C61414" d="M469.64,290.654c173.695,0.018,348.396,0.035,522.096,0.052c2.396,12.917,0.338,25.957,1.073,38.915
	c0.248,4.354-2.021,5.085-5.653,4.992c-4.45-0.114-8.912,0.155-13.368,0.256c-55.559-0.077-111.115-0.179-166.674-0.224
	c-112.16-0.092-225.319-0.151-337.479-0.222C469.635,319.833,469.637,305.244,469.64,290.654z"/>
<path fill="#CEB78B" d="M470.635,334.423c112.158,0.071,224.316,0.13,336.479,0.222c55.559,0.044,111.114,0.147,166.674,0.224
	c-1.695,14.545,1.286,29.258-1.563,43.762c-1.034-0.075-2.073-0.216-3.112-0.216c-166.179,0.021-332.356,0.053-498.538,0.085
	c-0.001,0.002-0.063-0.098-0.06-0.098c-0.647-13.933,2.392-28.028-1.856-41.798C469.314,335.877,469.975,335.15,470.635,334.423z"/>
<path fill="#1E1F49" d="M62.238,309.446c0.052,9.519,0.104,19.038,0.161,28.555c-9.801,0.104-19.734,2.909-29.33-1.401
	C42.792,327.55,52.514,318.499,62.238,309.446z"/>
<path fill="#583C3B" d="M176.698,420.264c54.137-0.106,108.274-0.146,162.41-0.424c6.333-0.033,8.502,2.111,8.173,7.896
	c-0.454,7.946-0.354,15.93-0.486,23.893c-2.806,3.404-1.458,7.379-1.464,11.07c-0.092,60.811-0.204,121.614,0.1,182.424
	c0.041,7.967-1.955,11.954-11.023,11.7c-18.793-0.527-37.622,0.125-56.436,0.291c-33.738-0.205-67.477-0.408-101.215-0.613
	C176.736,578.087,176.717,498.674,176.698,420.264z"/>
<path fill="#590606" d="M473.613,738.479c-46.161-0.025-92.32-0.052-138.481-0.075c0.059-24.16,0.116-58.565,0.172-82.722
	c41.587-0.004,83.176,0,124.765-0.02c4.621-0.002,9.377,0.662,13.548-2.154c-0.001-0.004,0.43,0.406,0.426,0.406
	C473.899,678.681,473.755,713.704,473.613,738.479z"/>
<path fill="#714238" d="M179.694,420.264c0.019,78.41,0.038,156.822,0.057,235.236c-14.271,0.055-28.544,0.117-42.816,0.176
	c-0.003-74.832,0.126-149.666-0.192-224.496c-0.037-8.385,2.039-11.944,11.688-11.229
	C158.795,420.723,169.269,420.213,179.694,420.264z"/>
<path fill="#991111" d="M272.029,655.14c0.111,10.173-0.094,21.415,0.441,31.565c0.361,6.848-2.239,8.712-8.483,8.604
	c-18.153-0.316-36.316-0.082-54.477-0.066c-44.874-0.053-89.748-0.109-134.624-0.155c0.008-12.362,0.017-25.774,0.025-38.134
	c7.103-4.323,14.871-0.897,22.32-1.122c12.757-0.395,25.537-1.151,38.305-1.146c13.412-0.062,26.825-0.127,40.236-0.185
	C207.858,654.711,239.943,654.924,272.029,655.14z"/>
<path fill="#590606" d="M77.911,657.832c-0.008,11.754-0.018,23.508-0.028,35.264c-15.552,0.027-31.099,0.06-46.648,0.086
	c0.031-8.662,0.709-17.379-0.081-25.969c-0.879-9.551,3.064-12.234,12.153-11.377c6.654,0.629,13.434-0.014,20.161-0.092
	C68.305,656.314,73.596,653.84,77.911,657.832z"/>
<path fill="#BBD7D4" d="M763.451,544.912c-0.094-38.854,0.021-77.709-0.454-116.557c-0.098-7.976,3.9-7.968,9.636-7.953
	c38.161,0.09,76.322,0,114.485-0.033c0.211,41.459,0.425,82.918,0.64,124.377c-34.044,0.215-68.087,0.426-102.131,0.641
	C778.234,545.227,770.844,545.068,763.451,544.912z M812.315,531.869c18.938,0.219,37.876,0.395,56.813,0.699
	c4.379,0.065,6.218-1.763,6.146-6.146c-0.301-18.938-0.475-37.875-0.691-56.813c0.143-7.427,0.284-14.853,0.424-22.273
	c0.569-14.879,0.569-14.916-13.729-14.842c-3.793,0.018-7.586,0.32-11.375,0.494c-21.812-0.063-43.618,0.047-65.422-0.291
	c-6.749-0.104-9.178,2.313-9.069,9.063c0.338,21.806,0.229,43.613,0.295,65.42c-0.176,3.791-0.482,7.586-0.501,11.379
	c-0.071,14.316-0.037,14.316,14.843,13.729C797.469,532.152,804.892,532.01,812.315,531.869z"/>
<path fill="#BBD7D4" d="M554.777,544.938c-0.082-38.877,0.057-77.762-0.42-116.635c-0.103-8.063,3.988-7.91,9.66-7.896
	c38.189,0.086,76.379,0.006,114.563-0.021c0.209,41.451,0.416,82.906,0.624,124.361c-34.71,0.242-69.417,0.479-104.129,0.719
	C568.313,545.291,561.543,545.115,554.777,544.938z M666.087,469.619c0.142-7.438,0.284-14.871,0.427-22.31
	c0.52-14.848,0.52-14.885-13.771-14.813c-3.79,0.018-7.58,0.332-11.371,0.508c-21.896-0.067-43.788,0.088-65.673-0.338
	c-6.833-0.133-9.043,2.021-8.911,8.885c0.424,21.89,0.258,43.783,0.314,65.681c-0.151,3.784-0.425,7.569-0.438,11.356
	c-0.058,14.23-0.026,14.23,14.813,13.752c7.438-0.156,14.878-0.313,22.314-0.475c18.938,0.225,37.877,0.397,56.813,0.705
	c4.378,0.065,6.227-1.744,6.155-6.136C666.466,507.5,666.3,488.559,666.087,469.619z"/>
<path fill="#CEB78B" d="M906.697,556.307c-0.032,7.066-0.416,14.16-0.003,21.193c0.435,7.438-2.421,9.338-8.524,9.308
	c-42.188-0.211-84.378-0.238-126.563,0.022c-6.646,0.043-9.513-2.096-8.992-9.984c0.515-7.813,0.229-15.691,0.292-23.541
	c7.224,4.904,15.087,1.822,22.663,2.341C825.944,555.863,866.321,556.086,906.697,556.307z"/>
<path fill="#CEB78B" d="M698.172,556.031c-0.036,7.133-0.423,14.293-0.013,21.392c0.434,7.506-2.422,9.418-8.535,9.386
	c-42.235-0.215-84.474-0.256-126.709,0.031c-6.851,0.047-9.371-2.545-8.816-10.273c0.51-7.094,0.328-14.246,0.451-21.371
	c6.858,0.043,13.725,0.081,20.583,0.12C616.146,555.553,657.159,555.795,698.172,556.031z"/>
<path fill="#962020" d="M887.758,544.746c-0.215-41.459-0.429-82.918-0.64-124.377c19.446-1.064,19.457-1.064,19.44,18.504
	c-0.023,35.305-0.063,70.604-0.098,105.906C900.229,544.77,893.993,544.76,887.758,544.746z"/>
<path fill="#962020" d="M679.639,544.748c-0.221-41.455-0.441-82.91-0.663-124.361c20.659-1.104,20.67-1.104,20.655,18.482
	c-0.023,35.297-0.066,70.594-0.1,105.891C692.903,544.76,686.271,544.752,679.639,544.748z"/>
<path fill="#C11B1B" d="M679.207,544.748c6.242,0.004,12.484,0.012,18.726,0.012c4.821,0.109,9.655,0.474,14.459,0.256
	c5.005-0.225,6.594,1.892,6.525,6.718c-0.06,4.604-2.041,5.993-6.287,5.895c-4.813-0.117-9.64,0.178-14.458,0.299
	c-41.013-0.205-82.025-0.416-123.039-0.621c-0.021-3.942-0.037-7.891-0.055-11.836C609.79,545.227,644.497,544.99,679.207,544.748z"
	/>
<path fill="#C11B1B" d="M887.758,544.746c6.235,0.014,12.475,0.021,18.706,0.033c4.828,0.102,9.667,0.461,14.479,0.235
	c5.016-0.229,6.588,1.882,6.523,6.72c-0.059,4.616-2.044,5.989-6.295,5.891c-4.815-0.115-9.646,0.195-14.476,0.32
	c-40.376-0.191-80.753-0.39-121.129-0.578c0.021-3.994,0.041-7.986,0.059-11.98C819.671,545.172,853.714,544.961,887.758,544.746z"
	/>
<path fill="#B72C2C" d="M790.141,630.486c-5.205,0.004-10.415,0.069-15.623-0.019c-6.093-0.102-8.966-4.715-9.151-9.399
	c-0.193-4.896,2.662-9.283,9.004-9.229c11.109,0.103,22.221-0.092,33.329,0.084c5.765,0.092,9.021,3.336,9.063,9.166
	c0.035,5.814-3.15,9.099-8.913,9.338C801.955,630.676,796.045,630.482,790.141,630.486z"/>
<path fill="#B72C2C" d="M544.965,611.857c5.188-0.009,10.385,0.2,15.562-0.063c6.206-0.317,9.034,3.447,9.748,8.564
	c0.719,5.178-2.757,9.256-7.538,9.504c-12.038,0.621-24.156,0.592-36.193-0.076c-4.544-0.252-8.321-3.453-7.753-9.228
	c0.575-5.827,3.906-8.594,9.577-8.682C533.896,611.797,539.432,611.865,544.965,611.857z"/>
<path fill="#B72C2C" d="M935.683,413.869c-7.674-0.752-13.795,0.272-20.009-1.574c-6.014-1.789-7.398-5.248-6.979-10.725
	c0.484-6.333,4.813-6.646,9.6-6.621c10.359,0.047,20.735,0.369,31.072-0.115c6.772-0.314,9.455,3.203,10.351,8.879
	c0.945,5.998-4.086,7.99-8.109,8.918C945.987,413.926,939.993,413.598,935.683,413.869z"/>
<path fill="#7F2F2F" d="M785.627,545.387c-0.018,3.994-0.038,7.986-0.059,11.98c-7.578-0.457-15.441,2.256-22.665-2.063
	c0.182-3.469,0.355-6.934,0.544-10.396C770.844,545.068,778.234,545.227,785.627,545.387z"/>
<path fill="#7F2F2F" d="M579.434,545.467c0.021,3.945,0.042,7.894,0.066,11.836c-8.317-0.037-16.637-0.072-24.95-0.106
	c0.09-4.089,0.178-8.173,0.274-12.261C563.026,545.115,571.232,545.291,579.434,545.467z"/>
<path fill="#991111" d="M31.231,691.403c15.217-0.027,30.433-0.061,45.653-0.089c44.423,0.049,88.843,0.104,133.264,0.154
	c-0.161,12.234-0.322,34.86-0.486,47.091c-64.526,0.084-129.047,0.084-193.567,0.38c-6.7,0.027-9.826-1.959-8.859-9.133
	c0.095-0.709,0.015-1.443,0.009-2.158C7.042,702.255,7.042,691.858,31.231,691.403z"/>
<path fill="#B0E1ED" d="M790.048,532.291c-14.883,0.59-14.917,0.59-14.846-13.727c0.019-3.793,0.325-7.591,0.497-11.377
	c3.313,0.493,4.986-1.984,6.912-3.904c21.146-21.107,42.271-42.232,63.383-63.375c1.921-1.922,4.396-3.604,3.904-6.918
	c3.787-0.174,7.58-0.479,11.375-0.494c14.302-0.074,14.302-0.037,13.732,14.84C845.854,474.818,817.547,503.148,790.048,532.291z"/>
<path fill="#5CCAE8" d="M849.898,432.99c0.49,3.313-1.983,4.996-3.904,6.918c-21.109,21.143-42.234,42.268-63.383,63.375
	c-1.924,1.92-3.602,4.397-6.912,3.901c-0.063-21.809,0.047-43.616-0.291-65.422c-0.105-6.752,2.32-9.17,9.067-9.063
	C806.281,433.037,828.091,432.928,849.898,432.99z"/>
<path fill="#B0E1ED" d="M874.582,469.611c0.22,18.938,0.394,37.875,0.691,56.813c0.069,4.385-1.77,6.213-6.146,6.146
	c-18.938-0.308-37.874-0.48-56.811-0.695c8.228-12.879,20.336-22.158,30.931-32.789
	C853.355,488.941,862.186,477.346,874.582,469.611z"/>
<path fill="#5CCAE8" d="M874.582,469.611c-12.396,7.731-21.227,19.33-31.334,29.473c-10.595,10.631-22.703,19.91-30.931,32.789
	c-7.429,0.137-14.852,0.279-22.271,0.418c27.499-29.143,55.808-57.473,84.961-84.955
	C874.866,454.762,874.725,462.188,874.582,469.611z"/>
<path fill="#B0E1ED" d="M641.368,433.006c3.791-0.176,7.581-0.49,11.371-0.508c14.291-0.07,14.291-0.033,13.771,14.813
	c-29.229,27.457-57.564,55.81-85.035,85.029c-14.843,0.48-14.874,0.48-14.813-13.75c0.015-3.787,0.285-7.572,0.437-11.354
	c3.266,0.473,4.964-1.925,6.877-3.836c21.191-21.164,42.37-42.341,63.528-63.533C639.408,437.957,641.854,436.289,641.368,433.006z"
	/>
<path fill="#5CCAE8" d="M641.368,433.006c0.483,3.283-1.96,4.951-3.864,6.857c-21.158,21.192-42.337,42.369-63.528,63.533
	c-1.913,1.911-3.611,4.309-6.877,3.836c-0.057-21.896,0.109-43.793-0.313-65.683c-0.132-6.86,2.078-9.018,8.911-8.885
	C597.58,433.094,619.476,432.938,641.368,433.006z"/>
<path fill="#B0E1ED" d="M666.087,469.619c0.213,18.938,0.379,37.881,0.675,56.818c0.068,4.391-1.777,6.2-6.156,6.135
	c-18.937-0.308-37.875-0.48-56.812-0.699c13.738-18.592,31.853-33.006,47.644-49.639
	C655.844,477.596,659.515,471.844,666.087,469.619z"/>
<path fill="#EE5132" d="M255.889,72.179c50.266-0.098,100.534-0.267,150.798-0.278c71.423-0.016,142.843,0.083,214.263,0.134
	c-0.024,4.507,0.55,9.114-0.173,13.507c-4.396,26.659,3.941,47.838,26.215,63.483c6.951,4.883,10.597,13.784,19.521,16.378
	c1.093,5.605,5.571,4.207,9.136,4.224c19.078,0.091,38.173-0.353,57.231,0.224c8.493,0.257,11.377-2.071,11.229-10.932
	c-0.498-29.129-0.123-58.275-0.084-87.414c24.212-4.831,39.189,8.669,54.869,24.694c61.473,62.818,124.01,124.595,186.116,186.79
	c2.405,2.407,4.487,5.136,6.724,7.717c-173.697-0.017-347.397-0.034-521.094-0.052c-0.596-0.348-1.301-0.588-1.771-1.062
	c-70.251-70.155-140.487-140.327-210.721-210.498C256.226,77.176,253.609,75.474,255.889,72.179z M732.427,246.898
	c-10.065,0-20.142,0.021-30.212-0.008c-6.255-0.017-11.687,2.259-11.967,8.874c-0.31,7.325,5.269,9.866,11.967,9.872
	c19.448,0.021,38.896,0.002,58.35,0.009c6.224,0.002,11.692-2.22,11.977-8.867c0.314-7.359-5.325-9.829-11.979-9.867
	C751.183,246.855,741.806,246.896,732.427,246.898z M825.305,209.375c9.688,0,19.374-0.113,29.063,0.042
	c6.021,0.097,11.744-0.776,12.245-7.959c0.48-6.938-5.415-10.228-10.811-10.394c-20.729-0.638-41.503-0.608-62.244-0.114
	c-5.373,0.128-10.025,4.233-9.416,10.245c0.599,5.824,4.741,8.53,11.072,8.281C805.23,209.083,815.273,209.372,825.305,209.375z
	 M461.537,153.063c10.029,0,20.058-0.028,30.087,0.011c5.534,0.021,9.774-2.07,10.147-7.962c0.386-6.089-3.391-10.332-9.214-10.45
	c-20.733-0.421-41.49-0.435-62.229-0.007c-5.343,0.11-10.203,2.896-9.573,9.806c0.589,6.473,4.695,8.668,10.693,8.623
	C441.48,153.01,451.509,153.063,461.537,153.063z M543.724,213.564c10.395,0,20.784-0.009,31.18,0.003
	c6.021,0.007,10.539-2.336,10.237-8.885c-0.27-5.902-4.698-7.898-10.222-7.89c-20.785,0.035-41.57,0.063-62.354-0.009
	c-5.446-0.02-8.402,2.043-8.531,7.872c-0.135,6.043,2.249,9.03,8.514,8.943C522.938,213.453,533.331,213.559,543.724,213.564z"/>
<path fill="#C61414" d="M470.635,334.423c-0.66,0.727-1.317,1.454-1.979,2.182c-2.854-2.501-5.855-4.848-8.532-7.521
	c-67.3-67.244-134.646-134.444-201.704-201.93c-5.833-5.87-8.757-6.805-15.145-0.354C186.116,184.545,128.53,241.863,71.113,299.35
	c-3.16,3.164-5.925,6.723-8.875,10.097c-9.724,9.053-19.445,18.104-29.169,27.154c-0.183-13.525-0.28-27.052-0.596-40.573
	c-0.099-4.231,1.845-7.053,4.689-9.898c69.73-69.729,139.391-139.527,209.093-209.286c2.623-2.626,4.969-6.125,9.635-4.664
	c-2.281,3.294,0.336,4.997,2.257,6.917c70.234,70.171,140.47,140.343,210.721,210.498c0.473,0.473,1.178,0.713,1.771,1.062
	C470.638,305.244,470.636,319.833,470.635,334.423z"/>
<path fill="#CEB78B" d="M62.238,309.446c2.949-3.375,5.715-6.934,8.875-10.097c57.417-57.487,115.003-114.805,172.161-172.548
	c6.388-6.453,9.312-5.518,15.145,0.352c67.058,67.486,134.404,134.686,201.704,201.93c2.677,2.674,6.682,5.02,9.533,7.521
	c4.249,13.77,0.208,27.865,0.855,41.798c-5.046-0.608-7.45-4.845-10.559-7.946c-67.276-67.174-134.579-134.322-201.572-201.778
	c-6.528-6.574-10.092-7.319-17.005-0.251C186.09,224.949,130.386,281.062,74.737,337.23c-3.071,3.098-5.447,7.429-10.646,7.694
	c-0.563-2.31-1.125-4.619-1.694-6.923C62.342,328.484,62.29,318.965,62.238,309.446z"/>
<path fill="#990707" d="M764.882,17.516c-0.164-5.027-1.473-6.739-6.492-6.679c-30.517,0.365-62.032,0.446-92.554,0.621
	c-0.023,7.743-0.049,15.485-0.073,23.228c0.33,0,0.665,0,0.996,0l-0.105,0.11c-0.034,6.414-0.071,12.828-0.108,19.24
	c-0.009,38.418-0.019,76.837-0.027,115.254c1.088,5.746,5.567,4.312,9.131,4.33c19.08,0.093,38.172-0.361,57.232,0.229
	c8.494,0.263,12.377-2.124,12.229-11.207c-0.498-29.863-0.123-59.742-0.084-89.613c-0.089-12.775-0.179-25.55-0.269-38.324
	c-0.331,0-0.666,0-0.998,0c2.013-2.013,4.563-1.275,6.914-1.343C765.628,32.941,765.39,32.973,764.882,17.516z"/>
<path fill="#BA3220" d="M664.96,34.209c0.565,0,1.132,0,1.698-0.001c-0.003,0,2.106-0.109,2.106-0.107
	c0.024-7.553-1.952-15.105-1.929-22.658c-17.865-0.143-35.732-0.314-53.598-0.399c-2.949-0.013-5.931-0.674-6.792,4.062
	c-2.148,11.794,0.644,16.229,12.059,17.664c0.902,0.112,1.712,0.961,2.565,1.469c0.094,0,0.188,0,0.279,0
	c-0.132,7.405-0.266,14.809-0.398,22.213c-0.026,5.26,0.55,10.637-0.173,15.763c-4.396,31.108-2.319,57.908,19.952,76.164
	c6.947,5.697,18.944,16.085,27.875,19.112c0.006-43.728,0.015-89.545,0.021-133.276C667.419,34.237,666.192,34.229,664.96,34.209z"
	/>
<path fill="#CC1215" d="M731.934,246.796c10.23-0.001,20.459-0.045,30.687,0.015c7.259,0.042,13.411,2.735,13.067,10.762
	c-0.307,7.251-6.275,9.675-13.067,9.673c-21.214-0.006-42.428,0.012-63.646-0.011c-7.307-0.006-13.389-2.778-13.053-10.768
	c0.305-7.215,6.229-9.698,13.053-9.68C709.963,246.82,720.951,246.797,731.934,246.796z"/>
<path fill="#CC1215" d="M822.85,210.544c-11.754-0.002-23.524-0.34-35.266,0.12c-7.42,0.292-12.279-2.879-12.978-9.706
	c-0.714-7.046,4.739-11.857,11.036-12.007c24.309-0.58,48.655-0.614,72.95,0.133c6.324,0.195,13.233,4.051,12.671,12.183
	c-0.588,8.419-7.294,9.441-14.352,9.328C845.555,210.415,834.203,210.546,822.85,210.544z"/>
<path fill="#CC1215" d="M461.571,154.665c-11.265,0-22.53-0.061-33.794,0.023c-6.739,0.05-11.351-2.415-12.012-9.686
	c-0.708-7.761,4.751-10.892,10.754-11.016c23.293-0.48,46.609-0.465,69.902,0.008c6.541,0.132,10.783,4.897,10.349,11.738
	c-0.418,6.619-5.181,8.966-11.398,8.944C484.102,154.634,472.837,154.665,461.571,154.665z"/>
<path fill="#CC1215" d="M539.465,215.249c-12.004-0.002-24.008-0.124-36.008,0.044c-7.236,0.101-9.984-3.349-9.833-10.329
	c0.149-6.732,3.563-9.115,9.853-9.092c24.002,0.082,48.008,0.051,72.017,0.011c6.378-0.011,11.495,2.295,11.806,9.112
	c0.347,7.563-4.873,10.271-11.823,10.262C563.47,215.243,551.467,215.252,539.465,215.249z"/>
<path fill="#F8F2D8" d="M470.57,378.502l-0.063-0.1c-5.042-0.608-7.446-4.845-10.555-7.946
	c-67.276-67.174-134.579-134.322-201.572-201.778c-6.528-6.574-10.092-7.319-17.005-0.251
	C186.09,224.949,130.386,281.062,74.737,337.23c-3.071,3.098-5.447,7.429-10.646,7.694c-0.032,61.752-0.034,123.502-0.174,185.254
	c-0.008,3.646,1.435,7.619-1.35,10.979c0.071,38.192,0.143,76.393,0.214,114.59c4.728,0.57,9.907-1.904,14.129,2.088
	c7.031-4.111,14.72-1.852,22.094-2.068c12.628-0.375,25.278-0.094,37.917-0.088c-0.004-74.832,0.117-149.666-0.179-224.496
	c-0.034-8.385,1.897-11.944,10.873-11.229c9.642,0.771,19.384,0.264,29.083,0.313c50.964-0.106,101.928-0.146,152.891-0.424
	c5.962-0.033,8.004,2.111,7.694,7.896c-0.428,7.946-0.332,15.93-0.46,23.896c0.105,61.385,0.212,122.771,0.33,184.15
	c0.014,7.285,0.095,14.563,0.146,21.848c40.091-0.004,80.186,0,120.273-0.02c4.456-0.002,9.04,0.646,13.062-2.104
	C470.61,563.172,470.59,470.836,470.57,378.502z"/>
<path fill="#5CCAE8" d="M666.087,469.619c-6.572,2.225-10.243,7.977-14.649,12.615c-15.791,16.633-33.902,31.047-47.644,49.639
	c-7.44,0.152-14.878,0.313-22.315,0.469c27.471-29.225,55.81-57.574,85.035-85.031C666.371,454.748,666.229,462.184,666.087,469.619
	z"/>
<path fill="#B72C2C" d="M414.082,557.723c4.86,0,9.741,0.273,14.576-0.065c6.127-0.437,9.42,2.969,10.146,8.166
	c0.806,5.752-3.784,9.729-8.454,10.08c-11.734,0.869-23.598,0.709-35.372,0.146c-5.801-0.277-7.668-4.938-7.625-10.512
	c0.044-5.521,3.563-7.355,7.99-7.631c6.228-0.386,12.491-0.101,18.74-0.101C414.082,557.781,414.082,557.752,414.082,557.723z"/>
<path opacity="0.3" fill="#010101" enable-background="new    " d="M506.923,887.086c178.551,0,323.328,22.359,323.328,49.955
	s-144.777,49.955-323.328,49.955c-178.55,0-323.31-22.359-323.31-49.955S328.373,887.086,506.923,887.086z"/>
<g id="Layer_1_1_" display="none">
	<g display="inline">
		<g>
			<path opacity="0.2" fill="#010101" enable-background="new    " d="M883.458,650.888H122.486c0,0-103.073-15.01-108.374-120.368
				c0,0-36.849-156.293,149.288-184.388c0,0-73.77-219.514,166.818-309.066c0,0,201.926-59.704,300.292,151.029
				c0,0,87.796-64.99,187.869-1.749c0,0,87.813,59.68,59.729,173.843c0,0,112.384,15.799,115.896,151.029
				C994.02,511.201,1004.671,604.444,883.458,650.888z"/>
			<path fill="#FFFFFF" d="M878.026,634.626H117.071c0,0-103.09-15.025-108.35-120.368c0,0-36.864-156.289,149.264-184.371
				c0,0-73.746-219.506,166.819-309.075c0,0,201.942-59.695,300.291,151.029c0,0,87.78-64.973,187.901-1.748
				c0,0,87.765,59.696,59.697,173.86c0,0,112.383,15.806,115.895,151.004C988.588,494.924,999.239,588.199,878.026,634.626z"/>
			<path opacity="0.2" fill="#010101" enable-background="new    " d="M159.05,623.438h675.104c0,0,91.455-13.334,96.139-106.787
				c0,0,32.717-138.664-132.434-163.573c0,0,65.437-194.74-148.015-274.217c0,0-179.161-52.972-266.411,133.995
				c0,0-77.885-57.648-166.688-1.562c0,0-77.908,52.964-52.964,154.241c0,0-99.715,14.042-102.829,133.961
				C60.969,499.494,51.513,582.232,159.05,623.438z"/>
			<path fill="#FFFFFF" d="M163.88,609.047H839c0,0,91.421-13.058,96.104-104.479c0,0,32.701-135.636-132.434-160.012
				c0,0,65.436-190.495-147.995-268.226c0,0-179.145-51.809-266.412,131.06c0,0-77.917-56.396-166.721-1.512
				c0,0-77.893,51.809-52.98,150.882c0,0-99.715,13.708-102.813,131.063C65.783,487.801,56.31,568.751,163.88,609.047z"/>
			<path fill="#E4E6ED" d="M337.293,675.508c25,0,45.271,20.262,45.271,45.272c0,25.01-20.271,45.271-45.271,45.271
				c-25.002,0-45.281-20.261-45.281-45.271C292.012,695.77,312.291,675.508,337.293,675.508z"/>
			<path fill="#C2C4CE" d="M356.708,683.247c9.726,7.563,16.035,19.4,16.035,32.687c0,22.831-18.53,41.369-41.361,41.369
				c-7.408,0-14.351-1.951-20.384-5.382c6.992,5.431,15.773,8.666,25.328,8.666c22.847,0,41.345-18.521,41.345-41.337
				C377.686,703.818,369.246,690.338,356.708,683.247z"/>
			<path fill="#E4E6ED" d="M501.932,716.665c25.014,0,45.272,20.278,45.272,45.288c0,24.994-20.262,45.271-45.272,45.271
				c-25.01,0-45.277-20.274-45.277-45.271C456.651,736.943,476.921,716.665,501.932,716.665z"/>
			<path fill="#C2C4CE" d="M521.348,724.39c9.741,7.609,16.021,19.448,16.021,32.721c0,22.831-18.538,41.353-41.369,41.353
				c-7.407,0-14.334-1.936-20.359-5.35c6.992,5.415,15.769,8.648,25.32,8.648c22.863,0,41.351-18.538,41.351-41.337
				C542.308,744.943,533.854,731.48,521.348,724.39z"/>
			<path fill="#E4E6ED" d="M666.514,689.248c24.994,0,45.272,20.278,45.272,45.271c0,24.994-20.278,45.272-45.272,45.272
				c-24.992,0-45.288-20.278-45.288-45.272C621.226,709.526,641.521,689.248,666.514,689.248z"/>
			<path fill="#C2C4CE" d="M685.962,696.956c9.74,7.578,16.019,19.416,16.019,32.687c0,22.85-18.507,41.354-41.366,41.354
				c-7.399,0-14.346-1.938-20.359-5.334c6.978,5.396,15.789,8.651,25.303,8.651c22.896,0,41.388-18.51,41.388-41.339
				C706.924,717.527,698.469,704.046,685.962,696.956z"/>
		</g>
		<path opacity="0.3" fill="#010101" enable-background="new    " d="M506.923,887.086c178.551,0,323.328,22.359,323.328,49.955
			s-144.777,49.955-323.328,49.955c-178.55,0-323.31-22.359-323.31-49.955S328.373,887.086,506.923,887.086z"/>
	</g>
</g>
<path fill="#490303" d="M287.735,656.5c0,0-11.151-0.443-16.726-0.391c0.111,9.674-0.095,19.366,0.444,29.018
	c0.362,6.512-2.251,8.286-8.529,8.182c-18.251-0.301-36.513-0.077-54.77-0.061c-0.164,11.773-0.326,33.553-0.494,45.326
	c43.153-0.062,86.311-0.117,129.468-0.172c0.059-23.588,0.113-57.187,0.168-80.773c-0.002-0.376-0.006-0.753-0.009-1.129H287.735z"
	/>
<path fill="#E8D4A2" d="M968.5,378.415c-165.975,0.021-331.951,0.053-497.93,0.085c0.02,92.336,0.041,184.672,0.062,277.004
	l0.411,0.4c137.66-0.062,275.318-0.123,412.979-0.164c2.713,0,5.608-0.572,7.854,1.705c13.775,1.369,48.883,2.213,71.78,1.717
	c1.938-0.042,3.531-0.515,4.845-1.354L968.5,378.415L968.5,378.415z M562.733,629.867c-12.038,0.621-24.156,0.592-36.193-0.076
	c-4.544-0.252-8.321-3.455-7.753-9.229c0.575-5.826,3.906-8.593,9.577-8.681c5.535-0.086,11.066-0.018,16.601-0.018
	c5.188-0.015,10.385,0.194,15.56-0.066c6.204-0.319,9.034,3.447,9.748,8.564C570.99,625.541,567.516,629.619,562.733,629.867z
	 M712.63,557.629c-4.813-0.117-9.64,0.178-14.46,0.297c-0.034,6.234-0.421,12.49-0.011,18.689c0.434,6.557-2.422,8.227-8.535,8.201
	c-42.235-0.189-84.474-0.226-126.709,0.024c-6.851,0.041-9.371-2.223-8.816-8.977c0.508-6.195,0.328-12.445,0.452-18.67
	c0.073-4.088,0.146-8.172,0.22-12.261c-0.072-38.875,0.065-77.76-0.41-116.633c-0.103-8.061,3.989-7.91,9.662-7.896
	c38.189,0.085,76.378,0.004,114.563-0.021c19.444-1.104,19.454-1.104,19.44,18.482c-0.024,35.297-0.063,70.594-0.094,105.891
	c4.821,0.109,9.655,0.472,14.459,0.258c5.005-0.223,6.59,1.892,6.525,6.718C718.857,556.338,716.876,557.73,712.63,557.629z
	 M807.847,630.426c-5.892,0.248-11.802,0.058-17.706,0.058c-5.205,0.008-10.415,0.075-15.624-0.016
	c-6.091-0.1-8.965-4.713-9.151-9.399c-0.193-4.896,2.662-9.284,9.004-9.229c11.109,0.103,22.221-0.092,33.329,0.084
	c5.764,0.092,9.021,3.336,9.063,9.166C816.795,626.904,813.608,630.188,807.847,630.426z M921.173,557.624
	c-4.819-0.117-9.648,0.195-14.476,0.318c-0.032,6.229-0.416,12.477-0.004,18.67c0.436,6.55-2.42,8.223-8.523,8.194
	c-42.188-0.184-84.378-0.209-126.566,0.021c-6.642,0.037-9.51-1.846-8.989-8.793c0.515-6.881,0.229-13.82,0.294-20.734
	c0.18-3.466,0.354-6.931,0.536-10.396c-0.084-38.849,0.03-77.703-0.444-116.552c-0.096-7.975,3.902-7.967,9.636-7.952
	c38.161,0.09,76.322,0,114.485-0.031c19.447-1.066,19.457-1.066,19.439,18.502c-0.024,35.303-0.064,70.604-0.097,105.906
	c4.828,0.102,9.667,0.461,14.479,0.234c5.015-0.229,6.589,1.88,6.524,6.72C927.409,556.354,925.424,557.727,921.173,557.624z
	 M951.605,412.631c-5.616,1.295-11.61,0.967-15.924,1.238c-7.674-0.752-13.795,0.274-20.011-1.574
	c-6.012-1.789-7.397-5.248-6.979-10.725c0.486-6.333,4.813-6.646,9.6-6.621c10.359,0.047,20.735,0.369,31.072-0.115
	c6.774-0.313,9.455,3.203,10.351,8.879C960.663,409.711,955.63,411.703,951.605,412.631z"/>
<path fill="#490303" d="M968.5,655.604c-16.31,1.002-82.107,0.14-84.646,0.14c-137.936,0.041-275.87,0.104-413.809,0.162
	c-0.14,24.184-0.28,58.385-0.417,82.573c2.418,0.166,4.836,0.48,7.254,0.482c131.013,0.016,262.023,0.01,393.036-0.014
	c2.205,0,82.359-0.22,98.582-0.363V655.604z"/>
<path fill-rule="evenodd" clip-rule="evenodd" fill="#825E20" d="M173.156,549.694c14.449,0.868,27.224-3.702,38.459-12.462
	c22.419-17.482,29.341-48.427,16.715-73.551c-12.963-25.79-41.699-38.805-69.331-31.187c-13.781,3.798-24.86,11.655-33.231,23.299
	c-0.734,1.022-0.95,2.577-2.531,2.875l0.012-0.09c0.623,0.393,0.028,0.609-0.129,0.887c0.262,0.701,0.523,1.404,0.785,2.105
	c2.131,1.071,2.149,2.955,1.903,4.942c1.951,3.011,2.175,6.648,3.569,9.86c4.942-0.153,7.962,1.502,8.912,4.884
	c1.083,3.845-0.327,6.998-4.636,9.321c-1.603,0.862-1.599,1.919-1.54,3.298c0.563,12.874-4.898,22.567-15.594,29.491
	c-0.661,14.217,7.771,23.614,17.209,32.478c2.203-2.625,5.504-2.387,8.397-3.218c-0.79-4.05-1.185-8.113-0.625-12.671
	c5.739,3.558,11.417,6.258,17.556,7.888c2.135-0.894,3.318-2.891,5.004-4.305c1.168-0.98,2.374-2.271,2.048-3.663
	c-0.354-1.508-2.193-1.771-3.648-2.046c-4.379-0.823-8.799-0.861-13.237-0.738c-2.444,0.068-6.012,1.874-7.067-0.159
	c-1.346-2.595,1.033-5.825,1.861-8.769c0.261-0.926,0.916-1.369,1.898-1.465c8.661-0.844,17.246-0.776,25.32,2.979
	c5.999,2.791,8.061,9.931,4.748,15.687C175.126,546.856,174.104,548.254,173.156,549.694z"/>
<path fill-rule="evenodd" clip-rule="evenodd" fill="#252626" d="M148.714,586.369c-5.664,2.976-12.005,3.827-18.02,5.695
	c-7.415,2.306-14.919,4.33-22.381,6.474c1.048,2.999,3.102,5.209,5.73,6.719c1.768,1.014,1.688,1.936,0.974,3.551
	c-2.725,6.15-5.668,12.233-7.89,18.58c-5.664,16.181-3.567,32.076,2.911,47.738c1.824,4.408,3.212,8.998,4.801,13.506
	c2.909-3.005,7.849-1.913,10.759-4.919c-1.96-5.309-6.076-14.675-7.888-20.036c-4.076-12.065-3.676-24.022,1.06-35.691
	c2.577-6.353,5.572-12.525,8.249-18.836c0.678-1.597,1.73-2.591,3.264-2.48c1.629,0.118,11.688-4.238,13.238-5.625
	C147.795,597.221,149.911,592.366,148.714,586.369z"/>
<path fill-rule="evenodd" clip-rule="evenodd" fill="#F2AC77" d="M101.166,527.693c5.388-0.487,10.548-1.781,15.356-4.324
	c10.694-6.924,16.155-16.617,15.593-29.491c-0.06-1.379-0.063-2.437,1.54-3.298c4.309-2.323,5.718-5.476,4.636-9.321
	c-0.95-3.381-3.97-5.037-8.912-4.884c-0.402,0.743,0.082,1.416,0.14,2.123c0.22,2.677-0.99,3.366-3.802,2.234
	c-0.853,2.137-1.395,4.739-3.713,5.604c-5.75,2.147-11.433,4.82-17.858,4.119c0.284,2.668,0.125,5.386-2.813,6.348
	c-3.195,1.045-4.886-1.146-6.021-3.811c-3.94,3.55-9.205,3.679-13.866,5.363c-3.115,1.125-6.021,0.763-8.554-1.527
	c-4.88,1.962-5.292,1.767-6.467-3.053c-1.149,0.918-2.424,1.717-3.426,2.776c-2.279,2.41-2.641,5.39-1.297,8.251
	c1.289,2.744,3.797,4.354,6.91,4.004c2.141-0.24,2.991,0.63,3.96,2.306C78.921,522.065,88.538,527.508,101.166,527.693z"/>
<path fill-rule="evenodd" clip-rule="evenodd" fill="#30302F" d="M126.904,469.052c-0.257-0.683-0.513-1.366-0.771-2.048
	c-0.068-0.304-0.6-0.669,0.145-0.868l-0.013,0.088c-2.313-2.452-3.546-5.618-5.909-8.078c-9.628-10.017-25.284-12.723-38.016-6.412
	c-13.036,6.459-20.233,20.072-17.729,33.532c1.776,2.456,3.977,0.603,5.745,0.102C89.23,480.022,108.061,474.515,126.904,469.052z"
	/>
<path fill-rule="evenodd" clip-rule="evenodd" fill="#121844" d="M128.063,683.382c-4.158,0.216-8.314,0.433-12.471,0.649
	c-3.315,0.215-6.639,0.365-9.949,0.659c-3.871,0.346-6.152,2.978-5.903,6.641c0.236,3.459,2.593,5.211,6.762,4.95
	c4.67-0.295,9.337-0.646,14.004-0.967c6.635-0.456,8.136-2.078,8.013-8.709C128.5,685.517,128.709,684.388,128.063,683.382z"/>
<path fill-rule="evenodd" clip-rule="evenodd" fill="#EEAC78" d="M149.545,566.28c-1.633-3.117-2.403-6.544-3.531-9.843
	c-1.355-1.21-2.921-2.203-3.887-3.809c-2.894,0.831-6.194,0.593-8.397,3.218c-1.744,2.738-1.638,5.538-0.421,8.451
	c0.757,1.811,1.474,3.661,1.946,5.561c0.917,3.68,3.213,5.662,6.905,6.147c4.755-0.357,7.022-3.397,8.206-7.608
	C150.091,567.691,149.819,566.985,149.545,566.28z"/>
<path fill-rule="evenodd" clip-rule="evenodd" fill="#84632D" d="M150.365,568.397c-1.184,4.211-3.45,7.251-8.206,7.608
	c0.343,1.18,0.7,2.355,1.023,3.539c0.673,2.478,1.976,3.597,4.509,2.139c3.792-2.239,7.584-4.479,11.628-6.868
	C156.275,572.634,153.32,570.514,150.365,568.397z"/>
<path fill-rule="evenodd" clip-rule="evenodd" fill="#30302F" d="M68.127,482.914c-1.555-0.072-2.862,0.641-4.177,1.323
	c0.824,3.179,1.65,6.359,2.474,9.539c1.174,4.819,1.587,5.015,6.47,3.055C70.063,492.621,69.787,487.53,68.127,482.914z"/>
<path fill-rule="evenodd" clip-rule="evenodd" fill="#30302F" d="M125.75,466.533c-1.328,0.669-2.654,1.337-3.98,2.007
	c1.4,4.037,1.917,8.35,3.811,12.235c2.854,1.119,4.088,0.422,3.878-2.258c-0.056-0.708-0.544-1.379-0.131-2.126
	C127.926,473.181,127.718,469.539,125.75,466.533z"/>
<path fill-rule="evenodd" clip-rule="evenodd" fill="#FEFEFE" d="M123.249,458.58c-0.73,0.193-0.202,0.573-0.131,0.886
	C123.277,459.189,123.872,458.973,123.249,458.58z"/>
<path fill-rule="evenodd" clip-rule="evenodd" fill="#121844" d="M125.715,480.732c-1.882-3.888-2.413-8.197-3.811-12.235
	c-2.009-1.611-3.78,0.179-5.457,0.644c-16.141,4.466-32.223,9.15-48.319,13.771c1.658,4.618,1.934,9.709,4.766,13.919
	c2.53,2.288,5.436,2.65,8.551,1.525c4.661-1.685,9.926-1.813,13.866-5.363c2.755-6.918,2.755-6.918,8.833-2.538
	c6.426,0.701,12.108-1.972,17.858-4.119C124.32,485.471,124.863,482.869,125.715,480.732z M111.259,483.499
	c-1.532,0.878-3.093,0.764-4.572-0.04c-0.968-0.526-2.067-1.273-2.025-2.441c0.047-1.333,1.51-0.947,2.351-1.257
	c1.493-0.55,3.062-0.895,4.571-1.406c2.197-0.745,2.703,0.167,2.171,2.133C113.383,481.862,112.579,482.9,111.259,483.499z
	 M84.894,491.006c-1.121,0.58-2.299,0.858-3.52,0.441c-1.413-0.481-3.007-1.177-3.05-2.766c-0.042-1.58,1.839-1.162,2.849-1.606
	c1.212-0.531,2.539-0.85,3.848-1.095c0.756-0.143,1.662-0.94,2.322-0.081c0.548,0.712,0.157,1.648-0.092,2.458
	C86.874,489.592,86.003,490.416,84.894,491.006z"/>
<path fill-rule="evenodd" clip-rule="evenodd" fill="#723927" d="M104.144,490.456c-6.078-4.38-6.078-4.38-8.833,2.538
	c1.135,2.665,2.826,4.855,6.021,3.811C104.269,495.842,104.428,493.124,104.144,490.456z"/>
<path fill-rule="evenodd" clip-rule="evenodd" fill="#252626" d="M137.292,604.785c6.729,7.175,12.522,15.213,20.063,21.637
	c10.601,9.029,22.731,14.535,36.642,16.018c4.402,0.468,8.785,1.108,13.177,1.67c2.153-3.77,6.102-6.065,8.141-9.928
	c-6.821-0.947-13.623-2.064-20.466-2.809c-14.699-1.598-26.526-8.554-36.364-19.219c-4.667-5.062-9.035-10.396-13.636-15.522
	C143.512,595.142,136.53,603.973,137.292,604.785z"/>
<path fill-rule="evenodd" clip-rule="evenodd" fill="#121844" d="M191.919,650.492c2.827,6.577,5.321,7.356,11.563,3.609
	c2.939-1.765,5.877-3.533,8.815-5.302c7.648-4.601,7.933-5.554,3.97-13.293c-0.643-0.642-0.596-2.289-2.209-1.513
	c-3.346,2.806-7.87,3.441-11.287,6.118c-1.368,2.348-3.94,3.09-6.078,4.309C194.188,645.849,192.466,647.645,191.919,650.492z"/>
<path fill-rule="evenodd" clip-rule="evenodd" fill="#121844" d="M135.062,491.968c0,0-64.511,17.341-63.527,19.083
	c6.438,11.386,16.42,17.179,29.671,17.637c5.666-0.387,11.108-1.606,16.208-4.118c11.369-6.887,17.302-16.728,16.977-29.965
	C134.366,493.558,134.374,492.692,135.062,491.968z"/>
<rect x="78.541" y="486.421" transform="matrix(0.963 -0.2694 0.2694 0.963 -128.5031 40.6892)" fill-rule="evenodd" clip-rule="evenodd" fill="#FFFFFF" width="10.96" height="4.384"/>
<rect x="103.874" y="479.088" transform="matrix(0.963 -0.2694 0.2694 0.963 -125.5916 47.2416)" fill-rule="evenodd" clip-rule="evenodd" fill="#FFFFFF" width="10.96" height="4.384"/>
<path fill-rule="evenodd" clip-rule="evenodd" fill="#EEAC78" d="M65.604,566.75c2.075-2.843,4.809-5.046,7.27-7.516
	c0.487-1.751,0.686-3.595,1.7-5.17c-2.024-2.229-3.269-5.296-6.597-6.112c-3.227-0.355-5.691,0.977-7.768,3.355
	c-1.29,1.479-2.634,2.939-4.129,4.202c-2.896,2.447-3.661,5.384-2.465,8.91c2.421,4.108,6.15,4.8,10.451,4.001
	C64.578,567.864,65.091,567.307,65.604,566.75z"/>
<g>
	<path fill-rule="evenodd" clip-rule="evenodd" fill="#121844" d="M143.183,580.274c-0.324-1.199-0.681-2.39-1.023-3.585
		c-3.692-0.491-5.989-2.5-6.905-6.228c-0.473-1.924-1.189-3.799-1.946-5.633c-1.217-2.95-1.323-5.787,0.422-8.56
		c-9.44-8.979-17.872-18.499-17.209-32.9c-4.808,2.576-9.968,3.887-15.356,4.381c1.408,3.088,0.773,5.335-2.528,6.618
		c-0.498,0.193-1.042,0.563-1.401,1c-4.9,0.476-8.733,4.656-8.733,9.744c0,1.334,0.265,2.604,0.742,3.763
		c0.047,1.598,1.529,3.413,2.401,5.088c2.071,3.979,3.989,8.011,5.185,12.359c0.396,1.445,0.972,3.233-0.224,4.23
		c-1.105,0.92-2.795,0.401-4.191-0.222c-2.013-0.899-4.328-1.081-6.071-2.622c-5.109-1.6-9.203-4.953-13.471-8.008
		c-2.461,2.501-5.196,4.732-7.271,7.612c7.636,6.157,16.077,10.831,25.309,14.035c1.712,0.218,3.417,0.521,5.133,0.634
		c2.858,0.188,5.502-0.652,7.577-2.201c1.849,8.908,3.386,15.927,3.556,17.083c0.234,1.596,0.692,3.17,1.704,4.496
		c7.461-2.176,14.964-4.233,22.378-6.568c6.015-1.893,12.349-2.778,18.02-5.769c-0.009-2.322-0.958-4.411-1.589-6.582
		C145.159,583.918,143.856,582.784,143.183,580.274z"/>
	<path fill-rule="evenodd" clip-rule="evenodd" fill="#121844" d="M171.236,529.762c-8.074-3.804-16.659-3.872-25.32-3.018
		c-0.982,0.098-1.637,0.546-1.898,1.484c-0.828,2.981-3.207,6.254-1.861,8.882c1.055,2.06,4.623,0.23,7.067,0.162
		c4.438-0.125,8.857-0.087,13.237,0.747c1.455,0.278,3.293,0.546,3.648,2.073c0.326,1.41-0.88,2.717-2.048,3.71
		c-1.686,1.433-2.869,3.456-5.004,4.359c-3.674,3.937-8.452,6.176-13.042,8.705c1.127,3.342,1.897,6.813,3.53,9.971
		c8.826-4.221,16.694-9.826,23.61-16.802c0.948-1.459,1.97-2.875,2.828-4.384C179.297,539.821,177.235,532.589,171.236,529.762z"/>
</g>
<path fill-rule="evenodd" clip-rule="evenodd" fill="#C48B65" d="M131.951,478.59c-0.12,0.035-0.236,0.077-0.351,0.12l2.447,8.512
	c0.12-0.024,0.241-0.05,0.361-0.084c2.361-0.679,3.724-3.142,3.045-5.503C136.775,479.275,134.312,477.912,131.951,478.59z"/>
<path fill-rule="evenodd" clip-rule="evenodd" fill="#C48B65" d="M65.78,498.015c0.118-0.041,0.238-0.069,0.356-0.099l2.783,8.407
	c-0.112,0.049-0.226,0.096-0.345,0.135c-2.332,0.773-4.848-0.492-5.619-2.824C62.183,501.302,63.448,498.786,65.78,498.015z"/>
<g>
	<g>
		<path fill="#F8F2D8" d="M184.397,520.004v-8.092c-2.613-0.255-5.148-1.787-6.63-3.661l1.169-9.967
			c1.639,1.959,3.939,3.749,6.475,3.749c2.223,0,3.745-1.875,3.745-5.282c0-3.236-1.249-5.28-4.135-7.411
			c-4.173-3.066-7.02-7.325-7.02-15.586c0-7.496,2.418-13.373,6.591-15.162V450.5h3.822v7.496c2.614,0.256,4.369,1.448,5.656,2.811
			l-1.131,9.625c-1.014-0.936-2.808-2.895-5.617-2.895c-2.535,0-3.354,2.384-3.354,4.769c0,2.811,1.365,4.6,4.681,7.326
			c4.641,3.576,6.513,8.262,6.513,15.928c0,7.581-2.458,14.055-6.942,15.757v8.688H184.397z"/>
	</g>
</g>
</svg>
