<?xml version="1.0" encoding="utf-8"?>
<!-- Generator: Adobe Illustrator 16.0.0, SVG Export Plug-In . SVG Version: 6.00 Build 0)  -->
<!DOCTYPE svg PUBLIC "-//W3C//DTD SVG 1.1//EN" "http://www.w3.org/Graphics/SVG/1.1/DTD/svg11.dtd">
<svg version="1.1" xmlns="http://www.w3.org/2000/svg" xmlns:xlink="http://www.w3.org/1999/xlink" x="0px" y="0px" width="1000px"
	 height="1000px" viewBox="0 0 1000 1000" enable-background="new 0 0 1000 1000" xml:space="preserve">
<g id="Layer_1">
	<path fill="#343760" d="M743.76,34.12c-25.665-0.008-52.332-0.014-77.997-0.019c0.024-7.553,0.05-15.105,0.073-22.658
		c30.52-0.171,62.037-0.25,92.554-0.606c5.019-0.058,6.328,1.611,6.492,6.515c0.508,15.078,0.746,15.047-14.208,15.458
		C748.323,32.876,745.771,32.155,743.76,34.12z"/>
	<path fill="#3A3D63" d="M666.837,11.443c-0.024,7.553,1.953,15.105,1.929,22.658c0-0.002-2.111,0.107-2.108,0.107
		c-15.195,0.01-30.392,0.02-45.587,0.031c-0.853-0.508-1.663-1.357-2.565-1.469c-11.415-1.435-14.207-5.87-12.059-17.664
		c0.863-4.736,3.843-4.075,6.792-4.062C631.104,11.129,648.972,11.3,666.837,11.443z"/>
	<path fill="#668E8A" d="M470.632,655.504c-0.021-92.332-0.042-184.668-0.062-277.004c166.181-0.032,332.361-0.064,498.537-0.085
		c1.039,0,2.078,0.141,3.116,0.216c-0.098,28.262-0.21,56.525-0.265,84.789c-0.004,2.326-0.563,4.896,1.689,6.699
		c0.052,43.053,0.101,86.104,0.15,129.158c-1.411,30.34,5.889,59.539-10.142,59.885c-22.897,0.496-58.005-0.348-71.78-1.717
		c-2.244-2.277-5.141-1.705-7.854-1.705c-137.66,0.041-275.318,0.104-412.978,0.164L470.632,655.504z M697.933,544.76
		c0.031-35.297,0.068-70.594,0.092-105.891c0.014-19.588,0.004-19.588-19.44-18.482c-38.186,0.023-76.373,0.104-114.563,0.019
		c-5.673-0.013-9.764-0.164-9.663,7.897c0.477,38.873,0.338,77.758,0.411,116.633c-0.073,4.087-0.146,8.171-0.219,12.259
		c-0.124,6.225,0.055,12.475-0.452,18.67c-0.555,6.754,1.966,9.018,8.816,8.977c42.235-0.25,84.474-0.215,126.709-0.026
		c6.113,0.026,8.969-1.644,8.535-8.201c-0.41-6.199-0.023-12.455,0.011-18.689c4.82-0.119,9.646-0.414,14.46-0.297
		c4.246,0.102,6.228-1.291,6.287-5.895c0.064-4.826-1.521-6.939-6.525-6.716C707.588,545.23,702.754,544.869,697.933,544.76z
		 M906.464,544.779c0.031-35.302,0.071-70.603,0.097-105.906c0.016-19.568,0.006-19.568-19.441-18.502
		c-38.163,0.031-76.324,0.121-114.485,0.031c-5.734-0.013-9.732-0.021-9.636,7.953c0.476,38.848,0.36,77.704,0.444,116.551
		c-0.181,3.465-0.356,6.93-0.536,10.396c-0.065,6.914,0.221,13.853-0.294,20.734c-0.519,6.947,2.349,8.83,8.991,8.793
		c42.188-0.23,84.377-0.205,126.566-0.021c6.104,0.027,8.959-1.646,8.523-8.196c-0.412-6.193-0.028-12.441,0.004-18.67
		c4.826-0.123,9.656-0.435,14.476-0.318c4.251,0.102,6.236-1.271,6.295-5.891c0.063-4.839-1.511-6.949-6.526-6.718
		C916.131,545.24,911.292,544.881,906.464,544.779z M790.141,630.482c5.904,0,11.814,0.192,17.706-0.056
		c5.761-0.239,8.948-3.522,8.913-9.338c-0.04-5.83-3.299-9.074-9.063-9.166c-11.108-0.176-22.219,0.017-33.329-0.084
		c-6.342-0.055-9.197,4.332-9.004,9.229c0.188,4.688,3.062,9.301,9.153,9.401C779.726,630.559,784.936,630.49,790.141,630.482z
		 M544.965,611.865c-5.533,0-11.066-0.068-16.601,0.018c-5.671,0.088-9.002,2.853-9.577,8.68c-0.568,5.773,3.209,8.976,7.753,9.228
		c12.037,0.668,24.155,0.697,36.193,0.076c4.783-0.248,8.257-4.326,7.538-9.504c-0.712-5.117-3.543-8.884-9.748-8.564
		C555.35,612.061,550.152,611.852,544.965,611.865z M935.683,413.869c4.312-0.271,10.306,0.057,15.923-1.238
		c4.024-0.928,9.057-2.92,8.11-8.918c-0.896-5.676-3.575-9.193-10.351-8.879c-10.337,0.484-20.713,0.162-31.072,0.115
		c-4.785-0.023-9.112,0.289-9.6,6.621c-0.42,5.477,0.967,8.936,6.979,10.725C921.888,414.145,928.009,413.117,935.683,413.869z"/>
	<path fill="#343760" d="M469.64,290.654c173.695,0.018,348.396,0.035,522.094,0.052c2.398,12.917,0.338,25.957,1.075,38.915
		c0.248,4.354-2.021,5.085-5.655,4.992c-4.45-0.114-8.912,0.155-13.368,0.256c-55.557-0.077-111.115-0.179-166.674-0.224
		c-112.16-0.092-225.319-0.151-337.479-0.222C469.635,319.833,469.637,305.244,469.64,290.654z"/>
	<path fill="#517773" d="M470.635,334.423c112.158,0.071,224.316,0.13,336.478,0.222c55.559,0.044,111.116,0.147,166.674,0.224
		c-1.695,14.545,1.286,29.258-1.563,43.762c-1.036-0.075-2.075-0.216-3.114-0.216c-166.177,0.021-332.356,0.053-498.538,0.085
		c-0.001,0.002-0.062-0.098-0.058-0.098c-0.649-13.933,2.39-28.028-1.858-41.798C469.314,335.877,469.975,335.15,470.635,334.423z"
		/>
	<path fill="#1E1F49" d="M62.238,309.446c0.052,9.519,0.104,19.038,0.161,28.555c-9.801,0.104-19.734,2.909-29.33-1.401
		C42.792,327.55,52.514,318.499,62.238,309.446z"/>
	<path fill="#373889" d="M176.698,420.264c50.964-0.108,101.928-0.146,152.891-0.424c5.962-0.033,8.004,2.111,7.694,7.894
		c-0.428,7.948-0.332,15.93-0.458,23.893c-2.641,3.404-1.373,7.379-1.378,11.07c-0.087,60.811-0.192,121.616,0.094,182.424
		c0.038,7.967-1.84,11.954-10.378,11.7c-17.691-0.527-35.417,0.125-53.128,0.291c-31.761-0.205-63.522-0.408-95.283-0.613
		C176.734,578.087,176.716,498.674,176.698,420.264z"/>
	<path fill="#4F71B7" d="M470.628,738.479c-44.499-0.026-88.997-0.051-133.496-0.075c0.056-23.591,0.111-57.187,0.166-80.773
		c40.091-0.004,80.183,0,120.273-0.02c4.456-0.002,9.04,0.647,13.062-2.103c-0.001-0.004,0.415,0.396,0.411,0.396
		C470.904,680.088,470.766,714.287,470.628,738.479z"/>
	<path fill="#5086C5" d="M176.698,420.264c0.018,78.41,0.036,156.822,0.053,235.236c-13.276,0.055-26.553,0.117-39.83,0.176
		c-0.003-74.832,0.117-149.666-0.179-224.496c-0.034-8.385,1.897-11.946,10.873-11.229C157.257,420.723,167,420.213,176.698,420.264
		z"/>
	<path fill="#3E5E84" d="M337.298,657.629c-0.055,23.588-0.11,57.185-0.166,80.773c-42.492,0.055-84.983,0.112-127.471,0.172
		c0.165-11.773,0.325-33.553,0.486-45.326c17.976-0.018,35.956-0.24,53.925,0.061c6.181,0.104,8.754-1.67,8.397-8.182
		c-0.53-9.65-0.327-20.345-0.437-30.019c17.711-0.166,35.438-0.818,53.128-0.291c8.539,0.254,10.416-1.731,10.378-9.698
		c-0.286-60.807-0.181-121.613-0.094-182.424c0.005-3.691-1.263-7.666,1.378-11.07c0.105,61.391,0.21,122.773,0.328,184.156
		C337.167,643.066,337.248,650.346,337.298,657.629z"/>
	<path fill="#343760" d="M272.034,655.108c0.11,9.674-0.093,20.367,0.437,30.019c0.357,6.512-2.216,8.285-8.397,8.182
		c-17.969-0.301-35.949-0.078-53.925-0.063c-44.42-0.051-88.84-0.103-133.262-0.148c0.008-11.756,0.017-24.511,0.025-36.265
		c7.031-4.111,14.72-0.852,22.094-1.067c12.628-0.375,25.278-1.095,37.917-1.089c13.276-0.059,26.553-0.121,39.829-0.176
		C208.512,654.7,240.273,654.903,272.034,655.108z"/>
	<path fill="#3E5E84" d="M76.911,657.832c-0.008,11.754-0.017,23.508-0.027,35.264c-15.22,0.027-30.436,0.058-45.653,0.086
		c0.03-8.662,0.694-17.379-0.079-25.969c-0.861-9.551,2.999-12.234,11.894-11.377c6.512,0.629,13.147-0.014,19.731-0.092
		C67.51,656.314,72.688,653.84,76.911,657.832z"/>
	<path fill="#456697" d="M470.628,738.479c0.137-24.19,0.276-58.391,0.416-82.575c137.662-0.058,275.32-0.121,412.979-0.162
		c2.715,0,77.941,0.99,87.181-0.383c-0.897,29.524-1.941,58.303,0.1,83.184c-2.417,0.141-98.771,0.404-101.188,0.404
		c-130.75,0.024-261.499,0.03-392.249,0.014C475.454,738.959,473.041,738.645,470.628,738.479z"/>
	<path fill="#BBD7D4" d="M763.451,544.912c-0.094-38.853,0.021-77.709-0.454-116.557c-0.098-7.974,3.9-7.966,9.636-7.953
		c38.161,0.09,76.322,0,114.485-0.033c0.211,41.459,0.425,82.918,0.64,124.377c-34.044,0.215-68.087,0.426-102.131,0.641
		C778.234,545.227,770.844,545.068,763.451,544.912z M812.315,531.869c18.938,0.219,37.876,0.395,56.813,0.699
		c4.379,0.067,6.218-1.761,6.146-6.146c-0.299-18.938-0.473-37.875-0.691-56.813c0.143-7.425,0.284-14.851,0.424-22.273
		c0.569-14.879,0.569-14.916-13.73-14.842c-3.793,0.018-7.586,0.32-11.375,0.494c-21.81-0.063-43.618,0.047-65.422-0.291
		c-6.749-0.104-9.176,2.313-9.069,9.065c0.338,21.804,0.229,43.613,0.295,65.42c-0.176,3.791-0.482,7.586-0.501,11.379
		c-0.071,14.316-0.037,14.316,14.843,13.729C797.469,532.152,804.892,532.01,812.315,531.869z"/>
	<path fill="#BBD7D4" d="M554.777,544.938c-0.082-38.877,0.057-77.762-0.42-116.635c-0.101-8.063,3.99-7.91,9.662-7.897
		c38.189,0.086,76.378,0.006,114.563-0.019c0.209,41.451,0.416,82.906,0.624,124.361c-34.71,0.242-69.417,0.479-104.129,0.719
		C568.313,545.291,561.543,545.115,554.777,544.938z M666.087,469.619c0.142-7.437,0.284-14.871,0.427-22.308
		c0.518-14.848,0.518-14.885-13.773-14.813c-3.79,0.018-7.58,0.332-11.371,0.508c-21.894-0.068-43.788,0.088-65.673-0.338
		c-6.833-0.133-9.043,2.021-8.911,8.885c0.424,21.888,0.258,43.783,0.315,65.679c-0.152,3.786-0.424,7.571-0.438,11.358
		c-0.058,14.23-0.026,14.23,14.813,13.752c7.439-0.156,14.878-0.315,22.315-0.475c18.938,0.225,37.877,0.399,56.813,0.705
		c4.377,0.067,6.226-1.744,6.156-6.135C666.466,507.5,666.3,488.559,666.087,469.619z"/>
	<path fill="#425D8C" d="M906.697,556.307c-0.032,7.066-0.416,14.16-0.003,21.193c0.435,7.438-2.421,9.338-8.524,9.308
		c-42.189-0.211-84.378-0.24-126.565,0.022c-6.645,0.043-9.511-2.096-8.992-9.984c0.515-7.814,0.229-15.693,0.292-23.541
		c7.224,4.904,15.087,1.822,22.663,2.341C825.944,555.863,866.321,556.086,906.697,556.307z"/>
	<path fill="#425D8C" d="M698.172,556.031c-0.036,7.133-0.423,14.293-0.013,21.392c0.434,7.506-2.422,9.418-8.535,9.386
		c-42.235-0.215-84.474-0.256-126.709,0.031c-6.851,0.047-9.371-2.545-8.816-10.275c0.508-7.092,0.328-14.246,0.451-21.371
		c6.858,0.043,13.723,0.081,20.583,0.12C616.146,555.553,657.159,555.795,698.172,556.031z"/>
	<path fill="#7EA9B6" d="M887.758,544.746c-0.215-41.459-0.429-82.918-0.64-124.377c19.446-1.064,19.457-1.064,19.442,18.504
		c-0.025,35.305-0.065,70.604-0.098,105.906C900.229,544.77,893.993,544.76,887.758,544.746z"/>
	<path fill="#7EA9B6" d="M679.207,544.748c-0.208-41.455-0.415-82.91-0.624-124.361c19.444-1.104,19.454-1.104,19.44,18.482
		c-0.022,35.297-0.061,70.594-0.092,105.891C691.691,544.76,685.449,544.752,679.207,544.748z"/>
	<path fill="#4F71B7" d="M679.207,544.748c6.242,0.004,12.484,0.012,18.726,0.012c4.821,0.109,9.655,0.472,14.459,0.256
		c5.005-0.225,6.592,1.89,6.525,6.716c-0.06,4.604-2.041,5.995-6.287,5.895c-4.813-0.117-9.64,0.178-14.458,0.299
		c-41.013-0.205-82.025-0.416-123.039-0.621c-0.021-3.944-0.037-7.891-0.055-11.836C609.79,545.227,644.497,544.99,679.207,544.748z
		"/>
	<path fill="#4F71B7" d="M887.758,544.746c6.235,0.014,12.473,0.022,18.706,0.033c4.828,0.102,9.667,0.461,14.479,0.237
		c5.016-0.231,6.588,1.88,6.525,6.718c-0.059,4.618-2.044,5.991-6.295,5.891c-4.817-0.115-9.648,0.195-14.476,0.32
		c-40.376-0.191-80.753-0.388-121.129-0.578c0.021-3.994,0.041-7.986,0.059-11.98C819.671,545.172,853.714,544.961,887.758,544.746z
		"/>
	<path fill="#4A6662" d="M790.141,630.486c-5.205,0.004-10.415,0.071-15.623-0.017c-6.093-0.102-8.966-4.715-9.153-9.401
		c-0.193-4.896,2.662-9.283,9.004-9.229c11.11,0.101,22.221-0.092,33.329,0.084c5.765,0.092,9.022,3.336,9.063,9.166
		c0.035,5.814-3.152,9.099-8.913,9.338C801.955,630.676,796.045,630.482,790.141,630.486z"/>
	<path fill="#4A6662" d="M544.965,611.857c5.188-0.007,10.385,0.202,15.56-0.062c6.206-0.317,9.036,3.447,9.748,8.564
		c0.719,5.178-2.755,9.256-7.538,9.504c-12.038,0.621-24.156,0.592-36.193-0.076c-4.544-0.252-8.321-3.453-7.753-9.227
		c0.575-5.828,3.906-8.593,9.577-8.681C533.896,611.797,539.432,611.865,544.965,611.857z"/>
	<path fill="#4A6662" d="M935.683,413.869c-7.674-0.752-13.795,0.274-20.009-1.574c-6.014-1.789-7.4-5.248-6.979-10.725
		c0.486-6.333,4.813-6.646,9.6-6.621c10.359,0.047,20.735,0.369,31.072-0.115c6.774-0.314,9.455,3.203,10.351,8.879
		c0.945,5.998-4.086,7.99-8.111,8.918C945.987,413.926,939.993,413.598,935.683,413.869z"/>
	<path fill="#4F71B7" d="M785.627,545.387c-0.018,3.994-0.038,7.986-0.059,11.98c-7.578-0.457-15.441,2.256-22.665-2.063
		c0.182-3.469,0.357-6.934,0.544-10.396C770.844,545.068,778.234,545.227,785.627,545.387z"/>
	<path fill="#4F71B7" d="M575.078,545.467c0.018,3.945,0.034,7.892,0.055,11.836c-6.861-0.037-13.725-0.072-20.583-0.108
		c0.074-4.089,0.146-8.173,0.225-12.259C561.543,545.115,568.313,545.291,575.078,545.467z"/>
	<path fill="#292D5B" d="M31.231,693.182c15.217-0.028,30.433-0.059,45.653-0.086c44.423,0.047,88.843,0.099,133.264,0.148
		c-0.161,11.777-0.322,33.557-0.486,45.33c-64.526,0.08-129.047,0.08-193.567,0.365c-6.7,0.028-9.826-1.884-8.859-8.791
		c0.095-0.681,0.015-1.388,0.009-2.078C7.042,703.627,7.042,693.619,31.231,693.182z"/>
	<path fill="#B0E1ED" d="M790.048,532.291c-14.883,0.59-14.917,0.59-14.846-13.727c0.019-3.793,0.325-7.589,0.497-11.377
		c3.313,0.495,4.988-1.984,6.912-3.904c21.147-21.107,42.272-42.232,63.383-63.375c1.921-1.922,4.396-3.603,3.904-6.918
		c3.789-0.174,7.582-0.478,11.375-0.494c14.302-0.074,14.302-0.037,13.734,14.84C845.854,474.818,817.547,503.148,790.048,532.291z"
		/>
	<path fill="#5CCAE8" d="M849.898,432.99c0.492,3.315-1.983,4.996-3.904,6.918c-21.109,21.143-42.234,42.268-63.383,63.375
		c-1.924,1.92-3.6,4.399-6.912,3.903c-0.062-21.809,0.047-43.618-0.291-65.422c-0.105-6.752,2.32-9.17,9.069-9.065
		C806.281,433.037,828.091,432.928,849.898,432.99z"/>
	<path fill="#B0E1ED" d="M874.582,469.611c0.22,18.938,0.394,37.875,0.691,56.813c0.071,4.385-1.768,6.213-6.146,6.146
		c-18.937-0.306-37.874-0.48-56.811-0.695c8.228-12.879,20.336-22.158,30.931-32.789
		C853.355,488.941,862.186,477.346,874.582,469.611z"/>
	<path fill="#5CCAE8" d="M874.582,469.611c-12.396,7.733-21.227,19.33-31.334,29.473c-10.595,10.631-22.703,19.91-30.931,32.789
		c-7.427,0.137-14.85,0.279-22.271,0.418c27.499-29.143,55.807-57.473,84.961-84.955
		C874.866,454.762,874.725,462.188,874.582,469.611z"/>
	<path fill="#B0E1ED" d="M641.368,433.006c3.791-0.176,7.581-0.49,11.371-0.508c14.291-0.07,14.291-0.033,13.773,14.813
		c-29.229,27.457-57.566,55.808-85.035,85.029c-14.843,0.48-14.874,0.48-14.815-13.75c0.015-3.787,0.285-7.572,0.437-11.356
		c3.264,0.473,4.964-1.923,6.877-3.836c21.191-21.164,42.37-42.339,63.528-63.533C639.408,437.957,641.854,436.289,641.368,433.006z
		"/>
	<path fill="#5CCAE8" d="M641.368,433.006c0.485,3.283-1.96,4.951-3.864,6.857c-21.158,21.194-42.337,42.369-63.528,63.533
		c-1.913,1.913-3.613,4.309-6.877,3.836c-0.057-21.896,0.109-43.793-0.313-65.681c-0.132-6.862,2.078-9.018,8.911-8.885
		C597.58,433.094,619.476,432.938,641.368,433.006z"/>
	<path fill="#B0E1ED" d="M666.087,469.619c0.213,18.938,0.379,37.881,0.675,56.818c0.068,4.391-1.779,6.202-6.156,6.135
		c-18.937-0.306-37.875-0.48-56.812-0.699c13.738-18.592,31.853-33.006,47.644-49.639
		C655.844,477.596,659.515,471.844,666.087,469.619z"/>
	<path fill="#1E1F49" d="M255.889,72.179c50.266-0.098,100.534-0.267,150.798-0.278c71.423-0.016,142.843,0.083,214.263,0.134
		c-0.024,4.507,0.55,9.114-0.173,13.507c-4.395,26.659,3.943,47.838,26.215,63.483c6.951,4.883,10.597,13.784,19.521,16.378
		c1.091,5.605,5.571,4.207,9.134,4.224c19.08,0.091,38.173-0.353,57.233,0.224c8.493,0.257,11.377-2.071,11.229-10.932
		c-0.498-29.129-0.123-58.275-0.084-87.414c24.212-4.831,39.191,8.669,54.87,24.694c61.472,62.818,124.009,124.595,186.117,186.79
		c2.405,2.407,4.487,5.136,6.722,7.717c-173.697-0.017-347.397-0.034-521.093-0.052c-0.595-0.348-1.3-0.588-1.772-1.062
		c-70.251-70.155-140.487-140.327-210.721-210.498C256.226,77.176,253.609,75.474,255.889,72.179z M732.427,246.898
		c-10.067,0-20.142,0.021-30.212-0.008c-6.255-0.017-11.687,2.259-11.967,8.874c-0.31,7.325,5.269,9.866,11.967,9.872
		c19.448,0.021,38.896,0.002,58.348,0.009c6.224,0.002,11.694-2.22,11.977-8.867c0.314-7.359-5.325-9.829-11.979-9.867
		C751.183,246.855,741.806,246.896,732.427,246.898z M825.305,209.375c9.688,0,19.374-0.113,29.062,0.042
		c6.023,0.097,11.744-0.776,12.245-7.959c0.482-6.938-5.415-10.228-10.809-10.394c-20.731-0.638-41.503-0.608-62.244-0.114
		c-5.373,0.128-10.027,4.233-9.416,10.245c0.597,5.824,4.741,8.53,11.072,8.281C805.23,209.083,815.273,209.372,825.305,209.375z
		 M461.537,153.063c10.029,0,20.058-0.028,30.087,0.011c5.534,0.021,9.774-2.07,10.147-7.962c0.386-6.089-3.389-10.332-9.212-10.45
		c-20.735-0.421-41.492-0.435-62.229-0.007c-5.343,0.11-10.203,2.896-9.573,9.806c0.589,6.473,4.695,8.668,10.693,8.623
		C441.48,153.01,451.509,153.063,461.537,153.063z M543.724,213.564c10.393,0,20.784-0.009,31.178,0.003
		c6.021,0.007,10.539-2.336,10.239-8.885c-0.27-5.902-4.7-7.898-10.222-7.89c-20.785,0.035-41.57,0.063-62.354-0.009
		c-5.446-0.02-8.402,2.043-8.531,7.872c-0.135,6.043,2.249,9.03,8.514,8.943C522.938,213.453,533.331,213.559,543.724,213.564z"/>
	<path fill="#343760" d="M470.635,334.423c-0.66,0.727-1.319,1.454-1.979,2.182c-2.852-2.501-5.855-4.848-8.532-7.521
		c-67.3-67.244-134.646-134.444-201.704-201.93c-5.833-5.87-8.757-6.805-15.145-0.353C186.116,184.545,128.53,241.863,71.113,299.35
		c-3.16,3.164-5.925,6.723-8.875,10.097c-9.724,9.053-19.445,18.104-29.169,27.154c-0.183-13.525-0.28-27.052-0.596-40.573
		c-0.099-4.231,1.845-7.053,4.689-9.898c69.73-69.729,139.391-139.527,209.093-209.286c2.623-2.626,4.969-6.125,9.635-4.664
		c-2.281,3.294,0.336,4.997,2.257,6.917c70.234,70.171,140.47,140.343,210.721,210.498c0.473,0.473,1.178,0.713,1.772,1.062
		C470.638,305.244,470.636,319.833,470.635,334.423z"/>
	<path fill="#608C88" d="M62.238,309.446c2.949-3.375,5.715-6.934,8.875-10.097c57.417-57.487,115.003-114.805,172.161-172.548
		c6.388-6.453,9.312-5.518,15.145,0.352c67.058,67.486,134.404,134.686,201.704,201.93c2.677,2.674,5.681,5.02,8.532,7.521
		c4.249,13.77,1.209,27.865,1.858,41.798c-5.046-0.608-7.451-4.845-10.559-7.946c-67.276-67.174-134.579-134.322-201.572-201.778
		c-6.528-6.574-10.092-7.319-17.005-0.251c-55.287,56.522-110.991,112.635-166.64,168.803c-3.071,3.098-5.447,7.429-10.646,7.694
		c-0.563-2.31-1.125-4.619-1.694-6.923C62.342,328.484,62.29,318.965,62.238,309.446z"/>
	<path fill="#343760" d="M745.025,71.504c-0.039,29.138-0.414,58.284,0.084,87.414c0.148,8.861-3.735,11.189-12.229,10.932
		c-19.062-0.576-38.153-0.133-57.233-0.224c-3.563-0.017-8.043,1.382-9.13-4.223c0.008-37.475,0.018-74.951,0.027-112.427
		c0.037-6.255,0.074-12.511,0.108-18.768l0.109-0.109c25.665,0.007,52.332,0.013,77.997,0.021
		C744.848,46.581,744.938,59.042,745.025,71.504z"/>
	<path fill="#3A3D63" d="M668.629,34.215c-0.008,43.731-0.017,89.548-0.023,133.276c-8.929-3.027-20.926-13.415-27.875-19.112
		c-22.271-18.256-24.347-45.056-19.952-76.164c0.723-5.126,0.147-10.503,0.173-15.763c0.135-7.432,0.269-14.864,0.402-22.297
		C636.628,31.086,653.567,34.493,668.629,34.215z"/>
	<path fill="#343760" d="M732.427,246.897c9.379-0.001,18.756-0.042,28.132,0.013c6.654,0.039,12.295,2.508,11.979,9.867
		c-0.281,6.647-5.753,8.869-11.978,8.867c-19.449-0.006-38.897,0.011-58.347-0.009c-6.698-0.006-12.275-2.547-11.967-9.872
		c0.28-6.614,5.712-8.891,11.967-8.874C712.285,246.919,722.358,246.898,732.427,246.897z"/>
	<path fill="#343760" d="M825.305,209.374c-10.03-0.002-20.073-0.291-30.09,0.102c-6.331,0.249-10.477-2.457-11.072-8.281
		c-0.611-6.012,4.043-10.117,9.416-10.245c20.741-0.495,41.513-0.524,62.244,0.114c5.394,0.166,11.291,3.456,10.809,10.394
		c-0.501,7.184-6.222,8.056-12.245,7.959C844.679,209.263,834.992,209.375,825.305,209.374z"/>
	<path fill="#343760" d="M461.537,153.063c-10.028,0-20.057-0.054-30.085,0.021c-5.999,0.045-10.104-2.15-10.693-8.623
		c-0.63-6.909,4.229-9.696,9.573-9.806c20.736-0.428,41.493-0.414,62.229,0.007c5.823,0.118,9.598,4.36,9.211,10.45
		c-0.372,5.892-4.612,7.982-10.146,7.962C481.595,153.035,471.566,153.063,461.537,153.063z"/>
	<path fill="#343760" d="M543.724,213.561c-10.393-0.002-20.786-0.107-31.176,0.038c-6.265,0.087-8.647-2.9-8.514-8.943
		c0.129-5.829,3.085-7.892,8.53-7.872c20.783,0.071,41.568,0.044,62.354,0.009c5.521-0.009,9.952,1.987,10.222,7.89
		c0.299,6.548-4.22,8.892-10.239,8.885C564.508,213.555,554.115,213.564,543.724,213.561z"/>
	<path fill="#76A5A2" d="M470.57,378.502l-0.061-0.1c-5.042-0.608-7.447-4.845-10.555-7.946
		c-67.276-67.174-134.579-134.322-201.572-201.778c-6.528-6.574-10.092-7.319-17.005-0.251
		c-55.287,56.522-110.991,112.635-166.64,168.803c-3.071,3.098-5.447,7.429-10.646,7.694c-0.032,61.752-0.034,123.502-0.174,185.254
		c-0.008,3.644,1.435,7.619-1.35,10.978c0.071,38.194,0.143,76.393,0.214,114.59c4.728,0.57,9.907-1.904,14.129,2.088
		c7.031-4.111,14.72-1.852,22.094-2.068c12.628-0.375,25.278-0.094,37.917-0.088c-0.004-74.832,0.117-149.666-0.179-224.496
		c-0.034-8.385,1.897-11.946,10.873-11.229c9.642,0.772,19.384,0.264,29.083,0.313c50.964-0.108,101.928-0.146,152.891-0.424
		c5.962-0.033,8.004,2.111,7.694,7.894c-0.428,7.948-0.332,15.93-0.46,23.897c0.107,61.385,0.212,122.769,0.33,184.15
		c0.014,7.285,0.095,14.563,0.146,21.848c40.091-0.004,80.184,0,120.273-0.02c4.456-0.002,9.04,0.647,13.062-2.103
		C470.61,563.172,470.59,470.836,470.57,378.502z"/>
	<path fill="#5CCAE8" d="M666.087,469.619c-6.572,2.225-10.243,7.977-14.649,12.615c-15.791,16.633-33.904,31.047-47.644,49.639
		c-7.44,0.152-14.878,0.313-22.315,0.469c27.469-29.225,55.808-57.574,85.035-85.031
		C666.371,454.748,666.229,462.184,666.087,469.619z"/>
	<path fill="#4A6662" d="M414.082,557.723c4.86,0,9.741,0.273,14.576-0.067c6.127-0.435,9.42,2.969,10.146,8.166
		c0.804,5.752-3.784,9.729-8.454,10.08c-11.736,0.869-23.598,0.709-35.372,0.146c-5.801-0.279-7.668-4.94-7.625-10.512
		c0.044-5.519,3.562-7.355,7.99-7.631c6.226-0.385,12.491-0.099,18.74-0.099C414.082,557.781,414.082,557.752,414.082,557.723z"/>
	<path opacity="0.3" fill="#010101" enable-background="new    " d="M506.923,887.086c178.551,0,323.328,22.359,323.328,49.955
		s-144.777,49.955-323.328,49.955c-178.55,0-323.31-22.359-323.31-49.955S328.373,887.086,506.923,887.086z"/>
	<g id="Layer_1_1_" display="none">
		<g display="inline">
			<g>
				<path opacity="0.2" fill="#010101" enable-background="new    " d="M883.458,650.888H122.486c0,0-103.073-15.01-108.374-120.368
					c0,0-36.849-156.295,149.288-184.388c0,0-73.77-219.514,166.818-309.066c0,0,201.926-59.704,300.292,151.029
					c0,0,87.796-64.99,187.869-1.749c0,0,87.813,59.68,59.729,173.843c0,0,112.384,15.799,115.896,151.029
					C994.02,511.201,1004.671,604.444,883.458,650.888z"/>
				<path fill="#FFFFFF" d="M878.026,634.626H117.071c0,0-103.09-15.025-108.35-120.368c0,0-36.864-156.289,149.264-184.371
					c0,0-73.746-219.506,166.819-309.075c0,0,201.942-59.695,300.291,151.029c0,0,87.78-64.973,187.901-1.748
					c0,0,87.765,59.696,59.697,173.86c0,0,112.383,15.806,115.895,151.004C988.588,494.924,999.239,588.199,878.026,634.626z"/>
				<path opacity="0.2" fill="#010101" enable-background="new    " d="M159.05,623.438h675.103c0,0,91.455-13.334,96.139-106.789
					c0,0,32.717-138.662-132.434-163.573c0,0,65.437-194.74-148.013-274.217c0,0-179.161-52.972-266.411,133.995
					c0,0-77.885-57.648-166.688-1.562c0,0-77.908,52.964-52.964,154.241c0,0-99.715,14.042-102.829,133.961
					C60.969,499.494,51.513,582.232,159.05,623.438z"/>
				<path fill="#FFFFFF" d="M163.88,609.047H839c0,0,91.421-13.058,96.104-104.479c0,0,32.701-135.636-132.434-160.012
					c0,0,65.436-190.495-147.995-268.226c0,0-179.145-51.809-266.412,131.06c0,0-77.917-56.396-166.721-1.512
					c0,0-77.893,51.809-52.98,150.882c0,0-99.715,13.708-102.813,131.061C65.783,487.801,56.31,568.751,163.88,609.047z"/>
				<path fill="#E4E6ED" d="M337.293,675.508c25,0,45.271,20.262,45.271,45.272c0,25.01-20.271,45.271-45.271,45.271
					c-25.002,0-45.281-20.261-45.281-45.271C292.012,695.77,312.291,675.508,337.293,675.508z"/>
				<path fill="#C2C4CE" d="M356.708,683.247c9.726,7.563,16.035,19.4,16.035,32.687c0,22.831-18.53,41.369-41.361,41.369
					c-7.408,0-14.351-1.951-20.384-5.382c6.992,5.431,15.773,8.666,25.328,8.666c22.847,0,41.345-18.521,41.345-41.337
					C377.686,703.818,369.246,690.338,356.708,683.247z"/>
				<path fill="#E4E6ED" d="M501.932,716.665c25.012,0,45.272,20.278,45.272,45.288c0,24.994-20.262,45.271-45.272,45.271
					c-25.01,0-45.279-20.276-45.279-45.271C456.651,736.943,476.921,716.665,501.932,716.665z"/>
				<path fill="#C2C4CE" d="M521.348,724.39c9.741,7.609,16.019,19.448,16.019,32.719c0,22.831-18.538,41.353-41.369,41.353
					c-7.407,0-14.334-1.936-20.359-5.35c6.992,5.415,15.767,8.65,25.32,8.65c22.863,0,41.351-18.538,41.351-41.337
					C542.308,744.943,533.854,731.48,521.348,724.39z"/>
				<path fill="#E4E6ED" d="M666.514,689.248c24.994,0,45.272,20.278,45.272,45.271c0,24.994-20.278,45.272-45.272,45.272
					c-24.992,0-45.288-20.278-45.288-45.272C621.226,709.526,641.521,689.248,666.514,689.248z"/>
				<path fill="#C2C4CE" d="M685.962,696.956c9.74,7.578,16.019,19.416,16.019,32.687c0,22.848-18.507,41.354-41.368,41.354
					c-7.399,0-14.344-1.936-20.359-5.334c6.976,5.398,15.789,8.651,25.303,8.651c22.896,0,41.386-18.508,41.386-41.337
					C706.924,717.527,698.469,704.046,685.962,696.956z"/>
			</g>
			<path opacity="0.3" fill="#010101" enable-background="new    " d="M506.923,887.086c178.551,0,323.328,22.359,323.328,49.955
				s-144.777,49.955-323.328,49.955c-178.55,0-323.31-22.359-323.31-49.955S328.373,887.086,506.923,887.086z"/>
		</g>
	</g>
</g>
<g id="Layer_2">
	<g>
		<path fill="#FFFFFF" d="M186.372,490.223c-1.059-3.369-2.063-6.55-3.101-9.839c1.599-0.549,3.271-0.658,4.975-0.666
			c1.9-0.016,3.761,0.372,5.416,1.585c1.832,1.335,3.305,2.959,4.281,4.906c0.284,0.56,0.563,1.116,0.881,1.742
			c1.109-0.19,2.139-0.361,3.349-0.569c0.482,1.528,0.932,2.971,1.418,4.52c-1.091,0.232-2.098,0.445-3.142,0.662
			c0.072,1.003,0.173,1.975,0.208,2.935c0.057,1.7-0.136,3.326-0.878,4.806c-0.521,1.03-1.261,1.878-2.228,2.528
			c-2.496,1.694-5.449,2.263-8.772,1.859c-2.669-0.321-4.692-1.847-6.51-3.715c-2.197-2.253-4.363-4.535-6.583-6.771
			c-1.49-1.505-3.679-1.847-5.233-0.84c-0.35,0.234-0.669,0.629-0.769,1.031c-0.286,1.152,0.634,2.148,1.971,2.171
			c0.669,0.01,1.331-0.104,1.986-0.189c0.526-0.067,1.038-0.174,1.732-0.297c1.121,3.269,2.074,6.52,3.113,9.739
			c-3.449,1.622-7.801,0.563-10.358-2.565c-1.076-1.325-1.895-2.81-2.944-4.39c-0.693,0.105-1.543,0.23-2.586,0.379
			c-0.468-1.494-0.917-2.933-1.4-4.477c0.937-0.209,1.771-0.4,2.679-0.6c-0.06-0.476-0.15-0.938-0.178-1.39
			c-0.072-1.223-0.247-2.468-0.156-3.661c0.382-4.935,4.752-7.662,10.195-6.442c2.723,0.61,4.946,2.045,6.876,4.034
			c1.604,1.652,3.257,3.266,4.851,4.922c1.33,1.386,2.854,2.008,4.643,1.758c1.004-0.135,2.025-0.246,2.982-0.483
			c0.873-0.218,1.318-0.828,1.211-1.756c-0.131-1.133-0.843-1.827-2.036-1.777c-1.159,0.044-2.288,0.265-3.422,0.429
			C188.068,489.917,187.3,490.066,186.372,490.223z"/>
		<g>
			<path d="M108.879,536.854c-0.041-0.481-0.075-0.611-0.058-0.727c1.333-8.345,3.272-16.462,6.511-24.133
				c2.628-6.229,5.622-12.247,9.105-18.011c2.646-4.378,5.461-8.65,8.621-12.688c7.454-9.542,15.856-18.234,26.184-25.178
				c5.928-3.982,12.336-7.245,19.658-9.073c5.195-1.301,10.582-1.747,16.265-0.823c4.901,0.797,9.415,2.636,13.598,5.617
				c7.739,5.518,14.35,12.048,20.337,19.137c5.204,6.166,9.699,12.684,13.081,19.719c2.259,4.703,3.925,9.492,4.516,14.426
				c0.624,5.246-0.032,10.139-2.489,14.513c-2.093,3.708-5.164,6.579-8.86,8.904c-5.866,3.68-12.595,5.673-19.919,6.474
				c-7.022,0.773-14.166,0.635-21.446-0.845c-4.208-0.861-8.277-2.423-12.377-3.839c-10.74-3.71-21.579-5.926-32.542-6.357
				c-7.658-0.307-15.023,0.432-21.985,2.516c-5.867,1.765-11.069,4.499-15.521,8.256
				C110.75,535.424,109.896,536.058,108.879,536.854z M186.372,490.223c0.928-0.157,1.699-0.308,2.473-0.42
				c1.134-0.165,2.264-0.384,3.422-0.429c1.192-0.049,1.904,0.644,2.036,1.777c0.107,0.928-0.338,1.538-1.211,1.756
				c-0.958,0.238-1.979,0.347-2.982,0.483c-1.791,0.249-3.313-0.372-4.643-1.758c-1.593-1.656-3.246-3.27-4.851-4.922
				c-1.93-1.988-4.155-3.423-6.876-4.034c-5.443-1.216-9.813,1.507-10.195,6.442c-0.09,1.192,0.084,2.438,0.156,3.661
				c0.027,0.452,0.118,0.914,0.178,1.39c-0.912,0.199-1.744,0.392-2.679,0.6c0.485,1.54,0.934,2.982,1.4,4.477
				c1.043-0.148,1.893-0.274,2.586-0.379c1.049,1.58,1.868,3.064,2.946,4.392c2.555,3.126,6.907,4.186,10.356,2.563
				c-1.04-3.221-1.991-6.472-3.113-9.739c-0.696,0.123-1.207,0.231-1.732,0.297c-0.655,0.085-1.316,0.199-1.986,0.189
				c-1.337-0.022-2.257-1.019-1.971-2.171c0.1-0.402,0.419-0.797,0.769-1.031c1.556-1.005,3.741-0.664,5.233,0.84
				c2.22,2.233,4.387,4.517,6.583,6.771c1.817,1.868,3.839,3.393,6.51,3.715c3.323,0.403,6.277-0.165,8.774-1.86
				c0.965-0.649,1.707-1.496,2.227-2.527c0.745-1.479,0.936-3.105,0.878-4.806c-0.031-0.96-0.136-1.932-0.208-2.935
				c1.044-0.217,2.051-0.43,3.142-0.662c-0.487-1.549-0.936-2.992-1.418-4.52c-1.209,0.208-2.237,0.38-3.349,0.569
				c-0.318-0.626-0.598-1.183-0.881-1.742c-0.978-1.947-2.45-3.571-4.281-4.906c-1.658-1.214-3.517-1.6-5.416-1.585
				c-1.705,0.008-3.376,0.117-4.975,0.666C184.309,483.673,185.31,486.854,186.372,490.223z"/>
			<polygon points="122.662,519.763 118.268,536.031 113.875,552.298 101.984,540.357 90.093,528.42 106.378,524.091 			"/>
			<path fill="#FFFFFF" d="M120.449,530.522c0,0-6.931-9.945-12.98-7.124c0,0,0.77-2.087,2.961-3.334c0,0,7.415,2.299,11.93,8.97
				L120.449,530.522z"/>
		</g>
	</g>
	<path d="M181.435,607.364c-0.724,1.563-1.354,2.826-1.903,4.131c-2.694,6.381-5.402,12.756-8.035,19.175
		c-1.632,3.979-3.317,7.946-4.292,12.282c-0.636,2.83-1.146,5.728-1.554,8.642c-1.097,7.799-2.086,15.617-3.159,23.421
		c-0.325,2.36-0.694,4.716-1.19,7.012c-0.812,3.755-2.729,6.527-5.734,8.272c-4.706,2.722-11.824,1.345-15.923-3.824
		c-2.316-2.925-3.375-6.271-3.336-9.899c0.022-2.164,0.298-4.307,0.587-6.423c0.789-5.807,1.647-11.586,2.469-17.385
		c0.845-5.952,1.617-11.929,2.941-17.725c1.213-5.294,2.895-10.348,4.889-15.246c1.437-3.519,2.822-7.066,4.265-10.577
		c2.019-4.913,4.046-9.82,6.115-14.7c0.86-2.035,1.819-4.001,2.777-5.964c0.367-0.755,0.859-1.423,1.337-2.198
		c-0.341-1.146-0.657-2.408-1.094-3.627c-3.418-9.51-7.622-18.621-12.782-27.238c-2.352-3.919-4.939-7.642-7.945-10.981
		c-0.521-0.578-1.082-1.117-1.605-1.691c-1.07-1.166-2.284-1.701-3.668-1.592c-0.895,0.067-1.788,0.146-2.746,0.226
		c0.015,0.387,0,0.701,0.043,1.018c0.817,5.95,1.644,11.898,2.465,17.854c0.215,1.57,0.498,3.145,0.602,4.711
		c0.085,1.312,0.071,2.653-0.105,3.917c-0.365,2.567-1.727,4.204-3.929,4.839c-0.915,0.264-1.889,0.431-2.857,0.435
		c-13.341,0.095-26.685,0.15-40.027,0.222c-1.517,0.009-3.006-0.303-4.39-1.222c-2.542-1.689-3.876-4.175-3.9-7.354
		c-0.023-3.258,1.279-5.569,3.849-6.724c0.988-0.443,2.125-0.682,3.226-0.689c6.961-0.056,13.93-0.003,20.893-0.021
		c3.407-0.009,11.136-0.266,11.717-0.331c-0.188-1.446-1.386-10.507-1.815-13.648c-0.075-0.532-0.182-1.078-0.339-1.596
		c-0.187-0.614-0.548-0.789-1.128-0.382c0.465,4.863-13.282-1.924-12.411-3.138c0.282-0.391-0.479-3.479-0.68-4.628
		c-0.608-3.433,0.659-6.272,3.418-7.463c1.07-0.459,2.243-0.76,3.413-0.848c1.383-0.105,2.535-0.409,3.136-1.892
		c0.11-0.276,0.34-0.476,0.563-0.783c0.46,0.773,0.098,1.771,0.901,2.336c0.563-0.184,0.534-0.681,0.44-1.253
		c-0.222-1.36-0.386-2.727-0.643-4.084c-0.338-1.805-0.29-3.545-0.047-5.279c0.193-1.398,0.362-2.797,0.559-4.32
		c-0.697,0.015-1.207,0.308-1.735,0.563c-6.411,3.125-13.108,3.064-19.996-0.491c-5.821-3-10.064-7.96-12.78-14.524
		c-4.992-12.057-1.702-24.675,7.37-31.061c7.212-5.081,15.19-5.349,23.551-0.675c7.222,4.039,11.803,10.626,13.863,19.292
		c0.627,2.643,0.662,5.289,0.335,7.882c-0.153,1.207-0.33,2.402-0.479,3.608c-0.051,0.421-0.057,0.861-0.083,1.353
		c0.995-0.271,1.853-0.496,2.708-0.739c4.182-1.189,8.458-1.034,12.833,0.344c7.963,2.506,15.145,6.982,21.695,13.068
		c6.528,6.07,12.044,13.18,16.967,20.896c4.455,6.981,8.314,14.336,11.786,21.921c2.681,5.861,5.072,11.838,7.282,17.895
		c0.955,2.614,1.767,5.28,2.207,8.021c0.329,2.045,0.366,4.066-0.042,6.005c-0.353,1.687-0.11,3.253,0.597,4.944
		c2.359,5.643,4.908,11.173,7.921,16.456c1.062,1.854,2.225,3.639,3.367,5.431c2.343,3.683,5.441,6.194,9.011,8.034
		c4.223,2.175,8.555,3.853,12.938,5.303c5.781,1.912,11.612,3.487,17.478,4.656c2.439,0.489,4.89,0.741,7.331,1.17
		c2.327,0.407,4.579,1.249,6.554,2.949c5.795,4.995,7.796,13.94,2.806,20.487c-2.315,3.03-5.436,4.158-9.065,4.212
		c-3.684,0.061-7.367-0.505-11.036-1.378c-7.664-1.83-15.309-3.845-22.862-6.514c-5.85-2.067-11.573-4.588-17.024-8.025
		c-6.448-4.064-12.065-9.27-16.554-16.084c-3.087-4.69-5.703-9.646-8.15-14.724C182.97,610.127,182.255,608.9,181.435,607.364z"/>
	<path fill="#FFFFFF" d="M134.242,541.487c0,0,24.032-18.511,22.022-35.701c0,0,4.209,0.603,7.769,6.425
		c0,0-5.449,21.141-23.425,34.017L134.242,541.487z"/>
	<path fill="#FFFFFF" d="M147.468,555.046c0,0,25.376-21.416,23.281-35.924c0,0,4.537,2.925,7.089,8.7
		c0,0-7.203,20.929-26.145,34.23L147.468,555.046z"/>
	<path fill="#FFFFFF" d="M156.321,572.845c0,0,27.642-21.12,25.202-37.76c0,0,3.075,3.571,5.627,9.346
		c0,0-7.703,20.163-28.093,34.105L156.321,572.845z"/>
	<path fill="#FFFFFF" d="M117.473,531.806c0,0,29.717-22.009,25.717-33.767c0,0,5.265,0.289,9.176,4.28
		c0,0-7.406,23.254-33.903,38.418L117.473,531.806z"/>
	<path fill="#FFFFFF" d="M114.696,516.598c1.941-1.187,13.999-8.488,12.559-20.671c0,0,5.91-1.134,8.883,0.011
		c0,0-3.376,15.798-21.352,28.674C114.785,524.611,112.755,517.784,114.696,516.598z"/>
</g>
</svg>
