<?xml version="1.0" encoding="utf-8"?>
<!-- Generator: Adobe Illustrator 16.0.0, SVG Export Plug-In . SVG Version: 6.00 Build 0)  -->
<!DOCTYPE svg PUBLIC "-//W3C//DTD SVG 1.1//EN" "http://www.w3.org/Graphics/SVG/1.1/DTD/svg11.dtd">
<svg version="1.1" id="Layer_1" xmlns="http://www.w3.org/2000/svg" xmlns:xlink="http://www.w3.org/1999/xlink" x="0px" y="0px"
	 width="1000px" height="1000px" viewBox="0 0 1000 1000" enable-background="new 0 0 1000 1000" xml:space="preserve">
<g id="Layer_1_2_">
	<path opacity="0.3" fill="#010101" enable-background="new    " d="M506.923,887.086c178.551,0,323.328,22.359,323.328,49.955
		s-144.777,49.955-323.328,49.955c-178.55,0-323.31-22.359-323.31-49.955S328.373,887.086,506.923,887.086z"/>
	<g id="Layer_1_1_" display="none">
		<g display="inline">
			<g>
				<path opacity="0.2" fill="#010101" enable-background="new    " d="M883.458,650.888H122.486c0,0-103.073-15.01-108.374-120.368
					c0,0-36.849-156.293,149.288-184.388c0,0-73.77-219.514,166.818-309.066c0,0,201.926-59.704,300.292,151.029
					c0,0,87.796-64.99,187.869-1.749c0,0,87.813,59.68,59.729,173.843c0,0,112.384,15.799,115.896,151.029
					C994.02,511.201,1004.671,604.444,883.458,650.888z"/>
				<path fill="#FFFFFF" d="M878.026,634.626H117.071c0,0-103.09-15.025-108.35-120.368c0,0-36.864-156.289,149.264-184.371
					c0,0-73.746-219.506,166.819-309.075c0,0,201.942-59.695,300.291,151.029c0,0,87.78-64.973,187.901-1.748
					c0,0,87.765,59.696,59.697,173.86c0,0,112.383,15.806,115.895,151.004C988.588,494.924,999.239,588.199,878.026,634.626z"/>
				<path opacity="0.2" fill="#010101" enable-background="new    " d="M159.05,623.438h675.104c0,0,91.455-13.334,96.139-106.787
					c0,0,32.717-138.664-132.434-163.573c0,0,65.437-194.74-148.015-274.217c0,0-179.161-52.972-266.411,133.995
					c0,0-77.885-57.648-166.688-1.562c0,0-77.908,52.964-52.964,154.241c0,0-99.715,14.042-102.829,133.961
					C60.969,499.494,51.513,582.232,159.05,623.438z"/>
				<path fill="#FFFFFF" d="M163.88,609.047H839c0,0,91.421-13.058,96.104-104.479c0,0,32.701-135.636-132.434-160.012
					c0,0,65.436-190.495-147.995-268.226c0,0-179.145-51.809-266.412,131.06c0,0-77.917-56.396-166.721-1.512
					c0,0-77.893,51.809-52.98,150.882c0,0-99.715,13.708-102.813,131.063C65.783,487.801,56.31,568.751,163.88,609.047z"/>
				<path fill="#E4E6ED" d="M337.293,675.508c25,0,45.271,20.262,45.271,45.272c0,25.01-20.271,45.271-45.271,45.271
					c-25.002,0-45.281-20.261-45.281-45.271C292.012,695.77,312.291,675.508,337.293,675.508z"/>
				<path fill="#C2C4CE" d="M356.708,683.247c9.726,7.563,16.035,19.4,16.035,32.687c0,22.831-18.53,41.369-41.361,41.369
					c-7.408,0-14.351-1.951-20.384-5.382c6.992,5.431,15.773,8.666,25.328,8.666c22.847,0,41.345-18.521,41.345-41.337
					C377.686,703.818,369.246,690.338,356.708,683.247z"/>
				<path fill="#E4E6ED" d="M501.932,716.665c25.014,0,45.272,20.278,45.272,45.288c0,24.994-20.262,45.271-45.272,45.271
					c-25.01,0-45.277-20.274-45.277-45.271C456.651,736.943,476.921,716.665,501.932,716.665z"/>
				<path fill="#C2C4CE" d="M521.348,724.39c9.741,7.609,16.021,19.448,16.021,32.721c0,22.831-18.538,41.353-41.369,41.353
					c-7.407,0-14.334-1.936-20.359-5.35c6.992,5.415,15.769,8.648,25.32,8.648c22.863,0,41.351-18.538,41.351-41.337
					C542.308,744.943,533.854,731.48,521.348,724.39z"/>
				<path fill="#E4E6ED" d="M666.514,689.248c24.994,0,45.272,20.278,45.272,45.271c0,24.994-20.278,45.272-45.272,45.272
					c-24.992,0-45.288-20.278-45.288-45.272C621.226,709.526,641.521,689.248,666.514,689.248z"/>
				<path fill="#C2C4CE" d="M685.962,696.956c9.74,7.578,16.019,19.416,16.019,32.687c0,22.85-18.507,41.354-41.366,41.354
					c-7.399,0-14.346-1.938-20.359-5.334c6.978,5.396,15.789,8.651,25.303,8.651c22.896,0,41.388-18.51,41.388-41.339
					C706.924,717.527,698.469,704.046,685.962,696.956z"/>
			</g>
			<path opacity="0.3" fill="#010101" enable-background="new    " d="M506.923,887.086c178.551,0,323.328,22.359,323.328,49.955
				s-144.777,49.955-323.328,49.955c-178.55,0-323.31-22.359-323.31-49.955S328.373,887.086,506.923,887.086z"/>
		</g>
	</g>
</g>
<g>
	<path fill="#AD2D2D" d="M207.066,333.075c51.615-122.349,184.647-222.855,357.242-210.391
		c-47.226-2.972-40.492-31.244-193.983,15.288c-90.292,27.373-147.881,99.1-182.218,187.111
		c-49.382,126.571-27.567,364.816,218.477,429.609C233.555,669.375,137.979,496.843,207.066,333.075z"/>
	<path fill="#E2E2E2" d="M499.421,321.782c57.615,0,115.228,0.052,172.838-0.085c5.766-0.014,10.603,1.507,13.357,8.297
		c3.878,9.553-0.77,20.548-9.18,21.946c-2.137,0.357-4.329,0.178-6.498,0.178c-113.298,0.006-226.592,0.006-339.887,0
		c-2.17,0-4.36,0.179-6.505-0.132c-6.4-0.924-17.187-7.653-16.951-15.614c0.229-7.713,6.331-14.674,17.107-14.464
		c2.157,0.041,4.332-0.125,6.501-0.125C386.61,321.78,443.017,321.782,499.421,321.782z"/>
	<path fill="#E2E2E2" d="M499.425,394.111c57.615,0,115.226,0.053,172.836-0.085c5.769-0.013,10.602,1.508,13.356,8.3
		c3.874,9.555-0.77,20.545-9.182,21.944c-2.137,0.353-4.33,0.178-6.498,0.178c-113.296,0.007-226.593,0.007-339.889,0
		c-2.168,0-4.359,0.178-6.501-0.131c-6.401-0.925-17.187-7.658-16.949-15.616c0.229-7.714,4.942-14.671,17.107-14.464
		c2.159,0.037,4.333-0.122,6.502-0.122C386.61,394.108,443.019,394.111,499.425,394.111z"/>
	<path fill="#E2E2E2" d="M499.405,496.826c-56.406,0-112.814,0.01-169.218-0.01c-2.647,0-5.397,0.35-7.921-0.408
		c-6.181-1.856-15.768-7.306-15.565-15.188c0.201-7.78-0.003-14.823,16.152-14.557c1.901,0.033,3.844-0.237,5.771-0.237
		c114.259-0.01,228.52-0.013,342.777-0.003c10.518,0,15.788,5.502,15.318,16.041c-0.361,8.079-5.875,12.952-12.229,14.151
		c-2.364,0.447-2.731,0.207-5.141,0.207C612.703,496.83,556.052,496.826,499.405,496.826z"/>
	<path fill="#E2E2E2" d="M289.149,242.904c149.001,0,297.996,0,446.997,0c0.572,0.379,1.095,0.965,1.722,1.106
		c29.899,6.682,45.293,25.79,45.294,56.308c0.01,74.683,0.015,149.363-0.001,224.043c-0.005,34.28-22.787,57.038-57.064,57.038
		c-78.535,0.011-157.07,0.054-235.606-0.104c-4.997-0.01-8.447,1.445-11.934,4.965c-30.705,30.952-61.551,61.773-92.461,92.531
		c-4.039,4.014-8.681,7.421-13.042,11.108c-3.86,0-20.212,0-24.068,0c-9.375-5.37,0.25-13.453,0.494-24.113
		c0.579-25.296,0.183-50.619,0.183-75.931c0-2.578,0-5.163,0-8.452c-3.155,0-5.504,0-7.852,0c-15.908-0.004-31.82,0.178-47.729-0.04
		c-29.261-0.401-52.807-23.916-52.861-53.146c-0.145-77.143-0.111-154.283-0.011-231.422c0.032-24.914,17.122-46.221,41.164-52.001
		C284.654,244.245,286.894,243.538,289.149,242.904z M386.073,627.533c25.875-25.897,50.339-50.17,74.512-74.734
		c5.483-5.575,11.364-7.936,19.19-7.919c81.001,0.191,162.004,0.119,243.006,0.115c1.93,0,3.859,0.069,5.786-0.014
		c11.999-0.514,18.834-8.225,17.998-20.175c-0.15-2.16-0.055-4.34-0.055-6.506c-0.001-71.842-0.001-143.685-0.004-215.528
		c0-2.167,0.103-4.347-0.057-6.507c-0.631-8.555-6.513-14.889-14.973-15.917c-3.572-0.436-7.206-0.525-10.813-0.528
		c-139.104-0.023-278.208-0.021-417.308-0.018c-1.929,0-3.861-0.061-5.786,0.031c-13.828,0.65-19.984,7.075-19.986,20.938
		c-0.012,74.25-0.012,148.505-0.003,222.76c0.003,14.725,6.815,21.441,21.79,21.457c21.456,0.033,42.914,0.004,64.368,0.011
		c16.275,0.01,22.317,5.985,22.329,22.105C386.083,586.552,386.073,605.998,386.073,627.533z"/>
	<path fill="#AD2D2D" d="M905.107,442.014C905.12,36.252,473.979,51.179,473.979,51.179l4.369,26.635
		c7.51-0.498,15.075-0.777,22.707-0.777c194.385,0,351.962,163.404,351.962,364.977c0,201.568-157.578,364.969-351.962,364.969
		c-5.739,0-11.435-0.151-17.103-0.435l0.203,26.294C923.826,833.401,905.107,442.014,905.107,442.014z"/>
	<path fill="#FFFFFF" d="M268.324,242.904c149.001,0,297.998,0,446.998,0c0.571,0.379,1.096,0.965,1.722,1.106
		c29.897,6.682,45.293,25.79,45.296,56.308c0.005,74.683,0.015,149.363-0.003,224.043c-0.007,34.28-22.789,57.038-57.067,57.038
		c-78.532,0.011-157.069,0.054-235.604-0.104c-4.995-0.01-8.449,1.445-11.936,4.965c-30.705,30.952-61.551,61.773-92.46,92.531
		c-4.04,4.014-8.682,7.421-13.044,11.108c-3.859,0-7.716,0-11.573,0c-9.375-5.37-12.246-13.453-12-24.113
		c0.578-25.296,0.184-50.619,0.184-75.931c0-2.578,0-5.163,0-8.452c-3.156,0-5.504,0-7.853,0
		c-15.908-0.004-31.822,0.178-47.728-0.04c-29.263-0.401-52.806-23.916-52.861-53.146c-0.145-77.143-0.111-154.283-0.012-231.422
		c0.032-24.914,17.122-46.221,41.164-52.001C263.826,244.245,266.068,243.538,268.324,242.904z M365.247,627.533
		c25.873-25.897,50.339-50.17,74.512-74.734c5.484-5.575,11.366-7.936,19.188-7.919c81.001,0.191,162.006,0.119,243.005,0.115
		c1.932,0,3.864,0.069,5.785-0.014c12.001-0.514,18.836-8.225,17.998-20.175c-0.15-2.16-0.051-4.34-0.051-6.506
		c-0.001-71.842-0.001-143.685-0.004-215.528c0-2.167,0.103-4.347-0.056-6.507c-0.631-8.555-6.513-14.889-14.976-15.917
		c-3.571-0.436-7.206-0.525-10.812-0.528c-139.103-0.023-278.208-0.021-417.309-0.018c-1.928,0-3.859-0.061-5.785,0.031
		c-13.829,0.65-19.983,7.075-19.986,20.938c-0.014,74.25-0.014,148.505-0.002,222.76c0.002,14.725,6.814,21.441,21.79,21.457
		c21.456,0.033,42.912,0.004,64.368,0.011c16.273,0.01,22.315,5.985,22.329,22.105C365.255,586.552,365.247,605.998,365.247,627.533
		z"/>
	<path fill="#FFFFFF" d="M491.092,328.011c57.613,0,115.225,0.041,172.836-0.066c5.767-0.013,10.602,1.196,13.358,6.595
		c3.877,7.596-0.771,16.334-9.18,17.445c-2.138,0.283-4.332,0.14-6.498,0.14c-113.299,0.005-226.594,0.005-339.889,0
		c-2.169,0-4.357,0.142-6.503-0.105c-6.4-0.736-10.94-6.082-10.705-12.413c0.229-6.13,4.653-10.888,10.858-11.497
		c2.148-0.21,4.334-0.099,6.504-0.099C378.281,328.011,434.685,328.011,491.092,328.011z"/>
	<path fill="#FFFFFF" d="M491.095,400.341c57.611,0,115.223,0.042,172.834-0.066c5.768-0.013,10.602,1.198,13.356,6.598
		c3.876,7.596-0.771,16.331-9.18,17.447c-2.139,0.279-4.333,0.138-6.504,0.138c-113.293,0.003-226.588,0.003-339.885,0
		c-2.169,0-4.359,0.141-6.502-0.106c-6.402-0.737-10.94-6.087-10.703-12.416c0.231-6.13,4.651-10.888,10.858-11.494
		c2.151-0.214,4.334-0.099,6.504-0.099C378.281,400.341,434.688,400.341,491.095,400.341z"/>
	<path fill="#FFFFFF" d="M491.075,496.79c-56.406,0-112.814,0.004-169.219-0.01c-2.646,0-5.397,0.273-7.919-0.322
		c-6.181-1.476-9.521-5.798-9.319-12.047c0.203-6.171,3.563-10.382,9.904-11.547c1.87-0.35,3.844-0.188,5.771-0.188
		c114.258-0.006,228.521-0.01,342.778-0.003c10.518,0,15.787,4.362,15.318,12.719c-0.363,6.417-3.791,10.282-10.149,11.23
		c-2.362,0.353-4.812,0.168-7.221,0.168C604.374,496.79,547.723,496.79,491.075,496.79z"/>
	<path fill="#C63838" d="M460.248,51.192c263.211-1.741,414.818,172.988,421.703,373.681c3.843,112-33.466,208.723-111.185,289.292
		C701.416,786.06,615.06,822.52,516.647,832.588c-249.104,8.109-404.482-181.807-414.943-365.206
		c-6.387-112.019,28.005-210.109,104.379-292.106C282.577,93.15,394.918,52.49,460.248,51.192z M816.512,433.7
		c-1.068-10.049-2.437-27.512-4.856-44.83c-4.464-32.042-14.704-62.353-28.973-91.332c-12.876-26.13-28.937-50.131-48.357-71.852
		c-6.136-6.871-7.602-6.702-13.475,0.249c-2.536,3.007-5.342,5.785-7.938,8.753c-29.972,34.322-59.903,68.686-89.892,102.996
		c-18.949,21.68-38.016,43.26-56.952,64.948c-26.98,30.89-53.871,61.849-80.838,92.746c-18.527,21.224-37.143,42.363-55.687,63.573
		c-21.95,25.1-43.889,50.207-65.792,75.345c-19.182,22.018-38.254,44.126-57.521,66.07c-3.319,3.78-2.35,6.038,1.383,8.356
		c7.729,4.801,15.249,9.957,23.122,14.5c40.559,23.402,84.359,37.018,130.851,41.265c16.775,1.534,33.856,1.126,50.693,0.039
		c16.753-1.086,33.669-2.848,50.012-6.535c71.703-16.18,131.525-52.439,178.65-108.994
		C791.076,588.848,815.203,519.077,816.512,433.7z M166.803,440.094c0.435,24.246,2.701,47.109,7.594,69.731
		c11.909,55.05,36.381,103.723,73.729,145.89c4.058,4.578,5.949,4.401,9.88-0.146c12.463-14.413,24.951-28.805,37.498-43.146
		c33.149-37.896,66.352-75.74,99.493-113.646c45.402-51.935,90.754-103.913,136.141-155.862
		c32.176-36.819,64.364-73.623,96.551-110.429c14.729-16.841,29.487-33.659,44.2-50.521c5.554-6.363,5.598-7.298-1.592-11.668
		c-11.486-6.977-22.845-14.315-34.923-20.126c-50.582-24.335-103.8-36.652-160.149-32.471c-17.819,1.321-35.858,2.699-53.222,6.597
		c-72.382,16.244-132.8,52.699-180.289,109.995C191.982,294.29,168.186,363.685,166.803,440.094z"/>
	<path fill="#AD2D2D" d="M741.398,233.87L321.854,717.81c0,0-15.364-3.111-15.621-17.443
		c-0.256-14.332,399.122-464.027,421.926-483.541C728.16,216.825,736.686,223.227,741.398,233.87z"/>
</g>
</svg>
