<?xml version="1.0" encoding="utf-8"?>
<!-- Generator: Adobe Illustrator 16.0.0, SVG Export Plug-In . SVG Version: 6.00 Build 0)  -->
<!DOCTYPE svg PUBLIC "-//W3C//DTD SVG 1.1//EN" "http://www.w3.org/Graphics/SVG/1.1/DTD/svg11.dtd">
<svg version="1.1" id="Layer_1" xmlns="http://www.w3.org/2000/svg" xmlns:xlink="http://www.w3.org/1999/xlink" x="0px" y="0px"
	 width="72px" height="67.5px" viewBox="0 0 72 67.5" enable-background="new 0 0 72 67.5" xml:space="preserve">
<g id="Layer_2" display="none">
	<rect x="-1.417" y="-1.167" display="inline" fill="#7F1D1E" width="74.333" height="93.5"/>
</g>
<g id="Day_-_Light" display="none">
	<circle display="inline" fill="#F1E912" cx="36.293" cy="32.214" r="16.73"/>
	<rect x="34.821" y="1.505" display="inline" fill="#E8E617" width="2.111" height="10.551"/>
	
		<rect x="26.18" y="3.136" transform="matrix(-0.9398 0.3419 -0.3419 -0.9398 55.705 7.0036)" display="inline" fill="#E8E617" width="2.111" height="10.549"/>
	
		<rect x="18.619" y="7.622" transform="matrix(-0.7658 0.6431 -0.6431 -0.7658 43.0341 10.122)" display="inline" fill="#E8E617" width="2.109" height="10.551"/>
	
		<rect x="13.048" y="14.426" transform="matrix(-0.5003 0.8659 -0.8659 -0.5003 38.2174 17.3455)" display="inline" fill="#E8E617" width="2.11" height="10.551"/>
	
		<rect x="10.137" y="22.723" transform="matrix(-0.1734 0.9849 -0.9849 -0.1734 40.7065 21.8292)" display="inline" fill="#E8E617" width="2.11" height="10.551"/>
	
		<rect x="10.242" y="31.519" transform="matrix(0.1735 0.9848 -0.9848 0.1735 45.5719 19.283)" display="inline" fill="#E8E617" width="2.11" height="10.551"/>
	
		<rect x="13.349" y="39.744" transform="matrix(0.4997 0.8662 -0.8662 0.4997 46.2004 10.0452)" display="inline" fill="#E8E617" width="2.111" height="10.55"/>
	
		<rect x="19.077" y="46.41" transform="matrix(0.766 0.6428 -0.6428 0.766 37.9335 -0.8486)" display="inline" fill="#E8E617" width="2.112" height="10.551"/>
	
		<rect x="26.746" y="50.719" transform="matrix(0.9397 0.3419 -0.3419 0.9397 20.8217 -6.131)" display="inline" fill="#E8E617" width="2.111" height="10.551"/>
	<rect x="35.425" y="52.141" display="inline" fill="#E8E617" width="2.109" height="10.551"/>
	
		<rect x="44.068" y="50.51" transform="matrix(0.9396 -0.3422 0.3422 0.9396 -16.3653 18.8087)" display="inline" fill="#E8E617" width="2.112" height="10.552"/>
	
		<rect x="51.627" y="46.021" transform="matrix(0.7664 -0.6424 0.6424 0.7664 -20.6442 45.8289)" display="inline" fill="#E8E617" width="2.111" height="10.55"/>
	
		<rect x="57.197" y="39.221" transform="matrix(0.5006 -0.8657 0.8657 0.5006 -9.4288 72.6475)" display="inline" fill="#E8E617" width="2.111" height="10.55"/>
	
		<rect x="60.112" y="30.923" transform="matrix(0.1732 -0.9849 0.9849 0.1732 14.9224 90.1727)" display="inline" fill="#E8E617" width="2.109" height="10.551"/>
	
		<rect x="60.002" y="22.127" transform="matrix(-0.174 -0.9847 0.9847 -0.174 44.6985 92.2962)" display="inline" fill="#E8E617" width="2.11" height="10.551"/>
	
		<rect x="56.896" y="13.904" transform="matrix(-0.5 -0.866 0.866 -0.5 70.3155 78.9572)" display="inline" fill="#E8E617" width="2.111" height="10.55"/>
	
		<rect x="51.166" y="7.236" transform="matrix(-0.7662 -0.6426 0.6426 -0.7662 84.1917 55.6579)" display="inline" fill="#E8E617" width="2.111" height="10.551"/>
	
		<rect x="43.5" y="2.931" transform="matrix(-0.9397 -0.3419 0.3419 -0.9397 83.6189 31.1527)" display="inline" fill="#E8E617" width="2.111" height="10.55"/>
</g>
<g id="Day_-_Partly_Cloudy" display="none">
	<circle display="inline" fill="#F1E912" cx="46.027" cy="18.803" r="7.785"/>
	<rect x="45.343" y="4.515" display="inline" fill="#E8E617" width="0.981" height="4.909"/>
	
		<rect x="41.322" y="5.272" transform="matrix(-0.9401 0.3409 -0.3409 -0.9401 83.7556 0.7378)" display="inline" fill="#E8E617" width="0.983" height="4.909"/>
	
		<rect x="37.801" y="7.361" transform="matrix(-0.766 0.6428 -0.6428 -0.766 73.9341 -7.2802)" display="inline" fill="#E8E617" width="0.983" height="4.909"/>
	
		<rect x="35.212" y="10.525" transform="matrix(-0.4998 0.8662 -0.8662 -0.4998 64.789 -11.4564)" display="inline" fill="#E8E617" width="0.981" height="4.909"/>
	
		<rect x="33.856" y="14.388" transform="matrix(-0.1736 0.9848 -0.9848 -0.1736 56.896 -14.0598)" display="inline" fill="#E8E617" width="0.982" height="4.909"/>
	
		<rect x="33.904" y="18.48" transform="matrix(0.174 0.9847 -0.9847 0.174 49.0256 -16.5786)" display="inline" fill="#E8E617" width="0.982" height="4.909"/>
	
		<rect x="35.351" y="22.305" transform="matrix(0.5003 0.8658 -0.8658 0.5003 39.3481 -18.6617)" display="inline" fill="#E8E617" width="0.982" height="4.91"/>
	
		<rect x="38.017" y="25.41" transform="matrix(0.7656 0.6433 -0.6433 0.7656 26.9514 -18.2412)" display="inline" fill="#E8E617" width="0.982" height="4.908"/>
	
		<rect x="41.585" y="27.414" transform="matrix(0.94 0.3413 -0.3413 0.94 12.7211 -12.5672)" display="inline" fill="#E8E617" width="0.983" height="4.91"/>
	<rect x="45.623" y="28.075" display="inline" fill="#E8E617" width="0.98" height="4.91"/>
	
		<rect x="49.646" y="27.315" transform="matrix(0.9397 -0.3419 0.3419 0.9397 -7.1573 18.9382)" display="inline" fill="#E8E617" width="0.981" height="4.909"/>
	
		<rect x="53.162" y="25.228" transform="matrix(0.7665 -0.6422 0.6422 0.7665 -5.2508 40.9216)" display="inline" fill="#E8E617" width="0.982" height="4.909"/>
	
		<rect x="55.757" y="22.062" transform="matrix(0.5003 -0.8658 0.8658 0.5003 6.8793 60.952)" display="inline" fill="#E8E617" width="0.982" height="4.909"/>
	
		<rect x="57.11" y="18.201" transform="matrix(0.173 -0.9849 0.9849 0.173 27.2896 73.8144)" display="inline" fill="#E8E617" width="0.982" height="4.91"/>
	
		<rect x="57.062" y="14.11" transform="matrix(-0.1741 -0.9847 0.9847 -0.1741 51.2591 76.1222)" display="inline" fill="#E8E617" width="0.982" height="4.91"/>
	
		<rect x="55.615" y="10.285" transform="matrix(-0.4996 -0.8663 0.8663 -0.4996 73.0976 67.7069)" display="inline" fill="#E8E617" width="0.981" height="4.91"/>
	
		<rect x="52.947" y="7.179" transform="matrix(-0.7663 -0.6425 0.6425 -0.7663 88.1954 51.3516)" display="inline" fill="#E8E617" width="0.983" height="4.91"/>
	
		<rect x="49.378" y="5.176" transform="matrix(-0.9398 -0.3416 0.3416 -0.9398 94.1312 31.8386)" display="inline" fill="#E8E617" width="0.982" height="4.909"/>
	<g display="inline">
		<path opacity="0.1" enable-background="new    " d="M64.034,55.073H8.517c0,0-7.52-1.097-7.905-8.783
			c0,0-2.69-11.401,10.89-13.451c0,0-5.381-16.015,12.171-22.548c0,0,14.733-4.356,21.908,11.018c0,0,6.405-4.741,13.707-0.128
			c0,0,6.405,4.355,4.356,12.684c0,0,8.198,1.152,8.455,11.018C72.102,44.881,72.878,51.686,64.034,55.073z"/>
		<path fill="#FFFFFF" d="M63.639,53.887H8.122c0,0-7.521-1.097-7.905-8.783c0,0-2.69-11.401,10.89-13.451
			c0,0-5.381-16.015,12.171-22.549c0,0,14.734-4.356,21.908,11.018c0,0,6.405-4.74,13.709-0.128c0,0,6.404,4.355,4.354,12.684
			c0,0,8.199,1.153,8.455,11.017C71.704,43.693,72.482,50.499,63.639,53.887z"/>
	</g>
</g>
<g id="Day_-_Cloudy" display="none">
	<circle display="inline" fill="#F1E912" cx="46.027" cy="18.803" r="7.785"/>
	<rect x="45.343" y="4.515" display="inline" fill="#E8E617" width="0.981" height="4.909"/>
	
		<rect x="41.322" y="5.272" transform="matrix(-0.9401 0.3409 -0.3409 -0.9401 83.7556 0.7378)" display="inline" fill="#E8E617" width="0.983" height="4.909"/>
	
		<rect x="37.801" y="7.361" transform="matrix(-0.766 0.6428 -0.6428 -0.766 73.9341 -7.2802)" display="inline" fill="#E8E617" width="0.983" height="4.909"/>
	
		<rect x="35.212" y="10.525" transform="matrix(-0.4998 0.8662 -0.8662 -0.4998 64.789 -11.4564)" display="inline" fill="#E8E617" width="0.981" height="4.909"/>
	
		<rect x="33.856" y="14.388" transform="matrix(-0.1736 0.9848 -0.9848 -0.1736 56.896 -14.0598)" display="inline" fill="#E8E617" width="0.982" height="4.909"/>
	
		<rect x="33.904" y="18.48" transform="matrix(0.174 0.9847 -0.9847 0.174 49.0256 -16.5786)" display="inline" fill="#E8E617" width="0.982" height="4.909"/>
	
		<rect x="35.351" y="22.305" transform="matrix(0.5003 0.8658 -0.8658 0.5003 39.3481 -18.6617)" display="inline" fill="#E8E617" width="0.982" height="4.91"/>
	
		<rect x="38.017" y="25.41" transform="matrix(0.7656 0.6433 -0.6433 0.7656 26.9514 -18.2412)" display="inline" fill="#E8E617" width="0.982" height="4.908"/>
	
		<rect x="41.585" y="27.414" transform="matrix(0.94 0.3413 -0.3413 0.94 12.7211 -12.5672)" display="inline" fill="#E8E617" width="0.983" height="4.91"/>
	<rect x="45.623" y="28.075" display="inline" fill="#E8E617" width="0.98" height="4.91"/>
	
		<rect x="49.646" y="27.315" transform="matrix(0.9397 -0.3419 0.3419 0.9397 -7.1573 18.9382)" display="inline" fill="#E8E617" width="0.981" height="4.909"/>
	
		<rect x="53.162" y="25.228" transform="matrix(0.7665 -0.6422 0.6422 0.7665 -5.2508 40.9216)" display="inline" fill="#E8E617" width="0.982" height="4.909"/>
	
		<rect x="55.757" y="22.062" transform="matrix(0.5003 -0.8658 0.8658 0.5003 6.8793 60.952)" display="inline" fill="#E8E617" width="0.982" height="4.909"/>
	
		<rect x="57.11" y="18.201" transform="matrix(0.173 -0.9849 0.9849 0.173 27.2896 73.8144)" display="inline" fill="#E8E617" width="0.982" height="4.91"/>
	
		<rect x="57.062" y="14.11" transform="matrix(-0.1741 -0.9847 0.9847 -0.1741 51.2591 76.1222)" display="inline" fill="#E8E617" width="0.982" height="4.91"/>
	
		<rect x="55.615" y="10.285" transform="matrix(-0.4996 -0.8663 0.8663 -0.4996 73.0976 67.7069)" display="inline" fill="#E8E617" width="0.981" height="4.91"/>
	
		<rect x="52.947" y="7.179" transform="matrix(-0.7663 -0.6425 0.6425 -0.7663 88.1954 51.3516)" display="inline" fill="#E8E617" width="0.983" height="4.91"/>
	
		<rect x="49.378" y="5.176" transform="matrix(-0.9398 -0.3416 0.3416 -0.9398 94.1312 31.8386)" display="inline" fill="#E8E617" width="0.982" height="4.909"/>
	<g display="inline">
		<path opacity="0.1" enable-background="new    " d="M64.034,55.073H8.517c0,0-7.52-1.097-7.905-8.783
			c0,0-2.69-11.401,10.89-13.451c0,0-5.381-16.015,12.171-22.548c0,0,14.733-4.356,21.908,11.018c0,0,6.405-4.741,13.707-0.128
			c0,0,6.405,4.355,4.356,12.684c0,0,8.198,1.152,8.455,11.018C72.102,44.881,72.878,51.686,64.034,55.073z"/>
		<path fill="#FFFFFF" d="M63.639,53.887H8.122c0,0-7.521-1.097-7.905-8.783c0,0-2.69-11.401,10.89-13.451
			c0,0-5.381-16.015,12.171-22.549c0,0,14.734-4.356,21.908,11.018c0,0,6.405-4.74,13.709-0.128c0,0,6.404,4.355,4.354,12.684
			c0,0,8.199,1.153,8.455,11.017C71.704,43.693,72.482,50.499,63.639,53.887z"/>
	</g>
	<g display="inline">
		<path opacity="0.1" enable-background="new    " d="M11.186,53.07h49.253c0,0,6.672-0.973,7.014-7.791
			c0,0,2.387-10.116-9.662-11.934c0,0,4.773-14.208-10.797-20.005c0,0-13.071-3.865-19.437,9.775c0,0-5.683-4.206-12.161-0.114
			c0,0-5.684,3.864-3.865,11.253c0,0-7.274,1.023-7.502,9.773C4.029,44.027,3.34,50.064,11.186,53.07z"/>
		<path fill="#FFFFFF" d="M11.537,52.02h49.254c0,0,6.672-0.974,7.014-7.793c0,0,2.385-10.116-9.662-11.934
			c0,0,4.773-14.208-10.797-20.005c0,0-13.071-3.864-19.437,9.775c0,0-5.684-4.206-12.163-0.113c0,0-5.683,3.864-3.864,11.252
			c0,0-7.274,1.023-7.501,9.774C4.381,42.977,3.69,49.014,11.537,52.02z"/>
	</g>
</g>
<g id="Day_-_Rain" display="none">
	
		<rect x="23.242" y="57.09" transform="matrix(-0.7752 0.6317 -0.6317 -0.7752 81.3224 92.2598)" display="inline" fill="#344B85" width="2.005" height="7.021"/>
	
		<rect x="34.251" y="59.092" transform="matrix(-0.7754 0.6314 -0.6314 -0.7754 102.1197 88.8852)" display="inline" fill="#344B85" width="2.004" height="7.021"/>
	
		<rect x="45.26" y="57.09" transform="matrix(-0.7755 0.6313 -0.6313 -0.7755 120.3986 78.3897)" display="inline" fill="#344B85" width="2.005" height="7.02"/>
	<circle display="inline" fill="#F1E912" cx="46.027" cy="18.803" r="7.785"/>
	<rect x="45.343" y="4.515" display="inline" fill="#E8E617" width="0.981" height="4.909"/>
	
		<rect x="41.322" y="5.272" transform="matrix(-0.9401 0.3409 -0.3409 -0.9401 83.7556 0.7378)" display="inline" fill="#E8E617" width="0.983" height="4.909"/>
	
		<rect x="37.801" y="7.361" transform="matrix(-0.766 0.6428 -0.6428 -0.766 73.9341 -7.2802)" display="inline" fill="#E8E617" width="0.983" height="4.909"/>
	
		<rect x="35.212" y="10.525" transform="matrix(-0.4998 0.8662 -0.8662 -0.4998 64.789 -11.4564)" display="inline" fill="#E8E617" width="0.981" height="4.909"/>
	
		<rect x="33.856" y="14.388" transform="matrix(-0.1736 0.9848 -0.9848 -0.1736 56.896 -14.0598)" display="inline" fill="#E8E617" width="0.982" height="4.909"/>
	
		<rect x="33.904" y="18.48" transform="matrix(0.174 0.9847 -0.9847 0.174 49.0256 -16.5786)" display="inline" fill="#E8E617" width="0.982" height="4.909"/>
	
		<rect x="35.351" y="22.305" transform="matrix(0.5003 0.8658 -0.8658 0.5003 39.3481 -18.6617)" display="inline" fill="#E8E617" width="0.982" height="4.91"/>
	
		<rect x="38.017" y="25.41" transform="matrix(0.7656 0.6433 -0.6433 0.7656 26.9514 -18.2412)" display="inline" fill="#E8E617" width="0.982" height="4.908"/>
	
		<rect x="41.585" y="27.414" transform="matrix(0.94 0.3413 -0.3413 0.94 12.7211 -12.5672)" display="inline" fill="#E8E617" width="0.983" height="4.91"/>
	<rect x="45.623" y="28.075" display="inline" fill="#E8E617" width="0.98" height="4.91"/>
	
		<rect x="49.646" y="27.315" transform="matrix(0.9397 -0.3419 0.3419 0.9397 -7.1573 18.9382)" display="inline" fill="#E8E617" width="0.981" height="4.909"/>
	
		<rect x="53.162" y="25.228" transform="matrix(0.7665 -0.6422 0.6422 0.7665 -5.2508 40.9216)" display="inline" fill="#E8E617" width="0.982" height="4.909"/>
	
		<rect x="55.757" y="22.062" transform="matrix(0.5003 -0.8658 0.8658 0.5003 6.8793 60.952)" display="inline" fill="#E8E617" width="0.982" height="4.909"/>
	
		<rect x="57.11" y="18.201" transform="matrix(0.173 -0.9849 0.9849 0.173 27.2896 73.8144)" display="inline" fill="#E8E617" width="0.982" height="4.91"/>
	
		<rect x="57.062" y="14.11" transform="matrix(-0.1741 -0.9847 0.9847 -0.1741 51.2591 76.1222)" display="inline" fill="#E8E617" width="0.982" height="4.91"/>
	
		<rect x="55.615" y="10.285" transform="matrix(-0.4996 -0.8663 0.8663 -0.4996 73.0976 67.7069)" display="inline" fill="#E8E617" width="0.981" height="4.91"/>
	
		<rect x="52.947" y="7.179" transform="matrix(-0.7663 -0.6425 0.6425 -0.7663 88.1954 51.3516)" display="inline" fill="#E8E617" width="0.983" height="4.91"/>
	
		<rect x="49.378" y="5.176" transform="matrix(-0.9398 -0.3416 0.3416 -0.9398 94.1312 31.8386)" display="inline" fill="#E8E617" width="0.982" height="4.909"/>
	<g display="inline">
		<path opacity="0.1" enable-background="new    " d="M64.034,55.073H8.517c0,0-7.52-1.097-7.905-8.783
			c0,0-2.69-11.401,10.89-13.451c0,0-5.381-16.015,12.171-22.548c0,0,14.733-4.356,21.908,11.018c0,0,6.405-4.741,13.707-0.128
			c0,0,6.405,4.355,4.356,12.684c0,0,8.198,1.152,8.455,11.018C72.102,44.881,72.878,51.686,64.034,55.073z"/>
		<path fill="#FFFFFF" d="M63.639,53.887H8.122c0,0-7.521-1.097-7.905-8.783c0,0-2.69-11.401,10.89-13.451
			c0,0-5.381-16.015,12.171-22.549c0,0,14.734-4.356,21.908,11.018c0,0,6.405-4.74,13.709-0.128c0,0,6.404,4.355,4.354,12.684
			c0,0,8.199,1.153,8.455,11.017C71.704,43.693,72.482,50.499,63.639,53.887z"/>
	</g>
	<g display="inline">
		<path opacity="0.1" enable-background="new    " d="M11.186,53.07h49.253c0,0,6.672-0.973,7.014-7.791
			c0,0,2.387-10.116-9.662-11.934c0,0,4.773-14.208-10.797-20.005c0,0-13.071-3.865-19.437,9.775c0,0-5.683-4.206-12.161-0.114
			c0,0-5.684,3.864-3.865,11.253c0,0-7.274,1.023-7.502,9.773C4.029,44.027,3.34,50.064,11.186,53.07z"/>
		<path fill="#FFFFFF" d="M11.537,52.02h49.254c0,0,6.672-0.974,7.014-7.793c0,0,2.385-10.116-9.662-11.934
			c0,0,4.773-14.208-10.797-20.005c0,0-13.071-3.864-19.437,9.775c0,0-5.684-4.206-12.163-0.113c0,0-5.683,3.864-3.864,11.252
			c0,0-7.274,1.023-7.501,9.774C4.381,42.977,3.69,49.014,11.537,52.02z"/>
	</g>
</g>
<g id="Day_-_Fog" display="none">
	<circle display="inline" fill="#F1E912" cx="46.027" cy="18.803" r="7.785"/>
	
		<rect x="41.322" y="5.272" transform="matrix(-0.9401 0.3409 -0.3409 -0.9401 83.7556 0.7378)" display="inline" fill="#E8E617" width="0.983" height="4.909"/>
	
		<rect x="37.801" y="7.361" transform="matrix(-0.766 0.6428 -0.6428 -0.766 73.9341 -7.2802)" display="inline" fill="#E8E617" width="0.983" height="4.909"/>
	
		<rect x="35.212" y="10.525" transform="matrix(-0.4998 0.8662 -0.8662 -0.4998 64.789 -11.4564)" display="inline" fill="#E8E617" width="0.981" height="4.909"/>
	
		<rect x="33.856" y="14.388" transform="matrix(-0.1736 0.9848 -0.9848 -0.1736 56.896 -14.0598)" display="inline" fill="#E8E617" width="0.982" height="4.909"/>
	
		<rect x="33.904" y="18.48" transform="matrix(0.174 0.9847 -0.9847 0.174 49.0256 -16.5786)" display="inline" fill="#E8E617" width="0.982" height="4.909"/>
	
		<rect x="35.351" y="22.305" transform="matrix(0.5003 0.8658 -0.8658 0.5003 39.3481 -18.6617)" display="inline" fill="#E8E617" width="0.982" height="4.91"/>
	
		<rect x="38.017" y="25.41" transform="matrix(0.7656 0.6433 -0.6433 0.7656 26.9514 -18.2412)" display="inline" fill="#E8E617" width="0.982" height="4.908"/>
	
		<rect x="41.585" y="27.414" transform="matrix(0.94 0.3413 -0.3413 0.94 12.7211 -12.5672)" display="inline" fill="#E8E617" width="0.983" height="4.91"/>
	<rect x="45.623" y="28.075" display="inline" fill="#E8E617" width="0.98" height="4.91"/>
	
		<rect x="49.646" y="27.315" transform="matrix(0.9397 -0.3419 0.3419 0.9397 -7.1573 18.9382)" display="inline" fill="#E8E617" width="0.981" height="4.909"/>
	
		<rect x="53.162" y="25.228" transform="matrix(0.7665 -0.6422 0.6422 0.7665 -5.2508 40.9216)" display="inline" fill="#E8E617" width="0.982" height="4.909"/>
	
		<rect x="55.757" y="22.062" transform="matrix(0.5003 -0.8658 0.8658 0.5003 6.8793 60.952)" display="inline" fill="#E8E617" width="0.982" height="4.909"/>
	
		<rect x="57.11" y="18.201" transform="matrix(0.173 -0.9849 0.9849 0.173 27.2896 73.8144)" display="inline" fill="#E8E617" width="0.982" height="4.91"/>
	
		<rect x="57.062" y="14.11" transform="matrix(-0.1741 -0.9847 0.9847 -0.1741 51.2591 76.1222)" display="inline" fill="#E8E617" width="0.982" height="4.91"/>
	
		<rect x="55.615" y="10.285" transform="matrix(-0.4996 -0.8663 0.8663 -0.4996 73.0976 67.7069)" display="inline" fill="#E8E617" width="0.981" height="4.91"/>
	
		<rect x="52.947" y="7.179" transform="matrix(-0.7663 -0.6425 0.6425 -0.7663 88.1954 51.3516)" display="inline" fill="#E8E617" width="0.983" height="4.91"/>
	
		<rect x="49.378" y="5.176" transform="matrix(-0.9398 -0.3416 0.3416 -0.9398 94.1312 31.8386)" display="inline" fill="#E8E617" width="0.982" height="4.909"/>
	<rect x="45.343" y="4.515" display="inline" fill="#E8E617" width="0.981" height="4.909"/>
	<path display="inline" opacity="0.3" fill="#FFFFFF" enable-background="new    " d="M5.009,33.07c0,0,16.117-15.056,19.356-7.575
		c0.062,0.142,1.092,0.041,1.458-0.046c0,0,0.677,0.079,6.927-1.501c0,0,7.25-6.856,12.635-2.334
		c0.475,0.398,5.865,1.542,5.865,1.542s6.25-0.791,15.131,10.998c0,0,2.869,0.074,3.617,1.635c0.098,0.204-0.125,7.213-0.248,7.402
		c-4.623,7.115-6.5,7.117-14.5,8.699c0,0-10.5,5.01-51.444-0.705C3.806,51.186-0.864,32.916,5.009,33.07z"/>
</g>
<g id="Day_-_Sleet" display="none">
	<circle display="inline" fill="#F1E912" cx="46.027" cy="18.803" r="7.785"/>
	<rect x="45.343" y="4.515" display="inline" fill="#E8E617" width="0.981" height="4.909"/>
	
		<rect x="41.322" y="5.272" transform="matrix(-0.9401 0.3409 -0.3409 -0.9401 83.7556 0.7378)" display="inline" fill="#E8E617" width="0.983" height="4.909"/>
	
		<rect x="37.801" y="7.361" transform="matrix(-0.766 0.6428 -0.6428 -0.766 73.9341 -7.2802)" display="inline" fill="#E8E617" width="0.983" height="4.909"/>
	
		<rect x="35.212" y="10.525" transform="matrix(-0.4998 0.8662 -0.8662 -0.4998 64.789 -11.4564)" display="inline" fill="#E8E617" width="0.981" height="4.909"/>
	
		<rect x="33.856" y="14.388" transform="matrix(-0.1736 0.9848 -0.9848 -0.1736 56.896 -14.0598)" display="inline" fill="#E8E617" width="0.982" height="4.909"/>
	
		<rect x="33.904" y="18.48" transform="matrix(0.174 0.9847 -0.9847 0.174 49.0256 -16.5786)" display="inline" fill="#E8E617" width="0.982" height="4.909"/>
	
		<rect x="35.351" y="22.305" transform="matrix(0.5003 0.8658 -0.8658 0.5003 39.3481 -18.6617)" display="inline" fill="#E8E617" width="0.982" height="4.91"/>
	
		<rect x="38.017" y="25.41" transform="matrix(0.7656 0.6433 -0.6433 0.7656 26.9514 -18.2412)" display="inline" fill="#E8E617" width="0.982" height="4.908"/>
	
		<rect x="41.585" y="27.414" transform="matrix(0.94 0.3413 -0.3413 0.94 12.7211 -12.5672)" display="inline" fill="#E8E617" width="0.983" height="4.91"/>
	<rect x="45.623" y="28.075" display="inline" fill="#E8E617" width="0.98" height="4.91"/>
	
		<rect x="49.646" y="27.315" transform="matrix(0.9397 -0.3419 0.3419 0.9397 -7.1573 18.9382)" display="inline" fill="#E8E617" width="0.981" height="4.909"/>
	
		<rect x="53.162" y="25.228" transform="matrix(0.7665 -0.6422 0.6422 0.7665 -5.2508 40.9216)" display="inline" fill="#E8E617" width="0.982" height="4.909"/>
	
		<rect x="55.757" y="22.062" transform="matrix(0.5003 -0.8658 0.8658 0.5003 6.8793 60.952)" display="inline" fill="#E8E617" width="0.982" height="4.909"/>
	
		<rect x="57.11" y="18.201" transform="matrix(0.173 -0.9849 0.9849 0.173 27.2896 73.8144)" display="inline" fill="#E8E617" width="0.982" height="4.91"/>
	
		<rect x="57.062" y="14.11" transform="matrix(-0.1741 -0.9847 0.9847 -0.1741 51.2591 76.1222)" display="inline" fill="#E8E617" width="0.982" height="4.91"/>
	
		<rect x="55.615" y="10.285" transform="matrix(-0.4996 -0.8663 0.8663 -0.4996 73.0976 67.7069)" display="inline" fill="#E8E617" width="0.981" height="4.91"/>
	
		<rect x="52.947" y="7.179" transform="matrix(-0.7663 -0.6425 0.6425 -0.7663 88.1954 51.3516)" display="inline" fill="#E8E617" width="0.983" height="4.91"/>
	
		<rect x="49.378" y="5.176" transform="matrix(-0.9398 -0.3416 0.3416 -0.9398 94.1312 31.8386)" display="inline" fill="#E8E617" width="0.982" height="4.909"/>
	<g display="inline">
		<path opacity="0.1" enable-background="new    " d="M64.034,55.073H8.517c0,0-7.52-1.097-7.905-8.783
			c0,0-2.69-11.401,10.89-13.451c0,0-5.381-16.015,12.171-22.548c0,0,14.733-4.356,21.908,11.018c0,0,6.405-4.741,13.707-0.128
			c0,0,6.405,4.355,4.356,12.684c0,0,8.198,1.152,8.455,11.018C72.102,44.881,72.878,51.686,64.034,55.073z"/>
		<path fill="#FFFFFF" d="M63.639,53.887H8.122c0,0-7.521-1.097-7.905-8.783c0,0-2.69-11.401,10.89-13.451
			c0,0-5.381-16.015,12.171-22.549c0,0,14.734-4.356,21.908,11.018c0,0,6.405-4.74,13.709-0.128c0,0,6.404,4.355,4.354,12.684
			c0,0,8.199,1.153,8.455,11.017C71.704,43.693,72.482,50.499,63.639,53.887z"/>
	</g>
	<g display="inline">
		<path opacity="0.1" enable-background="new    " d="M11.186,53.07h49.253c0,0,6.672-0.973,7.014-7.791
			c0,0,2.387-10.116-9.662-11.934c0,0,4.773-14.208-10.797-20.005c0,0-13.071-3.865-19.437,9.775c0,0-5.683-4.206-12.161-0.114
			c0,0-5.684,3.864-3.865,11.253c0,0-7.274,1.023-7.502,9.773C4.029,44.027,3.34,50.064,11.186,53.07z"/>
		<path fill="#FFFFFF" d="M11.537,52.02h49.254c0,0,6.672-0.974,7.014-7.793c0,0,2.385-10.116-9.662-11.934
			c0,0,4.773-14.208-10.797-20.005c0,0-13.071-3.864-19.437,9.775c0,0-5.684-4.206-12.163-0.113c0,0-5.683,3.864-3.864,11.252
			c0,0-7.274,1.023-7.501,9.774C4.381,42.977,3.69,49.014,11.537,52.02z"/>
	</g>
	<g display="inline">
		<circle fill="#A9CED2" cx="24.751" cy="59.316" r="2.371"/>
		<path opacity="0.3" fill="#A9CED2" enable-background="new    " d="M24.903,57.107c0.626,0.16,1.174,0.6,1.45,1.238
			c0.475,1.098-0.03,2.371-1.128,2.848c-0.356,0.152-0.73,0.203-1.091,0.166c0.45,0.115,0.938,0.086,1.397-0.111
			c1.099-0.477,1.603-1.75,1.129-2.848C26.339,57.66,25.652,57.188,24.903,57.107z"/>
	</g>
	<g display="inline">
		<circle fill="#A9CED2" cx="34.759" cy="61.318" r="2.371"/>
		<path opacity="0.3" fill="#A9CED2" enable-background="new    " d="M34.911,59.109c0.626,0.16,1.174,0.6,1.45,1.238
			c0.475,1.098-0.03,2.371-1.128,2.848c-0.356,0.152-0.73,0.203-1.091,0.166c0.45,0.115,0.938,0.087,1.397-0.111
			c1.1-0.477,1.604-1.75,1.129-2.848C36.347,59.662,35.66,59.189,34.911,59.109z"/>
	</g>
	<g display="inline">
		<circle fill="#A9CED2" cx="44.768" cy="58.314" r="2.371"/>
		<path opacity="0.3" fill="#A9CED2" enable-background="new    " d="M44.919,56.107c0.626,0.16,1.174,0.599,1.45,1.236
			c0.475,1.098-0.029,2.372-1.128,2.848c-0.354,0.154-0.729,0.205-1.091,0.166c0.449,0.115,0.938,0.088,1.396-0.11
			c1.099-0.476,1.604-1.75,1.129-2.847C46.354,56.659,45.668,56.188,44.919,56.107z"/>
	</g>
</g>
<g id="Day_-_Wind" display="none">
	<circle display="inline" fill="#F1E912" cx="46.027" cy="18.803" r="7.785"/>
	<rect x="45.343" y="4.515" display="inline" fill="#E8E617" width="0.981" height="4.909"/>
	
		<rect x="41.322" y="5.272" transform="matrix(-0.9401 0.3409 -0.3409 -0.9401 83.7556 0.7378)" display="inline" fill="#E8E617" width="0.983" height="4.909"/>
	
		<rect x="37.801" y="7.361" transform="matrix(-0.766 0.6428 -0.6428 -0.766 73.9341 -7.2802)" display="inline" fill="#E8E617" width="0.983" height="4.909"/>
	
		<rect x="35.212" y="10.525" transform="matrix(-0.4998 0.8662 -0.8662 -0.4998 64.789 -11.4564)" display="inline" fill="#E8E617" width="0.981" height="4.909"/>
	
		<rect x="33.856" y="14.388" transform="matrix(-0.1736 0.9848 -0.9848 -0.1736 56.896 -14.0598)" display="inline" fill="#E8E617" width="0.982" height="4.909"/>
	
		<rect x="33.904" y="18.48" transform="matrix(0.174 0.9847 -0.9847 0.174 49.0256 -16.5786)" display="inline" fill="#E8E617" width="0.982" height="4.909"/>
	
		<rect x="35.351" y="22.305" transform="matrix(0.5003 0.8658 -0.8658 0.5003 39.3481 -18.6617)" display="inline" fill="#E8E617" width="0.982" height="4.91"/>
	
		<rect x="38.017" y="25.41" transform="matrix(0.7656 0.6433 -0.6433 0.7656 26.9514 -18.2412)" display="inline" fill="#E8E617" width="0.982" height="4.908"/>
	
		<rect x="41.585" y="27.414" transform="matrix(0.94 0.3413 -0.3413 0.94 12.7211 -12.5672)" display="inline" fill="#E8E617" width="0.983" height="4.91"/>
	<rect x="45.623" y="28.075" display="inline" fill="#E8E617" width="0.98" height="4.91"/>
	
		<rect x="49.646" y="27.315" transform="matrix(0.9397 -0.3419 0.3419 0.9397 -7.1573 18.9382)" display="inline" fill="#E8E617" width="0.981" height="4.909"/>
	
		<rect x="53.162" y="25.228" transform="matrix(0.7665 -0.6422 0.6422 0.7665 -5.2508 40.9216)" display="inline" fill="#E8E617" width="0.982" height="4.909"/>
	
		<rect x="55.757" y="22.062" transform="matrix(0.5003 -0.8658 0.8658 0.5003 6.8793 60.952)" display="inline" fill="#E8E617" width="0.982" height="4.909"/>
	
		<rect x="57.11" y="18.201" transform="matrix(0.173 -0.9849 0.9849 0.173 27.2896 73.8144)" display="inline" fill="#E8E617" width="0.982" height="4.91"/>
	
		<rect x="57.062" y="14.11" transform="matrix(-0.1741 -0.9847 0.9847 -0.1741 51.2591 76.1222)" display="inline" fill="#E8E617" width="0.982" height="4.91"/>
	
		<rect x="55.615" y="10.285" transform="matrix(-0.4996 -0.8663 0.8663 -0.4996 73.0976 67.7069)" display="inline" fill="#E8E617" width="0.981" height="4.91"/>
	
		<rect x="52.947" y="7.179" transform="matrix(-0.7663 -0.6425 0.6425 -0.7663 88.1954 51.3516)" display="inline" fill="#E8E617" width="0.983" height="4.91"/>
	
		<rect x="49.378" y="5.176" transform="matrix(-0.9398 -0.3416 0.3416 -0.9398 94.1312 31.8386)" display="inline" fill="#E8E617" width="0.982" height="4.909"/>
	<g display="inline">
		<path opacity="0.1" enable-background="new    " d="M29.725,52.823H6.415c0,0-3.157-0.462-3.318-3.688c0,0-1.13-4.785,4.572-5.646
			c0,0-2.259-6.724,5.109-9.467c0,0,6.186-1.829,9.198,4.626c0,0,2.689-1.991,5.755-0.055c0,0,2.689,1.829,1.829,5.325
			c0,0,3.442,0.483,3.55,4.626C33.11,48.544,33.438,51.4,29.725,52.823z"/>
		<path fill="#FFFFFF" d="M29.558,52.325H6.249c0,0-3.158-0.461-3.319-3.688c0,0-1.129-4.787,4.572-5.646
			c0,0-2.259-6.725,5.109-9.467c0,0,6.186-1.829,9.198,4.625c0,0,2.69-1.989,5.757-0.053c0,0,2.688,1.828,1.828,5.324
			c0,0,3.442,0.484,3.55,4.625C32.944,48.045,33.271,50.902,29.558,52.325z"/>
	</g>
	<g display="inline">
		<path opacity="0.1" enable-background="new    " d="M66.725,52.573h-23.31c0,0-3.157-0.462-3.317-3.688
			c0,0-1.131-4.785,4.571-5.646c0,0-2.259-6.724,5.108-9.467c0,0,6.188-1.829,9.199,4.626c0,0,2.688-1.991,5.754-0.055
			c0,0,2.689,1.829,1.83,5.325c0,0,3.441,0.483,3.549,4.626C70.109,48.294,70.438,51.15,66.725,52.573z"/>
		<path fill="#FFFFFF" d="M66.559,52.075h-23.31c0,0-3.157-0.461-3.319-3.688c0,0-1.129-4.787,4.572-5.646
			c0,0-2.259-6.725,5.109-9.467c0,0,6.187-1.829,9.197,4.625c0,0,2.69-1.989,5.758-0.053c0,0,2.688,1.828,1.828,5.324
			c0,0,3.441,0.484,3.549,4.625C69.943,47.795,70.271,50.652,66.559,52.075z"/>
	</g>
	<g display="inline">
		<path opacity="0.1" enable-background="new    " d="M44.975,34.073h-23.31c0,0-3.157-0.461-3.318-3.688
			c0,0-1.13-4.786,4.572-5.646c0,0-2.259-6.724,5.109-9.467c0,0,6.187-1.829,9.199,4.626c0,0,2.688-1.991,5.754-0.054
			c0,0,2.689,1.829,1.83,5.325c0,0,3.441,0.484,3.549,4.626C48.359,29.794,48.688,32.651,44.975,34.073z"/>
		<path fill="#FFFFFF" d="M44.809,33.575h-23.31c0,0-3.157-0.461-3.319-3.688c0,0-1.129-4.787,4.572-5.647
			c0,0-2.259-6.724,5.109-9.467c0,0,6.187-1.829,9.198,4.626c0,0,2.69-1.99,5.758-0.054c0,0,2.688,1.829,1.828,5.325
			c0,0,3.441,0.484,3.549,4.625C48.193,29.295,48.521,32.152,44.809,33.575z"/>
	</g>
</g>
<g id="Ruler">
</g>
<g>
	<path opacity="0.2" enable-background="new    " d="M59.027,40.311H13.328c0,0-6.19-0.902-6.508-7.229
		c0,0-2.213-9.386,8.965-11.073c0,0-4.43-13.183,10.018-18.561c0,0,12.127-3.585,18.034,9.07c0,0,5.272-3.903,11.282-0.105
		c0,0,5.273,3.584,3.587,10.44c0,0,6.749,0.949,6.96,9.07C65.667,31.922,66.307,37.522,59.027,40.311z"/>
	<path fill="#FFFFFF" d="M58.701,39.334H13.003c0,0-6.191-0.902-6.507-7.229c0,0-2.214-9.385,8.964-11.072
		c0,0-4.429-13.182,10.018-18.561c0,0,12.128-3.585,18.034,9.07c0,0,5.271-3.902,11.284-0.105c0,0,5.271,3.585,3.585,10.441
		c0,0,6.749,0.949,6.96,9.068C65.341,30.944,65.981,36.546,58.701,39.334z"/>
	<path opacity="0.2" enable-background="new    " d="M15.524,38.662h40.543c0,0,5.492-0.801,5.773-6.413
		c0,0,1.965-8.327-7.953-9.823c0,0,3.929-11.695-8.889-16.468c0,0-10.759-3.181-15.999,8.047c0,0-4.677-3.462-10.01-0.094
		c0,0-4.679,3.181-3.181,9.263c0,0-5.988,0.843-6.175,8.045C9.634,31.219,9.066,36.188,15.524,38.662z"/>
	<path fill="#FFFFFF" d="M15.814,37.798h40.543c0,0,5.49-0.784,5.772-6.275c0,0,1.964-8.145-7.953-9.609
		c0,0,3.929-11.44-8.888-16.108c0,0-10.758-3.111-15.999,7.871c0,0-4.679-3.387-10.012-0.091c0,0-4.678,3.111-3.182,9.061
		c0,0-5.988,0.823-6.174,7.87C9.923,30.516,9.354,35.378,15.814,37.798z"/>
	<circle fill="#E4E6ED" cx="26.228" cy="44.508" r="2.719"/>
	<path fill="#C2C4CE" enable-background="new    " d="M27.394,42.254c0.584,0.454,0.963,1.165,0.963,1.963
		c0,1.371-1.113,2.484-2.484,2.484c-0.445,0-0.862-0.117-1.224-0.323c0.42,0.326,0.947,0.521,1.521,0.521
		c1.372,0,2.483-1.113,2.483-2.483C28.654,43.489,28.147,42.68,27.394,42.254z"/>
	<circle fill="#E4E6ED" cx="36.115" cy="46.98" r="2.719"/>
	<path fill="#C2C4CE" enable-background="new    " d="M37.281,44.725c0.585,0.456,0.962,1.167,0.962,1.964
		c0,1.371-1.113,2.484-2.484,2.484c-0.445,0-0.861-0.117-1.223-0.321c0.42,0.325,0.947,0.519,1.52,0.519
		c1.373,0,2.484-1.113,2.484-2.482C38.54,45.959,38.032,45.151,37.281,44.725z"/>
	<circle fill="#E4E6ED" cx="45.999" cy="45.333" r="2.719"/>
	<path fill="#C2C4CE" enable-background="new    " d="M47.167,43.077c0.585,0.455,0.962,1.166,0.962,1.963
		c0,1.372-1.112,2.484-2.484,2.484c-0.445,0-0.862-0.117-1.223-0.321c0.419,0.325,0.948,0.519,1.52,0.519
		c1.374,0,2.485-1.111,2.485-2.482C48.426,44.312,47.918,43.503,47.167,43.077z"/>
</g>
<ellipse opacity="0.3" cx="36" cy="63.499" rx="16" ry="3"/>
</svg>
