<?xml version="1.0" encoding="utf-8"?>
<!-- Generator: Adobe Illustrator 16.0.0, SVG Export Plug-In . SVG Version: 6.00 Build 0)  -->
<!DOCTYPE svg PUBLIC "-//W3C//DTD SVG 1.1//EN" "http://www.w3.org/Graphics/SVG/1.1/DTD/svg11.dtd">
<svg version="1.1" id="Layer_1" xmlns="http://www.w3.org/2000/svg" xmlns:xlink="http://www.w3.org/1999/xlink" x="0px" y="0px"
	 width="864px" height="864px" viewBox="0 0 864 864" enable-background="new 0 0 864 864" xml:space="preserve">
<g id="Layer_1_1_" display="none">
	
		<image display="inline" overflow="visible" enable-background="new    " width="999" height="1000" xlink:href="../../../../../../../../Art/Vectors/mechanical and material/lightbulb/AFBBF48.jpg"  transform="matrix(0.8363 0 0 0.8363 15.2495 15.2007)">
	</image>
</g>
<path fill="#0B0B0B" d="M500.195,833.431l-66.386,2.329l-66.387-2.329c0,0,14.094,25.839,21.14,32.889l44.682,1.145v0.028
	l0.564-0.016l0.563,0.016v-0.028l44.683-1.145C486.102,859.27,500.195,833.431,500.195,833.431z"/>
<path fill="#9B9A9A" d="M319.268,647.858c0,0,101.595,9.983,216.696-0.586c0,0-5.283,11.158-5.283,19.38
	c0,0,1.175,9.396-1.178,16.442c0,0-11.743,10.569,0,22.316c0,0,4.699,5.874-4.695,12.92c0,0-5.873,10.57,3.521,11.745
	c0,0,8.222,12.332-1.761,14.682c0,0-6.459,7.048,0,14.094c0,0,12.92,7.635,1.761,14.094c0,0-7.047,6.46-1.173,15.855
	c0,0,9.395,0.586,1.173,11.746c0,0-10.569,11.744-14.682,19.967c0,0-8.808,12.334-17.618,14.094c0,0-109.815,2.936-128.607-1.177
	c0,0-17.618-8.219-24.078-19.966c0,0-3.525-4.11-8.809-8.219c0,0-2.937-1.764,2.936-6.462c0,0-1.762-8.219-7.047-12.332
	c0,0-2.35-9.395,5.872-13.507c0,0,8.22-4.698-3.523-14.094c0,0-4.111-4.698,0.587-10.571c0,0,8.809-5.283-0.587-15.268
	c0,0-8.222-7.633,1.173-15.854c0,0,5.873-9.397-5.284-17.03c0,0-1.175-31.124-1.175-35.822s0,4.698,0,4.698
	S322.791,649.622,319.268,647.858z"/>
<path fill="#AFAFB0" d="M336.884,809.159c0,0,126.066,8.61,182.44-1.568c0,0,11.746-6.263,12.529-14.877c0,0,0-7.048-14.876-3.914
	c0,0-94.746,10.963-110.403,10.181c0,0-57.16,3.912-72.819,3.13C333.755,802.112,332.97,809.942,336.884,809.159z"/>
<path fill="#AFAFB0" d="M526.373,756.306c0,0,13.311,11.747,0,16.443c0,0-137.81,22.706-191.837,17.226
	c0,0-10.178-10.178-0.781-15.659C333.755,774.314,382.299,785.276,526.373,756.306z"/>
<path fill="#AFAFB0" d="M526.373,728.511c0,0,11.744,10.177-0.783,15.657c0,0-59.51,16.444-187.137,18.793
	c0,0-14.095-6.655-2.351-16.834C336.102,746.129,455.119,748.085,526.373,728.511z"/>
<path fill="#AFAFB0" d="M526.373,701.887c0,0,8.61,7.83,1.565,13.312c0,0-116.667,19.574-194.967,18.793
	c0,0-5.481-7.831-2.35-13.312C330.621,720.68,471.563,715.198,526.373,701.887z"/>
<path fill="#AFAFB0" d="M529.503,682.313c0,0-1.563,7.83-7.827,7.83c0,0-155.037,7.046-187.921,16.442c0,0-5.481-3.132-5.481-42.281
	c0,0-2.35-15.662-7.049-15.662c0,0,158.167,8.612,213.762,0.785c0,0-3.915,10.179-3.915,14.096
	C531.071,663.522,532.634,678.397,529.503,682.313z"/>
<path fill="#F7EE43" d="M661.053,239.132c0,129.085-165.877,254.46-233.728,233.726c-84.567-25.839-233.726-104.643-233.726-233.726
	c0-129.083,104.643-233.726,233.726-233.726C556.408,5.404,661.053,110.047,661.053,239.132z"/>
<path opacity="0.01" fill="#070707" enable-background="new    " d="M427.325,3.055c-129.083,0-233.726,104.643-233.726,233.726
	c0,129.084,149.159,207.888,233.726,233.727c67.851,20.732,233.728-104.643,233.728-233.727
	C661.053,107.698,556.408,3.055,427.325,3.055z M428.497,469.53c-77.342-23.632-213.759-95.703-213.759-213.76
	S310.441,42.01,428.497,42.01c118.057,0,213.76,95.703,213.76,213.76S490.551,488.491,428.497,469.53z"/>
<g opacity="0.05">
	<path fill="#707071" d="M405.77,653.158c-51.545-0.738-86.034-4.124-86.034-4.124c3.523,1.763,8.222,21.141,8.222,21.141
		s0-2.929,0-4.697c0,4.697,1.175,35.823,1.175,35.823c11.158,7.634,5.285,17.028,5.285,17.028
		c-9.396,8.223-1.175,15.857-1.175,15.857c9.396,9.981,0.587,15.268,0.587,15.268c-4.699,5.874-0.587,10.569-0.587,10.569
		c11.745,9.397,3.523,14.095,3.523,14.095c-8.221,4.109-5.872,13.507-5.872,13.507c5.286,4.111,7.046,12.333,7.046,12.333
		c-5.873,4.697-2.936,6.458-2.936,6.458c5.286,4.111,8.81,8.222,8.81,8.222c6.458,11.745,24.076,19.966,24.076,19.966
		c5.84,1.277,20.479,1.874,37.877,2.092V653.158H405.77z"/>
	<path fill="#707071" d="M528.799,774.118c11.156-6.458-1.762-14.093-1.762-14.093c-6.46-7.049,0-14.095,0-14.095
		c9.983-2.349,1.762-14.681,1.762-14.681c-9.396-1.176-3.524-11.745-3.524-11.745c9.397-7.049,4.698-12.92,4.698-12.92
		c-11.743-11.744,0-22.314,0-22.314c2.351-7.049,1.176-16.446,1.176-16.446c0-8.219,5.284-19.379,5.284-19.379
		c-30.131,2.767-59.334,4.126-86.031,4.624V836.63c25.155-0.288,46.099-0.848,46.099-0.848c8.809-1.762,17.617-14.096,17.617-14.096
		c4.113-8.222,14.683-19.968,14.683-19.968c8.221-11.157-1.176-11.745-1.176-11.745
		C521.751,780.577,528.799,774.118,528.799,774.118z"/>
</g>
<rect x="405.771" y="651.382" opacity="0.08" fill="#A09F9F" enable-background="new    " width="44.631" height="183.225"/>
<g>
	<path fill="#EAEAEA" d="M552.204,620.285c-75.687,11.902-126.706,8.814-126.706,8.814l0.022,0.362
		c-13.019,0.398-59.261,0.854-122.955-9.376c0,0-6.103,2.693,0.342,16.009c0,0,11.705,6.563,11.415,11.253
		c0,0,65.846,12.062,113.182,10.105l0.012-0.195c47.303,2.033,112.832-9.747,112.832-9.747
		c-0.273-4.689,11.454-11.213,11.454-11.213C558.295,623,552.204,620.285,552.204,620.285z"/>
	<path fill="#FFFFFF" d="M631.688,334.266H430.724h-6.923H222.837c0,0-8.222-1.173,5.872,16.444c0,0,55.203,115.1,59.901,166.779
		c0,0,14.094,99.833,11.744,104.531c0,0,107.837,13.742,126.909,8.126c19.07,5.616,126.907-8.126,126.907-8.126
		c-2.35-4.698,11.744-104.531,11.744-104.531c4.699-51.679,59.901-166.78,59.901-166.78
		C639.911,333.092,631.688,334.266,631.688,334.266z"/>
	<path fill="#EAEAEA" d="M224.015,337.788h200.962h6.926h200.962c0,0,0.932-0.13,1.63,0.365c2.356-5.627-1.632-5.064-1.632-5.064
		H431.9h-6.925H224.012c0,0-3.989-0.563-1.629,5.065C223.08,337.658,224.015,337.788,224.015,337.788z"/>
</g>
<g opacity="0.01">
	<path fill="#2D2D2D" d="M351.744,651.242c-19.446-1.091-30.831-2.209-30.831-2.209c3.523,1.762,8.221,21.141,8.221,21.141
		s0-2.929,0-4.698c0,4.698,1.174,35.824,1.174,35.824c11.158,7.634,5.286,17.028,5.286,17.028
		c-9.396,8.222-1.174,15.856-1.174,15.856c9.397,9.982,0.586,15.27,0.586,15.27c-4.699,5.873-0.586,10.569-0.586,10.569
		c11.745,9.396,3.523,14.094,3.523,14.094c-8.221,4.109-5.873,13.507-5.873,13.507c5.285,4.111,7.048,12.333,7.048,12.333
		c-5.874,4.697-2.936,6.458-2.936,6.458c5.283,4.111,8.809,8.221,8.809,8.221c1.669,3.037,4.089,5.837,6.752,8.32V651.242
		L351.744,651.242z"/>
	<path fill="#2D2D2D" d="M529.975,774.118c11.157-6.458-1.762-14.093-1.762-14.093c-6.461-7.049,0-14.095,0-14.095
		c9.983-2.349,1.762-14.681,1.762-14.681c-9.396-1.176-3.524-11.745-3.524-11.745c9.396-7.049,4.699-12.92,4.699-12.92
		c-11.745-11.744,0-22.314,0-22.314c2.35-7.049,1.174-16.446,1.174-16.446c0-8.219,5.284-19.379,5.284-19.379
		c-10.408,0.957-20.706,1.743-30.829,2.384v180.004c4.903-4.099,8.514-9.146,8.514-9.146c4.112-8.223,14.683-19.968,14.683-19.968
		c8.221-11.157-1.175-11.745-1.175-11.745C522.927,780.577,529.975,774.118,529.975,774.118z"/>
</g>
<path opacity="0.4" fill="#FFFFFF" enable-background="new    " d="M281.447,154.631c0,0-0.179-60.497,35.062-3.676
	c0,0-35.236,41.03-10.666,158.646C305.844,309.603,273.316,247.613,281.447,154.631z"/>
</svg>
