<?xml version="1.0" encoding="utf-8"?>
<!-- Generator: Adobe Illustrator 16.0.0, SVG Export Plug-In . SVG Version: 6.00 Build 0)  -->
<!DOCTYPE svg PUBLIC "-//W3C//DTD SVG 1.1//EN" "http://www.w3.org/Graphics/SVG/1.1/DTD/svg11.dtd">
<svg version="1.1" id="Layer_1" xmlns="http://www.w3.org/2000/svg" xmlns:xlink="http://www.w3.org/1999/xlink" x="0px" y="0px"
	 width="1000px" height="1000px" viewBox="0 0 1000 1000" enable-background="new 0 0 1000 1000" xml:space="preserve">
<path fill="#614168" d="M469.64,290.654c173.695,0.018,348.396,0.035,522.095,0.052c2.397,12.917,0.338,25.957,1.074,38.915
	c0.248,4.354-2.021,5.085-5.654,4.992c-4.45-0.114-8.912,0.155-13.368,0.256c-55.558-0.077-111.115-0.179-166.674-0.224
	c-112.16-0.092-225.319-0.151-337.479-0.222C469.635,319.833,469.637,305.244,469.64,290.654z"/>
<path fill="#685B8E" d="M470.635,334.423c112.158,0.071,224.316,0.13,336.479,0.222c55.559,0.044,111.115,0.147,166.674,0.224
	c-1.695,14.545,1.286,29.258-1.563,43.762c-1.035-0.075-2.074-0.216-3.113-0.216c-166.178,0.021-332.356,0.053-498.538,0.085
	c-0.001,0.002-0.063-0.098-0.059-0.098c-0.648-13.933,2.391-28.028-1.857-41.798C469.314,335.877,469.975,335.15,470.635,334.423z"
	/>
<path fill="#1E1F49" d="M62.238,309.446c0.052,9.519,0.104,19.038,0.161,28.555c-9.801,0.104-19.734,2.909-29.33-1.401
	C42.792,327.55,52.514,318.499,62.238,309.446z"/>
<path fill="#483866" d="M176.698,420.264c54.137-0.107,108.274-0.146,162.41-0.424c6.333-0.033,8.502,2.111,8.173,7.895
	c-0.454,7.947-0.353,15.93-0.486,23.893c-2.806,3.404-1.458,7.379-1.464,11.07c-0.092,60.811-0.204,121.615,0.1,182.424
	c0.041,7.967-1.955,11.954-11.024,11.7c-18.793-0.527-37.622,0.125-56.436,0.291c-33.738-0.205-67.477-0.408-101.215-0.613
	C176.736,578.087,176.717,498.674,176.698,420.264z"/>
<path fill="#6B4E75" d="M470.622,738.479c-45.164-0.026-90.326-0.052-135.49-0.076c0.057-24.16,0.113-58.565,0.168-82.721
	c40.689-0.004,81.38,0,122.07-0.02c4.522-0.002,9.175,0.662,13.256-2.154c-0.001-0.004,0.421,0.406,0.417,0.406
	C470.902,678.681,470.762,713.704,470.622,738.479z"/>
<path fill="#594A7C" d="M176.698,420.264c0.018,78.41,0.036,156.822,0.053,235.236c-13.276,0.055-26.553,0.117-39.83,0.176
	c-0.003-74.832,0.117-149.666-0.179-224.496c-0.034-8.385,1.897-11.945,10.873-11.229C157.257,420.723,167,420.213,176.698,420.264z
	"/>
<path fill="#8074AF" d="M272.034,655.108c0.11,9.674-0.093,20.366,0.437,30.019c0.357,6.512-2.216,8.285-8.397,8.182
	c-17.969-0.301-35.949-0.078-53.925-0.063c-44.42-0.051-88.84-0.104-133.262-0.148c0.008-11.756,0.017-24.511,0.025-36.265
	c7.031-4.111,14.72-0.853,22.094-1.067c12.628-0.375,25.278-1.095,37.917-1.089c13.276-0.059,26.553-0.121,39.829-0.176
	C208.512,654.7,240.273,654.903,272.034,655.108z"/>
<path fill="#6B4E75" d="M76.911,657.832c-0.008,11.754-0.017,23.508-0.027,35.264c-15.22,0.027-30.436,0.059-45.653,0.086
	c0.03-8.662,0.694-17.379-0.079-25.969c-0.861-9.551,2.999-12.234,11.894-11.377c6.512,0.629,13.147-0.014,19.731-0.092
	C67.51,656.314,72.688,653.84,76.911,657.832z"/>
<path fill="#BBD7D4" d="M763.451,544.912c-0.094-38.854,0.021-77.709-0.454-116.557c-0.098-7.975,3.9-7.967,9.636-7.953
	c38.161,0.09,76.322,0,114.485-0.033c0.211,41.459,0.425,82.918,0.64,124.377c-34.044,0.215-68.087,0.426-102.131,0.641
	C778.234,545.227,770.844,545.068,763.451,544.912z M812.315,531.869c18.938,0.219,37.876,0.395,56.813,0.699
	c4.379,0.066,6.218-1.762,6.146-6.146c-0.3-18.938-0.474-37.875-0.691-56.813c0.143-7.426,0.284-14.852,0.424-22.273
	c0.569-14.879,0.569-14.916-13.729-14.842c-3.793,0.018-7.586,0.32-11.375,0.494c-21.811-0.063-43.618,0.047-65.422-0.291
	c-6.749-0.104-9.177,2.313-9.069,9.064c0.338,21.805,0.229,43.613,0.295,65.42c-0.176,3.791-0.482,7.586-0.501,11.379
	c-0.071,14.316-0.037,14.316,14.843,13.729C797.469,532.152,804.892,532.01,812.315,531.869z"/>
<path fill="#BBD7D4" d="M554.777,544.938c-0.082-38.877,0.057-77.762-0.42-116.635c-0.102-8.063,3.989-7.91,9.661-7.896
	c38.189,0.086,76.378,0.006,114.563-0.02c0.209,41.451,0.416,82.906,0.624,124.361c-34.71,0.242-69.417,0.479-104.129,0.719
	C568.313,545.291,561.543,545.115,554.777,544.938z M666.087,469.619c0.142-7.438,0.284-14.871,0.427-22.309
	c0.519-14.848,0.519-14.885-13.772-14.813c-3.79,0.018-7.58,0.332-11.371,0.508c-21.895-0.068-43.788,0.088-65.673-0.338
	c-6.833-0.133-9.043,2.021-8.911,8.885c0.424,21.889,0.258,43.783,0.314,65.68c-0.151,3.785-0.424,7.57-0.438,11.357
	c-0.058,14.23-0.026,14.23,14.813,13.752c7.439-0.156,14.878-0.314,22.315-0.475c18.938,0.225,37.877,0.398,56.813,0.705
	c4.378,0.066,6.227-1.744,6.156-6.135C666.466,507.5,666.3,488.559,666.087,469.619z"/>
<path fill="#685B8E" d="M906.697,556.307c-0.032,7.066-0.416,14.16-0.003,21.193c0.435,7.438-2.421,9.338-8.524,9.308
	c-42.188-0.211-84.378-0.239-126.564,0.022c-6.646,0.043-9.512-2.096-8.992-9.984c0.515-7.813,0.229-15.692,0.292-23.541
	c7.224,4.904,15.087,1.822,22.663,2.341C825.944,555.863,866.321,556.086,906.697,556.307z"/>
<path fill="#685B8E" d="M698.172,556.031c-0.036,7.133-0.423,14.293-0.013,21.392c0.434,7.506-2.422,9.418-8.535,9.386
	c-42.235-0.215-84.474-0.256-126.709,0.031c-6.851,0.047-9.371-2.545-8.816-10.274c0.509-7.093,0.328-14.246,0.451-21.371
	c6.858,0.043,13.724,0.081,20.583,0.12C616.146,555.553,657.159,555.795,698.172,556.031z"/>
<path fill="#685B8E" d="M887.758,544.746c-0.215-41.459-0.429-82.918-0.64-124.377c19.446-1.064,19.457-1.064,19.441,18.504
	c-0.024,35.305-0.064,70.604-0.098,105.906C900.229,544.77,893.993,544.76,887.758,544.746z"/>
<path fill="#685B8E" d="M679.207,544.748c-0.208-41.455-0.415-82.91-0.624-124.361c19.444-1.104,19.454-1.104,19.44,18.482
	c-0.022,35.297-0.062,70.594-0.093,105.891C691.691,544.76,685.449,544.752,679.207,544.748z"/>
<path fill="#614168" d="M679.207,544.748c6.242,0.004,12.484,0.012,18.726,0.012c4.821,0.109,9.655,0.473,14.459,0.256
	c5.005-0.225,6.593,1.891,6.525,6.717c-0.06,4.604-2.041,5.994-6.287,5.895c-4.813-0.117-9.64,0.178-14.458,0.299
	c-41.013-0.205-82.025-0.416-123.039-0.621c-0.021-3.943-0.037-7.891-0.055-11.836C609.79,545.227,644.497,544.99,679.207,544.748z"
	/>
<path fill="#614168" d="M887.758,544.746c6.235,0.014,12.474,0.021,18.706,0.033c4.828,0.102,9.667,0.461,14.479,0.236
	c5.016-0.23,6.588,1.881,6.524,6.719c-0.059,4.617-2.044,5.99-6.295,5.891c-4.816-0.115-9.647,0.195-14.476,0.32
	c-40.376-0.191-80.753-0.389-121.129-0.578c0.021-3.994,0.041-7.986,0.059-11.98C819.671,545.172,853.714,544.961,887.758,544.746z"
	/>
<path fill="#685B8E" d="M790.141,630.486c-5.205,0.004-10.415,0.07-15.623-0.018c-6.093-0.102-8.966-4.715-9.152-9.4
	c-0.193-4.896,2.662-9.283,9.004-9.229c11.109,0.102,22.221-0.092,33.329,0.084c5.765,0.092,9.021,3.336,9.063,9.166
	c0.035,5.814-3.151,9.099-8.913,9.338C801.955,630.676,796.045,630.482,790.141,630.486z"/>
<path fill="#685B8E" d="M544.965,611.857c5.188-0.008,10.385,0.201,15.561-0.063c6.206-0.317,9.035,3.447,9.748,8.564
	c0.719,5.178-2.756,9.256-7.538,9.504c-12.038,0.621-24.156,0.592-36.193-0.076c-4.544-0.252-8.321-3.453-7.753-9.227
	c0.575-5.828,3.906-8.594,9.577-8.682C533.896,611.797,539.432,611.865,544.965,611.857z"/>
<path fill="#685B8E" d="M935.683,413.869c-7.674-0.752-13.795,0.273-20.009-1.574c-6.014-1.789-7.399-5.248-6.979-10.725
	c0.485-6.333,4.813-6.646,9.6-6.621c10.359,0.047,20.735,0.369,31.072-0.115c6.773-0.314,9.455,3.203,10.351,8.879
	c0.945,5.998-4.086,7.99-8.11,8.918C945.987,413.926,939.993,413.598,935.683,413.869z"/>
<path fill="#685B8E" d="M785.627,545.387c-0.018,3.994-0.038,7.986-0.059,11.98c-7.578-0.457-15.441,2.256-22.665-2.063
	c0.182-3.469,0.356-6.934,0.544-10.396C770.844,545.068,778.234,545.227,785.627,545.387z"/>
<path fill="#685B8E" d="M575.078,545.467c0.018,3.945,0.034,7.893,0.055,11.836c-6.861-0.037-13.725-0.072-20.583-0.107
	c0.074-4.089,0.146-8.173,0.226-12.26C561.543,545.115,568.313,545.291,575.078,545.467z"/>
<path fill="#685B8E" d="M31.231,693.182c15.217-0.027,30.433-0.059,45.653-0.086c44.423,0.047,88.843,0.1,133.264,0.148
	c-0.161,11.777-0.322,33.557-0.486,45.33c-64.526,0.08-129.047,0.08-193.567,0.365c-6.7,0.027-9.826-1.885-8.859-8.791
	c0.095-0.682,0.015-1.389,0.009-2.078C7.042,703.627,7.042,693.619,31.231,693.182z"/>
<path fill="#B0E1ED" d="M790.048,532.291c-14.883,0.59-14.917,0.59-14.846-13.727c0.019-3.793,0.325-7.59,0.497-11.377
	c3.313,0.494,4.987-1.984,6.912-3.904c21.146-21.107,42.271-42.232,63.383-63.375c1.921-1.922,4.396-3.604,3.904-6.918
	c3.788-0.174,7.581-0.479,11.375-0.494c14.302-0.074,14.302-0.037,13.733,14.84C845.854,474.818,817.547,503.148,790.048,532.291z"
	/>
<path fill="#5CCAE8" d="M849.898,432.99c0.491,3.314-1.983,4.996-3.904,6.918c-21.109,21.143-42.234,42.268-63.383,63.375
	c-1.924,1.92-3.601,4.398-6.912,3.902c-0.063-21.809,0.047-43.617-0.291-65.422c-0.105-6.752,2.32-9.17,9.068-9.064
	C806.281,433.037,828.091,432.928,849.898,432.99z"/>
<path fill="#B0E1ED" d="M874.582,469.611c0.22,18.938,0.394,37.875,0.691,56.813c0.07,4.385-1.769,6.213-6.146,6.146
	c-18.938-0.307-37.874-0.48-56.811-0.695c8.228-12.879,20.336-22.158,30.931-32.789
	C853.355,488.941,862.186,477.346,874.582,469.611z"/>
<path fill="#5CCAE8" d="M874.582,469.611c-12.396,7.732-21.227,19.33-31.334,29.473c-10.595,10.631-22.703,19.91-30.931,32.789
	c-7.428,0.137-14.851,0.279-22.271,0.418c27.499-29.143,55.808-57.473,84.961-84.955
	C874.866,454.762,874.725,462.188,874.582,469.611z"/>
<path fill="#B0E1ED" d="M641.368,433.006c3.791-0.176,7.581-0.49,11.371-0.508c14.291-0.07,14.291-0.033,13.772,14.813
	c-29.229,27.457-57.565,55.809-85.035,85.029c-14.843,0.48-14.874,0.48-14.814-13.75c0.015-3.787,0.285-7.572,0.437-11.355
	c3.265,0.473,4.964-1.924,6.877-3.836c21.191-21.164,42.37-42.34,63.528-63.533C639.408,437.957,641.854,436.289,641.368,433.006z"
	/>
<path fill="#5CCAE8" d="M641.368,433.006c0.484,3.283-1.96,4.951-3.864,6.857c-21.158,21.193-42.337,42.369-63.528,63.533
	c-1.913,1.912-3.612,4.309-6.877,3.836c-0.057-21.896,0.109-43.793-0.313-65.682c-0.132-6.861,2.078-9.018,8.911-8.885
	C597.58,433.094,619.476,432.938,641.368,433.006z"/>
<path fill="#B0E1ED" d="M666.087,469.619c0.213,18.938,0.379,37.881,0.675,56.818c0.068,4.391-1.778,6.201-6.156,6.135
	c-18.937-0.307-37.875-0.48-56.812-0.699c13.738-18.592,31.853-33.006,47.644-49.639
	C655.844,477.596,659.515,471.844,666.087,469.619z"/>
<path fill="#79537F" d="M255.889,72.179c50.266-0.098,100.534-0.267,150.798-0.278c71.423-0.016,142.843,0.083,214.263,0.134
	c-0.024,4.507,0.55,9.114-0.173,13.507c-4.396,26.659,3.942,47.838,26.215,63.483c6.951,4.883,10.597,13.784,19.521,16.378
	c1.092,5.605,5.571,4.207,9.135,4.224c19.079,0.091,38.173-0.353,57.232,0.224c8.493,0.257,11.377-2.071,11.229-10.932
	c-0.498-29.129-0.123-58.275-0.084-87.414c24.212-4.831,39.19,8.669,54.869,24.694c61.473,62.818,124.01,124.595,186.117,186.79
	c2.405,2.407,4.487,5.136,6.723,7.717c-173.697-0.017-347.397-0.034-521.094-0.052c-0.595-0.348-1.3-0.588-1.771-1.062
	c-70.251-70.155-140.487-140.327-210.721-210.498C256.226,77.176,253.609,75.474,255.889,72.179z M732.427,246.898
	c-10.066,0-20.142,0.021-30.212-0.008c-6.255-0.017-11.687,2.259-11.967,8.874c-0.31,7.325,5.269,9.866,11.967,9.872
	c19.448,0.021,38.896,0.002,58.349,0.009c6.224,0.002,11.693-2.22,11.977-8.867c0.314-7.359-5.325-9.829-11.979-9.867
	C751.183,246.855,741.806,246.896,732.427,246.898z M825.305,209.375c9.688,0,19.374-0.113,29.063,0.042
	c6.022,0.097,11.744-0.776,12.245-7.959c0.481-6.938-5.415-10.228-10.81-10.394c-20.73-0.638-41.503-0.608-62.244-0.114
	c-5.373,0.128-10.026,4.233-9.416,10.245c0.598,5.824,4.741,8.53,11.072,8.281C805.23,209.083,815.273,209.372,825.305,209.375z
	 M461.537,153.063c10.029,0,20.058-0.028,30.087,0.011c5.534,0.021,9.774-2.07,10.147-7.962c0.386-6.089-3.39-10.332-9.213-10.45
	c-20.734-0.421-41.491-0.435-62.229-0.007c-5.343,0.11-10.203,2.896-9.573,9.806c0.589,6.473,4.695,8.668,10.693,8.623
	C441.48,153.01,451.509,153.063,461.537,153.063z M543.724,213.564c10.394,0,20.784-0.009,31.179,0.003
	c6.021,0.007,10.539-2.336,10.238-8.885c-0.27-5.902-4.699-7.898-10.222-7.89c-20.785,0.035-41.57,0.063-62.354-0.009
	c-5.446-0.02-8.402,2.043-8.531,7.872c-0.135,6.043,2.249,9.03,8.514,8.943C522.938,213.453,533.331,213.559,543.724,213.564z"/>
<path fill="#6B4E75" d="M470.635,334.423c-0.66,0.727-1.318,1.454-1.979,2.182c-2.853-2.501-5.855-4.848-8.532-7.521
	c-67.3-67.244-134.646-134.444-201.704-201.93c-5.833-5.87-8.757-6.805-15.145-0.354C186.116,184.545,128.53,241.863,71.113,299.35
	c-3.16,3.164-5.925,6.723-8.875,10.097c-9.724,9.053-19.445,18.104-29.169,27.154c-0.183-13.525-0.28-27.052-0.596-40.573
	c-0.099-4.231,1.845-7.053,4.689-9.898c69.73-69.729,139.391-139.527,209.093-209.286c2.623-2.626,4.969-6.125,9.635-4.664
	c-2.281,3.294,0.336,4.997,2.257,6.917c70.234,70.171,140.47,140.343,210.721,210.498c0.473,0.473,1.178,0.713,1.771,1.062
	C470.638,305.244,470.636,319.833,470.635,334.423z"/>
<path fill="#685B8E" d="M62.238,309.446c2.949-3.375,5.715-6.934,8.875-10.097c57.417-57.487,115.003-114.805,172.161-172.548
	c6.388-6.453,9.312-5.518,15.145,0.352c67.058,67.486,134.404,134.686,201.704,201.93c2.677,2.674,5.681,5.02,8.532,7.521
	c4.249,13.77,1.209,27.865,1.857,41.798c-5.046-0.608-7.45-4.845-10.559-7.946c-67.276-67.174-134.579-134.322-201.572-201.778
	c-6.528-6.574-10.092-7.319-17.005-0.251C186.09,224.949,130.386,281.062,74.737,337.23c-3.071,3.098-5.447,7.429-10.646,7.694
	c-0.563-2.31-1.125-4.619-1.694-6.923C62.342,328.484,62.29,318.965,62.238,309.446z"/>
<path fill="#614168" d="M764.882,17.352c-0.164-4.904-1.473-6.573-6.492-6.515c-30.517,0.356-62.033,0.435-92.554,0.606
	c-0.023,7.553-0.049,15.105-0.073,22.658c0.33,0,0.665,0,0.996,0l-0.106,0.107c-0.034,6.257-0.071,12.513-0.108,18.768
	c-0.009,37.476-0.019,74.952-0.027,112.427c1.087,5.605,5.567,4.206,9.13,4.223c19.08,0.091,38.172-0.352,57.233,0.224
	c8.494,0.257,12.377-2.071,12.229-10.932c-0.498-29.13-0.123-58.276-0.084-87.414c-0.088-12.462-0.178-24.923-0.268-37.384
	c-0.331,0-0.666,0-0.998,0c2.012-1.964,4.563-1.244,6.914-1.31C765.628,32.399,765.39,32.43,764.882,17.352z"/>
<path fill="#6D4C75" d="M664.96,34.209c0.565,0,1.132,0,1.698-0.001c-0.003,0,2.107-0.109,2.107-0.107
	c0.024-7.553-1.953-15.105-1.929-22.658c-17.865-0.143-35.733-0.314-53.598-0.399c-2.949-0.013-5.93-0.674-6.792,4.062
	c-2.148,11.794,0.644,16.229,12.059,17.664c0.902,0.112,1.712,0.961,2.565,1.469c0.094,0,0.188,0,0.28,0
	c-0.132,7.405-0.266,14.809-0.399,22.213c-0.026,5.26,0.55,10.637-0.173,15.763c-4.396,31.108-2.319,57.908,19.952,76.164
	c6.948,5.697,18.945,16.085,27.875,19.112c0.006-43.728,0.015-89.545,0.022-133.276C667.419,34.237,666.192,34.229,664.96,34.209z"
	/>
<path fill="#614168" d="M732.427,246.897c9.379-0.001,18.756-0.042,28.132,0.013c6.654,0.039,12.295,2.508,11.979,9.867
	c-0.281,6.647-5.753,8.869-11.979,8.867c-19.448-0.006-38.896,0.011-58.347-0.009c-6.698-0.006-12.275-2.547-11.967-9.872
	c0.28-6.614,5.712-8.891,11.967-8.874C712.285,246.919,722.358,246.898,732.427,246.897z"/>
<path fill="#614168" d="M825.305,209.374c-10.029-0.002-20.072-0.291-30.09,0.102c-6.331,0.249-10.477-2.457-11.072-8.281
	c-0.61-6.012,4.043-10.117,9.416-10.245c20.741-0.495,41.514-0.524,62.244,0.114c5.395,0.166,11.291,3.456,10.81,10.394
	c-0.501,7.184-6.223,8.056-12.245,7.959C844.679,209.263,834.992,209.375,825.305,209.374z"/>
<path fill="#614168" d="M461.537,153.063c-10.028,0-20.057-0.054-30.085,0.021c-5.999,0.045-10.104-2.15-10.693-8.623
	c-0.63-6.909,4.229-9.696,9.573-9.806c20.736-0.428,41.493-0.414,62.229,0.007c5.823,0.118,9.599,4.36,9.212,10.45
	c-0.372,5.892-4.612,7.982-10.146,7.962C481.595,153.035,471.566,153.063,461.537,153.063z"/>
<path fill="#614168" d="M543.724,213.561c-10.393-0.002-20.786-0.107-31.176,0.038c-6.265,0.087-8.646-2.9-8.514-8.943
	c0.129-5.829,3.085-7.892,8.53-7.872c20.782,0.071,41.567,0.044,62.354,0.009c5.521-0.009,9.952,1.987,10.222,7.89
	c0.3,6.548-4.22,8.892-10.238,8.885C564.508,213.555,554.115,213.564,543.724,213.561z"/>
<path fill="#8275A0" d="M470.57,378.502l-0.062-0.1c-5.042-0.608-7.446-4.845-10.555-7.946
	c-67.276-67.174-134.579-134.322-201.572-201.778c-6.528-6.574-10.092-7.319-17.005-0.251
	C186.09,224.949,130.386,281.062,74.737,337.23c-3.071,3.098-5.447,7.429-10.646,7.694c-0.032,61.752-0.034,123.502-0.174,185.254
	c-0.008,3.645,1.435,7.619-1.35,10.979c0.071,38.193,0.143,76.393,0.214,114.59c4.728,0.57,9.907-1.904,14.129,2.088
	c7.031-4.111,14.72-1.852,22.094-2.068c12.628-0.375,25.278-0.094,37.917-0.088c-0.004-74.832,0.117-149.666-0.179-224.496
	c-0.034-8.385,1.897-11.945,10.873-11.229c9.642,0.771,19.384,0.264,29.083,0.313c50.964-0.107,101.928-0.146,152.891-0.424
	c5.962-0.033,8.004,2.111,7.694,7.895c-0.428,7.947-0.332,15.93-0.46,23.896c0.106,61.385,0.212,122.77,0.33,184.15
	c0.014,7.285,0.095,14.563,0.146,21.848c40.091-0.004,80.185,0,120.273-0.02c4.456-0.002,9.04,0.646,13.062-2.104
	C470.61,563.172,470.59,470.836,470.57,378.502z"/>
<path fill="#5CCAE8" d="M666.087,469.619c-6.572,2.225-10.243,7.977-14.649,12.615c-15.791,16.633-33.903,31.047-47.644,49.639
	c-7.44,0.152-14.878,0.313-22.315,0.469c27.47-29.225,55.809-57.574,85.035-85.031C666.371,454.748,666.229,462.184,666.087,469.619
	z"/>
<path fill="#685B8E" d="M414.082,557.723c4.86,0,9.741,0.273,14.576-0.066c6.127-0.436,9.42,2.969,10.146,8.166
	c0.805,5.752-3.784,9.729-8.454,10.08c-11.735,0.869-23.598,0.709-35.372,0.146c-5.801-0.278-7.668-4.939-7.625-10.512
	c0.044-5.52,3.563-7.355,7.99-7.631c6.227-0.386,12.491-0.1,18.74-0.1C414.082,557.781,414.082,557.752,414.082,557.723z"/>
<path opacity="0.3" fill="#010101" enable-background="new    " d="M506.923,887.086c178.551,0,323.328,22.359,323.328,49.955
	s-144.777,49.955-323.328,49.955c-178.55,0-323.31-22.359-323.31-49.955S328.373,887.086,506.923,887.086z"/>
<g id="Layer_1_1_" display="none">
	<g display="inline">
		<g>
			<path opacity="0.2" fill="#010101" enable-background="new    " d="M883.458,650.888H122.486c0,0-103.073-15.01-108.374-120.368
				c0,0-36.849-156.294,149.288-184.388c0,0-73.77-219.514,166.818-309.066c0,0,201.926-59.704,300.292,151.029
				c0,0,87.796-64.99,187.869-1.749c0,0,87.813,59.68,59.729,173.843c0,0,112.384,15.799,115.896,151.029
				C994.02,511.201,1004.671,604.444,883.458,650.888z"/>
			<path fill="#FFFFFF" d="M878.026,634.626H117.071c0,0-103.09-15.025-108.35-120.368c0,0-36.864-156.289,149.264-184.371
				c0,0-73.746-219.506,166.819-309.075c0,0,201.942-59.695,300.291,151.029c0,0,87.78-64.973,187.901-1.748
				c0,0,87.765,59.696,59.697,173.86c0,0,112.383,15.806,115.895,151.004C988.588,494.924,999.239,588.199,878.026,634.626z"/>
			<path opacity="0.2" fill="#010101" enable-background="new    " d="M159.05,623.438h675.104c0,0,91.455-13.334,96.139-106.788
				c0,0,32.717-138.663-132.434-163.573c0,0,65.437-194.74-148.014-274.217c0,0-179.161-52.972-266.411,133.995
				c0,0-77.885-57.648-166.688-1.562c0,0-77.908,52.964-52.964,154.241c0,0-99.715,14.042-102.829,133.961
				C60.969,499.494,51.513,582.232,159.05,623.438z"/>
			<path fill="#FFFFFF" d="M163.88,609.047H839c0,0,91.421-13.058,96.104-104.479c0,0,32.701-135.636-132.434-160.012
				c0,0,65.436-190.495-147.995-268.226c0,0-179.145-51.809-266.412,131.06c0,0-77.917-56.396-166.721-1.512
				c0,0-77.893,51.809-52.98,150.882c0,0-99.715,13.708-102.813,131.062C65.783,487.801,56.31,568.751,163.88,609.047z"/>
			<path fill="#E4E6ED" d="M337.293,675.508c25,0,45.271,20.262,45.271,45.272c0,25.01-20.271,45.271-45.271,45.271
				c-25.002,0-45.281-20.261-45.281-45.271C292.012,695.77,312.291,675.508,337.293,675.508z"/>
			<path fill="#C2C4CE" d="M356.708,683.247c9.726,7.563,16.035,19.4,16.035,32.687c0,22.831-18.53,41.369-41.361,41.369
				c-7.408,0-14.351-1.951-20.384-5.382c6.992,5.431,15.773,8.666,25.328,8.666c22.847,0,41.345-18.521,41.345-41.337
				C377.686,703.818,369.246,690.338,356.708,683.247z"/>
			<path fill="#E4E6ED" d="M501.932,716.665c25.013,0,45.272,20.278,45.272,45.288c0,24.994-20.262,45.271-45.272,45.271
				c-25.01,0-45.278-20.275-45.278-45.271C456.651,736.943,476.921,716.665,501.932,716.665z"/>
			<path fill="#C2C4CE" d="M521.348,724.39c9.741,7.609,16.02,19.448,16.02,32.72c0,22.831-18.538,41.353-41.369,41.353
				c-7.407,0-14.334-1.936-20.359-5.35c6.992,5.415,15.768,8.649,25.32,8.649c22.863,0,41.351-18.538,41.351-41.337
				C542.308,744.943,533.854,731.48,521.348,724.39z"/>
			<path fill="#E4E6ED" d="M666.514,689.248c24.994,0,45.272,20.278,45.272,45.271c0,24.994-20.278,45.272-45.272,45.272
				c-24.992,0-45.288-20.278-45.288-45.272C621.226,709.526,641.521,689.248,666.514,689.248z"/>
			<path fill="#C2C4CE" d="M685.962,696.956c9.74,7.578,16.019,19.416,16.019,32.687c0,22.849-18.507,41.354-41.367,41.354
				c-7.399,0-14.345-1.937-20.359-5.334c6.977,5.397,15.789,8.651,25.303,8.651c22.896,0,41.387-18.509,41.387-41.338
				C706.924,717.527,698.469,704.046,685.962,696.956z"/>
		</g>
		<path opacity="0.3" fill="#010101" enable-background="new    " d="M506.923,887.086c178.551,0,323.328,22.359,323.328,49.955
			s-144.777,49.955-323.328,49.955c-178.55,0-323.31-22.359-323.31-49.955S328.373,887.086,506.923,887.086z"/>
	</g>
</g>
<g id="Layer_2">
	<g>
		<path fill="#FFFFFF" d="M186.372,490.223c-1.059-3.369-2.063-6.55-3.101-9.839c1.599-0.549,3.271-0.658,4.975-0.666
			c1.9-0.016,3.761,0.372,5.416,1.585c1.832,1.335,3.305,2.959,4.281,4.906c0.284,0.56,0.563,1.116,0.881,1.742
			c1.109-0.19,2.139-0.361,3.349-0.569c0.482,1.528,0.932,2.972,1.418,4.521c-1.091,0.231-2.098,0.444-3.142,0.662
			c0.072,1.003,0.173,1.975,0.208,2.935c0.057,1.7-0.136,3.326-0.878,4.806c-0.521,1.03-1.261,1.878-2.228,2.528
			c-2.496,1.694-5.449,2.263-8.772,1.859c-2.669-0.321-4.692-1.848-6.51-3.716c-2.197-2.253-4.363-4.534-6.583-6.771
			c-1.49-1.505-3.679-1.847-5.233-0.84c-0.35,0.233-0.669,0.629-0.769,1.031c-0.286,1.151,0.634,2.147,1.971,2.171
			c0.669,0.01,1.331-0.104,1.986-0.189c0.526-0.066,1.038-0.174,1.732-0.297c1.121,3.269,2.074,6.52,3.113,9.739
			c-3.449,1.622-7.801,0.563-10.358-2.565c-1.076-1.325-1.895-2.81-2.944-4.39c-0.693,0.104-1.543,0.229-2.586,0.379
			c-0.468-1.494-0.917-2.933-1.4-4.478c0.937-0.209,1.771-0.399,2.679-0.6c-0.06-0.476-0.15-0.938-0.178-1.39
			c-0.072-1.224-0.247-2.469-0.156-3.661c0.382-4.936,4.752-7.662,10.195-6.442c2.723,0.61,4.946,2.045,6.876,4.034
			c1.604,1.652,3.257,3.266,4.851,4.922c1.33,1.386,2.854,2.008,4.643,1.758c1.004-0.135,2.025-0.246,2.982-0.482
			c0.873-0.218,1.318-0.828,1.211-1.756c-0.131-1.134-0.843-1.827-2.036-1.777c-1.159,0.044-2.288,0.265-3.422,0.429
			C188.068,489.917,187.3,490.066,186.372,490.223z"/>
		<g>
			<path d="M108.879,536.854c-0.041-0.48-0.075-0.61-0.058-0.727c1.333-8.345,3.272-16.462,6.511-24.133
				c2.628-6.229,5.622-12.247,9.105-18.011c2.646-4.378,5.461-8.65,8.621-12.688c7.454-9.542,15.856-18.234,26.184-25.178
				c5.928-3.982,12.336-7.245,19.658-9.073c5.195-1.301,10.582-1.747,16.265-0.823c4.901,0.797,9.415,2.637,13.598,5.617
				c7.739,5.519,14.35,12.048,20.337,19.137c5.204,6.166,9.699,12.685,13.081,19.72c2.259,4.703,3.925,9.491,4.516,14.426
				c0.624,5.246-0.032,10.139-2.489,14.513c-2.093,3.708-5.164,6.579-8.86,8.904c-5.866,3.68-12.595,5.673-19.919,6.474
				c-7.022,0.773-14.166,0.636-21.446-0.845c-4.208-0.861-8.277-2.423-12.377-3.839c-10.74-3.71-21.579-5.926-32.542-6.357
				c-7.658-0.307-15.023,0.433-21.985,2.517c-5.867,1.765-11.069,4.499-15.521,8.256
				C110.75,535.424,109.896,536.058,108.879,536.854z M186.372,490.223c0.928-0.156,1.699-0.308,2.473-0.42
				c1.134-0.165,2.264-0.384,3.422-0.429c1.192-0.049,1.904,0.644,2.036,1.777c0.107,0.928-0.338,1.538-1.211,1.756
				c-0.958,0.237-1.979,0.347-2.982,0.482c-1.791,0.249-3.313-0.372-4.643-1.758c-1.593-1.656-3.246-3.27-4.851-4.922
				c-1.93-1.988-4.155-3.423-6.876-4.034c-5.443-1.216-9.813,1.507-10.195,6.442c-0.09,1.191,0.084,2.438,0.156,3.661
				c0.027,0.452,0.118,0.914,0.178,1.39c-0.912,0.199-1.744,0.392-2.679,0.601c0.485,1.539,0.934,2.981,1.4,4.477
				c1.043-0.148,1.893-0.274,2.586-0.379c1.049,1.58,1.868,3.063,2.946,4.392c2.555,3.126,6.907,4.187,10.356,2.563
				c-1.04-3.222-1.991-6.473-3.113-9.739c-0.696,0.123-1.207,0.231-1.732,0.297c-0.655,0.085-1.316,0.199-1.986,0.189
				c-1.337-0.022-2.257-1.02-1.971-2.171c0.1-0.402,0.419-0.798,0.769-1.031c1.556-1.005,3.741-0.664,5.233,0.84
				c2.22,2.233,4.387,4.517,6.583,6.771c1.817,1.868,3.839,3.394,6.51,3.716c3.323,0.402,6.277-0.165,8.774-1.86
				c0.965-0.649,1.707-1.496,2.227-2.527c0.745-1.479,0.936-3.104,0.878-4.806c-0.031-0.96-0.136-1.932-0.208-2.935
				c1.044-0.218,2.051-0.431,3.142-0.662c-0.487-1.55-0.936-2.992-1.418-4.521c-1.209,0.208-2.237,0.38-3.349,0.569
				c-0.318-0.626-0.598-1.184-0.881-1.742c-0.978-1.947-2.45-3.571-4.281-4.906c-1.658-1.214-3.517-1.6-5.416-1.585
				c-1.705,0.008-3.376,0.117-4.975,0.666C184.309,483.673,185.31,486.854,186.372,490.223z"/>
			<polygon points="122.662,519.763 118.268,536.031 113.875,552.298 101.984,540.357 90.093,528.42 106.378,524.091 			"/>
			<path fill="#FFFFFF" d="M120.449,530.521c0,0-6.931-9.944-12.98-7.123c0,0,0.77-2.088,2.961-3.334c0,0,7.415,2.299,11.93,8.97
				L120.449,530.521z"/>
		</g>
	</g>
	<path d="M181.435,607.364c-0.724,1.563-1.354,2.826-1.903,4.131c-2.694,6.381-5.402,12.756-8.035,19.175
		c-1.632,3.979-3.317,7.946-4.292,12.282c-0.636,2.83-1.146,5.728-1.554,8.642c-1.097,7.799-2.086,15.617-3.159,23.421
		c-0.325,2.36-0.694,4.717-1.19,7.013c-0.812,3.755-2.729,6.526-5.734,8.271c-4.706,2.723-11.824,1.345-15.923-3.824
		c-2.316-2.925-3.375-6.271-3.336-9.898c0.022-2.164,0.298-4.307,0.587-6.423c0.789-5.808,1.647-11.586,2.469-17.386
		c0.845-5.951,1.617-11.929,2.941-17.725c1.213-5.294,2.895-10.348,4.889-15.246c1.437-3.519,2.822-7.065,4.265-10.577
		c2.019-4.913,4.046-9.819,6.115-14.699c0.86-2.035,1.819-4.001,2.777-5.965c0.367-0.755,0.859-1.423,1.337-2.197
		c-0.341-1.146-0.657-2.408-1.094-3.627c-3.418-9.511-7.622-18.621-12.782-27.238c-2.352-3.919-4.939-7.642-7.945-10.981
		c-0.521-0.578-1.082-1.116-1.605-1.69c-1.07-1.166-2.284-1.701-3.668-1.592c-0.895,0.066-1.788,0.146-2.746,0.226
		c0.015,0.387,0,0.701,0.043,1.018c0.817,5.95,1.644,11.898,2.465,17.854c0.215,1.57,0.498,3.146,0.602,4.711
		c0.085,1.313,0.071,2.653-0.105,3.917c-0.365,2.567-1.727,4.204-3.929,4.839c-0.915,0.265-1.889,0.432-2.857,0.436
		c-13.341,0.095-26.685,0.149-40.027,0.222c-1.517,0.009-3.006-0.303-4.39-1.222c-2.542-1.689-3.876-4.176-3.9-7.354
		c-0.023-3.258,1.279-5.568,3.849-6.724c0.988-0.443,2.125-0.683,3.226-0.689c6.961-0.056,13.93-0.003,20.893-0.021
		c3.407-0.01,11.136-0.267,11.717-0.331c-0.188-1.446-1.386-10.507-1.815-13.648c-0.075-0.532-0.182-1.078-0.339-1.596
		c-0.187-0.614-0.548-0.789-1.128-0.382c0.465,4.862-13.282-1.924-12.411-3.139c0.282-0.391-0.479-3.479-0.68-4.628
		c-0.608-3.433,0.659-6.271,3.418-7.463c1.07-0.459,2.243-0.76,3.413-0.848c1.383-0.105,2.535-0.409,3.136-1.893
		c0.11-0.275,0.34-0.476,0.563-0.782c0.46,0.772,0.098,1.771,0.901,2.336c0.563-0.185,0.534-0.682,0.44-1.253
		c-0.222-1.36-0.386-2.728-0.643-4.084c-0.338-1.806-0.29-3.546-0.047-5.279c0.193-1.398,0.362-2.797,0.559-4.32
		c-0.697,0.016-1.207,0.309-1.735,0.563c-6.411,3.125-13.108,3.063-19.996-0.491c-5.821-3-10.064-7.96-12.78-14.524
		c-4.992-12.057-1.702-24.675,7.37-31.061c7.212-5.081,15.19-5.35,23.551-0.675c7.222,4.039,11.803,10.626,13.863,19.292
		c0.627,2.643,0.662,5.289,0.335,7.882c-0.153,1.207-0.33,2.401-0.479,3.607c-0.051,0.422-0.057,0.861-0.083,1.354
		c0.995-0.271,1.853-0.496,2.708-0.739c4.182-1.188,8.458-1.034,12.833,0.344c7.963,2.507,15.145,6.982,21.695,13.068
		c6.528,6.07,12.044,13.18,16.967,20.896c4.455,6.98,8.314,14.336,11.786,21.921c2.681,5.86,5.072,11.838,7.282,17.895
		c0.955,2.614,1.767,5.28,2.207,8.021c0.329,2.045,0.366,4.065-0.042,6.005c-0.353,1.687-0.11,3.253,0.597,4.943
		c2.359,5.644,4.908,11.174,7.921,16.456c1.062,1.854,2.225,3.64,3.367,5.432c2.343,3.683,5.441,6.193,9.011,8.034
		c4.223,2.175,8.555,3.853,12.938,5.303c5.781,1.912,11.612,3.486,17.478,4.656c2.439,0.488,4.89,0.74,7.331,1.17
		c2.327,0.406,4.579,1.249,6.554,2.948c5.795,4.995,7.796,13.94,2.806,20.487c-2.315,3.03-5.436,4.158-9.065,4.212
		c-3.684,0.062-7.367-0.505-11.036-1.378c-7.664-1.83-15.309-3.845-22.862-6.514c-5.85-2.067-11.573-4.588-17.024-8.025
		c-6.448-4.063-12.065-9.27-16.554-16.084c-3.087-4.689-5.703-9.646-8.15-14.724C182.97,610.127,182.255,608.9,181.435,607.364z"/>
	<path fill="#FFFFFF" d="M134.242,541.487c0,0,24.032-18.512,22.022-35.701c0,0,4.209,0.603,7.769,6.425
		c0,0-5.449,21.141-23.425,34.018L134.242,541.487z"/>
	<path fill="#FFFFFF" d="M147.468,555.046c0,0,25.376-21.416,23.281-35.924c0,0,4.537,2.925,7.089,8.7
		c0,0-7.203,20.929-26.145,34.229L147.468,555.046z"/>
	<path fill="#FFFFFF" d="M156.321,572.845c0,0,27.642-21.12,25.202-37.76c0,0,3.075,3.571,5.627,9.346
		c0,0-7.703,20.163-28.093,34.105L156.321,572.845z"/>
	<path fill="#FFFFFF" d="M117.473,531.806c0,0,29.717-22.009,25.717-33.767c0,0,5.265,0.289,9.176,4.28
		c0,0-7.406,23.254-33.903,38.418L117.473,531.806z"/>
	<path fill="#FFFFFF" d="M114.696,516.598c1.941-1.187,13.999-8.487,12.559-20.671c0,0,5.91-1.134,8.883,0.012
		c0,0-3.376,15.798-21.352,28.674C114.785,524.611,112.755,517.784,114.696,516.598z"/>
</g>
<path fill="#614168" d="M288.5,656.5v-1.636c-5.49,0.095-10.979,0.192-16.468,0.244c0.11,9.674-0.093,20.368,0.437,30.019
	c0.357,6.512-2.216,8.286-8.397,8.182c-17.969-0.301-35.949-0.078-53.925-0.061c-0.161,11.773-0.321,33.553-0.486,45.326
	c42.488-0.061,84.979-0.117,127.471-0.172c0.057-23.588,0.111-57.186,0.166-80.773c-0.002-0.376-0.006-0.753-0.009-1.129H288.5z"/>
<path fill="#786D9B" d="M968.5,378.415c-165.975,0.021-331.951,0.053-497.93,0.085c0.02,92.336,0.041,184.672,0.062,277.004
	l0.411,0.4c137.66-0.061,275.318-0.123,412.979-0.164c2.713,0,5.609-0.572,7.854,1.705c13.775,1.369,48.883,2.213,71.78,1.717
	c1.939-0.042,3.531-0.515,4.845-1.353V378.415z M562.733,629.867c-12.038,0.621-24.156,0.592-36.193-0.076
	c-4.544-0.252-8.321-3.455-7.753-9.229c0.575-5.826,3.906-8.592,9.577-8.68c5.535-0.086,11.067-0.018,16.601-0.018
	c5.188-0.014,10.385,0.195,15.559-0.066c6.204-0.32,9.035,3.447,9.748,8.564C570.99,625.541,567.516,629.619,562.733,629.867z
	 M712.63,557.629c-4.814-0.117-9.64,0.178-14.46,0.297c-0.034,6.234-0.421,12.49-0.011,18.689c0.434,6.557-2.422,8.227-8.535,8.201
	c-42.235-0.189-84.474-0.225-126.709,0.025c-6.851,0.041-9.371-2.223-8.816-8.977c0.507-6.195,0.328-12.445,0.452-18.67
	c0.073-4.088,0.146-8.172,0.219-12.26c-0.072-38.875,0.066-77.76-0.41-116.633c-0.102-8.061,3.989-7.91,9.662-7.896
	c38.19,0.085,76.378,0.004,114.563-0.02c19.444-1.105,19.454-1.105,19.44,18.482c-0.024,35.297-0.062,70.594-0.093,105.891
	c4.821,0.109,9.655,0.471,14.459,0.258c5.004-0.223,6.589,1.891,6.525,6.717C718.857,556.338,716.876,557.73,712.63,557.629z
	 M807.847,630.426c-5.892,0.248-11.802,0.057-17.706,0.057c-5.205,0.008-10.415,0.076-15.624-0.015
	c-6.091-0.1-8.965-4.713-9.152-9.4c-0.193-4.897,2.662-9.284,9.004-9.229c11.11,0.102,22.221-0.092,33.329,0.084
	c5.764,0.092,9.022,3.336,9.063,9.166C816.795,626.904,813.608,630.187,807.847,630.426z M921.173,557.624
	c-4.819-0.117-9.649,0.195-14.476,0.318c-0.032,6.229-0.416,12.477-0.004,18.67c0.436,6.55-2.419,8.223-8.523,8.195
	c-42.188-0.184-84.378-0.209-126.566,0.021c-6.642,0.037-9.51-1.846-8.99-8.793c0.515-6.881,0.229-13.82,0.294-20.734
	c0.18-3.466,0.354-6.931,0.536-10.396c-0.084-38.848,0.031-77.703-0.444-116.551c-0.096-7.975,3.902-7.967,9.636-7.953
	c38.161,0.09,76.322,0,114.485-0.031c19.447-1.066,19.457-1.066,19.44,18.502c-0.025,35.303-0.065,70.604-0.097,105.906
	c4.828,0.102,9.667,0.461,14.479,0.235c5.015-0.23,6.589,1.88,6.525,6.719C927.409,556.354,925.424,557.727,921.173,557.624z
	 M951.605,412.631c-5.616,1.295-11.61,0.967-15.923,1.238c-7.674-0.752-13.795,0.275-20.011-1.574
	c-6.012-1.789-7.398-5.248-6.979-10.725c0.487-6.333,4.814-6.645,9.6-6.621c10.359,0.047,20.735,0.369,31.072-0.115
	c6.775-0.314,9.455,3.203,10.351,8.879C960.663,409.711,955.63,411.703,951.605,412.631z"/>
<path fill="#614168" d="M968.5,655.604c-16.276,1.001-81.943,0.139-84.477,0.139c-137.659,0.041-275.317,0.104-412.979,0.162
	c-0.14,24.184-0.279,58.385-0.416,82.574c2.413,0.166,4.826,0.48,7.239,0.482c130.75,0.016,261.499,0.01,392.249-0.014
	c2.2,0,82.194-0.219,98.384-0.363V655.604z"/>
</svg>
