<?xml version="1.0" encoding="utf-8"?>
<!-- Generator: Adobe Illustrator 16.0.0, SVG Export Plug-In . SVG Version: 6.00 Build 0)  -->
<!DOCTYPE svg PUBLIC "-//W3C//DTD SVG 1.1//EN" "http://www.w3.org/Graphics/SVG/1.1/DTD/svg11.dtd">
<svg version="1.1" xmlns="http://www.w3.org/2000/svg" xmlns:xlink="http://www.w3.org/1999/xlink" x="0px" y="0px" width="1000px"
	 height="1000px" viewBox="0 0 1000 1000" enable-background="new 0 0 1000 1000" xml:space="preserve">
<g id="Layer_1">
	<g id="Layer_1_3_">
		<g id="Layer_1_2_">
			<path opacity="0.3" fill="#010101" enable-background="new    " d="M501.169,883.79c178.551,0,323.328,22.359,323.328,49.955
				S679.72,983.7,501.169,983.7c-178.55,0-323.31-22.359-323.31-49.955S322.619,883.79,501.169,883.79z"/>
			<g id="Layer_1_1_" display="none">
				<g display="inline">
					<g>
						<path opacity="0.2" fill="#010101" enable-background="new    " d="M877.704,647.592H116.732
							c0,0-103.073-15.01-108.374-120.368c0,0-36.849-156.292,149.288-184.388c0,0-73.77-219.514,166.818-309.066
							c0,0,201.926-59.704,300.292,151.029c0,0,87.796-64.99,187.869-1.749c0,0,87.813,59.68,59.729,173.843
							c0,0,112.385,15.799,115.896,151.029C988.266,507.905,998.917,601.148,877.704,647.592z"/>
						<path fill="#FFFFFF" d="M872.271,631.33H111.317c0,0-103.09-15.025-108.35-120.368c0,0-36.864-156.289,149.264-184.371
							c0,0-73.746-219.506,166.819-309.075c0,0,201.942-59.695,300.291,151.029c0,0,87.78-64.973,187.901-1.748
							c0,0,87.765,59.696,59.697,173.86c0,0,112.383,15.806,115.895,151.004C982.834,491.628,993.485,584.903,872.271,631.33z"/>
						<path opacity="0.2" fill="#010101" enable-background="new    " d="M153.296,620.142H828.4c0,0,91.455-13.334,96.139-106.785
							c0,0,32.717-138.666-132.434-163.573c0,0,65.437-194.74-148.017-274.217c0,0-179.161-52.972-266.411,133.995
							c0,0-77.885-57.648-166.688-1.562c0,0-77.908,52.964-52.964,154.241c0,0-99.715,14.042-102.829,133.961
							C55.215,496.198,45.759,578.938,153.296,620.142z"/>
						<path fill="#FFFFFF" d="M158.126,605.751h675.12c0,0,91.421-13.058,96.104-104.479c0,0,32.701-135.636-132.434-160.012
							c0,0,65.436-190.495-147.995-268.226c0,0-179.145-51.809-266.412,131.06c0,0-77.917-56.396-166.721-1.512
							c0,0-77.893,51.809-52.98,150.882c0,0-99.715,13.708-102.813,131.063C60.029,484.505,50.556,565.455,158.126,605.751z"/>
						<path fill="#E4E6ED" d="M331.539,672.212c25,0,45.271,20.262,45.271,45.272c0,25.01-20.271,45.271-45.271,45.271
							c-25.002,0-45.281-20.261-45.281-45.271C286.258,692.474,306.537,672.212,331.539,672.212z"/>
						<path fill="#C2C4CE" d="M350.954,679.951c9.726,7.563,16.035,19.399,16.035,32.687c0,22.831-18.53,41.369-41.361,41.369
							c-7.408,0-14.351-1.951-20.384-5.382c6.992,5.431,15.772,8.666,25.328,8.666c22.847,0,41.345-18.521,41.345-41.337
							C371.932,700.521,363.492,687.042,350.954,679.951z"/>
						<path fill="#E4E6ED" d="M496.178,713.369c25.016,0,45.272,20.278,45.272,45.288c0,24.994-20.263,45.271-45.272,45.271
							s-45.275-20.272-45.275-45.271C450.896,733.646,471.167,713.369,496.178,713.369z"/>
						<path fill="#C2C4CE" d="M515.594,721.094c9.741,7.609,16.021,19.448,16.021,32.723c0,22.83-18.538,41.353-41.369,41.353
							c-7.407,0-14.334-1.936-20.359-5.35c6.992,5.415,15.771,8.646,25.32,8.646c22.863,0,41.352-18.538,41.352-41.337
							C536.554,741.646,528.1,728.185,515.594,721.094z"/>
						<path fill="#E4E6ED" d="M660.76,685.952c24.994,0,45.272,20.278,45.272,45.271c0,24.994-20.278,45.272-45.272,45.272
							c-24.992,0-45.288-20.278-45.288-45.272C615.472,706.23,635.768,685.952,660.76,685.952z"/>
						<path fill="#C2C4CE" d="M680.208,693.66c9.74,7.578,16.019,19.416,16.019,32.687c0,22.852-18.507,41.354-41.364,41.354
							c-7.399,0-14.348-1.938-20.359-5.334c6.979,5.396,15.789,8.65,25.303,8.65c22.896,0,41.39-18.511,41.39-41.34
							C701.17,714.231,692.715,700.75,680.208,693.66z"/>
					</g>
					<path opacity="0.3" fill="#010101" enable-background="new    " d="M501.169,883.79c178.551,0,323.328,22.359,323.328,49.955
						S679.72,983.7,501.169,983.7c-178.55,0-323.31-22.359-323.31-49.955S322.619,883.79,501.169,883.79z"/>
				</g>
			</g>
		</g>
	</g>
	<g id="Layer_8" display="none">
		<g display="inline">
			<path fill="#CD6428" d="M987.427,356.058c-0.682,0.334-1.366,0.667-2.049,1c-10.197-5.213-19.313-12.271-29.776-17.097
				c-4.563-2.103-10.052-3.591-12.205-9.162l0.235-0.254C958.591,338.428,973.552,346.316,987.427,356.058z"/>
			<path fill="#CD6428" d="M987.739,380.904c0.056-8.021,0.106-16.042,0.159-24.062
				C989.632,364.877,989.929,372.899,987.739,380.904z"/>
			<path fill="#CD6428" d="M829.97,264.865c18.332,9.419,35.879,20.218,53.748,30.454c18.92,10.838,37.748,21.835,56.599,32.792
				c1.182,0.685,2.217,1.62,3.315,2.437l-0.235,0.254c-3.369-0.677-7.438-0.412-9.938-2.265c-3.453-2.559-6.793-4.877-10.632-6.995
				c-12.965-7.164-25.313-15.438-38.028-23.069c-4.636-2.782-9.478-4.694-15.056-5.939c-5.389-1.201-9.229-7.715-14.832-10.502
				c-4.817-2.398-9.332-6.391-14.364-7.154c-6.545-0.992-8.601-5.024-10.746-9.836L829.97,264.865z"/>
			<path fill="#CD6428" d="M550.046,132.164c-3.896,6.158-9.813,8.776-16.771,9.591
				C538.513,137.943,544.128,134.788,550.046,132.164z"/>
			<path fill="#CD6428" d="M552.444,130.909c-0.442,1.116-1.382,1.292-2.427,1.278C550.827,131.761,551.636,131.337,552.444,130.909
				z"/>
			<path fill="#CD6428" d="M152.773,361.376c0,0-0.389,0.31-0.385,0.307c0.006-0.003,0.063-0.335,0.063-0.335L152.773,361.376z"/>
			<path fill="#863C1D" d="M50.811,572.156c-4.445,0.278-5.883-1.712-6.217-6.072c-2.484-32.319-0.48-64.678-1.039-97.008
				c-0.033-1.762,0.531-3.542,0.885-5.299c1.471-7.335,2.715-8.174,9.025-3.691c4.496,3.193,11.344,3.229,13.592,9.428
				c-3.029,0.757-3.455,2.535-2.957,5.426c0.982,5.675,3.494,11.791,1.264,17.098c-2.504,5.956-2.573,11.874-1.766,17.573
				c1.496,10.598,0.678,21.156,0.961,31.728c0.187,6.938,0.258,13.847,2.637,20.494C63.65,568.516,56.27,568.713,50.811,572.156z"/>
			<path fill="#CD6428" d="M50.174,572.191c5.272-3.403,12.457-5.744,17.022-10.258c1.109-0.176,2.221-0.348,3.332-0.515
				c7.627,4.721,15.256,9.441,22.887,14.161c0.107,1.533,0.216,3.063,0.322,4.598c-0.125,5.318-0.248,10.638-0.373,15.953
				c-2.352,1.775-4.758,0.641-6.654-0.494c-10.495-6.262-20.916-12.639-31.733-18.351C53.127,576.31,50.234,574.701,50.174,572.191z
				"/>
			<path fill="#9B4923" d="M70.529,561.4c-1.297,0.176-2.6,0.354-3.896,0.533c-2.685-6.777-2.765-13.825-2.976-20.903
				c-0.321-10.783,0.605-21.562-1.088-32.372c-0.91-5.816-0.832-11.854,1.996-17.934c2.519-5.411-0.319-11.651-1.426-17.439
				c-0.566-2.95-0.082-4.768,3.34-5.537c1.176,0.159,4.674,0.494,5.188,1.562c-2.685,5.979-3.521,12.159-3.601,18.268
				c-0.938,21.875-0.492,43.745,0.369,65.606C68.547,555.925,68.326,558.967,70.529,561.4z"/>
			<path fill="#CFD7DE" d="M69.545,491.95c2.192,18.771,0.618,37.616,1.026,56.424c0.211,9.771,2.269,10.896,10.57,16.116
				c5.514,3.47,11.82,4.063,17.004,7.563c0,0-0.215,0.276-0.215,0.273c-2.611,0.153-2.275,1.911-1.979,3.646
				c-0.149,0.413-0.436,0.553-0.854,0.416c-0.563-0.271-1.121-0.539-1.682-0.807c-7.632-4.721-15.261-9.44-22.888-14.161
				c-1.883-2.363-1.508-5.327-1.791-7.973c-2.229-20.868-1.114-42.406-0.313-63.615C68.799,490.538,69.172,491.244,69.545,491.95z"
				/>
			<path fill="#CD6428" d="M612.341,144.179c-1.248,2.714-3.75,2.365-6.063,2.486C608.183,145.55,609.175,142.216,612.341,144.179z"
				/>
			<path fill="#9B4923" d="M93.346,623.691c-8.271-4.267-16.836-7.959-21.693-16.854c-1.67-3.062-4.887-5.372-9.067-3.247
				c-2.498,1.275-4.541-0.096-6.72-1.137c-14.045-6.713-23.149-17.742-28.608-32.133C14.62,537.035,8.64,502.909,14.476,467.383
				c1.443-8.789,3.801-17.425,7.602-25.606c2.652-5.7,6.457-9.957,12.525-11.962c3.965,0.342,7.615,1.551,11.357,2.994
				c3.809,1.47,6.85,5.091,11.457,4.428c2.197,3.14,4.217,6.432,6.646,9.38c2.273,2.753,5.093,5.84,8.982,4.51
				c3.432-1.172,5.694,0.336,8.319,1.56c3.871,1.878,8.121,3.231,11.543,5.724c12.525,9.12,26.457,15.866,39.689,23.757
				c24.824,14.805,50.277,28.557,75.352,42.951c17.148,9.841,34.037,20.134,51.146,30.039c26.854,15.546,53.752,31.01,80.722,46.348
				c8.258,4.692,66.663,38.477,79.831,46.035c10.773,6.186,21.238,12.928,32.533,18.178c2.701,8.166,5.148,15.924-1.684,23.744
				c-2.963-0.926-14.559-7.303-15.201-7.68c-18.328-10.689-181.269-104.919-215.711-124.813
				c-46.5-26.854-92.922-53.839-139.51-80.542c-3.222-1.844-6.089-5.485-10.673-4.309c-0.438-1.033-1.334-1.359-2.342-1.513
				c-2.174-6.134-8.787-6.167-13.127-9.324c-6.094-4.437-7.299-3.604-8.715,3.648c-0.342,1.741-0.889,3.501-0.857,5.244
				c0.539,31.987-1.395,63.997,1.005,95.974c0.323,4.313,1.709,6.284,6.002,6.01c0.063,2.51,1.758,4.151,3.604,5.132
				c10.82,5.712,21.24,12.089,31.736,18.351c1.896,1.136,4.303,2.271,6.651,0.494C93.997,605.319,93.999,614.504,93.346,623.691z"/>
			<path fill="#CD6428" d="M57.415,437.237c-4.606,0.662-7.647-2.959-11.457-4.429c-3.741-1.444-7.393-2.653-11.356-2.994
				c13.104-7.778,26.143-15.668,39.324-23.309c25.045-14.511,50.17-28.88,75.268-43.295c1.022-0.588,2.135-1.025,3.195-1.53
				c-0.005,0.003,0.387-0.307,0.387-0.307c0.529-0.262,1.061-0.521,1.586-0.783c1.375-0.132,3.146,0.237,4.059-0.48
				c5.103-4.003,12.279-4.121,16.783-9.28c1.668-1.91,4.021-2.679,6.898-2.741c2.28-0.049,5.875,0.029,5.95-4.21
				c0.023-1.482,1.644-2.102,2.884-2.769c12.01-6.436,24.09-12.746,35.971-19.416c3.785-2.125,7.666-4.168,11.279-6.5
				c3.266-2.11,5.414-4.672,10.246-4.004c3.815,0.526,3.266-6.206,7.698-7.663c9.979-3.282,17.648-11.097,27.4-15.027
				c1.297-0.522,1.055-2,1.088-3.182c19.693-11.501,39.356-23.05,59.086-34.493c24.027-13.939,48.104-27.794,72.174-41.663
				c1.188-0.683,2.517-1.12,3.779-1.67c1.981,0.083,3.715-0.285,5.647-1.182c7.254-3.361,12.696-11.263,22.244-9.091
				c1.022,0.233,1.776-0.817,1.928-1.888c0.541-3.884,3.541-5.415,6.505-7.11c4.223-2.417,9.592-2.8,13.026-6.315
				c3.09-3.169,7.137-4.086,10.584-6.231c7.502-4.668,14.444-10.271,23.516-11.771c0.328-0.053,0.627-0.48,0.869-0.787
				c3.639-4.688,9.137-6.564,13.959-9.53c5.495-3.382,12.37-5.189,15.363-11.869l-0.023,0.035c6.955-0.814,12.873-3.433,16.77-9.591
				l-0.025,0.023c1.043,0.013,1.979-0.162,2.424-1.278l-0.08,0.053c5.225,0.198,9.279-2.828,13.227-5.426
				c8.061-5.308,18.516-2.443,23.973,5.461c-6.447,3.803-12.871,7.644-19.344,11.401c-22.934,13.315-45.881,26.605-68.824,39.896
				c-22.729,13.16-45.336,26.541-68.235,39.394c-23.562,13.222-46.812,26.966-70.187,40.508
				c-30.173,17.485-60.642,34.468-90.882,51.843c-22.409,12.877-44.614,26.108-66.985,39.054
				c-27.008,15.628-54.104,31.103-81.144,46.682c-20.567,11.853-41.125,23.729-61.625,35.701
				C60.736,436.412,59.273,437.251,57.415,437.237z"/>
			<path fill="#BD986E" d="M762.999,510.912c0.36-1.157,1.204-1.537,2.332-1.462c4.94,0.369,8.057-2.533,10.803-6.087l0.088-0.063
				c2.502-0.285,5.172-0.293,5.82-3.601c0,0,0.102-0.083,0.1-0.083c5.66,0.834,8.729-4.057,13.138-5.955
				c9.793-4.219,18.524-10.396,27.932-15.33c8.854-4.646,17.648-9.888,26.021-15.572c3.282-2.225,8.104-2.659,9.409-7.438
				l0.067-0.058c7.646-1.297,13.509-5.738,19-10.842l0.043-0.033c7.699-1.233,13.777-5.346,19.059-10.873l-0.021,0.028
				c3.557,0.292,6.463-0.457,7.278-4.565c0,0,0.2-0.139,0.196-0.139c0.89-0.103,1.733-0.285,2.142-1.236l0.026-0.018
				c2.739,0.446,4.722-1.283,7.052-2.223c5.668-2.289,10.222-7.153,16.769-7.372c0.102,2.788,0.203,5.578,0.305,8.366
				c-0.146,2.754-0.287,7.96-0.432,10.716C908.438,449.572,517.457,673.683,494.38,687.03
				c-13.056,7.551-26.056,15.198-39.072,22.818c-2.226,1.303-4.549,1.798-6.756,0.298c-3.938-2.677-8.586-4.196-12.084-7.563
				c0.362-4.144-0.584-8.328,0.758-12.465c1.214-3.738,3.313-4.193,6.199-2.104c6.741,4.896,10.664,4.416,18.088-0.229
				c11.832-7.406,24.211-16.381,36.099-23.707c5.604-3.451,30.154-16.875,30.154-16.875s62.97-35.13,63.084-36.569
				c0.072-0.276,0.248-0.426,0.531-0.457c4.481-0.678,11.349-6.108,11.349-6.108c5.319-1.865,36.545-21.671,40.647-23.887
				l0.104-0.087c2.883,0.443,4.864-0.646,5.832-3.459c0.26-0.229,0.563-0.307,0.901-0.231c3.408-0.1,7.565-4.729,7.565-4.729
				c0.367-0.276,0.737-0.551,1.104-0.824c0.441-0.114,0.886-0.229,1.324-0.349c1.289-0.077,14.377-8.396,14.377-8.396
				c3.116,0.202,5.752-0.493,7-3.783l-0.095,0.063c0.396-0.03,0.822,0.024,1.181-0.108c14.697-5.517,26.771-15.868,40.892-22.471
				c0.629-0.295,0.731-1.721,1.077-2.62l-0.028,0.033c2.224,0.16,4.408-0.03,6.276-1.343c8.082-5.661,16.843-10.117,25.371-14.998
				C758.487,515.596,762.399,514.688,762.999,510.912z"/>
			<path fill="#9B4923" d="M456.424,827.581c-0.834,0.799-0.664-0.402-1.5,0.389c-3.084,1.258-7.209,2.271-9.496,0.717
				c-14.135-9.604-28.979-18.029-43.744-26.586c-51.315-29.73-102.653-59.422-153.988-89.125
				c-26.692-15.448-60.748-33.344-87.444-48.791c2.407-7.479,0.071-17.67,1.229-25.217c4.931,1.021,16.115,9.08,20.33,11.527
				c22.639,13.141,45.295,26.254,68.016,39.258c5.414,3.096,30.322,18.621,31.064,18.477c9.617,4.15,18.418,9.809,27.422,15.063
				c16.249,9.48,32.639,18.721,48.754,28.447c19.229,11.6,38.94,22.411,58.563,33.352c12.19,6.799,24.534,15.107,37.528,20.465
				c-0.043,5.527,0.08,11.063-0.188,16.578C452.807,825.546,452.939,827.396,456.424,827.581z"/>
			<path fill="#CD6428" d="M589.56,130.995c-5.456-7.903-15.911-10.768-23.971-5.46c-3.945,2.599-8.002,5.625-13.228,5.426
				c4.388-3.811,9.567-6.394,14.662-9.001c4.813-2.465,10.11-2.421,15.086-0.264c7.651,3.322,15.308,6.57,19.356,14.902
				c1.699,3.49,5.108,5.602,9.529,4.155c3.191-1.044,5.811,0.451,8.428,1.961c28.613,16.509,57.229,33.008,85.842,49.52
				c39.625,22.868,79.246,45.737,118.854,68.637c2.039,1.177,3.902,2.655,5.852,3.993c0,0-0.172,0.176-0.172,0.175
				c-1.977-0.101-3.779-0.318-5.629-1.461c-6.271-3.873-12.83-6.778-20.422-3.547c-0.625,0.266-1.604,0.082-1.906-1.064
				c0.484-1.757,2.752-1.124,3.633-2.485c0.531-0.814,1.498-1.411,1.246-2.549c-0.299-1.345-1.404-2.209-2.586-2.002
				c-4.543,0.797-8.93,1.633-10.27-4.637c-0.064-0.308-1.049-0.471-1.621-0.61c-9.711-2.337-15.168-12.408-25.332-13.955
				c-0.479-0.072-0.908-0.71-1.281-1.157c-6.187-7.505-15.807-9.438-23.57-14.391c-2.559-1.631-5.814-1.841-8.039-4.625
				c-1.043-1.311-3.52-4.672-5.373-2.407c-2.822,3.45-3.036,0.367-3.68-0.942c-1.082-2.216-3.09-5.626-4.471-5.002
				c-5.535,2.511-5.205-3.575-8.035-4.788c-1.369-0.586-2.424-2.986-3.865-2.415c-6.764,2.685-9.11-2.012-11.823-6.468
				c-0.942-1.55-2.55-2.444-4.259-3.126c-10.08-4.034-18.293-11.376-28.135-15.906c-2.158-0.994-3.975-2.374-6.496-2.245
				c-2.156,0.111-3.758-1.531-5.396-2.163c-6.528-2.51-9.668-10.974-18.069-9.998c-1.721,0.201-2.693-2.094-3.965-3.303
				c-5.136-4.883-11.209-8.037-18.111-9.615c-3.164-1.963-4.158,1.371-6.063,2.487c-0.762,3.17-3.744,2.635-5.877,3.521
				c-0.023-2.584-0.145-5.171-0.044-7.75c0.13-3.377-1.009-4.99-4.587-3.751c-1.063,0.366-2.191,1.121-3.266-0.56
				C596.657,133.784,593.323,132.298,589.56,130.995z"/>
			<path fill="#CD6428" d="M284.62,285.32c-0.033,1.181,0.209,2.659-1.089,3.182c-9.752,3.93-17.422,11.745-27.399,15.027
				c-4.435,1.457-3.883,8.188-7.699,7.663c-4.832-0.668-6.98,1.894-10.246,4.004c-3.611,2.332-7.494,4.375-11.279,6.5
				c-11.881,6.67-23.961,12.979-35.971,19.416c-1.242,0.667-2.859,1.287-2.883,2.769c-0.076,4.239-3.67,4.162-5.951,4.21
				c-2.879,0.062-5.23,0.831-6.898,2.741c-4.504,5.16-11.682,5.277-16.782,9.28c-0.914,0.717-2.687,0.348-4.06,0.48
				c9.521-6.835,20.019-12.043,30.097-17.928c32.211-18.812,64.592-37.328,96.92-55.936
				C282.393,286.144,283.535,285.784,284.62,285.32z"/>
			<path fill="#CD6428" d="M533.304,141.72c-2.994,6.68-9.869,8.487-15.364,11.869c-4.822,2.965-10.32,4.842-13.959,9.53
				c-0.242,0.307-0.541,0.734-0.869,0.787c-9.068,1.499-16.014,7.103-23.516,11.771c-3.446,2.146-7.494,3.063-10.584,6.231
				c-3.437,3.516-8.806,3.898-13.026,6.315c-2.963,1.695-5.963,3.226-6.504,7.11c-0.149,1.071-0.901,2.121-1.929,1.888
				c-9.547-2.172-14.989,5.729-22.244,9.091c-1.934,0.897-3.668,1.265-5.646,1.182c15.045-9.994,31.096-18.286,46.608-27.485
				c21.491-12.745,43.175-25.178,64.792-37.711C531.702,141.924,532.55,141.904,533.304,141.72z"/>
			<path fill="#DCC4A6" d="M436.463,702.622c3.498,3.352,8.146,4.865,12.084,7.531c2.207,1.493,4.53,1,6.756-0.298
				c13.019-7.591,26.019-15.205,39.071-22.724c23.077-13.293,46.213-26.481,69.278-39.787c22.342-12.887,44.621-25.872,66.94-38.794
				c13.414-7.764,26.856-15.488,40.285-23.234c24.062-13.885,48.104-27.797,72.176-41.657
				c18.888-10.877,37.838-21.645,56.705-32.558c21.795-12.606,43.502-25.378,65.306-37.977
				c21.646-12.514,43.369-24.904,65.056-37.35c0.688,7.998,0.516,16.095,2.67,23.93c-0.326,4.262-1.719,8.563,0.094,12.769
				c2.888,6.694,4.826,13.882,9.429,19.709c2.395,3.029,2.34,4.688-1.289,6.769c-30.484,17.465-60.894,35.068-91.271,52.715
				c-22.636,13.146-45.197,26.424-67.795,39.643c-2.018,0.816-4.154,1.421-6.025,2.488c-14.303,8.185-28.53,16.493-42.821,24.694
				c-23.026,13.22-46.291,26.054-69.082,39.665c-24.688,14.75-49.944,28.494-74.692,43.121
				c-18.066,10.676-36.461,20.77-54.617,31.27c-14.897,8.617-29.356,17.984-44.764,25.724c-1.616,0.812-2.971,2.013-3.399,3.929
				l0.063-0.013c-2.295-0.099-4.073,1.049-6.024,2.108c-9.528,5.183-18.396,11.539-28.319,16.019
				c-1.187-1.349-2.738-2.005-4.449-2.354l-0.172,0.188c-3.229-3.851-5.035-8.271-6.459-13.123
				c-3.836-13.079-4.377-26.463-4.707-39.907c-0.187-7.518,0.664-15.084-1.194-22.509l0.588-0.006L436.463,702.622z"/>
			<path fill="#9B4923" d="M452.16,805.556c10.845-6.123,21.736-12.157,32.521-18.385c26.831-15.488,53.622-31.051,80.419-46.604
				c30.726-17.832,61.397-35.754,92.17-53.509c39.226-22.629,78.545-45.079,117.769-67.701
				c43.519-25.101,86.959-50.326,130.451-75.467c25.271-14.604,50.569-29.159,75.866-43.72c2.063-1.188,4.339-2.083,5.236-4.58
				c0.682,0.266,1.354,0.531,2.035,0.797l0.059,0.228c0.097,7.664,0.193,15.328,0.289,22.989c-2.498,3.342-6.438,4.56-9.828,6.521
				c-78.396,45.354-156.813,90.673-235.252,135.954c-94.127,54.332-188.271,108.629-282.414,162.93
				c-1.544,0.892-3.188,1.604-4.783,2.395c-0.125-0.146-0.242-0.294-0.358-0.438c0.103,0.144,0.2,0.283,0.299,0.422
				c0,0-0.224,0.199-0.22,0.199c-3.479-0.187-4.612-2.035-4.444-5.449C452.24,816.616,452.12,811.081,452.16,805.556z"/>
			<path fill="#CD6428" d="M456.637,827.382c-0.099-0.139-0.199-0.278-0.299-0.422c0.116,0.146,0.233,0.295,0.358,0.438
				C456.699,827.403,456.637,827.382,456.637,827.382z"/>
			<path fill="#CD6428" d="M943.396,330.8c2.153,5.57,7.643,7.059,12.205,9.162c10.463,4.826,19.579,11.883,29.776,17.097
				c-10.785,7.834-22.649,13.883-34.123,20.569c-32.623,19.014-65.326,37.899-98.039,56.764
				c-29.771,17.169-59.625,34.19-89.385,51.374c-40.089,23.152-80.089,46.456-120.188,69.586
				c-26.139,15.075-52.521,29.731-78.555,44.985c-35.49,20.793-70.977,41.589-106.896,61.625c-2.074,1.156-3.453,3.4-6.011,3.754
				c-11.295-5.25-21.762-11.992-32.535-18.178c-13.166-7.563-71.573-41.343-79.829-46.035c-26.97-15.338-53.87-30.803-80.722-46.348
				c-17.111-9.905-34-20.198-51.146-30.04c-25.073-14.396-50.526-28.146-75.352-42.95c-13.232-7.892-27.164-14.638-39.691-23.758
				c-3.422-2.489-7.67-3.846-11.541-5.723c2.713-5.814,8.89-6.677,13.681-9.474c27.442-16.013,54.909-31.996,82.42-47.896
				c23.396-13.524,46.914-26.845,70.291-40.4c27.223-15.784,54.313-31.8,81.543-47.575c27.67-16.029,55.426-31.906,83.168-47.806
				c10.096-5.786,20.319-11.347,30.383-17.185c13.621-7.904,27.091-16.074,40.729-23.955c12.803-7.397,25.972-14.183,38.552-21.935
				c14.938-9.208,30.394-17.5,45.528-26.358c11.024-6.454,22.423-12.301,32.74-19.915c2.133-0.886,5.116-0.35,5.879-3.521
				c2.313-0.121,4.813,0.228,6.063-2.486c6.901,1.579,12.978,4.732,18.108,9.615c1.271,1.209,2.244,3.504,3.966,3.303
				c8.403-0.976,11.541,7.488,18.069,9.998c1.642,0.631,3.241,2.273,5.397,2.163c2.521-0.129,4.336,1.25,6.494,2.245
				c9.844,4.53,18.057,11.873,28.137,15.906c1.707,0.682,3.313,1.576,4.259,3.126c2.713,4.456,5.062,9.153,11.823,6.468
				c1.441-0.571,2.494,1.829,3.863,2.415c2.832,1.213,2.5,7.298,8.037,4.788c1.381-0.625,3.387,2.786,4.471,5.002
				c0.644,1.309,0.854,4.392,3.678,0.942c1.855-2.265,4.332,1.096,5.375,2.407c2.222,2.784,5.479,2.993,8.037,4.625
				c7.769,4.953,17.388,6.885,23.572,14.391c0.371,0.447,0.805,1.085,1.278,1.157c10.166,1.546,15.623,11.618,25.334,13.955
				c0.573,0.14,1.556,0.303,1.619,0.61c1.34,6.271,5.728,5.435,10.271,4.637c1.182-0.208,2.287,0.657,2.588,2.002
				c0.252,1.138-0.717,1.735-1.246,2.549c-0.881,1.361-3.147,0.729-3.633,2.485c0.303,1.146,1.281,1.331,1.904,1.064
				c7.592-3.23,14.148-0.325,20.422,3.547c1.85,1.143,3.651,1.36,5.629,1.461c2.146,4.813,4.201,8.846,10.746,9.837
				c5.033,0.763,9.547,4.756,14.365,7.154c5.604,2.787,9.441,9.301,14.832,10.502c5.576,1.245,10.42,3.157,15.055,5.939
				c12.715,7.632,25.063,15.905,38.029,23.069c3.838,2.118,7.178,4.437,10.631,6.995C935.956,330.388,940.026,330.124,943.396,330.8
				z M645.601,438.81c3.779,2.319,6.834,1.972,10.439-0.232c6.778-4.151,13.797-7.923,20.688-11.898
				c34.795-20.085,69.588-40.174,104.366-60.291c6.656-3.853,13.233-7.843,20.218-11.986c-1.166-0.948-1.707-1.523-2.363-1.901
				c-70.813-40.853-141.654-81.66-212.408-122.618c-2.791-1.616-4.516-1.171-6.94,0.236
				c-47.674,27.622-95.372,55.201-143.119,82.688c-3.38,1.943-4.3,2.898-0.255,5.22C480.381,343.381,637.126,433.617,645.601,438.81
				z"/>
			<path fill="#863C1D" d="M602.854,147.736c-10.318,7.614-24.166,15.913-35.193,22.367c-15.137,8.857-30.588,17.149-45.528,26.358
				c-12.578,7.751-25.749,14.537-38.553,21.935c-13.637,7.881-27.104,16.051-40.728,23.955
				c-10.063,5.838-20.286,11.398-30.383,17.186c-27.74,15.9-55.496,31.777-83.166,47.806
				c-27.229,15.775-54.322,31.791-81.542,47.575c-23.377,13.555-46.896,26.876-70.293,40.4
				c-27.509,15.9-54.976,31.884-82.421,47.896c-4.791,2.797-10.963,3.658-13.678,9.474c-2.629-1.224-4.893-2.73-8.324-1.56
				c-3.891,1.33-6.707-1.757-8.979-4.51c-2.432-2.948-4.449-6.24-6.647-9.38c1.858,0.015,3.321-0.824,4.922-1.761
				c20.5-11.973,41.057-23.851,61.625-35.701c27.039-15.579,54.133-31.053,81.141-46.682c22.373-12.946,44.578-26.177,66.988-39.054
				c30.24-17.375,60.707-34.358,90.88-51.843c23.373-13.542,46.623-27.286,70.185-40.508c22.901-12.853,45.508-26.234,68.235-39.394
				c22.946-13.29,45.895-26.581,68.825-39.896c6.472-3.757,12.896-7.599,19.343-11.401c3.766,1.302,7.1,2.788,2.946,7.13
				c1.071,1.681,2.203,0.926,3.269,0.56c3.578-1.239,4.713,0.374,4.584,3.751C600.259,145.016,602.831,145.151,602.854,147.736z"/>
			<path fill="#C7AB83" d="M436.463,702.622l-0.589-0.021l-0.588,0.007c-7.012-4.11-14.004-8.261-21.035-12.339
				c-22.491-13.047-288.098-166.355-308.916-178.239c-11.885-6.774-23.42-14.176-35.791-20.08c-0.373-0.706-0.745-1.412-1.118-2.117
				c0.063-5.922-1.318-11.917,0.979-17.71c4.582-1.183,7.451,2.459,10.672,4.304c46.588,26.703,93.008,53.688,139.508,80.542
				c34.445,19.894,68.938,39.696,103.41,59.539c14.25,9.508,93.976,54.583,112.304,65.271c0.646,0.38,1.508,0.38,2.271,0.554
				c0.438,0.385,0.875,0.766,1.313,1.146c0.269,0.237,0.573,0.34,0.933,0.306c0.729,0.995,1.786,1.092,2.896,1.038
				c3.604-0.146,4.827,3.712,7.791,4.638c1.393,0.5,2.741,0.344,3.995-0.396c13.625-7.996,27.242-16.009,40.854-24.021
				c1.878-0.479,3.787-0.902,4.651-2.969c0,0,0.045,0.075,0.045,0.071c5.256-0.841,8.672-5.746,14.035-6.358
				c-4.395,5.285-10.873,7.498-16.479,10.936c-11.887,7.293-24.264,13.791-36.098,21.164c-7.422,4.629-11.345,5.105-18.088,0.229
				c-2.884-2.082-4.984-1.628-6.197,2.094C435.879,694.325,436.826,698.495,436.463,702.622z"/>
			<path fill="#E8DAC0" d="M69.545,491.95c12.37,5.905,23.905,13.304,35.791,20.08c20.817,11.883,41.598,23.828,62.358,35.807
				c23.328,13.456,46.629,26.951,69.92,40.467c30.857,17.903,61.693,35.85,92.558,53.746c0.653,0.381,1.508,0.42,2.271,0.619
				c3.996,4.127,9.096,6.408,14.303,8.502c22.507,13.031,45.013,26.055,67.505,39.103c7.03,4.075,14.022,8.226,21.034,12.339
				c1.859,7.424,1.013,14.991,1.195,22.506c0.329,13.444,0.87,26.828,4.707,39.91c1.426,4.852,3.231,9.271,6.457,13.117
				c-1.109-0.329,6.225,3.225,5.192,2.738c-7.021,7.832-25.828-14.649-35.402-18.438c-0.348-0.115-239.133-137.638-239.133-137.638
				c-2.439-3.311-19.578-9.641-21.133-9.73c0.123-0.73,25.086-13.393,32.235-17.737c-23.084-13.224-45.233-25.917-67.397-38.597
				c-1.037-0.596-2.291-1.31-3.365-0.567c-6.313,4.353-14.063,6.606-18.998,12.97c-0.5,0.307-1,0.608-1.498,0.911
				c-5.184-3.5-11.492-4.094-17.004-7.563c-8.303-5.219-10.359-6.347-10.57-16.115C70.163,529.565,71.738,510.721,69.545,491.95z"/>
			<path fill="#E94C3F" d="M99.645,571.142c4.934-6.359,12.684-8.618,18.998-12.97c1.074-0.739,2.33-0.025,3.365,0.568
				c22.164,12.679,44.313,25.372,67.397,38.597c-7.149,4.346-12.676,9.063-19.297,12.142c-0.088-0.854-0.176-1.712-0.268-2.563
				c0.096-0.15,0.19-0.297,0.289-0.447c-0.086,0.158-0.17,0.318-0.256,0.479c-10.267-5.286-20.435-10.72-30.271-16.794
				c-10.553-6.52-21.338-12.665-32.063-18.896C105.016,569.785,102.297,569.813,99.645,571.142z"/>
			<path fill="#BFE5ED" d="M436.223,318.027c-4.043-2.322-3.125-3.277,0.254-5.22c47.75-27.486,95.446-55.065,143.12-82.688
				c2.429-1.407,4.152-1.853,6.941-0.236c70.756,40.958,141.596,81.766,212.407,122.618c0.657,0.378,1.198,0.953,2.364,1.901
				c-6.981,4.143-13.563,8.134-20.219,11.986c-34.776,20.117-69.57,40.206-104.367,60.291c-6.889,3.978-13.905,7.748-20.688,11.898
				c-3.604,2.204-6.657,2.553-10.438,0.232C637.126,433.617,480.381,343.381,436.223,318.027z"/>
			<g>
				<path fill="#CD6428" d="M950.591,470.649c0.006,0.01,0.015,0.015,0.019,0.023h0.002L950.591,470.649z"/>
				<path fill="#CD6428" d="M486.551,762.202c0.021,0.004,0.037,0.002,0.058,0.004c0-0.008,0.006-0.012,0.01-0.021
					C486.615,762.188,486.551,762.198,486.551,762.202z"/>
				<path fill="#CD6428" d="M933.962,459.771c-0.394,0.028-0.783,0.005-1.172-0.063c-0.326,4.262-1.72,8.563,0.094,12.769
					c2.888,6.694,4.826,13.882,9.429,19.709c2.395,3.029,2.34,4.688-1.289,6.769c-30.484,17.465-60.894,35.067-91.271,52.715
					c-22.635,13.146-400.47,228.913-401.254,228.741c-1.304,1.434-282.134-163.704-285.632-164.077
					c0.359,6.729-4.19,15.905-3.838,22.636c4.935,1.021,18.572,9.08,22.785,11.527c22.64,13.141,254.082,150.598,270.351,155.061
					c10.844-6.123,21.735-12.157,32.52-18.385c26.831-15.488,53.624-31.051,80.419-46.604c30.729-17.832,61.4-35.756,92.171-53.51
					c39.226-22.629,78.545-45.08,117.771-67.701c43.518-25.101,86.957-50.326,130.451-75.467
					c25.27-14.604,50.567-29.159,75.866-43.72c2.063-1.188,4.339-2.083,5.237-4.58C976.739,487.243,939.169,463.928,933.962,459.771
					z"/>
				<path fill="#CD6428" d="M260.811,672.563c-0.002,0.018,0,0.021,0,0.037c0.014,0,0.025,0.006,0.039,0.006L260.811,672.563z"/>
			</g>
			<path fill="#9B4923" d="M450.497,689.458c3.108-7.734,0.674-15.861,1.688-23.744c2.56-0.354,3.938-2.598,6.011-3.752
				c35.924-20.035,71.408-40.833,106.896-61.625c26.035-15.254,52.416-29.911,78.556-44.986
				c40.101-23.13,80.099-46.434,120.187-69.586c29.76-17.184,59.614-34.205,89.385-51.374c32.713-18.863,65.416-37.75,98.041-56.764
				c11.474-6.686,23.338-12.735,34.123-20.568c0.683-0.333,1.367-0.667,2.049-1.001c0.205,0.233,0.361,0.496,0.474,0.785
				c-0.054,8.02-0.104,20.946-0.16,28.968c-18.866,10.972-519.619,295.256-533.244,303.251
				C453.242,689.804,451.891,689.958,450.497,689.458z"/>
			<path fill="#CF3029" d="M93.346,623.691c0.654-9.188,0.649-18.372,0.02-27.56c0.125-5.315,0.248-10.635,0.375-15.957
				c1.349-0.938,1.229-2.409,1.357-3.787c0.42,0.137,0.705-0.003,0.854-0.416c2.755-0.078,2.113-1.997,1.979-3.643l0.215-0.276
				c0.498-0.303,0.998-0.604,1.498-0.911c2.652-1.33,5.371-1.354,7.896,0.109c10.725,6.229,21.51,12.379,32.063,18.896
				c9.836,6.074,20.006,11.51,30.271,16.793l-0.033-0.027c0.092,0.854,0.18,1.709,0.268,2.563c-0.573,0.748-1.147,1.492-1.729,2.24
				c-1.818-0.059-2.193,1.164-2.316,2.611c-0.123,0.729-0.248,1.465-0.369,2.193c-3.465,3.219-2.979,7.48-3.092,11.599
				c-0.334,12.15,0.277,39.455,0.277,41.043c-0.007,21.082-0.013,42.158-0.037,63.239c0,0.743-0.187,1.485-0.435,3.354
				c-9.051-14.879-17.559-28.871-26.076-42.854c-3.51-5.771-7.231-11.419-10.495-17.321c-2.039-3.701-3.572-4.314-6.884-1.146
				c-6.896,6.582-14.184,12.752-21.321,19.082c-0.861,0.766-1.791,1.451-3.796,3.063c0-4.361,0-7.641,0-10.91
				c0.007-19.096,0.025-38.189,0-57.277C93.834,626.825,93.518,625.26,93.346,623.691z"/>
			<g>
				<polygon fill="#BFE5ED" points="650.87,439.522 435.199,313.641 584.88,226.058 804.577,352.765 				"/>
				<path fill="#CD6428" d="M646.632,344.701c6.041,3.5,12.076,7.002,18.113,10.506c0.436,0.254,0.868,0.506,1.303,0.764
					c1.68,1.02,1.66,1.018,0.217,2.241c-3.844,3.25-8.807,5.862-14.254,8.155c-3.721,1.56-7.592,3-11.514,4.359
					c-1.849,0.641-3.992,0.958-6.009,1.42c-7.739,1.757-15.633,2.236-23.664,2.027c-4.892-0.125-9.603-0.6-14.142-1.424
					c-4.403-0.806-8.608-1.877-12.569-3.231c-6.521-2.225-12.138-5.069-17.088-8.313c-3.589-2.349-6.625-4.945-9.05-7.816
					c-2.752-3.251-4.775-6.647-5.969-10.228c-1.289-3.874-1.613-7.821-0.863-11.844c0.699-3.763,2.128-7.46,4.673-11.017
					c2.097-2.924,4.411-5.813,7.799-8.385c2.513-1.906,4.83-3.938,7.729-5.63c5.57-3.26,12.039-5.824,19.078-7.93
					c5.354-1.605,10.908-2.737,16.649-3.467c6.815-0.864,13.673-1.197,20.546-0.892c4.938,0.218,9.791,0.643,14.428,1.47
					c7.992,1.427,15.531,3.393,21.91,6.51c2.293,1.127,4.864,2.103,6.891,3.373c4.935,3.087,9.289,6.419,12.316,10.343
					c2.885,3.751,4.881,7.639,5.568,11.8c0.152,0.932,0.271,1.865,0.291,2.806c0.018,1.035-0.508,1.367-2.289,1.413
					c-4.5,0.115-8.98,0.203-13.473,0.263c-2.041,0.025-2.137-0.015-2.236-1.217c-0.262-3.25-1.506-6.327-3.479-9.299
					c-1.328-1.997-3.359-3.727-5.383-5.473c-2.828-2.44-6.572-4.369-10.523-6.12c-4.463-1.983-9.672-3.246-15.193-4.166
					c-7.023-1.171-14.229-1.353-21.553-0.602c-4.98,0.51-9.859,1.396-14.506,2.813c-5.129,1.561-9.943,3.385-14.041,5.739
					c-7.068,4.058-12.09,8.811-14.754,14.314c-1.805,3.733-2.342,7.473-1.615,11.17c0.904,4.564,3.42,8.776,7.979,12.501
					c4.771,3.896,10.734,6.98,17.982,9.265c6.3,1.982,13.221,2.872,20.602,2.911c4.28,0.022,8.506-0.295,12.553-1.274
					c2.646-0.645,5.191-1.484,7.717-2.302c1.52-0.491,2.947-1.079,4.371-1.669c1.201-0.5,1.355-0.867,0.719-1.564
					c-0.322-0.344-0.775-0.653-1.262-0.925c-4.537-2.572-9.119-5.113-13.637-7.686c-4.373-2.487-8.705-4.996-13.039-7.498
					c-0.293-0.165-0.533-0.361-0.785-0.546c-0.609-0.434-0.592-0.861,0.17-1.301c3.476-1.997,6.92-4.013,10.426-5.997
					c1.031-0.584,1.541-0.563,2.582-0.083c0.375,0.173,0.697,0.377,1.035,0.572c6.416,3.719,12.834,7.439,19.244,11.163
					C646.636,344.697,646.634,344.7,646.632,344.701z"/>
			</g>
		</g>
	</g>
	<g id="Layer_2_1_" display="none">
		
			<image display="inline" overflow="visible" enable-background="new    " width="381" height="345" xlink:href="160A594C.jpg"  transform="matrix(1.9961 0 0 1.9961 111.2686 150.3496)">
		</image>
	</g>
	<g id="Layer_7">
	</g>
</g>
<g id="Layer_2">
	<path fill="#D33D3C" d="M362.595,717.189c84.974-2.911,169.948-5.829,254.923-8.745c0.287,0.93,0.572,1.869,0.856,2.804
		c-12.949,17.034-25.747,34.36-39.014,50.801c-1.967,2.435-6.219,1.459-9.302,0.817c-49.841-10.359-99.665-20.896-149.488-31.448
		c-19.259-4.082-38.502-8.322-57.752-12.487C362.742,718.351,362.669,717.771,362.595,717.189z"/>
	<path fill="#D33D3C" d="M745.344,299.944C711.109,431.19,677.423,560.328,643.378,690.83
		c-94.249-96.845-187.42-192.584-281.37-289.123C489.739,367.799,616.383,334.182,745.344,299.944z"/>
	<path fill="#D33D3C" d="M286.938,713.673C307.88,611.4,328.66,509.912,349.832,406.507
		c96.888,99.602,192.944,198.349,290.637,298.779C521.507,708.11,404.659,710.881,286.938,713.673z"/>
	<path fill="#D33D3C" d="M740.145,286.991c-128.113,33.994-256.229,67.987-385.811,102.373
		c20.42-91.857,40.565-182.473,60.979-274.303c108.716,56.917,216.893,113.551,325.074,170.186
		C740.304,285.83,740.225,286.41,740.145,286.991z"/>
	<path fill="#D33D3C" d="M167.343,360.764c58.294,12.114,115.001,23.898,172.672,35.883
		c-19.875,92.605-39.66,184.792-59.445,276.976c-0.514-0.019-1.028-0.043-1.54-0.062
		C241.955,569.727,204.88,465.893,167.343,360.764z"/>
	<path fill="#D33D3C" d="M396.987,133.306c-19.248,86.667-38.028,171.227-57.023,256.752
		c-54.732-11.894-109.111-23.708-162.389-35.285C250.292,281.376,322.898,208.088,396.987,133.306z"/>
	<path fill="#D33D3C" d="M666.909,668.384c29.098-111.94,57.816-222.413,86.973-334.576c1.432,3.18,2.359,4.839,2.947,6.611
		c20.878,62.794,41.692,125.606,62.642,188.375c1.313,3.928,1.305,6.391-2.243,9.469c-49.111,42.575-98.04,85.365-147.026,128.086
		C669.701,666.784,669.063,667.063,666.909,668.384z"/>
	<path fill="#D33D3C" d="M450.777,120.104c61.473,18.236,122.948,36.477,184.424,54.706c25.55,7.575,51.082,15.206,76.678,22.611
		c4.851,1.404,7.575,3.7,9.172,8.828c6.945,22.278,14.449,44.38,22.546,68.964c-99.198-51.996-196.35-102.918-293.499-153.843
		C450.325,120.949,450.552,120.525,450.777,120.104z"/>
	<path fill="#442E2E" d="M579.261,783.28c-18.652-2.581-37.306-5.152-55.955-7.745c-35.233-4.898-70.458-9.829-105.69-14.716
		c-38.458-5.334-76.921-10.618-115.377-15.955c-7.828-1.086-15.608-2.612-23.465-3.372c-9.08-0.875-14.03-5.779-16.875-14.165
		c-20.802-61.339-41.786-122.615-62.692-183.923c-20.305-59.543-40.466-119.139-60.996-178.607
		c-3.399-9.846-0.64-17.174,6.697-24.486c84.804-84.557,168.508-169.245,253.078-254.033c6.799-6.816,13.734-9.179,23.186-6.349
		c101.188,30.299,202.419,60.445,303.7,90.433c8.175,2.422,12.937,6.928,15.63,15.033c38.358,115.386,76.868,230.724,115.48,346.026
		c3.133,9.353,1.345,16.495-6.146,23c-56.637,49.165-113.136,98.487-169.675,147.762c-27.745,24.179-55.489,48.354-83.229,72.537
		C591.826,779.168,586.909,784.008,579.261,783.28z M745.344,299.944C616.383,334.183,489.739,367.8,362.008,401.708
		c93.95,96.538,187.121,192.278,281.37,289.123C677.423,560.327,711.109,431.19,745.344,299.944z M290.934,707.68
		c112.399-2.666,223.966-5.309,337.548-8.003c-93.276-95.861-184.99-190.112-277.498-285.18
		C330.769,513.196,310.928,610.062,290.934,707.68z M731.706,286.182c0.079-0.564,0.155-1.127,0.235-1.694
		c-105.028-54.985-210.056-109.97-315.605-165.229c-19.819,89.156-39.378,177.132-59.204,266.313
		C482.94,352.189,607.324,319.186,731.706,286.182z M175.333,368.754c34.931,102.443,69.433,203.626,103.935,304.808
		c0.479,0.021,0.956,0.042,1.434,0.061c18.412-89.83,36.823-179.662,55.319-269.902
		C282.352,392.043,229.582,380.559,175.333,368.754z M395.192,137.505c-72.065,72.739-142.689,144.025-213.419,215.419
		c51.823,11.259,104.715,22.751,157.953,34.319C358.203,304.056,376.47,221.804,395.192,137.505z M666.909,668.384
		c2.153-1.321,2.794-1.6,3.292-2.036c48.986-42.722,97.914-85.511,147.025-128.086c3.548-3.078,3.555-5.541,2.244-9.469
		c-20.95-62.768-41.765-125.58-62.642-188.375c-0.589-1.772-1.517-3.431-2.947-6.611
		C724.725,445.971,696.007,556.443,666.909,668.384z M482.082,133.103c-0.193,0.36-0.386,0.721-0.578,1.082
		c82.87,43.439,165.741,86.878,250.359,131.231c-6.907-20.971-13.309-39.825-19.231-58.828c-1.362-4.375-3.686-6.333-7.824-7.53
		c-21.833-6.317-43.613-12.826-65.405-19.288C586.959,164.22,534.521,148.66,482.082,133.103z M390.37,721.946
		c0.064,0.328,0.127,0.656,0.192,0.984c16.542,2.353,33.078,4.748,49.627,7.056c42.811,5.965,85.626,11.918,128.45,17.773
		c2.649,0.362,6.305,0.915,7.992-0.461c11.401-9.292,22.398-19.084,33.525-28.712c-0.242-0.529-0.489-1.057-0.734-1.585
		C536.404,718.651,463.387,720.3,390.37,721.946z"/>
	<path fill="#FFFFFF" d="M461.522,313.02c16.1-4.168,32.299-8.002,48.247-12.691c5.456-1.603,7.57-0.101,9.311,4.597
		c1.688,4.55,3.888,8.908,6.315,14.382c-29.743,8.087-59.129,16.082-88.365,24.033c-8.676-15.701-4.899-39.043,7.921-54.501
		c6.216-7.494,11.965-15.427,17.368-23.533c5.011-7.518,4.387-15.458-0.576-22.905c-4.87-7.305-11.821-10.087-20.495-8.846
		c-10.531,1.507-14.563,6.787-12.936,17.239c0.421,2.703,1.033,5.378,1.67,8.631c-7.221,1.706-14.117,3.575-21.127,4.786
		c-1.401,0.243-4.285-1.715-4.711-3.176c-6.155-21.135-1.672-37.27,21.541-44.188c13.595-4.049,27.018-4.223,40.211,1.451
		c25.458,10.947,33.244,37.952,17.285,60.469c-4.971,7.013-10.745,13.455-15.801,20.414c-2.801,3.854-4.877,8.233-7.277,12.374
		C460.575,312.044,461.049,312.532,461.522,313.02z"/>
	<path fill="#FFFFFF" d="M495.457,231.731c-1.017-24.822,9.224-34.891,29.698-37.188c14.481-1.625,27.174,2.057,37.512,12.732
		c19.45,20.087,32.403,43.44,35.962,71.507c1.485,11.73-2.991,20.491-13.217,26.149c-19.278,10.665-41.004,7.949-56.229-7.967
		C509.674,276.577,497.635,252.443,495.457,231.731z M533.313,210.973c-11.211,1.446-15.756,7.138-13.25,17.281
		c5.024,20.311,14.207,38.622,26.896,55.224c4.5,5.894,10.42,8.381,17.675,7.352c7.012-0.994,11.377-6.745,9.855-13.338
		c-4.979-21.573-14.479-41.087-28.438-58.202C542.998,215.545,537.62,213.696,533.313,210.973z"/>
	<path fill="#FFFFFF" d="M568.681,392.391c-16.695,4.528-33.288,9.029-50.169,13.61c0.198,1.147,0.29,2.133,0.542,3.076
		c2.459,9.135,5.022,18.24,7.365,27.404c0.635,2.479,1.591,3.017,4.048,2.329c13.498-3.768,27.04-7.385,40.565-11.057
		c1.296-0.349,2.586-0.702,4.092-1.109c0.439,1.619,0.78,2.875,1.243,4.581c-1.395,0.377-2.682,0.726-3.973,1.075
		c-13.304,3.609-26.584,7.327-39.938,10.756c-3.28,0.843-3.755,2.131-2.856,5.201c2.776,9.516,5.257,19.117,7.853,28.69
		c0.32,1.179,0.646,2.365,1.08,3.973c1.648-0.449,2.938-0.8,4.221-1.148c14.627-3.965,29.256-7.941,43.887-11.899
		c3.973-1.074,4.242-0.852,4.534,3.849c-0.985,0.323-2.025,0.717-3.094,1.01c-16.606,4.52-33.233,8.952-49.803,13.587
		c-2.826,0.791-3.727,0.02-4.438-2.64c-6.928-25.868-13.939-51.713-21.035-77.537c-0.69-2.521-0.336-3.604,2.361-4.315
		c16.527-4.359,33.004-8.899,49.508-13.36C568.198,387.511,568.536,387.834,568.681,392.391z"/>
	<path fill="#FFFFFF" d="M617.718,422.575c-2.279,5.908-4.508,11.551-6.646,17.224c-3.39,8.998-6.753,18.004-10.056,27.036
		c-1.136,3.095-3.569,3.679-7.114,3.896c6.575-17.322,13.012-34.258,19.58-51.545c-13.184-10.754-26.405-21.536-39.641-32.334
		c2.998-2.53,4.941-2.568,7.705-0.3c10.871,8.892,21.746,17.774,32.625,26.648c0.32,0.26,0.759,0.375,1.207,0.587
		c11.956-29.614,23.855-59.083,35.755-88.553c0.378,0.135,0.752,0.266,1.135,0.401c-1.06,3.119-2.075,6.256-3.17,9.361
		c-9.325,26.423-18.642,52.854-28.05,79.249c-0.949,2.668,0.055,4.031,2.03,5.609c12.973,10.375,25.857,20.867,38.758,31.332
		c0.153,0.129,0.186,0.403,0.267,0.614c-2.891,2.507-4.823,2.511-7.825,0.081c-11.699-9.485-23.415-18.954-35.125-28.424
		C618.836,423.198,618.45,423.021,617.718,422.575z"/>
	<path fill="#FFFFFF" d="M449.057,428.56c0.725,2.68,1.457,5.362,2.179,8.044c5.811,21.566,11.631,43.13,17.403,64.706
		c0.395,1.488,1.622,3.292-1.098,4.156c-2.086,0.663-3.29,0.572-3.964-1.945c-7.058-26.306-14.227-52.579-21.297-78.882
		c-0.242-0.898,0.014-2.742,0.44-2.88c2.245-0.72,4.488-2.398,6.982-0.183c6.063,5.384,12.281,10.595,18.388,15.934
		c15.574,13.604,31.105,27.268,46.687,40.868c14.665,12.8,29.377,25.552,44.053,38.345c0.344,0.301,0.477,0.846,0.525,1.423
		c-38.261-27.898-73.148-59.833-109.417-90.087C449.645,428.226,449.351,428.393,449.057,428.56z"/>
	<path fill="#FFFFFF" d="M678.307,362.624c0.474,1.745,0.826,3.043,1.181,4.343c6.505,23.978,13.015,47.959,19.502,71.945
		c0.422,1.548,1.446,3.17-1.186,4.119c-2.887,1.034-3.528-0.401-4.142-2.697c-4.272-15.965-8.629-31.91-12.951-47.858
		c-2.212-8.14-4.419-16.28-6.626-24.422c-0.32-1.183-0.642-2.371-1.078-3.973c-9.97,2.706-19.583,5.312-29.103,7.896
		c-2.031-4.313-1.99-4.467,1.876-5.517c19.024-5.174,38.059-10.33,57.088-15.492c0.22-0.061,0.438-0.117,0.661-0.178
		c1.613-0.448,3.089-0.85,3.733,1.486c0.647,2.316-0.735,2.71-2.405,3.158c-7.488,2.001-14.963,4.045-22.445,6.076
		C681.22,361.834,680.025,362.157,678.307,362.624z"/>
</g>
</svg>
