<?xml version="1.0" encoding="utf-8"?>
<!-- Generator: Adobe Illustrator 16.0.0, SVG Export Plug-In . SVG Version: 6.00 Build 0)  -->
<!DOCTYPE svg PUBLIC "-//W3C//DTD SVG 1.1//EN" "http://www.w3.org/Graphics/SVG/1.1/DTD/svg11.dtd">
<svg version="1.1" xmlns="http://www.w3.org/2000/svg" xmlns:xlink="http://www.w3.org/1999/xlink" x="0px" y="0px" width="1000px"
	 height="1000px" viewBox="0 0 1000 1000" enable-background="new 0 0 1000 1000" xml:space="preserve">
<g id="Layer_1">
	<g id="Layer_1_2_">
		<path opacity="0.3" fill="#010101" enable-background="new    " d="M501.169,883.79c178.551,0,323.328,22.359,323.328,49.955
			S679.72,983.7,501.169,983.7c-178.55,0-323.31-22.359-323.31-49.955S322.619,883.79,501.169,883.79z"/>
		<g id="Layer_1_1_" display="none">
			<g display="inline">
				<g>
					<path opacity="0.2" fill="#010101" enable-background="new    " d="M877.704,647.592H116.732
						c0,0-103.073-15.01-108.374-120.368c0,0-36.849-156.292,149.288-184.388c0,0-73.77-219.514,166.818-309.066
						c0,0,201.926-59.704,300.292,151.029c0,0,87.796-64.99,187.869-1.749c0,0,87.813,59.68,59.729,173.843
						c0,0,112.384,15.799,115.896,151.029C988.266,507.905,998.917,601.148,877.704,647.592z"/>
					<path fill="#FFFFFF" d="M872.272,631.33H111.317c0,0-103.09-15.025-108.35-120.368c0,0-36.864-156.289,149.264-184.371
						c0,0-73.746-219.506,166.819-309.075c0,0,201.942-59.695,300.291,151.029c0,0,87.78-64.973,187.901-1.748
						c0,0,87.765,59.696,59.697,173.86c0,0,112.383,15.806,115.895,151.004C982.834,491.628,993.485,584.903,872.272,631.33z"/>
					<path opacity="0.2" fill="#010101" enable-background="new    " d="M153.296,620.142H828.4c0,0,91.455-13.334,96.139-106.786
						c0,0,32.717-138.665-132.434-163.573c0,0,65.437-194.74-148.016-274.217c0,0-179.161-52.972-266.411,133.995
						c0,0-77.885-57.648-166.688-1.562c0,0-77.908,52.964-52.964,154.241c0,0-99.715,14.042-102.829,133.961
						C55.215,496.198,45.759,578.937,153.296,620.142z"/>
					<path fill="#FFFFFF" d="M158.126,605.751h675.12c0,0,91.421-13.058,96.104-104.479c0,0,32.701-135.636-132.434-160.012
						c0,0,65.436-190.495-147.995-268.226c0,0-179.145-51.809-266.412,131.06c0,0-77.917-56.396-166.721-1.512
						c0,0-77.893,51.809-52.98,150.882c0,0-99.715,13.708-102.813,131.063C60.029,484.505,50.556,565.455,158.126,605.751z"/>
					<path fill="#E4E6ED" d="M331.539,672.212c25,0,45.271,20.262,45.271,45.272c0,25.01-20.271,45.271-45.271,45.271
						c-25.002,0-45.281-20.261-45.281-45.271C286.258,692.474,306.537,672.212,331.539,672.212z"/>
					<path fill="#C2C4CE" d="M350.954,679.951c9.726,7.563,16.035,19.4,16.035,32.687c0,22.831-18.53,41.369-41.361,41.369
						c-7.408,0-14.351-1.951-20.384-5.382c6.992,5.431,15.773,8.666,25.328,8.666c22.847,0,41.345-18.521,41.345-41.337
						C371.932,700.522,363.492,687.042,350.954,679.951z"/>
					<path fill="#E4E6ED" d="M496.178,713.369c25.015,0,45.272,20.278,45.272,45.288c0,24.994-20.262,45.271-45.272,45.271
						c-25.01,0-45.276-20.273-45.276-45.271C450.897,733.647,471.167,713.369,496.178,713.369z"/>
					<path fill="#C2C4CE" d="M515.594,721.094c9.741,7.609,16.021,19.448,16.021,32.722c0,22.831-18.538,41.353-41.369,41.353
						c-7.407,0-14.334-1.936-20.359-5.35c6.992,5.415,15.77,8.647,25.32,8.647c22.863,0,41.352-18.538,41.352-41.337
						C536.554,741.647,528.1,728.185,515.594,721.094z"/>
					<path fill="#E4E6ED" d="M660.76,685.952c24.994,0,45.272,20.278,45.272,45.271c0,24.994-20.278,45.272-45.272,45.272
						c-24.992,0-45.288-20.278-45.288-45.272C615.472,706.23,635.768,685.952,660.76,685.952z"/>
					<path fill="#C2C4CE" d="M680.208,693.66c9.74,7.578,16.019,19.416,16.019,32.687c0,22.851-18.507,41.354-41.365,41.354
						c-7.399,0-14.347-1.938-20.359-5.334c6.979,5.396,15.789,8.651,25.303,8.651c22.896,0,41.389-18.511,41.389-41.34
						C701.17,714.231,692.715,700.75,680.208,693.66z"/>
				</g>
				<path opacity="0.3" fill="#010101" enable-background="new    " d="M501.169,883.79c178.551,0,323.328,22.359,323.328,49.955
					S679.72,983.7,501.169,983.7c-178.55,0-323.31-22.359-323.31-49.955S322.619,883.79,501.169,883.79z"/>
			</g>
		</g>
	</g>
</g>
<g id="Layer_8" display="none">
	<g display="inline">
		<path fill="#CD6428" d="M987.427,356.058c-0.682,0.334-1.367,0.667-2.049,1c-10.197-5.213-19.314-12.271-29.777-17.097
			c-4.563-2.103-10.051-3.591-12.205-9.162l0.236-0.254C958.591,338.428,973.552,346.316,987.427,356.058z"/>
		<path fill="#CD6428" d="M987.739,380.904c0.056-8.021,0.107-16.042,0.16-24.062C989.632,364.877,989.929,372.899,987.739,380.904z
			"/>
		<path fill="#CD6428" d="M829.97,264.865c18.332,9.419,35.879,20.218,53.748,30.454c18.92,10.838,37.748,21.835,56.598,32.792
			c1.182,0.685,2.217,1.62,3.316,2.437l-0.236,0.254c-3.369-0.677-7.438-0.412-9.938-2.265c-3.453-2.559-6.793-4.877-10.632-6.995
			c-12.965-7.164-25.313-15.438-38.028-23.069c-4.636-2.782-9.478-4.694-15.056-5.939c-5.389-1.201-9.229-7.715-14.832-10.502
			c-4.817-2.398-9.332-6.391-14.364-7.154c-6.545-0.992-8.601-5.024-10.746-9.836L829.97,264.865z"/>
		<path fill="#CD6428" d="M550.046,132.164c-3.896,6.158-9.813,8.776-16.771,9.591C538.513,137.943,544.128,134.788,550.046,132.164
			z"/>
		<path fill="#CD6428" d="M552.444,130.909c-0.442,1.116-1.381,1.292-2.426,1.278C550.827,131.761,551.636,131.337,552.444,130.909z
			"/>
		<path fill="#CD6428" d="M152.773,361.376c0,0-0.389,0.31-0.385,0.307c0.006-0.003,0.063-0.335,0.063-0.335L152.773,361.376z"/>
		<path fill="#863C1D" d="M50.811,572.156c-4.445,0.279-5.883-1.712-6.217-6.072c-2.484-32.319-0.48-64.678-1.039-97.008
			c-0.033-1.762,0.531-3.542,0.885-5.299c1.471-7.335,2.715-8.173,9.025-3.691c4.496,3.193,11.344,3.228,13.592,9.428
			c-3.029,0.757-3.455,2.535-2.957,5.425c0.982,5.675,3.494,11.791,1.264,17.098c-2.504,5.956-2.573,11.874-1.766,17.573
			c1.496,10.598,0.678,21.157,0.961,31.728c0.187,6.937,0.258,13.847,2.637,20.494C63.65,568.516,56.27,568.713,50.811,572.156z"/>
		<path fill="#CD6428" d="M50.174,572.191c5.272-3.403,12.457-5.744,17.022-10.257c1.109-0.176,2.221-0.348,3.332-0.515
			c7.627,4.721,15.256,9.441,22.887,14.161c0.107,1.533,0.216,3.063,0.322,4.598c-0.125,5.318-0.248,10.637-0.373,15.953
			c-2.352,1.775-4.758,0.641-6.654-0.494c-10.495-6.262-20.916-12.639-31.733-18.351C53.127,576.31,50.234,574.701,50.174,572.191z"
			/>
		<path fill="#9B4923" d="M70.529,561.4c-1.297,0.176-2.6,0.354-3.896,0.534c-2.685-6.778-2.765-13.826-2.976-20.904
			c-0.321-10.783,0.605-21.561-1.088-32.372c-0.91-5.816-0.832-11.854,1.996-17.933c2.519-5.412-0.319-11.652-1.426-17.44
			c-0.566-2.95-0.082-4.767,3.34-5.537c1.176,0.159,4.674,0.494,5.188,1.562c-2.685,5.978-3.521,12.159-3.601,18.267
			c-0.938,21.875-0.492,43.745,0.369,65.607C68.547,555.925,68.326,558.967,70.529,561.4z"/>
		<path fill="#CFD7DE" d="M69.545,491.95c2.192,18.771,0.618,37.616,1.026,56.424c0.211,9.771,2.269,10.896,10.57,16.116
			c5.514,3.47,11.82,4.063,17.004,7.563c0,0-0.215,0.276-0.215,0.273c-2.611,0.153-2.275,1.911-1.979,3.646
			c-0.149,0.413-0.436,0.552-0.854,0.416c-0.563-0.271-1.121-0.539-1.682-0.807c-7.632-4.721-15.261-9.44-22.888-14.161
			c-1.883-2.363-1.508-5.327-1.791-7.973c-2.229-20.868-1.114-42.406-0.313-63.615C68.799,490.538,69.172,491.244,69.545,491.95z"/>
		<path fill="#CD6428" d="M612.341,144.179c-1.248,2.714-3.75,2.365-6.063,2.486C608.183,145.55,609.175,142.216,612.341,144.179z"
			/>
		<path fill="#9B4923" d="M93.346,623.691c-8.271-4.266-16.836-7.959-21.693-16.854c-1.67-3.062-4.887-5.372-9.067-3.247
			c-2.498,1.275-4.541-0.096-6.72-1.137c-14.045-6.713-23.149-17.742-28.608-32.133C14.62,537.035,8.64,502.909,14.476,467.383
			c1.443-8.789,3.801-17.425,7.602-25.607c2.652-5.7,6.457-9.957,12.525-11.962c3.965,0.342,7.615,1.551,11.357,2.995
			c3.809,1.469,6.85,5.09,11.457,4.427c2.197,3.14,4.217,6.432,6.646,9.38c2.273,2.753,5.093,5.84,8.982,4.51
			c3.432-1.172,5.694,0.336,8.319,1.56c3.871,1.877,8.121,3.231,11.543,5.723c12.525,9.12,26.457,15.866,39.689,23.757
			c24.824,14.805,50.277,28.557,75.352,42.951c17.148,9.841,34.037,20.134,51.146,30.039c26.854,15.546,53.752,31.01,80.721,46.348
			c8.258,4.692,66.664,38.476,79.832,46.035c10.773,6.186,21.238,12.928,32.533,18.178c2.701,8.166,5.148,15.924-1.684,23.744
			c-2.963-0.926-14.558-7.303-15.201-7.68c-18.328-10.689-181.269-104.919-215.711-124.813
			c-46.5-26.854-92.922-53.839-139.51-80.542c-3.222-1.844-6.089-5.486-10.673-4.309c-0.438-1.033-1.334-1.359-2.342-1.513
			c-2.174-6.133-8.787-6.167-13.127-9.324c-6.094-4.436-7.299-3.604-8.715,3.649c-0.342,1.741-0.889,3.501-0.857,5.244
			c0.539,31.987-1.395,63.997,1.005,95.973c0.323,4.314,1.709,6.285,6.002,6.01c0.063,2.51,1.758,4.152,3.604,5.132
			c10.82,5.712,21.24,12.089,31.736,18.351c1.896,1.135,4.303,2.271,6.651,0.494C93.997,605.319,93.999,614.504,93.346,623.691z"/>
		<path fill="#CD6428" d="M57.415,437.237c-4.606,0.662-7.647-2.959-11.457-4.428c-3.741-1.445-7.393-2.654-11.356-2.995
			c13.104-7.778,26.143-15.668,39.324-23.308c25.045-14.511,50.17-28.88,75.268-43.295c1.022-0.588,2.135-1.025,3.195-1.53
			c-0.005,0.003,0.387-0.307,0.387-0.307c0.529-0.262,1.061-0.521,1.586-0.783c1.375-0.132,3.146,0.237,4.059-0.48
			c5.103-4.003,12.279-4.121,16.783-9.28c1.668-1.91,4.021-2.679,6.898-2.741c2.28-0.049,5.875,0.029,5.95-4.21
			c0.023-1.482,1.644-2.102,2.884-2.769c12.01-6.436,24.09-12.746,35.971-19.416c3.785-2.125,7.666-4.168,11.279-6.5
			c3.266-2.11,5.414-4.672,10.246-4.004c3.815,0.526,3.266-6.206,7.698-7.663c9.979-3.282,17.648-11.097,27.4-15.027
			c1.297-0.522,1.055-2,1.088-3.182c19.693-11.501,39.357-23.05,59.086-34.493c24.027-13.939,48.104-27.794,72.174-41.663
			c1.187-0.683,2.517-1.12,3.779-1.67c1.982,0.083,3.715-0.285,5.648-1.182c7.254-3.361,12.696-11.263,22.244-9.091
			c1.022,0.233,1.776-0.817,1.928-1.888c0.541-3.884,3.541-5.415,6.504-7.11c4.223-2.417,9.592-2.8,13.027-6.315
			c3.09-3.169,7.137-4.086,10.584-6.231c7.502-4.668,14.444-10.271,23.515-11.771c0.328-0.053,0.627-0.48,0.869-0.787
			c3.639-4.688,9.137-6.564,13.959-9.53c5.496-3.382,12.371-5.189,15.364-11.869l-0.024,0.035c6.955-0.814,12.873-3.433,16.77-9.591
			l-0.026,0.023c1.043,0.013,1.979-0.162,2.424-1.278l-0.08,0.053c5.225,0.198,9.279-2.828,13.227-5.426
			c8.06-5.308,18.515-2.443,23.972,5.461c-6.447,3.803-12.871,7.644-19.343,11.401c-22.934,13.315-45.881,26.605-68.825,39.896
			c-22.729,13.16-45.335,26.541-68.235,39.394c-23.561,13.222-46.811,26.966-70.186,40.508
			c-30.173,17.485-60.642,34.468-90.882,51.843c-22.409,12.877-44.614,26.108-66.985,39.054
			c-27.008,15.628-54.104,31.103-81.144,46.681c-20.567,11.853-41.125,23.729-61.625,35.702
			C60.736,436.412,59.273,437.251,57.415,437.237z"/>
		<path fill="#BD986E" d="M762.999,510.912c0.36-1.157,1.204-1.537,2.332-1.462c4.94,0.369,8.057-2.533,10.803-6.087l0.088-0.063
			c2.502-0.285,5.172-0.293,5.82-3.601c0,0,0.102-0.083,0.1-0.083c5.66,0.834,8.729-4.056,13.137-5.955
			c9.793-4.219,18.525-10.396,27.932-15.33c8.854-4.645,17.648-9.888,26.021-15.572c3.283-2.225,8.104-2.659,9.41-7.438l0.067-0.057
			c7.646-1.297,13.509-5.739,19-10.842l0.043-0.033c7.699-1.234,13.777-5.346,19.058-10.873l-0.021,0.028
			c3.557,0.292,6.463-0.457,7.278-4.566c0,0,0.201-0.138,0.197-0.138c0.889-0.103,1.733-0.285,2.141-1.237l0.027-0.017
			c2.739,0.446,4.721-1.283,7.051-2.223c5.668-2.289,10.222-7.153,16.769-7.372c0.102,2.788,0.203,5.578,0.305,8.366
			c-0.146,2.754-0.287,7.96-0.432,10.716c-21.687,12.499-412.668,236.61-435.745,249.957c-13.056,7.551-26.056,15.198-39.072,22.819
			c-2.226,1.302-4.549,1.797-6.756,0.297c-3.938-2.676-8.586-4.196-12.084-7.563c0.362-4.144-0.584-8.328,0.758-12.465
			c1.213-3.738,3.313-4.193,6.199-2.103c6.741,4.896,10.664,4.416,18.088-0.229c11.832-7.406,24.211-16.381,36.098-23.707
			c5.604-3.451,30.155-16.875,30.155-16.875s62.969-35.13,63.084-36.569c0.072-0.277,0.248-0.426,0.531-0.457
			c4.481-0.678,11.348-6.109,11.348-6.109c5.32-1.865,36.545-21.671,40.648-23.886l0.104-0.087c2.883,0.443,4.865-0.646,5.832-3.459
			c0.26-0.229,0.563-0.307,0.902-0.232c3.408-0.099,7.565-4.729,7.565-4.729c0.367-0.277,0.738-0.551,1.104-0.825
			c0.441-0.114,0.885-0.229,1.324-0.348c1.289-0.077,14.377-8.397,14.377-8.397c3.116,0.202,5.752-0.493,7-3.783l-0.095,0.063
			c0.396-0.031,0.822,0.024,1.181-0.109c14.697-5.516,26.77-15.868,40.891-22.47c0.629-0.295,0.732-1.721,1.078-2.621l-0.029,0.034
			c2.224,0.16,4.408-0.031,6.277-1.343c8.082-5.661,16.842-10.117,25.371-14.998C758.487,515.596,762.399,514.688,762.999,510.912z"
			/>
		<path fill="#9B4923" d="M456.424,827.581c-0.834,0.799-0.664-0.402-1.5,0.389c-3.084,1.258-7.209,2.271-9.496,0.717
			c-14.135-9.604-28.98-18.03-43.744-26.586c-51.316-29.731-102.654-59.422-153.988-89.125
			c-26.692-15.449-60.748-33.344-87.444-48.791c2.407-7.479,0.071-17.67,1.229-25.217c4.931,1.021,16.115,9.08,20.33,11.527
			c22.639,13.141,45.295,26.254,68.016,39.258c5.414,3.096,30.322,18.621,31.064,18.477c9.617,4.15,18.418,9.808,27.422,15.063
			c16.25,9.481,32.639,18.721,48.754,28.447c19.23,11.6,38.941,22.411,58.564,33.352c12.19,6.799,24.534,15.107,37.528,20.465
			c-0.043,5.527,0.08,11.062-0.188,16.578C452.807,825.546,452.939,827.396,456.424,827.581z"/>
		<path fill="#CD6428" d="M589.56,130.995c-5.457-7.903-15.912-10.768-23.971-5.46c-3.945,2.599-8.002,5.625-13.228,5.426
			c4.388-3.811,9.568-6.394,14.662-9.001c4.814-2.465,10.111-2.421,15.086-0.264c7.652,3.322,15.308,6.57,19.357,14.902
			c1.699,3.49,5.108,5.602,9.529,4.155c3.192-1.044,5.811,0.451,8.428,1.961c28.613,16.509,57.229,33.008,85.842,49.52
			c39.625,22.868,79.246,45.737,118.853,68.637c2.039,1.177,3.903,2.655,5.852,3.993c0,0-0.172,0.176-0.172,0.175
			c-1.977-0.101-3.779-0.318-5.629-1.461c-6.271-3.873-12.83-6.778-20.422-3.547c-0.625,0.266-1.604,0.082-1.906-1.064
			c0.484-1.757,2.752-1.124,3.633-2.485c0.531-0.814,1.498-1.411,1.246-2.549c-0.299-1.345-1.404-2.209-2.586-2.002
			c-4.543,0.797-8.93,1.633-10.27-4.637c-0.064-0.308-1.048-0.471-1.621-0.61c-9.711-2.337-15.168-12.408-25.332-13.955
			c-0.478-0.072-0.908-0.71-1.281-1.157c-6.187-7.505-15.807-9.438-23.57-14.391c-2.559-1.631-5.815-1.841-8.039-4.625
			c-1.043-1.311-3.52-4.672-5.373-2.407c-2.823,3.45-3.037,0.367-3.68-0.942c-1.082-2.216-3.09-5.626-4.471-5.002
			c-5.535,2.511-5.205-3.575-8.035-4.788c-1.369-0.586-2.424-2.986-3.865-2.415c-6.764,2.685-9.111-2.012-11.824-6.468
			c-0.942-1.55-2.549-2.444-4.258-3.126c-10.08-4.034-18.293-11.376-28.135-15.906c-2.158-0.994-3.975-2.374-6.496-2.245
			c-2.156,0.111-3.758-1.531-5.396-2.163c-6.528-2.51-9.668-10.974-18.069-9.998c-1.721,0.201-2.693-2.094-3.965-3.303
			c-5.136-4.883-11.209-8.037-18.111-9.615c-3.164-1.963-4.158,1.371-6.063,2.487c-0.761,3.17-3.744,2.635-5.877,3.521
			c-0.023-2.584-0.144-5.171-0.043-7.75c0.129-3.377-1.009-4.99-4.587-3.751c-1.063,0.366-2.192,1.121-3.266-0.56
			C596.657,133.784,593.323,132.298,589.56,130.995z"/>
		<path fill="#CD6428" d="M284.62,285.32c-0.033,1.181,0.209,2.659-1.089,3.182c-9.752,3.93-17.422,11.745-27.399,15.027
			c-4.435,1.457-3.883,8.189-7.699,7.663c-4.832-0.668-6.98,1.894-10.246,4.004c-3.611,2.332-7.494,4.375-11.279,6.5
			c-11.881,6.67-23.961,12.98-35.971,19.416c-1.242,0.667-2.859,1.287-2.883,2.769c-0.076,4.239-3.67,4.162-5.951,4.21
			c-2.879,0.062-5.23,0.831-6.898,2.741c-4.504,5.16-11.682,5.277-16.782,9.28c-0.914,0.717-2.687,0.348-4.06,0.48
			c9.521-6.835,20.019-12.043,30.097-17.928c32.211-18.812,64.592-37.328,96.92-55.936
			C282.393,286.144,283.535,285.784,284.62,285.32z"/>
		<path fill="#CD6428" d="M533.304,141.72c-2.994,6.68-9.869,8.487-15.365,11.869c-4.822,2.965-10.32,4.842-13.959,9.53
			c-0.242,0.307-0.541,0.734-0.869,0.787c-9.068,1.499-16.013,7.103-23.515,11.771c-3.447,2.145-7.494,3.062-10.584,6.231
			c-3.437,3.516-8.806,3.898-13.027,6.315c-2.963,1.695-5.963,3.226-6.504,7.11c-0.149,1.071-0.901,2.121-1.928,1.888
			c-9.547-2.172-14.99,5.729-22.244,9.091c-1.934,0.897-3.668,1.265-5.647,1.182c15.045-9.994,31.096-18.286,46.608-27.485
			c21.492-12.745,43.175-25.178,64.792-37.711C531.702,141.924,532.55,141.904,533.304,141.72z"/>
		<path fill="#DCC4A6" d="M436.463,702.622c3.498,3.352,8.146,4.865,12.084,7.531c2.207,1.493,4.53,1,6.756-0.298
			c13.018-7.59,26.018-15.205,39.071-22.723c23.077-13.293,46.213-26.482,69.278-39.787c22.342-12.887,44.621-25.872,66.941-38.794
			c13.414-7.764,26.856-15.489,40.285-23.235c24.061-13.884,48.104-27.797,72.176-41.657c18.887-10.877,37.838-21.644,56.705-32.557
			c21.795-12.607,43.502-25.378,65.305-37.977c21.646-12.514,43.369-24.904,65.056-37.35c0.688,7.998,0.516,16.095,2.67,23.93
			c-0.326,4.262-1.719,8.563,0.094,12.769c2.887,6.694,4.826,13.881,9.428,19.709c2.395,3.029,2.34,4.688-1.289,6.768
			c-30.484,17.465-60.893,35.068-91.271,52.715c-22.636,13.146-45.197,26.424-67.795,39.643c-2.017,0.816-4.154,1.42-6.025,2.488
			c-14.303,8.184-28.531,16.493-42.822,24.694c-23.026,13.22-46.291,26.054-69.082,39.665
			c-24.688,14.75-49.944,28.494-74.692,43.121c-18.066,10.676-36.461,20.77-54.617,31.27c-14.898,8.617-29.357,17.984-44.764,25.723
			c-1.616,0.812-2.971,2.013-3.399,3.929l0.063-0.013c-2.295-0.098-4.073,1.049-6.024,2.109
			c-9.529,5.182-18.396,11.539-28.32,16.018c-1.186-1.348-2.738-2.004-4.449-2.354l-0.172,0.188
			c-3.229-3.85-5.035-8.271-6.459-13.123c-3.836-13.079-4.377-26.463-4.707-39.907c-0.186-7.517,0.664-15.084-1.194-22.509
			l0.588-0.006L436.463,702.622z"/>
		<path fill="#9B4923" d="M452.16,805.556c10.845-6.123,21.736-12.158,32.521-18.385c26.831-15.488,53.622-31.051,80.419-46.605
			c30.725-17.832,61.397-35.754,92.17-53.508c39.225-22.629,78.545-45.08,117.768-67.702c43.519-25.1,86.959-50.326,130.451-75.466
			c25.271-14.604,50.57-29.16,75.867-43.72c2.063-1.188,4.338-2.083,5.236-4.58c0.682,0.265,1.354,0.531,2.035,0.797l0.059,0.227
			c0.096,7.664,0.193,15.328,0.289,22.989c-2.498,3.342-6.438,4.56-9.828,6.521c-78.396,45.354-156.814,90.673-235.252,135.954
			c-94.127,54.332-188.271,108.629-282.415,162.93c-1.543,0.891-3.187,1.604-4.783,2.394c-0.125-0.146-0.242-0.294-0.358-0.438
			c0.102,0.143,0.2,0.283,0.299,0.422c0,0-0.224,0.199-0.22,0.199c-3.479-0.187-4.612-2.035-4.444-5.449
			C452.24,816.616,452.12,811.081,452.16,805.556z"/>
		<path fill="#CD6428" d="M456.637,827.382c-0.099-0.139-0.199-0.279-0.299-0.422c0.116,0.145,0.233,0.295,0.358,0.438
			C456.699,827.403,456.637,827.382,456.637,827.382z"/>
		<path fill="#CD6428" d="M943.396,330.8c2.154,5.57,7.643,7.059,12.205,9.162c10.463,4.826,19.58,11.883,29.777,17.097
			c-10.785,7.834-22.65,13.883-34.123,20.569c-32.623,19.014-65.326,37.899-98.039,56.764
			c-29.771,17.169-59.625,34.19-89.385,51.374c-40.089,23.152-80.089,46.456-120.187,69.586
			c-26.139,15.075-52.521,29.731-78.555,44.985c-35.49,20.793-70.977,41.589-106.897,61.625c-2.074,1.156-3.453,3.4-6.01,3.754
			c-11.295-5.25-21.762-11.992-32.535-18.178c-13.166-7.562-71.574-41.343-79.83-46.035c-26.969-15.338-53.869-30.803-80.721-46.348
			c-17.111-9.905-34-20.198-51.146-30.04c-25.073-14.395-50.526-28.146-75.352-42.95c-13.232-7.892-27.164-14.638-39.691-23.758
			c-3.422-2.489-7.67-3.845-11.541-5.722c2.713-5.815,8.89-6.677,13.681-9.474c27.442-16.013,54.909-31.996,82.42-47.896
			c23.396-13.524,46.914-26.845,70.291-40.4c27.223-15.784,54.313-31.8,81.543-47.575c27.67-16.029,55.426-31.906,83.168-47.806
			c10.096-5.786,20.319-11.347,30.383-17.185c13.621-7.904,27.09-16.074,40.728-23.955c12.803-7.397,25.972-14.183,38.552-21.935
			c14.938-9.208,30.393-17.5,45.528-26.358c11.025-6.454,22.423-12.301,32.74-19.915c2.133-0.886,5.117-0.35,5.879-3.521
			c2.313-0.121,4.814,0.228,6.063-2.486c6.901,1.579,12.977,4.732,18.108,9.615c1.271,1.209,2.244,3.504,3.966,3.303
			c8.403-0.976,11.541,7.488,18.069,9.998c1.642,0.631,3.242,2.273,5.398,2.163c2.52-0.129,4.336,1.25,6.494,2.245
			c9.844,4.53,18.057,11.873,28.137,15.906c1.707,0.682,3.313,1.576,4.258,3.126c2.713,4.456,5.062,9.153,11.824,6.468
			c1.441-0.571,2.494,1.829,3.863,2.415c2.832,1.213,2.5,7.298,8.037,4.788c1.381-0.625,3.387,2.786,4.471,5.002
			c0.643,1.309,0.854,4.392,3.678,0.942c1.855-2.265,4.332,1.096,5.375,2.407c2.221,2.784,5.479,2.993,8.037,4.625
			c7.768,4.953,17.387,6.885,23.572,14.391c0.371,0.447,0.805,1.085,1.278,1.157c10.166,1.546,15.623,11.618,25.334,13.955
			c0.574,0.14,1.556,0.303,1.619,0.61c1.34,6.271,5.728,5.435,10.271,4.637c1.182-0.208,2.287,0.657,2.588,2.002
			c0.252,1.138-0.717,1.735-1.246,2.549c-0.881,1.361-3.148,0.729-3.633,2.485c0.303,1.146,1.281,1.331,1.904,1.064
			c7.592-3.23,14.149-0.325,20.422,3.547c1.85,1.143,3.651,1.36,5.629,1.461c2.146,4.813,4.201,8.846,10.746,9.837
			c5.033,0.763,9.547,4.756,14.365,7.154c5.604,2.787,9.442,9.301,14.832,10.502c5.577,1.245,10.42,3.157,15.055,5.939
			c12.715,7.632,25.063,15.905,38.029,23.069c3.838,2.118,7.178,4.437,10.631,6.995C935.956,330.388,940.026,330.124,943.396,330.8z
			 M645.601,438.81c3.779,2.319,6.834,1.971,10.439-0.233c6.778-4.151,13.797-7.923,20.688-11.898
			c34.795-20.085,69.588-40.174,104.367-60.291c6.656-3.853,13.233-7.843,20.217-11.986c-1.166-0.948-1.707-1.523-2.363-1.901
			c-70.813-40.853-141.654-81.66-212.408-122.618c-2.791-1.616-4.516-1.171-6.94,0.236c-47.674,27.622-95.372,55.201-143.12,82.688
			c-3.379,1.943-4.299,2.898-0.254,5.22C480.381,343.381,637.126,433.617,645.601,438.81z"/>
		<path fill="#863C1D" d="M602.853,147.736c-10.318,7.614-24.166,15.913-35.193,22.367c-15.137,8.857-30.588,17.149-45.528,26.358
			c-12.578,7.751-25.749,14.537-38.553,21.935c-13.637,7.881-27.104,16.051-40.727,23.955
			c-10.063,5.838-20.287,11.398-30.383,17.186c-27.74,15.9-55.496,31.777-83.166,47.806c-27.23,15.775-54.322,31.791-81.543,47.575
			c-23.377,13.555-46.896,26.876-70.293,40.4c-27.509,15.9-54.976,31.884-82.421,47.896c-4.791,2.797-10.963,3.658-13.678,9.474
			c-2.629-1.224-4.893-2.731-8.324-1.56c-3.891,1.33-6.707-1.757-8.979-4.51c-2.432-2.948-4.449-6.24-6.647-9.38
			c1.858,0.015,3.321-0.824,4.922-1.76c20.5-11.973,41.057-23.851,61.625-35.702c27.039-15.578,54.133-31.053,81.141-46.681
			c22.373-12.946,44.578-26.177,66.988-39.054c30.24-17.375,60.707-34.358,90.881-51.843c23.373-13.542,46.623-27.286,70.184-40.508
			c22.902-12.853,45.508-26.234,68.235-39.394c22.947-13.29,45.895-26.581,68.826-39.896c6.471-3.757,12.896-7.599,19.342-11.401
			c3.766,1.302,7.1,2.788,2.947,7.13c1.071,1.681,2.203,0.926,3.268,0.56c3.578-1.239,4.713,0.374,4.584,3.751
			C600.259,145.016,602.831,145.151,602.853,147.736z"/>
		<path fill="#C7AB83" d="M436.463,702.622l-0.589-0.021l-0.588,0.006c-7.012-4.11-14.004-8.26-21.035-12.338
			c-22.491-13.047-288.098-166.356-308.916-178.24c-11.885-6.774-23.42-14.175-35.791-20.08c-0.373-0.706-0.745-1.412-1.118-2.117
			c0.063-5.922-1.318-11.917,0.979-17.71c4.582-1.183,7.451,2.459,10.672,4.304c46.588,26.703,93.008,53.688,139.508,80.542
			c34.445,19.893,68.938,39.696,103.41,59.539c14.25,9.508,93.976,54.583,112.304,65.271c0.645,0.38,1.508,0.38,2.27,0.554
			c0.438,0.385,0.875,0.766,1.313,1.146c0.268,0.238,0.573,0.34,0.932,0.306c0.73,0.995,1.787,1.092,2.896,1.038
			c3.604-0.146,4.827,3.712,7.791,4.638c1.393,0.5,2.741,0.344,3.995-0.396c13.625-7.996,27.242-16.008,40.855-24.021
			c1.877-0.48,3.787-0.902,4.651-2.969c0,0,0.045,0.075,0.045,0.071c5.256-0.84,8.672-5.746,14.035-6.358
			c-4.394,5.285-10.873,7.498-16.479,10.936c-11.887,7.293-24.264,13.791-36.098,21.164c-7.422,4.629-11.345,5.105-18.088,0.229
			c-2.884-2.082-4.984-1.628-6.197,2.094C435.879,694.325,436.826,698.495,436.463,702.622z"/>
		<path fill="#E8DAC0" d="M69.545,491.95c12.37,5.905,23.905,13.304,35.791,20.08c20.817,11.883,41.598,23.828,62.358,35.807
			c23.328,13.456,46.629,26.951,69.92,40.467c30.857,17.903,61.693,35.849,92.558,53.746c0.653,0.381,1.508,0.42,2.271,0.619
			c3.996,4.127,9.096,6.408,14.303,8.502c22.507,13.031,45.013,26.055,67.505,39.102c7.03,4.076,14.022,8.226,21.034,12.339
			c1.859,7.424,1.013,14.991,1.195,22.506c0.33,13.444,0.871,26.828,4.707,39.91c1.426,4.852,3.232,9.272,6.457,13.118
			c-1.109-0.33,6.225,3.224,5.193,2.738c-7.021,7.832-25.828-14.65-35.402-18.438c-0.348-0.115-239.133-137.637-239.133-137.637
			c-2.439-3.311-19.578-9.641-21.133-9.731c0.123-0.73,25.086-13.392,32.235-17.737c-23.084-13.224-45.233-25.917-67.397-38.597
			c-1.037-0.596-2.291-1.309-3.365-0.567c-6.313,4.352-14.063,6.606-18.998,12.97c-0.5,0.306-1,0.608-1.498,0.911
			c-5.184-3.5-11.492-4.094-17.004-7.563c-8.303-5.219-10.359-6.347-10.57-16.115C70.163,529.565,71.738,510.721,69.545,491.95z"/>
		<path fill="#E94C3F" d="M99.645,571.142c4.934-6.36,12.684-8.619,18.998-12.97c1.074-0.739,2.33-0.026,3.365,0.568
			c22.164,12.679,44.313,25.372,67.397,38.597c-7.149,4.346-12.676,9.063-19.297,12.141c-0.088-0.854-0.176-1.711-0.268-2.563
			c0.096-0.15,0.19-0.297,0.289-0.447c-0.086,0.158-0.17,0.318-0.256,0.478c-10.267-5.286-20.435-10.72-30.271-16.794
			c-10.553-6.519-21.338-12.665-32.063-18.896C105.016,569.785,102.297,569.812,99.645,571.142z"/>
		<path fill="#BFE5ED" d="M436.223,318.027c-4.043-2.322-3.125-3.277,0.254-5.22c47.75-27.486,95.446-55.065,143.12-82.688
			c2.428-1.407,4.152-1.853,6.941-0.236c70.756,40.958,141.596,81.766,212.407,122.618c0.658,0.378,1.199,0.953,2.365,1.901
			c-6.982,4.143-13.563,8.134-20.219,11.986c-34.777,20.117-69.57,40.206-104.367,60.291c-6.889,3.977-13.906,7.748-20.688,11.898
			c-3.604,2.204-6.657,2.553-10.438,0.233C637.126,433.617,480.381,343.381,436.223,318.027z"/>
		<g>
			<path fill="#CD6428" d="M950.591,470.649c0.006,0.01,0.014,0.015,0.018,0.024h0.002L950.591,470.649z"/>
			<path fill="#CD6428" d="M486.551,762.202c0.02,0.004,0.037,0.002,0.057,0.004c0-0.008,0.006-0.012,0.01-0.021
				C486.615,762.187,486.551,762.198,486.551,762.202z"/>
			<path fill="#CD6428" d="M933.962,459.771c-0.394,0.029-0.783,0.005-1.172-0.063c-0.326,4.262-1.72,8.563,0.094,12.769
				c2.887,6.694,4.826,13.881,9.428,19.709c2.395,3.029,2.34,4.688-1.289,6.768c-30.484,17.465-60.893,35.067-91.271,52.715
				c-22.635,13.146-400.47,228.913-401.254,228.741c-1.304,1.434-282.134-163.704-285.632-164.077
				c0.359,6.729-4.19,15.905-3.838,22.636c4.935,1.021,18.572,9.08,22.785,11.527c22.64,13.141,254.082,150.598,270.351,155.061
				c10.844-6.123,21.735-12.158,32.52-18.385c26.831-15.488,53.624-31.051,80.419-46.604c30.728-17.832,61.4-35.755,92.17-53.509
				c39.226-22.629,78.545-45.08,117.771-67.702c43.518-25.1,86.957-50.326,130.451-75.466c25.27-14.604,50.567-29.16,75.866-43.72
				c2.063-1.188,4.339-2.083,5.238-4.58C976.739,487.243,939.169,463.928,933.962,459.771z"/>
			<path fill="#CD6428" d="M260.811,672.563c-0.002,0.017,0,0.021,0,0.037c0.014,0,0.025,0.006,0.039,0.006L260.811,672.563z"/>
		</g>
		<path fill="#9B4923" d="M450.497,689.458c3.108-7.734,0.674-15.861,1.688-23.744c2.559-0.354,3.938-2.598,6.01-3.752
			c35.924-20.035,71.409-40.833,106.897-61.625c26.035-15.254,52.416-29.911,78.555-44.986
			c40.101-23.13,80.099-46.434,120.187-69.586c29.76-17.184,59.614-34.205,89.385-51.374c32.713-18.864,65.416-37.75,98.041-56.764
			c11.473-6.686,23.338-12.735,34.123-20.568c0.682-0.333,1.367-0.667,2.049-1.001c0.205,0.233,0.361,0.496,0.473,0.785
			c-0.053,8.02-0.104,20.946-0.16,28.968c-18.866,10.972-519.619,295.256-533.244,303.252
			C453.242,689.804,451.891,689.958,450.497,689.458z"/>
		<path fill="#CF3029" d="M93.346,623.691c0.654-9.188,0.649-18.372,0.02-27.559c0.125-5.316,0.248-10.635,0.375-15.957
			c1.349-0.938,1.229-2.409,1.357-3.787c0.42,0.136,0.705-0.003,0.854-0.416c2.755-0.078,2.113-1.997,1.979-3.643l0.215-0.276
			c0.498-0.303,0.998-0.605,1.498-0.911c2.652-1.33,5.371-1.355,7.896,0.109c10.725,6.229,21.51,12.379,32.063,18.896
			c9.836,6.074,20.006,11.509,30.271,16.793l-0.033-0.028c0.092,0.854,0.18,1.709,0.268,2.563c-0.573,0.748-1.147,1.492-1.729,2.24
			c-1.818-0.059-2.193,1.164-2.316,2.611c-0.123,0.729-0.248,1.465-0.369,2.194c-3.465,3.218-2.979,7.48-3.092,11.598
			c-0.334,12.151,0.277,39.455,0.277,41.043c-0.007,21.082-0.013,42.158-0.037,63.239c0,0.744-0.187,1.486-0.435,3.355
			c-9.051-14.879-17.559-28.871-26.076-42.855c-3.51-5.77-7.231-11.418-10.495-17.321c-2.039-3.701-3.572-4.314-6.884-1.146
			c-6.896,6.582-14.184,12.752-21.321,19.082c-0.861,0.765-1.791,1.451-3.796,3.063c0-4.361,0-7.64,0-10.91
			c0.007-19.096,0.025-38.189,0-57.277C93.834,626.825,93.518,625.26,93.346,623.691z"/>
		<g>
			<polygon fill="#BFE5ED" points="650.87,439.522 435.199,313.641 584.88,226.058 804.577,352.765 			"/>
			<path fill="#CD6428" d="M646.632,344.701c6.041,3.5,12.076,7.002,18.113,10.506c0.436,0.254,0.868,0.506,1.303,0.764
				c1.68,1.02,1.66,1.018,0.217,2.241c-3.844,3.25-8.807,5.862-14.254,8.155c-3.721,1.56-7.592,3-11.514,4.359
				c-1.849,0.641-3.992,0.958-6.009,1.42c-7.739,1.757-15.633,2.236-23.664,2.027c-4.891-0.125-9.602-0.6-14.141-1.424
				c-4.404-0.806-8.609-1.877-12.57-3.231c-6.521-2.225-12.137-5.069-17.088-8.313c-3.588-2.349-6.625-4.945-9.049-7.816
				c-2.752-3.251-4.776-6.647-5.969-10.228c-1.289-3.874-1.613-7.821-0.863-11.844c0.699-3.763,2.127-7.46,4.672-11.017
				c2.097-2.924,4.412-5.813,7.799-8.385c2.513-1.906,4.83-3.938,7.729-5.63c5.57-3.26,12.039-5.824,19.078-7.93
				c5.354-1.605,10.908-2.737,16.649-3.467c6.816-0.864,13.673-1.197,20.546-0.892c4.938,0.218,9.791,0.643,14.428,1.47
				c7.992,1.427,15.531,3.393,21.91,6.51c2.293,1.127,4.864,2.103,6.891,3.373c4.934,3.087,9.289,6.419,12.316,10.343
				c2.885,3.751,4.881,7.639,5.569,11.8c0.152,0.932,0.271,1.865,0.291,2.806c0.017,1.035-0.508,1.367-2.289,1.413
				c-4.5,0.115-8.981,0.203-13.473,0.263c-2.041,0.025-2.137-0.015-2.236-1.217c-0.262-3.25-1.506-6.327-3.479-9.299
				c-1.328-1.997-3.359-3.727-5.383-5.473c-2.828-2.44-6.572-4.369-10.523-6.12c-4.463-1.983-9.672-3.246-15.194-4.166
				c-7.023-1.171-14.228-1.353-21.552-0.602c-4.981,0.51-9.86,1.396-14.506,2.813c-5.129,1.561-9.944,3.385-14.041,5.739
				c-7.069,4.058-12.09,8.811-14.754,14.314c-1.805,3.733-2.342,7.473-1.615,11.17c0.904,4.564,3.42,8.776,7.979,12.501
				c4.771,3.895,10.735,6.98,17.983,9.265c6.3,1.982,13.22,2.872,20.601,2.911c4.281,0.022,8.506-0.295,12.553-1.274
				c2.646-0.645,5.191-1.484,7.717-2.302c1.519-0.491,2.947-1.079,4.371-1.669c1.201-0.5,1.355-0.867,0.719-1.564
				c-0.323-0.344-0.776-0.653-1.262-0.925c-4.537-2.572-9.119-5.113-13.637-7.686c-4.373-2.487-8.705-4.996-13.039-7.498
				c-0.293-0.165-0.533-0.361-0.785-0.546c-0.609-0.434-0.592-0.861,0.17-1.301c3.476-1.997,6.92-4.013,10.426-5.997
				c1.031-0.584,1.541-0.563,2.582-0.083c0.375,0.173,0.697,0.377,1.035,0.572c6.416,3.719,12.834,7.439,19.244,11.163
				C646.636,344.697,646.634,344.7,646.632,344.701z"/>
		</g>
	</g>
</g>
<g id="Layer_2_1_" display="none">
	
		<image display="inline" overflow="visible" width="375" height="340" xlink:href="160A594C.jpg"  transform="matrix(2.0269 0 0 2.0269 111.4868 150.1079)">
	</image>
</g>
<g id="table">
	<path fill="#DB3540" d="M39.706,270.054c0,0-32.198,363.387-39.098,381.788c0,0,41.398,48.299,73.598,50.6l39.098-23.001
		c0,0,0.607,44.858,6.9,50.598c7.603,6.938,85.096,66.699,174.794,29.9l45.999-39.1c0,0,4.601,41.398,6.9,52.898
		c0,0,13.799,39.1,158.694,34.5c0,0,131.094,2.297,154.094-36.801l2.301-48.299c0,0,16.101,0,41.4,32.199
		c0,0,89.696,69.001,183.994-25.299V681.74c0,0,13.798-13.04,20.698,7.662c0,0,6.271,7.295,22.999,10.738
		c0,0,66.698-18.4,68.998-50.601c0,0-32.2-351.887-41.399-384.086L39.706,270.054z"/>
	<path fill="#B5303C" d="M75.065,701.81l43.608-312.16c0,0,3.83,144.896-5.37,292.09L75.065,701.81z"/>
	<path fill="#B5303C" d="M340.23,720.839c0,0-6.134,18.4-42.932,36.799l29.899-335.789
		C327.197,421.849,340.339,684.43,340.23,720.839z"/>
	<path fill="#B5303C" d="M665.287,723.138c0,0,9.834,0.14,41.397,34.5l-27.599-340.389
		C679.086,417.249,658.385,693.24,665.287,723.138z"/>
	<path fill="#B5303C" d="M887.747,680.344c0,0,32.83,29.2,42.03,20.063c0,0-32.198-267.261-45.998-296.957
		C883.779,403.45,885.448,659.783,887.747,680.344z"/>
	<path fill="#DB4251" d="M960.188,266.605c0,48.904-206.061,88.545-460.241,88.545c-254.186,0-460.242-39.642-460.242-88.545
		c0-48.904,206.056-88.549,460.242-88.549C754.128,178.056,960.188,217.701,960.188,266.605z"/>
</g>
<g id="Mug">
	<path fill="#FFFFFF" d="M211.045,206.474v110.973c0,0,46.543,31.689,101.18,0l0.022-109.951
		C312.248,207.496,265.682,234.577,211.045,206.474z"/>
	<path fill="#FFFFFF" d="M310.691,226.49c0,0,32.177-0.117,36.291,21.445c0,0,12.245,54.133-35.801,51.066l0.021-15.289
		c0,0,25.925,8.943,22.271-23.937c0,0,2.088-22.964-22.782-18.997V226.49z"/>
	<ellipse fill="#FFFFFF" cx="261.625" cy="205.512" rx="50.601" ry="16.867"/>
	<ellipse fill="#B5ADAC" cx="263.308" cy="205.514" rx="41.037" ry="11.76"/>
	<ellipse fill="#7C4A43" cx="263.308" cy="209.096" rx="33.882" ry="8.178"/>
</g>
<g id="plate">
	<ellipse fill="#B54456" cx="682.272" cy="270.944" rx="208.026" ry="58.778"/>
	<ellipse fill="#FFFFFF" cx="682.272" cy="250.995" rx="208.026" ry="58.778"/>
</g>
<g id="food">
	<g>
		<path fill="#EF984B" d="M682.277,294.258c0,9.724-7.552,17.605-16.867,17.605h-75.648c-9.313,0-16.865-7.881-16.865-17.605
			v-39.476c0-9.723,7.552-17.605,16.865-17.605h75.648c9.315,0,16.867,7.882,16.867,17.605V294.258z"/>
		<path fill="#FFDD9D" d="M682.277,284.744c0,8.103-7.552,14.672-16.867,14.672h-75.648c-9.313,0-16.865-6.569-16.865-14.672
			v-32.896c0-8.103,7.552-14.672,16.865-14.672h75.648c9.315,0,16.867,6.569,16.867,14.672V284.744z"/>
		<path fill="#411F20" d="M682.277,264.434c0,11.69-7.552,21.167-16.867,21.167h-75.648c-9.313,0-16.865-9.478-16.865-21.167
			v-47.465c0-11.69,7.552-21.167,16.865-21.167h75.648c9.315,0,16.867,9.477,16.867,21.167V264.434z"/>
		<path fill="#895144" d="M682.277,255.6c0,10.186-7.552,18.443-16.867,18.443h-75.648c-9.313,0-16.865-8.257-16.865-18.443v-41.358
			c0-10.184,7.552-18.441,16.865-18.441h75.648c9.315,0,16.867,8.257,16.867,18.441V255.6z"/>
		<path fill="#EF984B" d="M682.277,252.882c0,9.723-7.552,17.604-16.867,17.604h-75.648c-9.313,0-16.865-7.882-16.865-17.604
			v-39.477c0-9.723,7.552-17.604,16.865-17.604h75.648c9.315,0,16.867,7.881,16.867,17.604V252.882z"/>
		<path fill="#FFDD9D" d="M682.277,243.367c0,8.104-7.552,14.671-16.867,14.671h-75.648c-9.313,0-16.865-6.567-16.865-14.671
			v-32.896c0-8.102,7.552-14.669,16.865-14.669h75.648c9.315,0,16.867,6.568,16.867,14.669V243.367z"/>
	</g>
	<g>
		<path fill="#EF984B" d="M809.035,250.301c0,9.724-7.553,17.606-16.868,17.606h-75.646c-9.316,0-16.867-7.882-16.867-17.606
			v-39.476c0-9.722,7.551-17.605,16.867-17.605h75.646c9.315,0,16.868,7.883,16.868,17.605V250.301z"/>
		<path fill="#FFDD9D" d="M809.035,240.788c0,8.102-7.553,14.672-16.868,14.672h-75.646c-9.316,0-16.867-6.57-16.867-14.672v-32.896
			c0-8.102,7.551-14.671,16.867-14.671h75.646c9.315,0,16.868,6.57,16.868,14.671V240.788z"/>
		<path fill="#411F20" d="M809.035,220.478c0,11.691-7.553,21.168-16.868,21.168h-75.646c-9.316,0-16.867-9.477-16.867-21.168
			v-47.465c0-11.691,7.551-21.168,16.867-21.168h75.646c9.315,0,16.868,9.477,16.868,21.168V220.478z"/>
		<path fill="#895144" d="M809.035,211.644c0,10.186-7.553,18.443-16.868,18.443h-75.646c-9.316,0-16.867-8.257-16.867-18.443
			v-41.356c0-10.185,7.551-18.442,16.867-18.442h75.646c9.315,0,16.868,8.257,16.868,18.442V211.644z"/>
		<path fill="#EF984B" d="M809.035,208.926c0,9.723-7.553,17.604-16.868,17.604h-75.646c-9.316,0-16.867-7.882-16.867-17.604
			v-39.477c0-9.722,7.551-17.604,16.867-17.604h75.646c9.315,0,16.868,7.883,16.868,17.604V208.926z"/>
		<path fill="#FFDD9D" d="M809.035,199.412c0,8.103-7.553,14.67-16.868,14.67h-75.646c-9.316,0-16.867-6.568-16.867-14.67v-32.896
			c0-8.103,7.551-14.67,16.867-14.67h75.646c9.315,0,16.868,6.567,16.868,14.67V199.412z"/>
	</g>
</g>
<g id="Layer_7">
</g>
</svg>
