<?xml version="1.0" encoding="utf-8"?>
<!-- Generator: Adobe Illustrator 16.0.0, SVG Export Plug-In . SVG Version: 6.00 Build 0)  -->
<!DOCTYPE svg PUBLIC "-//W3C//DTD SVG 1.1//EN" "http://www.w3.org/Graphics/SVG/1.1/DTD/svg11.dtd">
<svg version="1.1" xmlns="http://www.w3.org/2000/svg" xmlns:xlink="http://www.w3.org/1999/xlink" x="0px" y="0px" width="1000px"
	 height="1000px" viewBox="0 0 1000 1000" enable-background="new 0 0 1000 1000" xml:space="preserve">
<g id="Layer_1">
	<path opacity="0.3" fill="#010101" enable-background="new    " d="M506.923,887.086c178.551,0,323.328,22.359,323.328,49.955
		s-144.777,49.955-323.328,49.955c-178.55,0-323.31-22.359-323.31-49.955S328.373,887.086,506.923,887.086z"/>
	<g id="Layer_1_1_" display="none">
		<g display="inline">
			<g>
				<path opacity="0.2" fill="#010101" enable-background="new    " d="M883.458,650.888H122.486c0,0-103.073-15.01-108.374-120.368
					c0,0-36.849-156.295,149.288-184.388c0,0-73.77-219.514,166.818-309.066c0,0,201.926-59.704,300.292,151.029
					c0,0,87.796-64.99,187.869-1.749c0,0,87.813,59.68,59.729,173.843c0,0,112.384,15.799,115.896,151.029
					C994.02,511.201,1004.671,604.444,883.458,650.888z"/>
				<path fill="#FFFFFF" d="M878.026,634.626H117.071c0,0-103.09-15.025-108.35-120.368c0,0-36.864-156.289,149.264-184.371
					c0,0-73.746-219.506,166.819-309.075c0,0,201.942-59.695,300.291,151.029c0,0,87.78-64.973,187.901-1.748
					c0,0,87.765,59.696,59.697,173.86c0,0,112.383,15.806,115.895,151.004C988.588,494.924,999.239,588.199,878.026,634.626z"/>
				<path opacity="0.2" fill="#010101" enable-background="new    " d="M159.05,623.438h675.103c0,0,91.455-13.334,96.139-106.789
					c0,0,32.717-138.662-132.434-163.573c0,0,65.437-194.74-148.013-274.217c0,0-179.161-52.972-266.411,133.995
					c0,0-77.885-57.648-166.688-1.562c0,0-77.908,52.964-52.964,154.241c0,0-99.715,14.042-102.829,133.961
					C60.969,499.494,51.513,582.232,159.05,623.438z"/>
				<path fill="#FFFFFF" d="M163.88,609.047H839c0,0,91.421-13.058,96.104-104.479c0,0,32.701-135.636-132.434-160.012
					c0,0,65.436-190.495-147.995-268.226c0,0-179.145-51.809-266.412,131.06c0,0-77.917-56.396-166.721-1.512
					c0,0-77.893,51.809-52.98,150.882c0,0-99.715,13.708-102.813,131.061C65.783,487.801,56.31,568.751,163.88,609.047z"/>
				<path fill="#E4E6ED" d="M337.293,675.508c25,0,45.271,20.262,45.271,45.272c0,25.01-20.271,45.271-45.271,45.271
					c-25.002,0-45.281-20.261-45.281-45.271C292.012,695.77,312.291,675.508,337.293,675.508z"/>
				<path fill="#C2C4CE" d="M356.708,683.247c9.726,7.563,16.035,19.4,16.035,32.687c0,22.831-18.53,41.369-41.361,41.369
					c-7.408,0-14.351-1.951-20.384-5.382c6.992,5.431,15.773,8.666,25.328,8.666c22.847,0,41.345-18.521,41.345-41.337
					C377.686,703.818,369.246,690.338,356.708,683.247z"/>
				<path fill="#E4E6ED" d="M501.932,716.665c25.012,0,45.272,20.278,45.272,45.288c0,24.994-20.262,45.271-45.272,45.271
					c-25.01,0-45.279-20.276-45.279-45.271C456.651,736.943,476.921,716.665,501.932,716.665z"/>
				<path fill="#C2C4CE" d="M521.348,724.39c9.741,7.609,16.019,19.448,16.019,32.719c0,22.831-18.538,41.353-41.369,41.353
					c-7.407,0-14.334-1.936-20.359-5.35c6.992,5.415,15.767,8.65,25.32,8.65c22.863,0,41.351-18.538,41.351-41.337
					C542.308,744.943,533.854,731.48,521.348,724.39z"/>
				<path fill="#E4E6ED" d="M666.514,689.248c24.994,0,45.272,20.278,45.272,45.271c0,24.994-20.278,45.272-45.272,45.272
					c-24.992,0-45.288-20.278-45.288-45.272C621.226,709.526,641.521,689.248,666.514,689.248z"/>
				<path fill="#C2C4CE" d="M685.962,696.956c9.74,7.578,16.019,19.416,16.019,32.687c0,22.848-18.507,41.354-41.368,41.354
					c-7.399,0-14.344-1.936-20.359-5.334c6.976,5.398,15.789,8.651,25.303,8.651c22.896,0,41.386-18.508,41.386-41.337
					C706.924,717.527,698.469,704.046,685.962,696.956z"/>
			</g>
			<path opacity="0.3" fill="#010101" enable-background="new    " d="M506.923,887.086c178.551,0,323.328,22.359,323.328,49.955
				s-144.777,49.955-323.328,49.955c-178.55,0-323.31-22.359-323.31-49.955S328.373,887.086,506.923,887.086z"/>
		</g>
	</g>
</g>
<g id="Layer_2">
	<g>
		<g>
			<polygon fill="#283339" points="941.215,802.084 35.276,739.824 35.277,138.828 941.215,52.426 			"/>
			<polygon fill="#4A4A6E" points="940.424,569.09 36.297,553.064 36.297,278.538 940.422,226.813 			"/>
			<polygon fill="#4A4A6E" points="939.633,661.761 36.297,627.413 36.297,614.07 939.633,645.128 			"/>
			<g>
				<path fill="#FFFFFF" d="M79.674,565.759c0.049-0.345,0.229-0.516,0.54-0.512l16.849,0.354c1.131,0.024,2.143,0.255,3.042,0.688
					c0.894,0.436,1.643,1.051,2.238,1.843c0.594,0.794,1.014,1.747,1.268,2.862c0.246,1.12,0.27,2.368,0.072,3.751
					c-0.27,1.869-0.626,3.342-1.064,4.423c-0.442,1.086-0.885,1.906-1.329,2.468c-0.442,0.557-0.819,0.93-1.127,1.114
					c-0.312,0.184-0.473,0.326-0.487,0.432c-0.026,0.172,0.163,0.54,0.571,1.104c0.408,0.567,0.857,1.219,1.348,1.961
					c0.175,0.314,0.318,0.681,0.434,1.103c0.109,0.418,0.199,0.848,0.264,1.279c0.062,0.438,0.085,0.872,0.071,1.306
					c-0.016,0.435-0.047,0.805-0.091,1.117c-0.24,1.657-0.604,3.206-1.099,4.651c-0.492,1.444-1.17,2.687-2.029,3.735
					c-0.859,1.051-1.916,1.863-3.164,2.452c-1.25,0.585-2.764,0.85-4.546,0.794l-16.52-0.51c-0.311-0.012-0.441-0.183-0.392-0.531
					L79.674,565.759z M82.235,595.156c-0.049,0.341,0.081,0.518,0.392,0.525l9.87,0.285c0.532,0.016,0.991-0.124,1.382-0.426
					c0.387-0.299,0.726-0.679,1.012-1.139c0.283-0.462,0.506-0.947,0.659-1.461c0.153-0.516,0.257-0.961,0.312-1.342
					c0.113-0.794,0.124-1.457,0.028-2c-0.095-0.539-0.254-0.965-0.473-1.286c-0.223-0.313-0.49-0.539-0.8-0.67
					c-0.314-0.126-0.608-0.199-0.89-0.203l-9.877-0.267c-0.312-0.006-0.492,0.163-0.54,0.507L82.235,595.156z M84.458,579.683
					c-0.049,0.344,0.082,0.521,0.394,0.529l8.1,0.2c1.25,0.03,2.184-0.246,2.806-0.838c0.618-0.593,1.044-1.682,1.273-3.271
					c0.214-1.48,0.015-2.518-0.59-3.106c-0.607-0.579-1.382-0.884-2.318-0.906l-8.105-0.185c-0.313-0.008-0.492,0.163-0.542,0.507
					L84.458,579.683z"/>
				<path fill="#FFFFFF" d="M123.096,576.4l4.871,0.111c0.316,0.008,0.454,0.186,0.402,0.535l-2.99,20.556
					c-0.162,1.112-0.613,2.06-1.348,2.84c-0.736,0.778-1.642,1.415-2.719,1.905c-1.076,0.489-2.259,0.84-3.545,1.041
					c-1.286,0.206-2.564,0.286-3.827,0.246c-1.297-0.04-2.552-0.199-3.763-0.479c-1.211-0.28-2.271-0.696-3.17-1.244
					c-0.901-0.545-1.602-1.231-2.102-2.042c-0.499-0.813-0.667-1.771-0.509-2.876l2.957-20.443c0.051-0.349,0.234-0.518,0.548-0.512
					l4.83,0.117c0.316,0.006,0.45,0.182,0.402,0.533l-2.644,18.239c-0.044,0.311,0.045,0.609,0.275,0.896
					c0.228,0.284,0.54,0.533,0.938,0.756c0.397,0.216,0.871,0.391,1.424,0.512c0.554,0.121,1.132,0.188,1.732,0.203
					c0.603,0.021,1.188-0.016,1.757-0.104c0.567-0.086,1.091-0.23,1.563-0.424c0.474-0.195,0.868-0.426,1.179-0.698
					c0.308-0.27,0.487-0.562,0.53-0.872l2.658-18.288C122.594,576.558,122.777,576.393,123.096,576.4z"/>
				<path fill="#FFFFFF" d="M129.045,597.447l13.199,0.382c0.452,0.017,0.815-0.052,1.095-0.199c0.28-0.15,0.511-0.348,0.692-0.585
					c0.179-0.242,0.308-0.511,0.382-0.808c0.076-0.295,0.132-0.567,0.168-0.809c0.068-0.457,0.028-0.913-0.113-1.369
					c-0.146-0.462-0.538-0.704-1.179-0.721l-7.551-0.209c-1.151-0.033-2.099-0.261-2.836-0.685c-0.744-0.422-1.3-0.995-1.676-1.724
					c-0.373-0.728-0.6-1.588-0.68-2.589c-0.08-0.997-0.033-2.088,0.138-3.271c0.256-1.74,0.643-3.146,1.169-4.218
					c0.522-1.069,1.206-1.893,2.042-2.466c0.837-0.577,1.856-0.957,3.057-1.135c1.199-0.185,2.614-0.255,4.251-0.219l10.427,0.247
					c0.321,0.006,0.458,0.183,0.408,0.537l-0.784,5.354c-0.052,0.354-0.24,0.523-0.562,0.516l-12.631-0.318
					c-0.515-0.016-0.913,0.181-1.195,0.575c-0.282,0.396-0.459,0.836-0.53,1.325c-0.067,0.454-0.014,0.908,0.162,1.369
					c0.173,0.458,0.501,0.697,0.98,0.707l7.029,0.186c1.254,0.035,2.31,0.21,3.168,0.529c0.858,0.324,1.517,0.842,1.981,1.556
					c0.459,0.715,0.739,1.68,0.837,2.896c0.097,1.216,0.014,2.73-0.254,4.55c-0.079,0.525-0.25,1.214-0.521,2.067
					c-0.271,0.852-0.659,1.686-1.167,2.494c-0.506,0.812-1.149,1.5-1.929,2.075c-0.778,0.571-1.715,0.84-2.808,0.805l-15.696-0.481
					c-0.319-0.011-0.452-0.189-0.402-0.54l0.775-5.315C128.543,597.61,128.729,597.439,129.045,597.447z"/>
				<path fill="#FFFFFF" d="M156.304,577.712c0.051-0.358,0.236-0.525,0.562-0.518l4.955,0.117c0.326,0.004,0.463,0.184,0.411,0.535
					l-3.87,26.371c-0.05,0.349-0.239,0.52-0.563,0.51l-4.946-0.153c-0.324-0.012-0.459-0.19-0.409-0.539L156.304,577.712z
					 M158.377,566.877l4.961,0.104c0.324,0.006,0.46,0.187,0.41,0.537l-0.79,5.378c-0.052,0.351-0.241,0.521-0.565,0.514
					l-4.958-0.109c-0.324-0.009-0.461-0.186-0.409-0.536l0.786-5.369C157.865,567.044,158.053,566.871,158.377,566.877z"/>
				<path fill="#FFFFFF" d="M168.079,603.351c-0.166,1.126-0.706,1.67-1.617,1.642l-3.266-0.1c-0.453-0.014-0.756-0.236-0.903-0.662
					c-0.149-0.429-0.183-0.92-0.1-1.481l3.21-21.864c0.128-0.876,0.581-1.668,1.354-2.373c0.771-0.704,1.68-1.047,2.721-1.022
					l11.077,0.259c1.179,0.033,2.242,0.313,3.183,0.846c0.939,0.539,1.735,1.241,2.381,2.105c0.647,0.872,1.104,1.858,1.371,2.962
					c0.265,1.106,0.313,2.244,0.138,3.411l-2.652,17.96c-0.053,0.353-0.261,0.525-0.621,0.514l-4.968-0.153
					c-0.33-0.012-0.464-0.191-0.415-0.546l2.484-16.821c0.129-0.88,0.115-1.604-0.048-2.174c-0.163-0.577-0.444-1.022-0.837-1.353
					c-0.397-0.331-0.879-0.565-1.451-0.701c-0.571-0.14-1.201-0.215-1.887-0.232l-4.755-0.12c-0.357-0.008-0.714,0.126-1.064,0.398
					c-0.352,0.274-0.55,0.565-0.597,0.882L168.079,603.351z"/>
				<path fill="#FFFFFF" d="M194.701,595.63c-0.081,0.525-0.02,1.016,0.18,1.469c0.196,0.448,0.494,0.849,0.892,1.2
					c0.395,0.349,0.893,0.631,1.492,0.842c0.599,0.215,1.245,0.329,1.94,0.349l11.85,0.345c0.331,0.012,0.472,0.194,0.419,0.551
					l-0.81,5.434c-0.052,0.356-0.247,0.529-0.578,0.518l-8.417-0.259c-2.782-0.084-5.067-0.4-6.861-0.955
					c-1.79-0.552-3.174-1.386-4.15-2.5c-0.977-1.108-1.581-2.502-1.813-4.176c-0.23-1.68-0.175-3.686,0.171-6.013
					c0.42-2.83,1.169-5.162,2.252-6.998c1.081-1.839,2.354-3.289,3.821-4.356c1.467-1.066,3.053-1.801,4.756-2.205
					c1.706-0.406,3.385-0.587,5.044-0.551c2.059,0.048,3.8,0.348,5.219,0.899c1.422,0.555,2.544,1.31,3.373,2.276
					c0.826,0.968,1.366,2.132,1.613,3.497c0.249,1.367,0.248,2.886-0.001,4.558l-0.827,5.551c-0.053,0.356-0.248,0.531-0.58,0.521
					l-18.413-0.516C194.942,595.101,194.753,595.273,194.701,595.63z M208.971,589.228c0.333,0.01,0.526-0.159,0.58-0.516
					c0.199-1.352-0.223-2.442-1.268-3.273c-1.044-0.826-2.612-1.269-4.704-1.318c-0.663-0.018-1.416,0.07-2.259,0.263
					c-0.843,0.189-1.664,0.464-2.462,0.818c-0.802,0.351-1.488,0.802-2.067,1.334c-0.576,0.537-0.915,1.14-1.014,1.816
					c-0.052,0.353,0.085,0.535,0.416,0.539L208.971,589.228z"/>
				<path fill="#FFFFFF" d="M217.054,600.011l13.826,0.402c0.474,0.014,0.854-0.058,1.147-0.209c0.293-0.155,0.535-0.354,0.723-0.6
					c0.191-0.247,0.324-0.518,0.402-0.824c0.08-0.3,0.138-0.577,0.176-0.827c0.072-0.466,0.029-0.934-0.12-1.403
					c-0.15-0.472-0.563-0.717-1.235-0.736l-7.909-0.224c-1.208-0.031-2.198-0.263-2.973-0.696c-0.775-0.434-1.36-1.021-1.753-1.768
					c-0.392-0.74-0.629-1.626-0.711-2.648c-0.083-1.021-0.034-2.136,0.146-3.35c0.266-1.779,0.673-3.219,1.221-4.317
					c0.548-1.093,1.264-1.935,2.14-2.523c0.879-0.589,1.945-0.975,3.201-1.158c1.257-0.186,2.741-0.261,4.456-0.219l10.923,0.257
					c0.338,0.008,0.48,0.188,0.428,0.551l-0.824,5.481c-0.053,0.358-0.249,0.535-0.584,0.525l-13.235-0.334
					c-0.539-0.015-0.957,0.183-1.253,0.585c-0.292,0.41-0.481,0.861-0.554,1.361c-0.068,0.462-0.014,0.93,0.171,1.397
					c0.181,0.472,0.524,0.714,1.027,0.728l7.361,0.193c1.313,0.034,2.42,0.215,3.32,0.544c0.898,0.33,1.589,0.863,2.075,1.592
					c0.481,0.732,0.775,1.722,0.876,2.966c0.102,1.245,0.015,2.798-0.266,4.659c-0.08,0.535-0.262,1.243-0.544,2.113
					c-0.283,0.874-0.691,1.724-1.224,2.556c-0.529,0.826-1.202,1.534-2.02,2.117c-0.816,0.59-1.797,0.862-2.939,0.828l-16.445-0.508
					c-0.333-0.01-0.472-0.194-0.419-0.549l0.812-5.441C216.529,600.174,216.722,600.001,217.054,600.011z"/>
				<path fill="#FFFFFF" d="M242.774,600.759l14.013,0.408c0.478,0.014,0.864-0.056,1.162-0.211
					c0.296-0.155,0.542-0.353,0.732-0.603c0.191-0.247,0.327-0.523,0.407-0.828c0.081-0.307,0.142-0.585,0.178-0.834
					c0.071-0.47,0.029-0.939-0.122-1.415c-0.151-0.476-0.569-0.719-1.251-0.74l-8.017-0.224c-1.223-0.033-2.226-0.271-3.012-0.706
					c-0.786-0.435-1.376-1.029-1.777-1.775c-0.399-0.75-0.638-1.642-0.72-2.665c-0.085-1.033-0.037-2.155,0.146-3.375
					c0.271-1.794,0.684-3.242,1.24-4.346c0.556-1.103,1.279-1.948,2.168-2.543c0.889-0.591,1.97-0.978,3.242-1.164
					c1.275-0.188,2.779-0.261,4.514-0.22l11.072,0.263c0.341,0.005,0.488,0.189,0.435,0.552l-0.834,5.521
					c-0.054,0.362-0.254,0.536-0.596,0.526l-13.413-0.335c-0.544-0.014-0.967,0.184-1.269,0.589
					c-0.298,0.408-0.488,0.862-0.562,1.366c-0.071,0.465-0.016,0.937,0.171,1.41c0.185,0.475,0.532,0.719,1.042,0.73l7.461,0.197
					c1.333,0.034,2.453,0.219,3.362,0.548c0.912,0.334,1.613,0.869,2.105,1.604c0.488,0.738,0.785,1.731,0.89,2.981
					c0.104,1.258,0.016,2.82-0.269,4.695c-0.083,0.537-0.267,1.25-0.552,2.128c-0.289,0.883-0.703,1.735-1.24,2.567
					c-0.537,0.836-1.221,1.548-2.048,2.137c-0.827,0.59-1.823,0.866-2.982,0.83l-16.664-0.513c-0.338-0.011-0.479-0.193-0.426-0.554
					l0.824-5.478C242.242,600.924,242.438,600.747,242.774,600.759z"/>
				<path fill="#FFFFFF" d="M303.935,602.54c0.349,0.01,0.496,0.197,0.442,0.56l-0.848,5.566c-0.055,0.368-0.261,0.54-0.607,0.531
					l-9.82-0.306c-1.91-0.056-3.556-0.458-4.936-1.213c-1.384-0.752-2.506-1.713-3.37-2.888c-0.865-1.17-1.47-2.458-1.81-3.873
					c-0.341-1.409-0.409-2.802-0.199-4.18l0.693-4.562c0.279-1.847,0.781-3.499,1.504-4.959c0.724-1.449,1.691-2.684,2.904-3.692
					c1.213-1.007,2.697-1.771,4.449-2.299c1.752-0.52,3.778-0.758,6.075-0.702l8.847,0.207c0.349,0.008,0.499,0.194,0.443,0.563
					l-0.851,5.575c-0.056,0.366-0.259,0.543-0.607,0.533l-9.887-0.247c-2.017-0.05-3.618,0.544-4.802,1.792
					c-1.179,1.251-1.91,2.792-2.19,4.645l-0.354,2.337c-0.276,1.815-0.024,3.306,0.757,4.479c0.779,1.164,2.208,1.785,4.294,1.843
					L303.935,602.54z"/>
				<path fill="#FFFFFF" d="M313.093,580.87l14.895,0.351c1.344,0.03,2.441,0.364,3.286,0.989c0.845,0.629,1.489,1.425,1.925,2.395
					c0.442,0.969,0.704,2.04,0.789,3.222c0.085,1.185,0.038,2.362-0.144,3.533l-2.784,18.153c-0.056,0.364-0.263,0.543-0.616,0.533
					l-18.446-0.569c-1.049-0.032-1.857-0.395-2.419-1.091c-0.562-0.692-0.956-1.503-1.187-2.426
					c-0.227-0.92-0.342-1.837-0.342-2.751c-0.003-0.917,0.035-1.61,0.107-2.082c0.132-0.879,0.387-1.839,0.756-2.894
					c0.372-1.053,0.852-2.015,1.444-2.897c0.592-0.882,1.305-1.62,2.135-2.222c0.833-0.601,1.774-0.89,2.829-0.861l8.817,0.236
					c0.917,0.022,1.687-0.188,2.304-0.635c0.617-0.441,0.971-0.971,1.073-1.6c0.078-0.51-0.022-1.029-0.298-1.553
					c-0.276-0.518-0.696-0.788-1.259-0.802l-13.885-0.349c-0.35-0.01-0.5-0.193-0.443-0.563l0.853-5.582
					C312.538,581.037,312.741,580.86,313.093,580.87z M324.961,603.426c0.353,0.01,0.557-0.169,0.613-0.531l0.506-3.298
					c0.056-0.362-0.094-0.554-0.447-0.562l-9.403-0.265c-0.495-0.014-0.929,0.184-1.311,0.596c-0.379,0.411-0.61,0.871-0.688,1.385
					c-0.095,0.617-0.004,1.171,0.277,1.654c0.276,0.489,0.733,0.738,1.365,0.756L324.961,603.426z"/>
				<path fill="#FFFFFF" d="M353.286,581.817c0.358,0.008,0.508,0.193,0.453,0.565l-0.873,5.639
					c-0.056,0.374-0.262,0.553-0.618,0.545l-5.148-0.131c-0.322-0.008-0.624,0.081-0.899,0.257
					c-0.281,0.179-0.536,0.382-0.767,0.616c-0.235,0.233-0.425,0.484-0.574,0.761c-0.148,0.274-0.241,0.518-0.277,0.742
					l-2.928,19.023c-0.057,0.37-0.261,0.547-0.618,0.537l-5.969-0.186c-0.356-0.01-0.504-0.198-0.449-0.566l3.214-20.92
					c0.146-0.957,0.477-1.871,0.982-2.741c0.508-0.875,1.137-1.636,1.878-2.282c0.74-0.645,1.57-1.15,2.483-1.517
					c0.916-0.366,1.854-0.539,2.814-0.514L353.286,581.817z"/>
				<path fill="#FFFFFF" d="M375.353,581.774l1.519-9.791c0.059-0.374,0.269-0.557,0.632-0.551l5.55,0.115
					c0.364,0.012,0.517,0.199,0.461,0.577l-6.026,38.811c-0.06,0.372-0.272,0.553-0.635,0.537l-16.83-0.516
					c-1.724-0.056-3.125-0.551-4.204-1.49c-1.081-0.939-1.905-2.126-2.476-3.545c-0.574-1.427-0.92-2.97-1.04-4.64
					c-0.118-1.668-0.057-3.281,0.179-4.824c0.335-2.177,0.83-4.165,1.485-5.961c0.656-1.795,1.475-3.323,2.461-4.579
					c0.987-1.254,2.145-2.218,3.474-2.888c1.329-0.675,2.858-0.991,4.585-0.948l10.238,0.237
					C375.083,582.331,375.295,582.146,375.353,581.774z M374.126,589.676c0.057-0.371-0.093-0.562-0.452-0.569l-5.905-0.151
					c-1.119-0.028-2.154,0.05-3.105,0.23c-0.949,0.18-1.8,0.548-2.554,1.106c-0.755,0.552-1.391,1.344-1.909,2.371
					c-0.518,1.022-0.907,2.348-1.156,3.972c-0.233,1.515-0.243,2.757-0.035,3.723c0.213,0.971,0.599,1.743,1.158,2.313
					c0.562,0.575,1.284,0.983,2.17,1.233c0.88,0.251,1.899,0.389,3.051,0.426l5.9,0.168c0.357,0.01,0.567-0.168,0.625-0.536
					L374.126,589.676z"/>
				<path fill="#FFFFFF" d="M382.753,604.831l15.046,0.44c0.512,0.014,0.927-0.055,1.25-0.216c0.316-0.163,0.581-0.366,0.785-0.625
					c0.207-0.256,0.354-0.541,0.436-0.857c0.087-0.316,0.152-0.605,0.192-0.863c0.076-0.486,0.033-0.976-0.128-1.467
					c-0.165-0.492-0.613-0.749-1.342-0.769l-8.609-0.243c-1.315-0.035-2.393-0.278-3.238-0.732
					c-0.841-0.453-1.478-1.066-1.904-1.843c-0.429-0.776-0.686-1.699-0.775-2.763c-0.089-1.068-0.038-2.232,0.16-3.497
					c0.286-1.858,0.731-3.357,1.329-4.498c0.599-1.144,1.373-2.021,2.327-2.631c0.956-0.615,2.118-1.019,3.484-1.21
					c1.368-0.189,2.983-0.265,4.849-0.223l11.887,0.28c0.37,0.012,0.525,0.201,0.467,0.577l-0.896,5.718
					c-0.056,0.375-0.271,0.556-0.641,0.548l-14.404-0.362c-0.584-0.018-1.039,0.188-1.36,0.609c-0.324,0.42-0.522,0.897-0.605,1.415
					c-0.074,0.481-0.013,0.971,0.186,1.463c0.196,0.489,0.571,0.742,1.119,0.758l8.011,0.211c1.433,0.036,2.634,0.229,3.614,0.573
					c0.979,0.345,1.729,0.899,2.258,1.662c0.527,0.764,0.845,1.793,0.957,3.095c0.112,1.298,0.017,2.916-0.289,4.858
					c-0.089,0.562-0.286,1.3-0.595,2.205c-0.309,0.911-0.75,1.799-1.327,2.665c-0.58,0.863-1.315,1.598-2.202,2.207
					c-0.89,0.611-1.958,0.899-3.201,0.859l-17.894-0.553c-0.365-0.012-0.518-0.203-0.458-0.575l0.883-5.675
					C382.179,605.002,382.391,604.821,382.753,604.831z"/>
				<path fill="#FFFFFF" d="M438.738,583.259c-0.06,0.376,0.097,0.571,0.471,0.579l4.603,0.109c0.375,0.008,0.533,0.201,0.474,0.579
					l-0.912,5.771c-0.059,0.377-0.276,0.558-0.648,0.55l-4.602-0.113c-0.372-0.013-0.589,0.173-0.651,0.551l-3.365,21.386
					c-0.06,0.38-0.28,0.56-0.652,0.547l-5.692-0.173c-0.374-0.012-0.528-0.205-0.469-0.581l3.357-21.355
					c0.06-0.374-0.097-0.565-0.469-0.577l-2.956-0.074c-0.372-0.01-0.528-0.202-0.469-0.577l0.904-5.747
					c0.058-0.375,0.272-0.56,0.645-0.552l2.956,0.071c0.372,0.007,0.59-0.179,0.652-0.553l0.558-3.557
					c0.126-0.826,0.458-1.658,0.979-2.496c0.521-0.834,1.148-1.568,1.858-2.197c0.72-0.629,1.491-1.141,2.325-1.54
					c0.828-0.396,1.621-0.589,2.365-0.577l8.038,0.169c0.372,0.008,0.532,0.203,0.472,0.583l-0.914,5.777
					c-0.06,0.377-0.238,0.562-0.538,0.554l-5.506-0.123c-0.185-0.004-0.425,0.079-0.714,0.24s-0.565,0.364-0.829,0.605
					c-0.261,0.243-0.5,0.499-0.715,0.78c-0.212,0.276-0.331,0.529-0.368,0.756L438.738,583.259z"/>
				<path fill="#FFFFFF" d="M473.37,602.891c-0.363,2.279-0.86,4.155-1.498,5.624c-0.629,1.465-1.426,2.624-2.378,3.472
					c-0.957,0.848-2.085,1.423-3.388,1.724c-1.301,0.305-2.827,0.426-4.563,0.372l-10.061-0.307
					c-1.728-0.054-3.105-0.406-4.133-1.066c-1.029-0.653-1.798-1.493-2.315-2.514c-0.521-1.02-0.808-2.164-0.868-3.434
					c-0.068-1.27,0.006-2.565,0.212-3.887l1.573-9.955c0.219-1.355,0.641-2.578,1.287-3.662c0.64-1.083,1.414-2.003,2.327-2.759
					c0.912-0.755,1.936-1.328,3.075-1.72c1.139-0.389,2.309-0.569,3.516-0.543l11.449,0.271c1.021,0.025,2.026,0.236,3.009,0.646
					c0.977,0.4,1.825,0.983,2.523,1.741c0.698,0.763,1.223,1.676,1.571,2.731c0.348,1.057,0.412,2.272,0.194,3.638L473.37,602.891z
					 M467.698,594.337c0.071-0.456-0.006-0.866-0.232-1.232c-0.229-0.372-0.551-0.683-0.964-0.941
					c-0.415-0.257-0.899-0.45-1.451-0.579c-0.548-0.129-1.104-0.199-1.673-0.215l-6.174-0.157c-0.491-0.01-0.99,0.027-1.493,0.109
					c-0.502,0.081-0.972,0.229-1.403,0.445c-0.432,0.216-0.811,0.514-1.129,0.886c-0.326,0.368-0.528,0.822-0.611,1.35l-1.435,9.067
					c-0.119,0.753-0.058,1.384,0.184,1.879c0.243,0.502,0.583,0.899,1.03,1.198c0.443,0.297,0.939,0.504,1.489,0.611
					c0.551,0.111,1.071,0.175,1.562,0.188l5.204,0.153c1.36,0.04,2.593-0.25,3.697-0.863c1.104-0.617,1.736-1.417,1.89-2.402
					l0.724-4.55L467.698,594.337z"/>
				<path fill="#FFFFFF" d="M495.068,585.153c0.382,0.01,0.543,0.205,0.482,0.589l-0.933,5.838c-0.061,0.386-0.279,0.569-0.666,0.56
					l-5.52-0.138c-0.344-0.012-0.666,0.084-0.966,0.265c-0.297,0.185-0.569,0.396-0.823,0.637c-0.249,0.243-0.454,0.506-0.61,0.788
					c-0.16,0.281-0.261,0.539-0.298,0.771l-3.138,19.697c-0.063,0.381-0.283,0.567-0.666,0.554l-6.402-0.195
					c-0.383-0.016-0.538-0.209-0.477-0.591l3.444-21.66c0.158-0.987,0.509-1.935,1.054-2.836c0.547-0.907,1.215-1.69,2.013-2.36
					c0.799-0.667,1.685-1.192,2.664-1.57c0.982-0.379,1.987-0.554,3.022-0.529L495.068,585.153z"/>
				<path fill="#FFFFFF" d="M515.615,585.637l16.475,0.389c1.482,0.033,2.695,0.386,3.631,1.043
					c0.938,0.664,1.646,1.502,2.131,2.521c0.488,1.022,0.775,2.149,0.873,3.39c0.092,1.247,0.039,2.481-0.162,3.718l-3.08,19.084
					c-0.061,0.387-0.289,0.571-0.68,0.558l-20.393-0.625c-1.164-0.036-2.055-0.418-2.672-1.154c-0.627-0.725-1.063-1.58-1.318-2.546
					c-0.25-0.971-0.375-1.933-0.379-2.897c0-0.965,0.039-1.693,0.121-2.191c0.148-0.921,0.426-1.933,0.834-3.037
					c0.412-1.106,0.941-2.119,1.596-3.047c0.654-0.922,1.445-1.702,2.363-2.331c0.92-0.631,1.957-0.93,3.121-0.897l9.754,0.257
					c1.014,0.024,1.859-0.193,2.543-0.659c0.688-0.467,1.082-1.024,1.188-1.682c0.086-0.541-0.021-1.088-0.324-1.634
					c-0.309-0.549-0.771-0.832-1.393-0.85l-15.352-0.385c-0.385-0.012-0.553-0.206-0.492-0.591l0.945-5.869
					C515.006,585.816,515.229,585.629,515.615,585.637z M528.74,609.371c0.391,0.008,0.617-0.174,0.68-0.56l0.555-3.465
					c0.068-0.384-0.102-0.581-0.49-0.597l-10.398-0.289c-0.545-0.014-1.025,0.193-1.447,0.623c-0.42,0.438-0.672,0.92-0.762,1.453
					c-0.102,0.654-0.006,1.235,0.307,1.745c0.307,0.512,0.813,0.774,1.512,0.796L528.74,609.371z"/>
				<path fill="#FFFFFF" d="M581.674,586.604l1.682-10.298c0.064-0.392,0.291-0.581,0.695-0.575l6.139,0.13
					c0.402,0.008,0.576,0.206,0.51,0.599l-6.666,40.811c-0.064,0.392-0.297,0.579-0.701,0.565l-18.604-0.573
					c-1.912-0.058-3.453-0.581-4.648-1.574c-1.193-0.989-2.104-2.233-2.736-3.732c-0.631-1.494-1.014-3.124-1.145-4.88
					c-0.135-1.751-0.068-3.445,0.195-5.067c0.375-2.287,0.918-4.374,1.641-6.263c0.727-1.886,1.633-3.495,2.719-4.814
					c1.092-1.313,2.369-2.325,3.836-3.031c1.475-0.705,3.162-1.035,5.07-0.991l11.32,0.269
					C581.377,587.182,581.609,586.994,581.674,586.604z M580.318,594.909c0.066-0.388-0.104-0.589-0.5-0.603l-6.529-0.163
					c-1.238-0.03-2.381,0.052-3.432,0.24c-1.053,0.186-1.99,0.569-2.824,1.153c-0.836,0.583-1.537,1.414-2.111,2.493
					c-0.574,1.073-1,2.466-1.281,4.174c-0.256,1.594-0.268,2.896-0.035,3.915c0.234,1.021,0.666,1.835,1.281,2.434
					c0.619,0.604,1.42,1.037,2.396,1.3c0.975,0.261,2.098,0.412,3.373,0.446l6.523,0.192c0.393,0.014,0.627-0.181,0.691-0.569
					L580.318,594.909z"/>
				<path fill="#FFFFFF" d="M593.227,588.053c0.059-0.394,0.295-0.581,0.693-0.574l6.172,0.148c0.402,0.008,0.578,0.209,0.514,0.602
					l-4.816,29.4c-0.068,0.392-0.299,0.581-0.705,0.568l-6.154-0.188c-0.398-0.014-0.57-0.213-0.506-0.607L593.227,588.053z
					 M595.807,575.977l6.172,0.129c0.402,0.01,0.578,0.213,0.514,0.6l-0.988,5.998c-0.061,0.395-0.293,0.583-0.697,0.575
					l-6.17-0.143c-0.404-0.005-0.576-0.203-0.516-0.6l0.984-5.984C595.17,576.161,595.402,575.967,595.807,575.977z"/>
				<path fill="#FFFFFF" d="M602.396,623.734l16.436,0.529c0.527,0.015,0.959-0.111,1.291-0.374
					c0.328-0.267,0.598-0.587,0.803-0.953c0.197-0.368,0.35-0.776,0.447-1.231c0.1-0.45,0.172-0.854,0.232-1.207l0.238-1.477
					l-9.102-0.28c-1.582-0.048-3.102-0.408-4.559-1.081c-1.457-0.677-2.713-1.651-3.764-2.922c-1.053-1.273-1.826-2.81-2.324-4.611
					c-0.492-1.805-0.549-3.863-0.172-6.172l0.615-3.762c0.264-1.605,0.764-3.145,1.49-4.623c0.73-1.479,1.695-2.782,2.896-3.915
					c1.201-1.134,2.664-2.032,4.383-2.702c1.723-0.669,3.68-0.978,5.875-0.924l14.154,0.332c1.021,0.024,1.811,0.271,2.35,0.74
					s0.727,1.213,0.559,2.243l-5.236,31.699c-0.135,0.826-0.502,1.716-1.09,2.665c-0.59,0.953-1.314,1.819-2.188,2.602
					c-0.865,0.784-1.836,1.421-2.902,1.92c-1.068,0.5-2.152,0.729-3.254,0.691l-18.262-0.613c-0.404-0.016-0.572-0.219-0.508-0.609
					l0.885-5.396C601.754,623.912,601.986,623.721,602.396,623.734z M610.055,607.015c0.145,0.993,0.527,1.829,1.15,2.516
					c0.617,0.687,1.521,1.208,2.711,1.557c1.188,0.35,2.715,0.553,4.594,0.608l3.914,0.111c0.406,0.011,0.645-0.179,0.705-0.571
					l2.506-15.178c0.064-0.394-0.107-0.595-0.52-0.604l-8.016-0.205c-1.951-0.048-3.463,0.529-4.537,1.722
					c-1.076,1.196-1.787,2.85-2.135,4.97l-0.25,1.536C609.951,604.843,609.91,606.025,610.055,607.015z"/>
				<path fill="#FFFFFF" d="M638.014,589.112c0.064-0.395,0.303-0.589,0.713-0.579l6.303,0.151c0.41,0.01,0.586,0.209,0.523,0.61
					l-4.924,29.711c-0.064,0.396-0.307,0.585-0.715,0.577l-6.287-0.195c-0.412-0.016-0.582-0.219-0.518-0.613L638.014,589.112z
					 M640.65,576.91l6.305,0.131c0.412,0.01,0.588,0.213,0.521,0.607l-1.002,6.06c-0.064,0.4-0.303,0.59-0.719,0.58l-6.303-0.144
					c-0.41-0.01-0.584-0.205-0.52-0.602l0.998-6.052C639.998,577.095,640.236,576.899,640.65,576.91z"/>
				<path fill="#FFFFFF" d="M656.955,612.217c-0.063,0.393,0.107,0.602,0.521,0.609l5.236,0.155c0.328,0.048,0.459,0.253,0.4,0.61
					l-1.01,6.072c-0.072,0.398-0.314,0.588-0.725,0.576l-7.84-0.243c-1.574-0.046-2.803-0.542-3.684-1.48
					c-0.879-0.944-1.223-2.03-1.021-3.257l3.076-18.535c0.068-0.396-0.109-0.599-0.52-0.608l-3.289-0.084
					c-0.41-0.01-0.586-0.213-0.52-0.611l1.004-6.056c0.064-0.4,0.303-0.592,0.713-0.58l3.291,0.076
					c0.412,0.01,0.656-0.184,0.723-0.583l1.232-7.434c0.064-0.396,0.309-0.594,0.725-0.587l6.346,0.141
					c0.416,0.008,0.59,0.213,0.523,0.607l-1.236,7.453c-0.061,0.395,0.104,0.598,0.523,0.609l5.113,0.121
					c0.42,0.01,0.598,0.215,0.529,0.611l-1.014,6.082c-0.063,0.402-0.307,0.593-0.719,0.585l-5.115-0.129
					c-0.416-0.012-0.658,0.187-0.727,0.579L656.955,612.217z"/>
				<path fill="#FFFFFF" d="M672.549,589.331l17.744,0.416c1.602,0.04,2.908,0.4,3.918,1.089c1.006,0.687,1.775,1.561,2.297,2.619
					c0.521,1.057,0.832,2.232,0.938,3.522c0.098,1.288,0.041,2.573-0.174,3.855l-3.316,19.807c-0.07,0.4-0.314,0.596-0.736,0.581
					l-21.969-0.677c-1.258-0.039-2.213-0.436-2.881-1.196c-0.672-0.76-1.139-1.644-1.416-2.652c-0.271-1.001-0.41-2.003-0.41-3.004
					c0-0.997,0.041-1.759,0.131-2.272c0.158-0.953,0.459-2.006,0.902-3.152c0.441-1.145,1.01-2.197,1.719-3.155
					c0.701-0.963,1.549-1.769,2.539-2.424c0.998-0.652,2.111-0.963,3.367-0.93l10.506,0.279c1.092,0.031,2.006-0.199,2.74-0.679
					c0.738-0.484,1.16-1.065,1.275-1.746c0.096-0.561-0.023-1.126-0.348-1.695c-0.33-0.571-0.828-0.864-1.5-0.88l-16.537-0.418
					c-0.416-0.012-0.594-0.215-0.525-0.613l1.014-6.09C671.891,589.514,672.133,589.321,672.549,589.331z M686.689,613.979
					c0.42,0.016,0.66-0.18,0.727-0.579l0.602-3.597c0.072-0.396-0.105-0.605-0.527-0.613l-11.203-0.314
					c-0.588-0.018-1.107,0.197-1.559,0.646c-0.453,0.447-0.727,0.951-0.818,1.508c-0.117,0.677-0.004,1.276,0.326,1.804
					c0.336,0.535,0.875,0.808,1.627,0.83L686.689,613.979z"/>
				<path fill="#FFFFFF" d="M706.156,578.273l6.508,0.133c0.426,0.012,0.604,0.217,0.537,0.619l-6.006,35.735l-0.025,0.119
					l-1.027,6.136c-0.068,0.4-0.32,0.594-0.742,0.579l-6.482-0.196c-0.42-0.015-0.598-0.22-0.527-0.623l1.027-6.122l0.02-0.12
					l5.984-35.673C705.486,578.46,705.738,578.265,706.156,578.273z"/>
				<path fill="#FFFFFF" d="M770.428,618.264c-0.359,1.093-0.744,2.01-1.16,2.758c-0.414,0.743-0.92,1.34-1.521,1.788
					c-0.604,0.455-1.338,0.768-2.203,0.943c-0.863,0.181-1.947,0.252-3.252,0.211l-1.83-0.06c-0.738-0.019-1.51-0.104-2.316-0.255
					c-0.805-0.149-1.533-0.412-2.189-0.801c-0.654-0.386-1.18-0.941-1.58-1.665c-0.4-0.725-0.566-1.7-0.484-2.922l1.223-17.568
					c-0.014-0.211-0.109-0.342-0.297-0.408c-0.186-0.065-0.342-0.102-0.467-0.104c-0.135-0.004-0.305,0.022-0.508,0.078
					s-0.348,0.187-0.426,0.386l-4.725,17.467c-0.334,1.208-0.824,2.159-1.459,2.852c-0.646,0.691-1.35,1.21-2.129,1.551
					c-0.773,0.345-1.58,0.562-2.424,0.657c-0.836,0.097-1.625,0.131-2.354,0.111l-1.811-0.056c-1.291-0.042-2.33-0.174-3.113-0.404
					c-0.785-0.225-1.393-0.577-1.832-1.059c-0.436-0.479-0.73-1.097-0.885-1.852c-0.154-0.754-0.225-1.68-0.211-2.776l0.422-25.838
					c0.059-0.361,0.348-0.539,0.861-0.525l6.393,0.149c0.299,0.008,0.488,0.074,0.551,0.195c0.068,0.125,0.102,0.291,0.113,0.491
					l-0.451,20.703c-0.004,0.243,0.086,0.443,0.26,0.589c0.168,0.149,0.336,0.222,0.508,0.228c0.172,0.004,0.369-0.061,0.59-0.195
					c0.215-0.138,0.367-0.326,0.455-0.565l4.447-16.656c0.32-1.127,0.758-2.026,1.301-2.683c0.547-0.659,1.184-1.148,1.918-1.483
					c0.727-0.324,1.531-0.523,2.412-0.581c0.879-0.062,1.82-0.081,2.814-0.058l1.697,0.04c0.951,0.023,1.871,0.087,2.75,0.187
					c0.875,0.104,1.625,0.337,2.238,0.695c0.617,0.362,1.086,0.884,1.41,1.564c0.318,0.679,0.451,1.598,0.383,2.736l-1.221,16.808
					c0,0.247,0.088,0.447,0.26,0.593c0.176,0.146,0.348,0.224,0.52,0.228c0.174,0.006,0.373-0.058,0.596-0.195
					c0.219-0.138,0.373-0.324,0.459-0.567l6.611-20.677c0.076-0.199,0.172-0.364,0.281-0.483c0.105-0.122,0.313-0.178,0.619-0.171
					l6.502,0.156c0.527,0.011,0.77,0.164,0.721,0.444L770.428,618.264z"/>
				<path fill="#FFFFFF" d="M811.604,612.36c-0.42,2.464-1.006,4.492-1.748,6.08c-0.742,1.586-1.676,2.838-2.793,3.754
					c-1.115,0.913-2.439,1.532-3.967,1.858c-1.525,0.322-3.311,0.45-5.348,0.391l-11.781-0.366c-2.023-0.062-3.635-0.444-4.834-1.16
					c-1.207-0.713-2.105-1.622-2.715-2.729c-0.607-1.102-0.943-2.341-1.018-3.716c-0.074-1.378,0.014-2.773,0.258-4.204l1.84-10.768
					c0.248-1.469,0.75-2.784,1.502-3.958c0.754-1.169,1.66-2.161,2.727-2.979c1.068-0.813,2.264-1.431,3.598-1.854
					c1.33-0.42,2.703-0.614,4.113-0.581l13.412,0.316c1.199,0.028,2.373,0.263,3.525,0.705c1.152,0.438,2.139,1.07,2.961,1.891
					c0.816,0.828,1.428,1.817,1.836,2.957c0.41,1.148,0.48,2.461,0.229,3.941L811.604,612.36z M804.959,603.082
					c0.088-0.49-0.004-0.934-0.27-1.334c-0.268-0.399-0.643-0.732-1.129-1.013c-0.486-0.283-1.053-0.496-1.699-0.637
					c-0.645-0.138-1.295-0.22-1.959-0.233l-7.234-0.185c-0.568-0.011-1.152,0.027-1.74,0.111c-0.596,0.089-1.143,0.246-1.648,0.483
					c-0.502,0.23-0.945,0.552-1.32,0.953c-0.379,0.398-0.619,0.888-0.717,1.459l-1.68,9.806c-0.141,0.816-0.066,1.497,0.217,2.038
					c0.283,0.542,0.682,0.97,1.205,1.296c0.518,0.322,1.102,0.546,1.744,0.665c0.646,0.123,1.25,0.191,1.826,0.209l6.096,0.179
					c1.598,0.044,3.033-0.263,4.326-0.927c1.295-0.663,2.035-1.525,2.223-2.594l0.844-4.922L804.959,603.082z"/>
				<path fill="#FFFFFF" d="M837.041,593.202c0.453,0.016,0.641,0.223,0.568,0.637l-1.094,6.323c-0.07,0.416-0.33,0.617-0.779,0.606
					l-6.473-0.163c-0.406-0.008-0.779,0.084-1.135,0.285c-0.35,0.199-0.67,0.426-0.961,0.687c-0.295,0.259-0.535,0.547-0.723,0.85
					c-0.186,0.311-0.305,0.585-0.344,0.836l-3.682,21.319c-0.074,0.412-0.334,0.609-0.777,0.598l-7.506-0.233
					c-0.443-0.014-0.631-0.225-0.557-0.639l4.035-23.436c0.186-1.072,0.6-2.092,1.236-3.07c0.641-0.979,1.428-1.829,2.359-2.55
					c0.932-0.725,1.973-1.286,3.119-1.697c1.152-0.408,2.334-0.594,3.541-0.567L837.041,593.202z"/>
				<path fill="#FFFFFF" d="M843.479,581.131l6.92,0.142c0.457,0.012,0.645,0.223,0.572,0.641l-6.393,36.859l-0.021,0.126
					l-1.098,6.327c-0.072,0.416-0.336,0.612-0.789,0.601l-6.896-0.213c-0.447-0.012-0.637-0.227-0.564-0.641l1.094-6.315l0.02-0.127
					l6.369-36.794C842.768,581.326,843.029,581.119,843.479,581.131z"/>
				<path fill="#FFFFFF" d="M878.262,593.542l1.926-11.018c0.072-0.418,0.34-0.625,0.795-0.613l7.041,0.146
					c0.461,0.01,0.656,0.223,0.578,0.643l-7.635,43.675c-0.076,0.42-0.344,0.623-0.803,0.608l-21.316-0.658
					c-2.182-0.066-3.953-0.631-5.318-1.69c-1.367-1.061-2.412-2.403-3.135-4.002c-0.723-1.603-1.162-3.348-1.309-5.225
					c-0.16-1.873-0.076-3.689,0.221-5.425c0.43-2.45,1.049-4.678,1.883-6.699c0.822-2.017,1.867-3.736,3.109-5.142
					c1.25-1.405,2.717-2.489,4.396-3.238c1.686-0.752,3.621-1.106,5.803-1.055l12.965,0.307
					C877.92,594.165,878.191,593.964,878.262,593.542z M876.711,602.431c0.076-0.414-0.119-0.629-0.574-0.645l-7.484-0.188
					c-1.414-0.037-2.727,0.046-3.928,0.249c-1.205,0.197-2.283,0.609-3.236,1.229c-0.953,0.629-1.762,1.516-2.414,2.666
					c-0.656,1.15-1.148,2.64-1.469,4.463c-0.293,1.705-0.309,3.099-0.045,4.193c0.271,1.093,0.762,1.962,1.469,2.605
					c0.713,0.646,1.627,1.114,2.746,1.393c1.119,0.285,2.406,0.448,3.865,0.49l7.473,0.215c0.455,0.016,0.719-0.188,0.789-0.602
					L876.711,602.431z"/>
			</g>
			<g>
				<path fill="#FFFFFF" d="M205.998,492.325c3.374-8.162,5.088-18.004,5.088-29.313V353.718
					c-0.001-18.289-4.353-32.112-12.911-41.063c-8.435-8.819-20.479-12.89-35.735-12.135l-9.919,0.491
					c-15.056,0.746-26.772,5.913-34.892,15.341c-8.163,9.476-12.287,23.284-12.287,41.069v106.279
					c0,17.795,4.124,31.431,12.287,40.565c8.115,9.086,19.83,13.767,34.892,13.886l9.919,0.078c8.91,0.072,16.727-1.44,23.265-4.507
					l20.246,24.393l19.33-22.787L205.998,492.325z M132.873,469.175V350.806c0-5.08,1.518-9.369,4.642-13.119
					c3.169-3.807,7.266-5.764,12.534-5.984l14.879-0.615c5.317-0.219,9.48,1.413,12.715,4.995c3.196,3.545,4.752,7.773,4.754,12.913
					l-0.002,119.928c0.002,5.15-1.555,9.439-4.751,13.11c-3.235,3.718-7.396,5.522-12.716,5.526l-14.879,0.004
					c-5.271-0.002-9.365-1.791-12.536-5.464C134.389,478.484,132.873,474.256,132.873,469.175z"/>
				<path fill="#FFFFFF" d="M350.887,489.418c-10.069,0-10.069-3.838-10.069-5.286V408.81c0-18.696-4.193-32.484-12.439-40.959
					c-8.124-8.341-20.553-12.279-36.869-11.728l-41.605,1.402v31.069l44.265-1.136c14.646-0.376,16.534,8.205,16.534,15.722v11.476
					l-29.537,0.551c-27.345,0.51-41.644,18.561-41.644,52.208v6.116c0,16.222,3.394,28.002,10.106,35.024
					c6.613,6.928,17.113,10.504,31.274,10.619l23.677,0.186c6.488,0.053,12.008-2.385,16.449-7.269
					c4.486,4.948,9.463,7.475,14.843,7.518l18.622,0.147v-30.335L350.887,489.418z M268.556,476.501l-0.002-15.406
					c0-4.259,1.132-7.667,3.46-10.417c2.329-2.75,5.234-4.109,8.889-4.147l29.8-0.32v30.164c0,3.177-0.365,6.01-1.087,8.417
					c-1.072,2.527-4.774,3.061-7.712,3.061H278.26c-3.599,0-6.141-0.843-7.565-2.513
					C269.275,483.678,268.556,480.704,268.556,476.501z"/>
				<path fill="#FFFFFF" d="M471.094,419.351c16.527-7.831,24.953-24.264,24.953-48.869v-31.31c0-36.09-18.759-54.239-53.791-52.505
					l-56.869,2.817v230.521l31.841,0.25v-92.771l21.721-0.325l37.263,93.566l36.458,0.286L471.094,419.351z M462.963,337.458v37.201
					c0,6.988-1.333,12.05-3.953,15.043c-2.615,2.989-7.095,4.572-13.308,4.715l-28.474,0.656v-74.754l28.474-1.18
					c6.231-0.258,10.727,0.997,13.349,3.734C461.646,325.591,462.963,330.5,462.963,337.458z"/>
				<path fill="#FFFFFF" d="M634.055,277.173v67.409l-32.086,1.082c-18.844,0.635-32.988,5.742-42.119,15.15
					c-9.201,9.469-13.848,24.228-13.848,43.892v59.412c0,19.895,4.598,34.59,13.695,43.707c9.039,9.06,23.225,13.748,42.271,13.899
					l12.736,0.102c7.734,0.06,14.746-1.415,20.926-4.406v4.573l33.713,0.265V275.429L634.055,277.173z M579.836,470.582l0.002-73.21
					c-0.002-8.029,2.158-17.303,19.039-17.737l35.184-0.903l-0.006,94.992c0,3.379-1.287,6.541-3.939,9.655
					c-2.549,2.997-6.57,4.452-12.295,4.449h-18.945C581.994,487.831,579.836,478.612,579.836,470.582z"/>
				<path fill="#FFFFFF" d="M786.498,409.619l-11.438,0.203c-3.686,0.067-6.553-0.797-8.77-2.641
					c-1.945-1.612-2.885-4.296-2.885-8.208v-12.505c0-3.671,1.039-6.242,3.285-8.087c2.541-2.092,6.154-3.212,10.725-3.329
					l53.43-1.372l-0.002-35.725l-50.068,1.686c-17.451,0.588-30.895,4.798-40.025,12.495c-9.428,7.943-14.189,20.469-14.189,37.252
					v9.99c0,16.435,4.309,28.696,12.816,36.468c8.393,7.663,21.047,11.482,37.699,11.326l12.461-0.115
					c7.262-0.069,10.105,3.031,10.105,11.056v18.554c0,5.516-1.688,11.151-14.15,11.149l-57.291,0.003v34.908l53.916,0.429
					c45.871,0.365,55.619-26.096,55.619-48.354v-15.89C837.736,426.068,819.883,409.024,786.498,409.619z"/>
			</g>
		</g>
		<polygon fill="#1F272B" points="964.725,792.047 939.947,802.082 939.947,51.792 964.725,58.482 		"/>
		<polygon fill="#42445B" points="964.629,560.015 939.727,568.848 939.727,227.25 964.629,237.521 		"/>
		<polygon fill="#42445B" points="964.725,647.973 939.631,661.683 939.631,645.164 964.725,632.936 		"/>
	</g>
</g>
</svg>
