<?xml version="1.0" encoding="utf-8"?>
<!-- Generator: Adobe Illustrator 16.0.0, SVG Export Plug-In . SVG Version: 6.00 Build 0)  -->
<!DOCTYPE svg PUBLIC "-//W3C//DTD SVG 1.1//EN" "http://www.w3.org/Graphics/SVG/1.1/DTD/svg11.dtd">
<svg version="1.1" xmlns="http://www.w3.org/2000/svg" xmlns:xlink="http://www.w3.org/1999/xlink" x="0px" y="0px" width="1000px"
	 height="1000px" viewBox="0 0 1000 1000" enable-background="new 0 0 1000 1000" xml:space="preserve">
<g id="Layer_1">
	<g id="Layer_1_2_">
		<path opacity="0.3" fill="#010101" enable-background="new    " d="M506.923,887.086c178.551,0,323.328,22.359,323.328,49.955
			s-144.777,49.955-323.328,49.955c-178.55,0-323.31-22.359-323.31-49.955S328.373,887.086,506.923,887.086z"/>
		<g id="Layer_1_1_" display="none">
			<g display="inline">
				<g>
					<path opacity="0.2" fill="#010101" enable-background="new    " d="M883.458,650.888H122.486
						c0,0-103.073-15.01-108.374-120.368c0,0-36.849-156.294,149.288-184.388c0,0-73.77-219.514,166.818-309.066
						c0,0,201.926-59.704,300.292,151.029c0,0,87.796-64.99,187.869-1.749c0,0,87.813,59.68,59.729,173.843
						c0,0,112.384,15.799,115.896,151.029C994.02,511.201,1004.671,604.444,883.458,650.888z"/>
					<path fill="#FFFFFF" d="M878.026,634.626H117.071c0,0-103.09-15.025-108.35-120.368c0,0-36.864-156.289,149.264-184.371
						c0,0-73.746-219.506,166.819-309.075c0,0,201.942-59.695,300.291,151.029c0,0,87.78-64.973,187.901-1.748
						c0,0,87.765,59.696,59.697,173.86c0,0,112.383,15.806,115.895,151.004C988.588,494.924,999.239,588.199,878.026,634.626z"/>
					<path opacity="0.2" fill="#010101" enable-background="new    " d="M159.05,623.438h675.104c0,0,91.455-13.334,96.139-106.788
						c0,0,32.717-138.663-132.434-163.573c0,0,65.437-194.74-148.014-274.217c0,0-179.161-52.972-266.411,133.995
						c0,0-77.885-57.648-166.688-1.562c0,0-77.908,52.964-52.964,154.241c0,0-99.715,14.042-102.829,133.961
						C60.969,499.494,51.513,582.232,159.05,623.438z"/>
					<path fill="#FFFFFF" d="M163.88,609.047H839c0,0,91.421-13.058,96.104-104.479c0,0,32.701-135.636-132.434-160.012
						c0,0,65.436-190.495-147.995-268.226c0,0-179.145-51.809-266.412,131.06c0,0-77.917-56.396-166.721-1.512
						c0,0-77.893,51.809-52.98,150.882c0,0-99.715,13.708-102.813,131.062C65.783,487.801,56.31,568.751,163.88,609.047z"/>
					<path fill="#E4E6ED" d="M337.293,675.508c25,0,45.271,20.262,45.271,45.272c0,25.01-20.271,45.271-45.271,45.271
						c-25.002,0-45.281-20.261-45.281-45.271C292.012,695.77,312.291,675.508,337.293,675.508z"/>
					<path fill="#C2C4CE" d="M356.708,683.247c9.726,7.563,16.035,19.4,16.035,32.687c0,22.831-18.53,41.369-41.361,41.369
						c-7.408,0-14.351-1.951-20.384-5.382c6.992,5.431,15.773,8.666,25.328,8.666c22.847,0,41.345-18.521,41.345-41.337
						C377.686,703.818,369.246,690.338,356.708,683.247z"/>
					<path fill="#E4E6ED" d="M501.932,716.665c25.013,0,45.272,20.278,45.272,45.288c0,24.994-20.262,45.271-45.272,45.271
						c-25.01,0-45.278-20.275-45.278-45.271C456.651,736.943,476.921,716.665,501.932,716.665z"/>
					<path fill="#C2C4CE" d="M521.348,724.39c9.741,7.609,16.02,19.448,16.02,32.72c0,22.831-18.538,41.353-41.369,41.353
						c-7.407,0-14.334-1.936-20.359-5.35c6.992,5.415,15.768,8.649,25.32,8.649c22.863,0,41.351-18.538,41.351-41.337
						C542.308,744.943,533.854,731.48,521.348,724.39z"/>
					<path fill="#E4E6ED" d="M666.514,689.248c24.994,0,45.272,20.278,45.272,45.271c0,24.994-20.278,45.272-45.272,45.272
						c-24.992,0-45.288-20.278-45.288-45.272C621.226,709.526,641.521,689.248,666.514,689.248z"/>
					<path fill="#C2C4CE" d="M685.962,696.956c9.74,7.578,16.019,19.416,16.019,32.687c0,22.849-18.507,41.354-41.367,41.354
						c-7.399,0-14.345-1.937-20.359-5.334c6.977,5.397,15.789,8.651,25.303,8.651c22.896,0,41.387-18.509,41.387-41.338
						C706.924,717.527,698.469,704.046,685.962,696.956z"/>
				</g>
				<path opacity="0.3" fill="#010101" enable-background="new    " d="M506.923,887.086c178.551,0,323.328,22.359,323.328,49.955
					s-144.777,49.955-323.328,49.955c-178.55,0-323.31-22.359-323.31-49.955S328.373,887.086,506.923,887.086z"/>
			</g>
		</g>
	</g>
	<ellipse fill="#840696" cx="490.172" cy="409.69" rx="332.079" ry="363.481"/>
</g>
<g id="Layer_2">
	<ellipse fill="#CC0CDB" cx="472" cy="409.959" rx="332.5" ry="363.749"/>
	<ellipse fill="#FFFFFF" cx="472" cy="409.959" rx="314.047" ry="343.562"/>
	<path fill="#CC0CDB" d="M478.421,629.937l45.817-332.593h59.561l14.764-107.364H378.135l-14.762,107.364h57.014l-45.814,332.593
		H478.421z"/>
</g>
</svg>
