<?xml version="1.0" encoding="utf-8"?>
<!-- Generator: Adobe Illustrator 16.0.0, SVG Export Plug-In . SVG Version: 6.00 Build 0)  -->
<!DOCTYPE svg PUBLIC "-//W3C//DTD SVG 1.1//EN" "http://www.w3.org/Graphics/SVG/1.1/DTD/svg11.dtd">
<svg version="1.1" id="Layer_1" xmlns="http://www.w3.org/2000/svg" xmlns:xlink="http://www.w3.org/1999/xlink" x="0px" y="0px"
	 width="1600px" height="900px" viewBox="0 0 1600 900" enable-background="new 0 0 1600 900" xml:space="preserve">
<path fill="#0B0B0B" d="M768.558,290.73l-11.907,0.418l-11.908-0.418c0,0,2.528,4.635,3.792,5.899l8.014,0.205v0.005l0.102-0.003
	l0.101,0.003v-0.005l8.015-0.205C766.031,295.365,768.558,290.73,768.558,290.73z"/>
<path fill="#9B9A9A" d="M736.106,257.444c0,0,18.223,1.791,38.868-0.104c0,0-0.948,2-0.948,3.476c0,0,0.211,1.685-0.211,2.949
	c0,0-2.106,1.896,0,4.002c0,0,0.843,1.054-0.842,2.317c0,0-1.054,1.896,0.632,2.106c0,0,1.475,2.212-0.316,2.634
	c0,0-1.159,1.264,0,2.528c0,0,2.317,1.37,0.316,2.528c0,0-1.264,1.159-0.21,2.844c0,0,1.685,0.105,0.21,2.106
	c0,0-1.896,2.107-2.633,3.581c0,0-1.58,2.213-3.16,2.529c0,0-19.698,0.526-23.068-0.211c0,0-3.16-1.475-4.318-3.581
	c0,0-0.632-0.738-1.58-1.475c0,0-0.527-0.316,0.527-1.159c0,0-0.316-1.475-1.264-2.212c0,0-0.421-1.686,1.053-2.423
	c0,0,1.476-0.843-0.632-2.528c0,0-0.737-0.843,0.105-1.896c0,0,1.58-0.948-0.105-2.739c0,0-1.475-1.369,0.211-2.844
	c0,0,1.053-1.685-0.949-3.055c0,0-0.21-5.583-0.21-6.425c0-0.843,0,0.842,0,0.842S736.738,257.761,736.106,257.444z"/>
<path fill="#AFAFB0" d="M739.266,286.376c0,0,22.612,1.544,32.724-0.281c0,0,2.106-1.124,2.247-2.668c0,0,0-1.264-2.668-0.702
	c0,0-16.994,1.966-19.802,1.826c0,0-10.252,0.702-13.062,0.562C738.705,285.112,738.563,286.517,739.266,286.376z"/>
<path fill="#AFAFB0" d="M773.254,276.896c0,0,2.387,2.106,0,2.949c0,0-24.719,4.073-34.409,3.09c0,0-1.826-1.826-0.14-2.809
	C738.705,280.126,747.412,282.092,773.254,276.896z"/>
<path fill="#AFAFB0" d="M773.254,271.91c0,0,2.106,1.826-0.141,2.809c0,0-10.674,2.949-33.566,3.371c0,0-2.528-1.193-0.421-3.02
	C739.125,275.07,760.473,275.422,773.254,271.91z"/>
<path fill="#AFAFB0" d="M773.254,267.135c0,0,1.544,1.405,0.28,2.388c0,0-20.926,3.512-34.971,3.371c0,0-0.983-1.405-0.421-2.388
	C738.143,270.506,763.423,269.523,773.254,267.135z"/>
<path fill="#AFAFB0" d="M773.815,263.624c0,0-0.281,1.405-1.404,1.405c0,0-27.808,1.264-33.707,2.949c0,0-0.983-0.562-0.983-7.583
	c0,0-0.421-2.81-1.264-2.81c0,0,28.37,1.545,38.341,0.141c0,0-0.702,1.826-0.702,2.529
	C774.096,260.254,774.377,262.922,773.815,263.624z"/>
<path fill="#DFE3E7" d="M797.411,184.133c0,23.153-29.753,45.641-41.922,41.922c-15.169-4.634-41.923-18.769-41.923-41.922
	s18.769-41.922,41.923-41.922C778.641,142.21,797.411,160.979,797.411,184.133z"/>
<path opacity="0.01" fill="#070707" d="M755.488,141.789c-23.154,0-41.923,18.769-41.923,41.922s26.754,37.288,41.923,41.923
	c12.169,3.718,41.922-18.77,41.922-41.923S778.641,141.789,755.488,141.789z M755.698,225.458
	c-13.872-4.238-38.341-17.166-38.341-38.341s17.166-38.341,38.341-38.341c21.176,0,38.341,17.166,38.341,38.341
	S766.828,228.86,755.698,225.458z"/>
<g opacity="0.05">
	<path fill="#707071" d="M751.621,258.395c-9.245-0.132-15.431-0.74-15.431-0.74c0.632,0.316,1.475,3.792,1.475,3.792
		s0-0.526,0-0.843c0,0.843,0.211,6.426,0.211,6.426c2.001,1.369,0.948,3.054,0.948,3.054c-1.686,1.475-0.21,2.844-0.21,2.844
		c1.685,1.791,0.105,2.739,0.105,2.739c-0.843,1.053-0.105,1.895-0.105,1.895c2.107,1.686,0.632,2.529,0.632,2.529
		c-1.475,0.736-1.053,2.422-1.053,2.422c0.948,0.738,1.264,2.212,1.264,2.212c-1.053,0.842-0.527,1.158-0.527,1.158
		c0.948,0.737,1.58,1.475,1.58,1.475c1.159,2.106,4.318,3.581,4.318,3.581c1.048,0.229,3.673,0.336,6.794,0.375V258.395z"/>
	<path fill="#707071" d="M773.689,280.091c2.001-1.159-0.316-2.529-0.316-2.529c-1.158-1.264,0-2.527,0-2.527
		c1.791-0.421,0.316-2.633,0.316-2.633c-1.686-0.211-0.632-2.106-0.632-2.106c1.686-1.264,0.843-2.317,0.843-2.317
		c-2.106-2.107,0-4.003,0-4.003c0.421-1.264,0.211-2.949,0.211-2.949c0-1.475,0.948-3.476,0.948-3.476
		c-5.405,0.496-10.642,0.74-15.431,0.83v32.924c4.512-0.051,8.268-0.152,8.268-0.152c1.58-0.316,3.161-2.528,3.161-2.528
		c0.737-1.474,2.633-3.581,2.633-3.581c1.474-2.001-0.21-2.107-0.21-2.107C772.425,281.25,773.689,280.091,773.689,280.091z"/>
</g>
<rect x="751.622" y="258.076" opacity="0.08" fill="#A09F9F" width="8.005" height="32.864"/>
<g>
	<path fill="#EAEAEA" d="M777.887,252.499c-13.576,2.135-22.727,1.581-22.727,1.581l0.004,0.064
		c-2.335,0.071-10.629,0.153-22.054-1.682c0,0-1.095,0.484,0.061,2.871c0,0,2.099,1.178,2.048,2.019c0,0,11.811,2.164,20.301,1.813
		l0.002-0.036c8.484,0.365,20.237-1.748,20.237-1.748c-0.049-0.841,2.055-2.012,2.055-2.012
		C778.979,252.986,777.887,252.499,777.887,252.499z"/>
	<path fill="#FFFFFF" d="M792.144,201.197h-36.046h-1.242H718.81c0,0-1.474-0.211,1.054,2.949c0,0,9.901,20.646,10.744,29.915
		c0,0,2.528,17.906,2.107,18.749c0,0,19.342,2.465,22.763,1.458c3.421,1.007,22.763-1.458,22.763-1.458
		c-0.422-0.843,2.107-18.749,2.107-18.749c0.842-9.27,10.744-29.915,10.744-29.915C793.618,200.986,792.144,201.197,792.144,201.197
		z"/>
	<path fill="#EAEAEA" d="M719.021,201.829h36.046h1.242h36.045c0,0,0.167-0.023,0.292,0.065c0.422-1.009-0.293-0.908-0.293-0.908
		h-36.045h-1.243h-36.045c0,0-0.716-0.101-0.292,0.908C718.854,201.805,719.021,201.829,719.021,201.829z"/>
</g>
<g opacity="0.01">
	<path fill="#2D2D2D" d="M741.931,258.052c-3.487-0.196-5.53-0.396-5.53-0.396c0.632,0.316,1.475,3.792,1.475,3.792s0-0.526,0-0.843
		c0,0.843,0.21,6.426,0.21,6.426c2.002,1.369,0.948,3.054,0.948,3.054c-1.685,1.475-0.211,2.844-0.211,2.844
		c1.686,1.791,0.106,2.739,0.106,2.739c-0.843,1.053-0.106,1.895-0.106,1.895c2.107,1.686,0.633,2.529,0.633,2.529
		c-1.475,0.736-1.054,2.422-1.054,2.422c0.948,0.738,1.264,2.212,1.264,2.212c-1.054,0.842-0.527,1.158-0.527,1.158
		c0.948,0.737,1.58,1.475,1.58,1.475c0.299,0.545,0.733,1.047,1.211,1.493V258.052z"/>
	<path fill="#2D2D2D" d="M773.899,280.091c2.001-1.159-0.316-2.529-0.316-2.529c-1.159-1.264,0-2.527,0-2.527
		c1.791-0.421,0.316-2.633,0.316-2.633c-1.685-0.211-0.632-2.106-0.632-2.106c1.686-1.264,0.843-2.317,0.843-2.317
		c-2.107-2.107,0-4.003,0-4.003c0.421-1.264,0.21-2.949,0.21-2.949c0-1.475,0.948-3.476,0.948-3.476
		c-1.867,0.172-3.714,0.312-5.53,0.428v32.286c0.88-0.735,1.527-1.641,1.527-1.641c0.737-1.474,2.633-3.581,2.633-3.581
		c1.475-2.001-0.21-2.107-0.21-2.107C772.635,281.25,773.899,280.091,773.899,280.091z"/>
</g>
<path opacity="0.4" fill="#FFFFFF" d="M729.322,168.977c0,0-0.032-10.851,6.289-0.659c0,0-6.319,7.359-1.913,28.456
	C733.698,196.773,727.864,185.654,729.322,168.977z"/>
</svg>
