<?xml version="1.0" encoding="utf-8"?>
<!-- Generator: Adobe Illustrator 16.0.0, SVG Export Plug-In . SVG Version: 6.00 Build 0)  -->
<!DOCTYPE svg PUBLIC "-//W3C//DTD SVG 1.1//EN" "http://www.w3.org/Graphics/SVG/1.1/DTD/svg11.dtd">
<svg version="1.1" xmlns="http://www.w3.org/2000/svg" xmlns:xlink="http://www.w3.org/1999/xlink" x="0px" y="0px" width="2400px"
	 height="2400px" viewBox="0 0 2400 2400" enable-background="new 0 0 2400 2400" xml:space="preserve">
<g id="Layer_1">
</g>
<g id="Layer_2">
	<path fill="#28282A" d="M2208.402,1608.555c0,0-44.631,389.728-99.577,509.897
		C2108.825,2118.452,2218.705,1829.4,2208.402,1608.555z"/>
	<polygon fill="#333F4C" points="1086.897,2401.001 1109.394,1744.959 1083.688,1673.507 865.159,1595.559 749.464,1569.584 
		665.915,2401.001 	"/>
	<path fill="#28282A" d="M180.656,1624.794c0,0-73.912,25.992-67.484,175.376c0,0-25.704,35.727-32.138,123.415
		c0,0-41.775,116.919-38.558,188.371c0,0,0,58.462-16.061,116.919c0,0-25.718,152.638-19.292,172.126h311.725l25.706-233.832
		l-99.621-461.184L180.656,1624.794z"/>
	<path fill="#28282A" d="M2394.841,2401.001c0,0,0-51.961-3.218-113.67c0,0-6.426-116.913-22.494-149.392
		c0,0-51.418-185.124-61.056-224.092c0,0-38.568-120.163-38.568-142.906c0,0,0-116.916-12.852-136.402
		c0,0-9.643-38.98-44.989-22.738l-93.204,12.993l-109.255,493.658l-22.494,237.081l-12.859,45.468H2394.841z"/>
	<polyline fill="#29313A" points="1074.045,1684.873 1109.394,1767.697 1125.463,1751.461 1085.294,1673.507 	"/>
	<path fill="#29313A" d="M1084.939,1674.252c0,0-52.188,43.341-47.487,89.033c0,0-255.733-136.097-293.999-250.29
		c0,0,7.277-94.338,21.292-117.982L1084.939,1674.252z"/>
	<path fill="#333F4C" d="M1054.534,1671.904c0,0-33.509,30.731-29.572,67.761c0,0-225.175-117.253-256.055-209.949
		c0,0-0.728-86.376,10.302-105.472L1054.534,1671.904z"/>
	<path fill="#29282A" d="M701.263,1433.176l-443.479,168.887l-70.694,12.985c0,0-80.345,233.839,102.831,623.572l-22.494,162.381
		h507.755c0,0-3.213-690.956,54.633-781.893C838.504,1605.444,701.263,1433.176,701.263,1433.176z"/>
	<path fill="#29282A" d="M1523.945,1400.699c0,0,366.353,77.941,568.818,175.378c0,0,99.617,19.481,118.9,32.478
		c0,0-44.998,396.22-138.189,623.566c0,0,16.068,129.911,0,168.88h-453.118L1523.945,1400.699z"/>
	<path fill="#29313A" d="M1045.118,2401.001c0,0-6.419-191.322,0-214.422c0,0,12.852-151.75,3.225-194.637
		c0,0-9.644-148.439,48.2-217.71c0,0,44.987-56.071,44.987-82.469c0,0,93.198-49.493,99.625-65.979c0,0,9.643-9.892,83.551-145.14
		c0,0,64.27-85.771,77.129-128.663l48.207,155.047l96.402,893.973H1045.118z"/>
	<path fill="#333F4C" d="M1061.197,2401.001c0,0-6.427-188.356,0-211.105c0,0,12.856-149.4,3.211-191.613
		c0,0-9.638-146.149,48.207-214.352c0,0,44.995-55.205,44.995-81.197c0,0,93.192-48.708,99.629-64.941
		c0,0,9.636-9.752,83.544-142.91c0,0,64.27-84.436,77.128-126.658l48.199,152.644l96.414,880.134H1061.197z"/>
	<path fill="#2C2C2D" d="M563.083,2401.001l-25.719-766.462l118.91-32.477l-41.78-133.162l234.603-146.953
		c0,0,17.676,102.297,24.102,121.793c0,0-22.496,77.939-28.922,97.42c0,0-69.095,252.517-69.095,859.841H563.083z"/>
	<path fill="#29313A" d="M1144.735,1689.755c0,0,61.058,29.222,67.492,74.688c0,0,232.992-209.469,242.637-329.643
		c0,0-30.541-63.327-49.819-82.818L1144.735,1689.755z"/>
	<path fill="#333F4C" d="M1173.66,1680.009c0,0,39.903,21.567,44.988,58.454c0,0,220.536-202.913,228.176-300.414
		c0,0-21.675-54.021-36.95-69.825L1173.66,1680.009z"/>
	<g>
		<path fill="#8D8D8D" d="M1148.272,2248.915c10.657,10.417,10.939,27.569,0.643,38.317c-10.298,10.757-27.282,11.016-37.917,0.599
			c-10.652-10.42-10.936-27.571-0.646-38.319C1120.646,2238.75,1137.63,2238.498,1148.272,2248.915z"/>
		<path fill="#39363A" d="M1144.339,2253.024c8.386,8.208,8.633,21.751,0.503,30.22c-8.126,8.476-21.513,8.68-29.914,0.474
			c-8.394-8.214-8.62-21.749-0.502-30.218C1122.552,2245.014,1135.943,2244.805,1144.339,2253.024z"/>
		<g>
			<path fill="#969795" d="M1142.649,2254.784c7.434,7.272,7.631,19.261,0.449,26.768c-7.193,7.501-19.049,7.681-26.484,0.407
				c-7.438-7.271-7.635-19.264-0.454-26.758C1123.358,2247.684,1135.218,2247.517,1142.649,2254.784z"/>
			<path fill="#242026" d="M1127.67,2270.427c1.266,1.218,1.292,3.243,0.073,4.512c-1.219,1.269-3.213,1.291-4.473,0.069
				c-1.255-1.226-1.295-3.254-0.082-4.517C1124.412,2269.223,1126.414,2269.183,1127.67,2270.427z"/>
			<path fill="#242026" d="M1135.984,2261.741c1.255,1.229,1.287,3.25,0.078,4.51c-1.222,1.268-3.218,1.312-4.473,0.075
				c-1.255-1.228-1.299-3.25-0.086-4.519C1132.73,2260.539,1134.721,2260.513,1135.984,2261.741z"/>
			<path fill="#242026" d="M1136.125,2270.285c1.246,1.225,1.285,3.25,0.077,4.52c-1.209,1.26-3.216,1.3-4.471,0.067
				c-1.255-1.224-1.28-3.24-0.067-4.509C1132.874,2269.092,1134.87,2269.063,1136.125,2270.285z"/>
			<path fill="#242026" d="M1127.525,2261.874c1.253,1.23,1.3,3.241,0.083,4.519c-1.222,1.26-3.215,1.292-4.477,0.058
				c-1.255-1.227-1.289-3.235-0.074-4.51C1124.274,2260.681,1126.271,2260.646,1127.525,2261.874z"/>
		</g>
	</g>
	<g>
		<path fill="#8D8D8D" d="M1158.536,1830.387c-5.77,9.064-20.544,9.836-32.981,1.742c-12.454-8.109-17.844-22.024-12.066-31.086
			c5.772-9.064,20.54-9.825,32.975-1.742C1158.93,1807.414,1164.318,1821.334,1158.536,1830.387z"/>
		<path fill="#39363A" d="M1153.778,1827.287c-4.551,7.152-16.202,7.764-26.01,1.37c-9.81-6.392-14.067-17.36-9.516-24.509
			c4.549-7.143,16.205-7.758,26.005-1.367C1154.078,1809.166,1158.332,1820.141,1153.778,1827.287z"/>
		<g>
			<path fill="#969795" d="M1151.737,1825.96c-4.031,6.331-14.346,6.871-23.039,1.207c-8.685-5.658-12.45-15.376-8.418-21.703
				c4.033-6.321,14.352-6.87,23.036-1.202C1152.012,1809.921,1155.777,1819.642,1151.737,1825.96z"/>
			<path fill="#242026" d="M1133.639,1814.166c-0.667,1.076-2.416,1.169-3.885,0.217c-1.465-0.961-2.093-2.601-1.427-3.672
				c0.684-1.06,2.42-1.164,3.884-0.208C1133.681,1811.46,1134.326,1813.105,1133.639,1814.166z"/>
			<path fill="#242026" d="M1143.689,1820.71c-0.67,1.082-2.423,1.165-3.887,0.213c-1.47-0.956-2.103-2.6-1.42-3.663
				c0.688-1.068,2.416-1.165,3.884-0.216C1143.731,1818.002,1144.373,1819.645,1143.689,1820.71z"/>
			<path fill="#242026" d="M1136.334,1821.111c-0.679,1.059-2.424,1.154-3.884,0.197c-1.475-0.955-2.116-2.602-1.428-3.663
				c0.682-1.077,2.423-1.165,3.884-0.197C1136.387,1818.4,1137.009,1820.027,1136.334,1821.111z"/>
			<path fill="#242026" d="M1140.991,1813.778c-0.683,1.078-2.411,1.171-3.879,0.222c-1.473-0.969-2.107-2.606-1.423-3.672
				c0.686-1.074,2.423-1.167,3.886-0.213C1141.035,1811.068,1141.682,1812.704,1140.991,1813.778z"/>
		</g>
	</g>
	<path fill="#C7A99F" d="M832.229,1174.986c0,0,22.682,280.114,28.914,307.719l256.573,270.369l274.583-386.475
		c0,0-3.132-164.007,3.101-181.876c0,0-1.557-64.949-1.557-81.197c0,0-9.347,99.06-127.917,167.259
		c0,0-98.288,73.087-268.331,40.602C997.595,1311.388,879.028,1278.915,832.229,1174.986z"/>
	<path fill="#C2A29A" d="M1428.753,1030.313"/>
	<path fill="#C2A29A" d="M1416.974,1042.493c0,0,5.494-12.181,24.679-2.427c0,0,24.299,9.737,46.034-13.396
		c0,0,10.23-15.841,21.73-85.256c0,0,25.582-161.987,21.748-177.818c0,0-35.81-37.751-62.661,20.704
		C1468.504,784.3,1437.43,803.79,1416.974,1042.493z"/>
	<path fill="#BA9893" d="M1454.057,932.884c0,0-7.232,20.705,0,29.237c0,0,7.231-3.66,8.443-21.926c0,0,12.045-9.748,20.479,3.648
		c0,0,7.228-3.648,7.228-12.173C1490.207,931.67,1481.773,907.306,1454.057,932.884z"/>
	<path fill="#BA9893" d="M1497.438,965.77h-7.231c0,0,8.436-17.052,13.259-15.832
		C1503.466,949.938,1502.261,960.896,1497.438,965.77z"/>
	<path fill="#BA9893" d="M1513.106,880.516c0,0-24.099-53.592-21.69-66.979c0,0,9.638-29.236,22.898-28.014
		C1514.314,785.522,1517.929,846.421,1513.106,880.516z"/>
	<path fill="#C2A29A" d="M784.269,1078.224c0,0-17.354-13.783-35.427-4.039c0,0-22.894,9.746-43.379-13.395
		c0,0-9.641-15.833-20.487-85.255c0,0-24.106-161.979-20.486-177.811c0,0,33.742-37.76,59.042,20.704
		C723.532,818.428,764.988,839.511,784.269,1078.224z"/>
	<path fill="#BA9893" d="M741.619,967.012c0,0,7.224,20.704,0,29.228c0,0-7.233-3.652-8.442-21.919c0,0-12.047-9.751-20.489,3.652
		c0,0-7.225-3.652-7.225-12.184C705.463,965.789,713.896,941.434,741.619,967.012z"/>
	<path fill="#BA9893" d="M698.231,999.89h7.231c0,0-8.44-17.047-13.256-15.825C692.207,984.065,693.416,995.02,698.231,999.89z"/>
	<path fill="#BA9893" d="M682.56,914.649c0,0,24.103-53.603,21.701-66.992c0,0-9.644-29.229-22.896-28.016
		C681.365,819.642,677.743,880.542,682.56,914.649z"/>
	<path fill="#BB9E9A" d="M748.41,909.765c0,0,45.059,233.311,66.404,260.228c0,0,71.138,132.357,201.55,143.578
		c0,0,156.511,24.678,220.536-24.677c0,0,111.46-42.621,154.132-136.841c0,0,23.713-134.608,33.196-145.828
		c0,0,37.943-226.577,52.171-228.818c0,0-21.339-197.423-59.279-244.532c0,0-52.172-148.063-170.736-143.574
		c0,0-258.475-40.382-369.919,17.948C876.464,407.248,708.104,447.626,748.41,909.765z"/>
	<path fill="#C7A6A0" d="M743.05,895.872c0,0,45.787,238.219,67.484,265.705c0,0,72.307,135.133,204.863,146.596
		c0,0,159.08,25.189,224.152-25.206c0,0,113.28-43.516,156.665-139.72c0,0,24.097-137.43,33.74-148.89
		c0,0,38.558-231.342,53.024-233.633c0,0-21.691-201.572-60.255-249.664c0,0-53.026-151.18-173.534-146.597
		c0,0-262.711-41.229-375.992,18.324C873.198,382.788,702.074,424.021,743.05,895.872z"/>
	<path fill="#C3A39F" d="M894.893,1261.532c0,0-85.567-55.901-107.257-168.835c0,0-13.259-54.731-14.461-66.372
		c0,0,79.535,0,138.585,147.875C911.76,1174.2,912.97,1256.874,894.893,1261.532z"/>
	<path fill="#C3A39F" d="M1293.78,1258.68c0,0,85.559-36.096,109.665-157.188c0,0,14.458-64.041,15.665-75.689
		c0,0-86.472-0.006-145.513,147.871C1273.598,1173.672,1275.701,1254.026,1293.78,1258.68z"/>
	<path fill="#A27965" d="M741.331,884.139c0,0,26.519-48.717,33.744-87.691c0,0,9.644-151.012,0-182.676
		c0,0,77.13-182.689,178.355-209.484c0,0,82.957-45.177,340.852,47.381c0,0,112.476,28.262,110.075,123.261
		c0,0,7.017,148.452,21.471,187.42c0,0,28.93,114.482,24.107,148.589l26.502-17.053c0,0,4.83-112.049,28.933-124.223
		c0,0,26.514,17.048,28.918,26.785c2.412,9.746,4.831-68.193-4.821-124.221c0,0-12.045-143.71-106.047-275.246
		c0,0-96.41-146.147-296.449-160.764c0,0-183.175-31.66-272.362,121.793l-19.272,19.485c0,0-101.234,26.791-139.798,146.146
		c0,0-31.326,138.841-28.92,192.428l9.642,17.057l-14.465,58.456l26.517,75.508C688.311,867.091,729.284,847.602,741.331,884.139z"
		/>
	<path fill="#A77D6D" d="M887.766,378.854c0,0,16.598-101.851,140.789-131.716C1018.167,250.294,922.149,287.395,887.766,378.854z"
		/>
	<path fill="#A77D6D" d="M904.286,385.065c0,0,26.088-114.426,169.208-139.309C1073.493,245.756,954.261,273.869,904.286,385.065z"
		/>
	<path fill="#A77D6D" d="M924.31,386.994c0,0,35.657-123.103,193.292-141.024C1117.601,245.97,985.813,268.949,924.31,386.994z"/>
	<path fill="#A77D6D" d="M945.192,390.563c0,0,51.978-135.672,231.826-140.676C1177.019,249.887,1025.904,263.107,945.192,390.563z"
		/>
	<path fill="#A77D6D" d="M980.81,388.982c0,0,57.361-131.986,235.604-128.934C1216.413,260.048,1066.248,266.41,980.81,388.982z"/>
	<path fill="#A77D6D" d="M1027.777,376.414c0,0,63.103-115.436,225.25-97.686C1253.026,278.728,1115.694,271.913,1027.777,376.414z"
		/>
	<path fill="#A77D6D" d="M1066.566,374.688c0,0,75.178-107.801,234.437-72.315C1301.003,302.373,1165.224,280.484,1066.566,374.688z
		"/>
	<path fill="#A77D6D" d="M1114.435,373.614c0,0,79.959-95.143,227.086-47.967C1341.521,325.647,1215.385,293.316,1114.435,373.614z"
		/>
	<path fill="#A77D6D" d="M1161.438,378.996c0,0,75.3-79.589,202.447-30.329C1363.885,348.667,1254.455,313.584,1161.438,378.996z"/>
	<path fill="#A77D6D" d="M1218.171,384.271c0,0,74.892-58.511,177.806,0.463C1395.977,384.734,1306.463,340.255,1218.171,384.271z"
		/>
	<path fill="#A77D6D" d="M1293.203,399.297c0,0,64.125-30.986,130.444,28.742C1423.647,428.039,1364.91,381.095,1293.203,399.297z"
		/>
	<path fill="#A77D6D" d="M864.348,380.346c0,0,5.621-88.729,105.263-119.738C969.61,260.608,889.82,296.526,864.348,380.346z"/>
	<path fill="#A77D6D" d="M702.135,539.214c0,0,6.896-111.693,128.88-150.746C831.015,388.468,733.348,433.696,702.135,539.214z"/>
	<path fill="#A77D6D" d="M706.162,580.625c0,0,7.319-130.65,135.724-176.398C841.886,404.227,739.068,457.176,706.162,580.625z"/>
	<path fill="#A77D6D" d="M711.718,627.854c0,0,7.918-155.707,145.848-210.301C857.565,417.552,747.11,480.726,711.718,627.854z"/>
	<path fill="#A77D6D" d="M720.903,695.855c0,0-5.527-183.09,150.783-260.411C871.686,435.444,748.366,520.132,720.903,695.855z"/>
	<path fill="#7D6755" d="M1068.651,1004.611c0,0-18.811-15.677-52.213-1.962C1016.438,1002.649,1051.935,1007.551,1068.651,1004.611
		z"/>
	<path fill="#7D6755" d="M1156.743,995.167c0,0-21.12-10.43-51.379,8.389C1105.364,1003.556,1140.916,1001.058,1156.743,995.167z"/>
	<path fill="#704F47" d="M1140.731,738.025c0,0,50.619-21.927,79.53-17.054c0,0,91.593-36.538,137.391,21.927
		c0,0-2.411-48.725-48.211-70.644c0,0-122.919-9.739-171.12,7.309C1138.321,679.563,1155.197,720.972,1140.731,738.025z"/>
	<path fill="#72534D" d="M1175.617,719.089c0,0-0.754-27.812,30.612-42.124C1206.229,676.966,1180.536,690.582,1175.617,719.089z"/>
	<path fill="#72534D" d="M1190.073,719.089c0,0-0.657-24.875,27.388-37.679C1217.461,681.411,1194.489,693.585,1190.073,719.089z"/>
	<path fill="#72534D" d="M1205.741,720.31c0,0-0.666-24.882,27.384-37.683C1233.125,682.626,1210.151,694.808,1205.741,720.31z"/>
	<path fill="#72534D" d="M1218.211,717.441c0,0,3.873-24.577,33.774-31.945C1251.985,685.496,1227.181,693.192,1218.211,717.441z"/>
	<path fill="#72534D" d="M1240.023,712.535c0,0,5.535-23.935,35.479-29.062C1275.503,683.473,1250.544,689.294,1240.023,712.535z"/>
	<path fill="#72534D" d="M1262.129,708.257c0,0,8.208-18.488,33.254-17.848C1295.383,690.409,1274.273,691.129,1262.129,708.257z"/>
	<path fill="#72534D" d="M1284.54,703.726c0,0,10.792-13.57,31.48-7.55C1316.021,696.176,1298.318,692.146,1284.54,703.726z"/>
	<path fill="#72534D" d="M1299.807,704.92c0,0,14.305-9.719,32.283,2.242C1332.09,707.162,1316.365,697.997,1299.807,704.92z"/>
	<path fill="#C2A29A" d="M1037.004,825.711c0,0,9.748,47.791-42.301,133.967c0,0,29.818-34.101,39.742-17.056
		c0,0,17.885-48.703,15.898-68.201c0,0,2.53-44.258-3.967-63.32L1037.004,825.711z"/>
	<path fill="#EBE1DD" d="M1183.31,797.296c0,0,58.652-72.674,109.262,1.621c0,0-25.306,40.187-101.232,12.99
		C1191.34,811.907,1172.066,807.033,1183.31,797.296z"/>
	<path fill="#EBE1DD" d="M980.858,815.152c0,0,8.838-7.624,1.202-18.236c0,0-60.657-54.023-107.249,6.869
		c0,0,15.26,25.296,75.512,21.927C950.324,825.711,968.812,822.386,980.858,815.152z"/>
	<path fill="#474F3C" d="M955.746,802.562c0,14.464-11.595,26.187-25.904,26.187c-14.316,0-25.914-11.722-25.914-26.187
		c0-14.457,11.598-26.185,25.914-26.185C944.151,776.376,955.746,788.104,955.746,802.562z"/>
	<path fill="#090911" d="M936.766,802.562c0,3.873-3.106,7.001-6.924,7.001c-3.833,0-6.932-3.128-6.932-7.001
		c0-3.866,3.098-7.001,6.932-7.001C933.66,795.561,936.766,798.696,936.766,802.562z"/>
	<path fill="#EEE9E8" d="M928.933,795.869c0,2.522-2.02,4.563-4.519,4.563c-2.496,0-4.515-2.042-4.515-4.563
		c0-2.522,2.02-4.574,4.515-4.574C926.914,791.295,928.933,793.346,928.933,795.869z"/>
	<path fill="#474F3C" d="M1266.667,794.653c0,14.457-11.606,26.185-25.911,26.185c-14.309,0-25.904-11.728-25.904-26.185
		c0-14.466,11.596-26.184,25.904-26.184C1255.061,768.469,1266.667,780.187,1266.667,794.653z"/>
	<path fill="#090911" d="M1247.683,794.653c0,3.872-3.102,7.002-6.927,7.002c-3.831,0-6.928-3.131-6.928-7.002
		c0-3.87,3.097-7.001,6.928-7.001C1244.581,787.652,1247.683,790.783,1247.683,794.653z"/>
	<path fill="#EEE9E8" d="M1239.852,787.958c0,2.517-2.025,4.567-4.518,4.567c-2.494,0-4.521-2.05-4.521-4.567
		c0-2.523,2.026-4.572,4.521-4.572C1237.826,783.386,1239.852,785.435,1239.852,787.958z"/>
	<path fill="#C2A29A" d="M1012.981,801.353c0,0,7.237-21.926,16.881-19.489c9.635,2.436-9.644-2.437-9.644-2.437
		s-19.283-41.401-60.252-38.972C959.967,740.455,1020.219,779.427,1012.981,801.353z"/>
	<path fill="#C2A29A" d="M1020.444,1008.395c0,0,91.588,12.174,115.691,0C1136.135,1008.395,1085.526,1032.756,1020.444,1008.395z"
		/>
	<path fill="#BB9E9A" d="M1181.701,776.994c0,0,48.21-55.208,122.925,17.866l-10.846,5.279c0,0-48.604-65.362-115.284,2.844
		L1181.701,776.994z"/>
	<path fill="#BB9B95" d="M879.625,1245.085c0,0,30.523,110.423,101.234,126.657c0,0,179.959,12.988,208.886-3.245
		c0,0,44.979-11.363,51.41-21.11c0,0,24.095,3.251,53.008-87.683c0,0-75.504,43.839-112.461,47.087c0,0-157.466,9.737-199.233,0
		C982.467,1306.791,906.94,1287.309,879.625,1245.085z"/>
	<path fill="#BB9B95" d="M972.82,1434.8c0,0,32.131,92.565,57.848,100.688c0,0,30.529,3.243,33.74-9.752
		c0,0-81.941-66.564-77.124-102.3L972.82,1434.8z"/>
	<path fill="#BB9E9A" d="M986.479,808.657c0,0-54.629,35.729-110.869-2.436C875.61,806.222,938.272,869.549,986.479,808.657z"/>
	<path fill="#BB9E9A" d="M1294.184,799.733c0,0-54.272,29.821-111.639,8.429C1182.544,808.162,1245.979,850.066,1294.184,799.733z"
		/>
	<g>
		<path fill="#704F47" d="M1022.375,742.898c0,0-50.617-21.921-79.547-17.048c0,0-91.582-36.537-137.377,21.921
			c0,0,2.416-48.717,48.206-70.638c0,0,122.924-9.748,171.13,7.31C1024.786,684.443,1007.909,725.851,1022.375,742.898z"/>
		<path fill="#72534D" d="M973.024,723.97c0,0,0.675-24.883-27.384-37.693C945.64,686.276,968.62,698.465,973.024,723.97z"/>
		<path fill="#72534D" d="M957.357,725.191c0,0,0.676-24.89-27.383-37.692C929.974,687.499,952.96,699.68,957.357,725.191z"/>
		<path fill="#72534D" d="M944.888,722.313c0,0-3.867-24.575-33.772-31.943C911.116,690.369,935.92,698.064,944.888,722.313z"/>
		<path fill="#72534D" d="M923.083,717.41c0,0-5.538-23.929-35.481-29.056C887.602,688.354,912.555,694.174,923.083,717.41z"/>
		<path fill="#72534D" d="M900.977,713.137c0,0-8.215-18.483-33.254-17.849C867.723,695.288,888.825,696.002,900.977,713.137z"/>
		<path fill="#72534D" d="M878.568,708.604c0,0-10.8-13.577-31.49-7.559C847.078,701.046,864.789,697.024,878.568,708.604z"/>
		<path fill="#72534D" d="M863.296,709.792c0,0-14.305-9.712-32.281,2.257C831.015,712.049,846.732,702.87,863.296,709.792z"/>
	</g>
	<path fill="#BB9E9A" d="M985.442,784.307c0,0-48.206-55.203-122.924,17.868l10.846,5.274c0,0,45.629-66.181,112.317,2.021
		L985.442,784.307z"/>
	<path fill="#2C2C2D" d="M1705.832,2401.001l25.719-766.462l-118.909-32.477l41.776-133.162l-263.025-159.135
		c0,0-32.135,97.424-38.563,116.914c0,0,54.145,94.188,60.57,113.678c0,0,80.341,253.319,80.341,860.644H1705.832z"/>
	<g>
		<path fill="#BE7C81" d="M950.192,1089.057c0,0,101.999-13.971,143.765-4.298c0,0,80.236-10.74,146.672,6.446
			C1240.629,1091.205,1083.071,1196.513,950.192,1089.057z"/>
		<path fill="#832E30" d="M967.468,1092.642c0,0-4.275-5.354-12.944-4.012c0,0-4.365,3.878,10.75,7.361
			c0,0,120.188,26.099,261.848,1.97c0,0,14.455-2.13,10.17-6.361c0,0-6.471-2.01-13.017,2.983
			C1224.275,1094.584,1091.997,1118.506,967.468,1092.642z"/>
	</g>
	<path fill="#C2A29A" d="M1131.606,825.711c0,0-9.747,47.791,42.302,133.967c0,0-29.821-34.101-39.742-17.056
		c0,0-17.887-48.703-15.899-68.201c0,0-2.53-44.258,3.967-63.32L1131.606,825.711z"/>
	<path fill="#C2A29A" d="M1157.867,801.353c0,0-7.238-21.926-16.88-19.489c-9.635,2.436,9.642-2.437,9.642-2.437
		s19.283-41.401,60.251-38.972C1210.881,740.455,1150.629,779.427,1157.867,801.353z"/>
</g>
</svg>
