<?xml version="1.0" encoding="utf-8"?>
<!-- Generator: Adobe Illustrator 16.0.0, SVG Export Plug-In . SVG Version: 6.00 Build 0)  -->
<!DOCTYPE svg PUBLIC "-//W3C//DTD SVG 1.1//EN" "http://www.w3.org/Graphics/SVG/1.1/DTD/svg11.dtd">
<svg version="1.1" id="Layer_1" xmlns="http://www.w3.org/2000/svg" xmlns:xlink="http://www.w3.org/1999/xlink" x="0px" y="0px"
	 width="2400px" height="2400px" viewBox="0 0 2400 2400" enable-background="new 0 0 2400 2400" xml:space="preserve">
<path fill="#C7A99F" d="M858.204,1234.689c0,0,21.588,274.057,27.519,301.064l255.972,270.399l249.557-383.994
	c0,0-2.98-160.461,2.953-177.943c0,0-1.483-63.544-1.483-79.44c0,0-8.896,96.917-121.746,163.641c0,0-93.544,71.507-255.384,39.724
	C1015.592,1368.141,902.746,1336.37,858.204,1234.689z"/>
<g id="Layer_1_1_">
</g>
<path fill="#28282A" d="M1.073,2293.606"/>
<rect x="707.881" y="1907.121" fill="#323E4C" width="864.104" height="500.414"/>
<g id="shirt">
	<path fill="#323E4C" d="M92.688,1925.402c0,0,21.861-160.795,125.205-202.617c0,0,359.716-161.297,419.337-179.219l250.892-119.219
		l65.721,81.33c0,0,124.667,158.87,125.397,186.905c1.944,0.147,21.603,63.128,53.963,91.549
		c29.423,25.842,19.202,85.232,10.629,143.259"/>
	<path fill="#323E4C" d="M1147.134,1768.545c0,0,235.366-325.652,219.938-355.525c0,0,232.509,117.502,254.112,126.46
		c0,0,370.559,77.849,447.616,147.46c0,0,128.515,94.635,147.034,240.451H1132.503L1147.134,1768.545z"/>
</g>
<path fill="#FFFFFF" d="M1190.726,1851.882c4.18-13.113,1.16-25.655-6.741-28.016c-7.903-2.36-17.694,6.36-21.872,19.479
	c-4.181,13.116-1.159,25.66,6.742,28.019C1176.756,1873.721,1186.547,1864.998,1190.726,1851.882z"/>
<path fill="#FFFFFF" d="M1199.59,2095.45c0.454-13.72-5.879-25.045-14.143-25.302c-8.265-0.255-15.333,10.655-15.787,24.375
	c-0.455,13.716,5.878,25.044,14.142,25.3C1192.067,2120.081,1199.136,2109.167,1199.59,2095.45z"/>
<g id="Layer_30">
	<path fill="#20262D" d="M1148.163,1771.624c0,0-28.804,166.596-12.345,202.439c0,0,24.688,39.828,8.229,187.184
		c0,0-49.377,175.24,12.344,250.911c0,0-53.492-85.627-4.115-246.924c0,0,18.517-163.672,2.058-192.415
		C1154.334,1972.815,1133.761,1965.632,1148.163,1771.624z"/>
</g>
<path fill="#20262D" d="M1435.169,1507.817c0,0-55.551,152.946-176.099,307.485"/>
<g>
	<path fill="#20262D" d="M1148.516,1773.566c0,0,69.271-28.243,71.555-46.103c0,0-12.58-80.606,16.19-88.769
		c0,0,53.309-16.75,48.077,37.142c0,0-3.191,54.801-16.143,75.17c-12.947,20.37-11.051,52.263-4.924,62.601
		c0,0-23.256-9.082-6.697-76.034c0,0,25.277-60.688-1.22-62.765c0,0-14.862-1.348-21.061,49.305
		C1234.292,1724.112,1230.19,1774.586,1148.516,1773.566z"/>
	<path fill="#323E4C" d="M1147.134,1772.139c0,0,75.096-21.936,77.284-52.015c0,0-17.19-63.777,15.147-80.4
		c0,0,47.521-16.731,42.613,35.699c0,0,4.158,34.361-9.764,59.117c0,0-25.259,52.556-8.162,74.167c0,0,56.29-82.394,84.176-135.718
		c0,0,121.583-204.292,98.67-230.075c0,0-30.099-101.348-37.528-105.836c0,0-9.928-24.221-19.947-24.634
		c0,0-13.729,85.227-55.168,150.417c0,0-101.47,164.629-114.727,171.214C1219.729,1634.075,1176.167,1744.67,1147.134,1772.139z"/>
</g>
<path fill="#28282A" d="M286.744,2301.468c-162.391-339.719-123.451-562.321-109.585-617.364l-2.815-3.494
	c0,0-76.033,26.291-69.416,177.386c0,0-80.098,352.968-89.248,433.616c0,0-10.574,61.706-16.681,112.079h273.345L286.744,2301.468z"
	/>
<path fill="#28282A" d="M2087.64,2403.69h322.13c-0.487-15.695-1.187-33.462-2.191-52.128c0,0-6.611-116.405-23.142-148.744
	c0,0-52.893-184.319-62.808-223.114c0,0-39.674-119.643-39.674-142.286c0,0,0-116.409-13.221-135.81c0,0-9.924-38.815-46.28-22.645
	l-0.397,0.058c-4.682,38.291-51,403.273-141.762,617.575C2080.299,2296.593,2087.621,2353.919,2087.64,2403.69z"/>
<path fill="#29282A" d="M276.449,2303.063l-14.401,100.627h293.285l-24.34-702.086l122.323-32.336l-42.98-132.583l11.917-7.063
	L243.39,1669.269l-72.723,12.928c0,0-1.58,4.456-3.802,13.148C152.998,1749.523,114.059,1968.649,276.449,2303.063z"/>
<path fill="#29282A" d="M1616.536,1669.269l122.322,32.336l-24.341,702.086h383.424c-0.021-49.772-7.348-107.098-7.348-107.098
	c90.761-214.298,137.084-579.283,141.762-617.575c0.265-2.159,0.397-3.285,0.397-3.285
	c-19.837-12.939-122.312-32.336-122.312-32.336c-167.125-77.848-442.79-143.192-545.201-165.975l94.276,59.264L1616.536,1669.269z"
	/>
<path fill="#2C2C2D" d="M643.02,1669.269l-122.322,32.336l24.34,702.086h220.547c3.033-373.333,33.435-602.022,53.413-713.147
	c0.655-3.63,1.297-7.129,1.922-10.508c9.03-48.523,15.495-71.403,15.495-71.403c6.61-19.397,29.751-96.999,29.751-96.999
	c-6.612-19.411,0.95-133.225,0.95-133.225l-255.161,151.217l-11.916,7.063L643.02,1669.269z"/>
<path fill="#2C2C2D" d="M1724.813,2403.69l24.338-702.086l-122.32-32.336l42.972-132.583l-94.276-59.264l-148.672-98.972
	c0,0,12.705,112.087,6.094,131.489c0,0-29.242,52.287-22.632,71.698c0,0,87.847,259.663,93.873,822.057L1724.813,2403.69
	L1724.813,2403.69z"/>
<g>
	<path fill="#20262D" d="M1042.345,1737.873c-8.114-50.405-22.696-48.533-22.696-48.533c-26.009,3.004,1.288,62.767,1.288,62.767
		c18.96,66.326-3.582,76.211-3.582,76.211c5.624-10.543,9.7-42.949-3.859-62.85c-13.56-19.905-22.343-74.081-22.343-74.081
		c-7.292-53.674,42.652-37.66,42.652-37.66c28.652,7.145,22.672,86.993,22.672,86.993c2.958,17.771,72.283,43.562,72.283,43.562
		C1048.384,1788.164,1042.344,1737.871,1042.345,1737.873z"/>
	<path fill="#323E4C" d="M1057.393,1643.313c-13.314-6.116-124.037-162.998-124.037-162.998
		c-43.389-63.69-63.982-148.549-63.982-148.549c-9.847,0.763-14.973,25.488-14.973,25.488
		c-7.137,4.746-27.331,106.884-27.331,106.884c-11.473,32.257,112.067,225.976,112.067,225.976
		c26.168,55.413,78.221,138.201,78.221,138.201c19.443-31.543-12.133-78.688-12.133-78.688
		c-14.695-24.251-11.958-58.734-11.958-58.734c-6.913-52.222,40.545-37.166,40.545-37.166c32.495,15.475,18.1,79.813,18.1,79.813
		c3.349,29.98,81.072,49.757,81.072,49.757C1103.304,1756.865,1057.393,1643.313,1057.393,1643.313z"/>
</g>
<path fill="#20262D" d="M1020.517,1828.064c0,0-148.052-240.68-184.33-316.994C836.187,1511.07,921.708,1628.225,1020.517,1828.064z
	"/>
<path fill="#FFFFFF" d="M1199.59,2328.838c0.454-13.719-5.879-25.044-14.143-25.3c-8.265-0.258-15.333,10.655-15.787,24.374
	c-0.455,13.715,5.878,25.043,14.142,25.3C1192.067,2353.469,1199.136,2342.556,1199.59,2328.838z"/>
<path fill="#C2A29A" d="M1443.084,1093.145"/>
<path fill="#C2A29A" d="M1431.535,1105.062c0,0,5.386-11.917,24.196-2.375c0,0,23.825,9.526,45.136-13.106
	c0,0,10.03-15.499,21.306-83.413c0,0,25.083-158.484,21.323-173.973c0,0-35.109-36.935-61.438,20.256
	C1482.059,852.452,1451.591,871.521,1431.535,1105.062z"/>
<path fill="#BA9893" d="M1467.893,997.822c0,0-7.09,20.258,0,28.605c0,0,7.091-3.581,8.279-21.452c0,0,11.81-9.537,20.078,3.569
	c0,0,7.088-3.569,7.088-11.91C1503.338,996.635,1495.068,972.797,1467.893,997.822z"/>
<path fill="#BA9893" d="M1510.427,1029.997h-7.089c0,0,8.271-16.683,13-15.488
	C1516.338,1014.508,1515.156,1025.229,1510.427,1029.997z"/>
<path fill="#BA9893" d="M1525.789,946.587c0,0-23.628-52.433-21.266-65.53c0,0,9.449-28.604,22.451-27.408
	C1526.975,853.646,1530.519,913.229,1525.789,946.587z"/>
<path fill="#C2A29A" d="M811.182,1140.02c0,0-17.016-13.484-34.736-3.951c0,0-22.446,9.534-42.532-13.106
	c0,0-9.453-15.491-20.087-83.411c0,0-23.635-158.477-20.085-173.967c0,0,33.083-36.943,57.889,20.256
	C751.63,885.841,792.276,906.469,811.182,1140.02z"/>
<path fill="#BA9893" d="M769.364,1031.212c0,0,7.083,20.256,0,28.596c0,0-7.092-3.573-8.278-21.444c0,0-11.812-9.541-20.089,3.572
	c0,0-7.083-3.572-7.083-11.92C733.914,1030.017,742.183,1006.188,769.364,1031.212z"/>
<path fill="#BA9893" d="M726.822,1063.379h7.09c0,0-8.276-16.678-12.997-15.482C720.917,1047.897,722.102,1058.614,726.822,1063.379
	z"/>
<path fill="#BA9893" d="M711.458,979.982c0,0,23.632-52.444,21.277-65.543c0,0-9.456-28.598-22.449-27.411
	C710.286,887.029,706.735,946.613,711.458,979.982z"/>
<path fill="#BB9E9A" d="M776.022,975.203c0,0,44.179,228.267,65.107,254.602c0,0,69.749,129.494,197.616,140.473
	c0,0,153.456,24.145,216.231-24.144c0,0,109.282-41.698,151.121-133.882c0,0,23.252-131.696,32.55-142.674
	c0,0,37.201-221.677,51.151-223.87c0,0-20.921-193.153-58.121-239.244c0,0-51.154-144.861-167.403-140.47
	c0,0-253.429-39.509-362.697,17.561C901.576,483.554,736.502,523.059,776.022,975.203z"/>
<path fill="#C7A6A0" d="M770.767,961.611c0,0,44.893,233.067,66.167,259.96c0,0,70.895,132.21,200.863,143.425
	c0,0,155.975,24.645,219.777-24.661c0,0,111.068-42.574,153.606-136.698c0,0,23.627-134.458,33.082-145.67
	c0,0,37.804-226.34,51.988-228.582c0,0-21.268-197.212-59.08-244.265c0,0-51.989-147.91-170.145-143.426
	c0,0-257.583-40.338-368.652,17.928C898.374,459.623,730.591,499.964,770.767,961.611z"/>
<path fill="#C3A39F" d="M919.645,1319.364c0,0-83.896-54.693-105.163-165.184c0,0-13-53.548-14.179-64.937
	c0,0,77.982,0,135.879,144.677C936.183,1233.92,937.369,1314.807,919.645,1319.364z"/>
<path fill="#C3A39F" d="M1310.745,1316.573c0,0,83.889-35.314,107.525-153.789c0,0,14.175-62.656,15.358-74.053
	c0,0-84.783-0.005-142.672,144.673C1290.957,1233.403,1293.019,1312.02,1310.745,1316.573z"/>
<path fill="#A27965" d="M769.081,950.131c0,0,26.001-47.664,33.086-85.794c0,0,9.455-147.747,0-178.726
	c0,0,75.624-178.738,174.872-204.954c0,0,81.338-44.2,334.199,46.356c0,0,110.279,27.65,107.926,120.595
	c0,0,6.879,145.242,21.052,183.367c0,0,28.364,112.007,23.637,145.377l25.984-16.685c0,0,4.735-109.626,28.368-121.537
	c0,0,25.996,16.679,28.354,26.206c2.364,9.536,4.737-66.719-4.728-121.535c0,0-11.81-140.603-103.977-269.294
	c0,0-94.528-142.986-290.662-157.287c0,0-179.599-30.976-267.044,119.159l-18.896,19.064c0,0-99.258,26.212-137.068,142.985
	c0,0-30.715,135.839-28.356,188.268l9.454,16.688l-14.183,57.191l25.999,73.875C717.096,933.452,757.27,914.385,769.081,950.131z"/>
<path fill="#A77D6D" d="M912.657,455.773c0,0,16.274-99.648,138.041-128.868C1040.513,329.994,946.369,366.292,912.657,455.773z"/>
<path fill="#A77D6D" d="M928.855,461.851c0,0,25.579-111.952,165.905-136.297C1094.759,325.554,977.854,353.059,928.855,461.851z"/>
<path fill="#A77D6D" d="M948.488,463.738c0,0,34.96-120.441,189.518-137.975C1138.005,325.763,1008.79,348.245,948.488,463.738z"/>
<path fill="#A77D6D" d="M968.963,467.229c0,0,50.963-132.738,227.3-137.634C1196.265,329.595,1048.099,342.529,968.963,467.229z"/>
<path fill="#A77D6D" d="M1003.886,465.683c0,0,56.24-129.132,231.004-126.146C1234.889,339.537,1087.655,345.761,1003.886,465.683z"
	/>
<path fill="#A77D6D" d="M1049.936,453.387c0,0,61.871-112.94,220.853-95.574C1270.786,357.813,1136.136,351.145,1049.936,453.387z"
	/>
<path fill="#A77D6D" d="M1087.968,451.698c0,0,73.709-105.47,229.859-70.751C1317.827,380.946,1184.7,359.531,1087.968,451.698z"/>
<path fill="#A77D6D" d="M1134.902,450.647c0,0,78.398-93.086,222.653-46.93C1357.555,403.717,1233.881,372.085,1134.902,450.647z"/>
<path fill="#A77D6D" d="M1180.986,455.913c0,0,73.83-77.868,198.496-29.673C1379.482,426.239,1272.188,391.915,1180.986,455.913z"/>
<path fill="#A77D6D" d="M1236.612,461.073c0,0,73.429-57.246,174.334,0.453C1410.946,461.526,1323.181,418.009,1236.612,461.073z"/>
<path fill="#A77D6D" d="M1310.18,475.774c0,0,62.873-30.315,127.897,28.121C1438.077,503.895,1380.487,457.966,1310.18,475.774z"/>
<path fill="#A77D6D" d="M889.696,457.233c0,0,5.512-86.811,103.209-117.149C992.904,340.084,914.672,375.226,889.696,457.233z"/>
<path fill="#A77D6D" d="M730.65,612.666c0,0,6.762-109.277,126.363-147.486C857.014,465.18,761.254,509.43,730.65,612.666z"/>
<path fill="#A77D6D" d="M734.599,653.181c0,0,7.176-127.825,133.074-172.583C867.673,480.598,766.863,532.402,734.599,653.181z"/>
<path fill="#A77D6D" d="M740.046,699.389c0,0,7.763-152.34,143.001-205.753C883.046,493.634,774.748,555.443,740.046,699.389z"/>
<path fill="#A77D6D" d="M749.052,765.92c0,0-5.419-179.131,147.839-254.78C896.891,511.14,775.979,593.997,749.052,765.92z"/>
<path fill="#7D6755" d="M1090.012,1067.999c0,0-18.444-15.339-51.194-1.919C1038.817,1066.08,1073.622,1070.875,1090.012,1067.999z"
	/>
<path fill="#7D6755" d="M1176.384,1058.759c0,0-20.708-10.204-50.376,8.207C1126.008,1066.966,1160.866,1064.522,1176.384,1058.759z
	"/>
<path fill="#704F47" d="M1160.684,807.178c0,0,49.631-21.453,77.979-16.686c0,0,89.804-35.748,134.709,21.454
	c0,0-2.364-47.672-47.271-69.117c0,0-120.52-9.528-167.779,7.151C1158.321,749.979,1174.868,790.493,1160.684,807.178z"/>
<path fill="#72534D" d="M1194.889,788.651c0,0-0.739-27.21,30.015-41.213C1224.903,747.439,1199.712,760.761,1194.889,788.651z"/>
<path fill="#72534D" d="M1209.063,788.651c0,0-0.645-24.337,26.853-36.864C1235.916,751.788,1213.394,763.699,1209.063,788.651z"/>
<path fill="#72534D" d="M1224.426,789.845c0,0-0.653-24.344,26.849-36.868C1251.274,752.977,1228.749,764.895,1224.426,789.845z"/>
<path fill="#72534D" d="M1236.651,787.039c0,0,3.798-24.046,33.115-31.254C1269.766,755.785,1245.447,763.314,1236.651,787.039z"/>
<path fill="#72534D" d="M1258.038,782.239c0,0,5.428-23.417,34.786-28.434C1292.825,753.805,1268.353,759.5,1258.038,782.239z"/>
<path fill="#72534D" d="M1279.712,778.053c0,0,8.048-18.088,32.605-17.462C1312.317,760.591,1291.62,761.296,1279.712,778.053z"/>
<path fill="#72534D" d="M1301.687,773.62c0,0,10.581-13.276,30.864-7.387C1332.553,766.233,1315.195,762.292,1301.687,773.62z"/>
<path fill="#72534D" d="M1316.654,774.788c0,0,14.026-9.508,31.652,2.194C1348.307,776.982,1332.89,768.015,1316.654,774.788z"/>
<path fill="#C2A29A" d="M1058.982,892.967c0,0,9.558,46.757-41.475,131.069c0,0,29.236-33.363,38.966-16.686
	c0,0,17.536-47.65,15.587-66.727c0,0,2.481-43.301-3.889-61.951L1058.982,892.967z"/>
<path fill="#EBE1DD" d="M1202.433,865.167c0,0,57.507-71.103,107.128,1.585c0,0-24.813,39.318-99.256,12.709
	C1210.305,879.462,1191.408,874.693,1202.433,865.167z"/>
<path fill="#EBE1DD" d="M1003.932,882.637c0,0,8.667-7.459,1.18-17.842c0,0-59.473-52.855-105.156,6.721
	c0,0,14.963,24.749,74.039,21.452C973.995,892.967,992.122,889.714,1003.932,882.637z"/>
<path fill="#474F3C" d="M979.311,870.319c0,14.151-11.368,25.62-25.399,25.62c-14.036,0-25.408-11.468-25.408-25.62
	c0-14.145,11.372-25.619,25.408-25.619C967.942,844.699,979.311,856.173,979.311,870.319z"/>
<path fill="#090911" d="M960.701,870.319c0,3.789-3.045,6.849-6.789,6.849c-3.758,0-6.796-3.06-6.796-6.849
	c0-3.783,3.037-6.851,6.796-6.851C957.656,863.469,960.701,866.537,960.701,870.319z"/>
<path fill="#EEE9E8" d="M953.021,863.771c0,2.467-1.98,4.464-4.43,4.464c-2.448,0-4.428-1.998-4.428-4.464
	c0-2.468,1.981-4.475,4.428-4.475C951.042,859.296,953.021,861.302,953.021,863.771z"/>
<path fill="#474F3C" d="M1284.162,862.581c0,14.145-11.38,25.619-25.405,25.619c-14.03,0-25.398-11.474-25.398-25.619
	c0-14.153,11.368-25.618,25.398-25.618C1272.782,836.963,1284.162,848.428,1284.162,862.581z"/>
<path fill="#090911" d="M1265.549,862.581c0,3.789-3.042,6.851-6.792,6.851c-3.757,0-6.793-3.063-6.793-6.851
	c0-3.786,3.036-6.85,6.793-6.85C1262.507,855.731,1265.549,858.795,1265.549,862.581z"/>
<path fill="#EEE9E8" d="M1257.87,856.031c0,2.462-1.985,4.468-4.43,4.468c-2.445,0-4.434-2.006-4.434-4.468
	c0-2.469,1.987-4.473,4.434-4.473C1255.885,851.558,1257.87,853.562,1257.87,856.031z"/>
<path fill="#C2A29A" d="M1035.428,869.137c0,0,7.096-21.453,16.552-19.068c9.447,2.383-9.457-2.384-9.457-2.384
	s-18.906-40.505-59.076-38.129C983.449,809.555,1042.524,847.684,1035.428,869.137z"/>
<path fill="#C2A29A" d="M1042.746,1071.7c0,0,89.8,11.912,113.432,0C1156.178,1071.7,1106.558,1095.535,1042.746,1071.7z"/>
<path fill="#BB9E9A" d="M1200.854,845.304c0,0,47.27-54.014,120.525,17.479l-10.635,5.165c0,0-47.655-63.948-113.033,2.783
	L1200.854,845.304z"/>
<path fill="#BB9B95" d="M904.675,1283.689c0,0,29.928,108.035,99.258,123.918c0,0,176.446,12.708,204.809-3.174
	c0,0,44.101-11.118,50.406-20.654c0,0,23.624,3.181,51.973-85.787c0,0-74.03,42.892-110.266,46.068c0,0-154.392,9.527-195.344,0
	C1005.51,1344.061,931.457,1325,904.675,1283.689z"/>
<path fill="#BB9E9A" d="M1009.443,876.283c0,0-53.563,34.956-108.704-2.384C900.739,873.899,962.177,935.857,1009.443,876.283z"/>
<path fill="#BB9E9A" d="M1311.142,867.551c0,0-53.213,29.176-109.459,8.247C1201.682,875.798,1263.877,916.796,1311.142,867.551z"/>
<g>
	<path fill="#704F47" d="M1044.639,811.946c0,0-49.629-21.448-77.994-16.68c0,0-89.794-35.746-134.695,21.448
		c0,0,2.369-47.665,47.265-69.111c0,0,120.524-9.538,167.789,7.152C1047.003,754.755,1030.456,795.267,1044.639,811.946z"/>
	<path fill="#72534D" d="M996.25,793.426c0,0,0.663-24.345-26.849-36.877C969.401,756.548,991.933,768.473,996.25,793.426z"/>
	<path fill="#72534D" d="M980.891,794.621c0,0,0.662-24.353-26.849-36.877C954.042,757.744,976.579,769.661,980.891,794.621z"/>
	<path fill="#72534D" d="M968.664,791.805c0,0-3.791-24.043-33.112-31.252C935.552,760.552,959.872,768.081,968.664,791.805z"/>
	<path fill="#72534D" d="M947.285,787.009c0,0-5.43-23.413-34.789-28.429C912.497,758.58,936.962,764.274,947.285,787.009z"/>
	<path fill="#72534D" d="M925.61,782.827c0,0-8.054-18.082-32.604-17.462C893.005,765.365,913.696,766.063,925.61,782.827z"/>
	<path fill="#72534D" d="M903.64,778.392c0,0-10.59-13.282-30.875-7.395C872.764,770.998,890.129,767.063,903.64,778.392z"/>
	<path fill="#72534D" d="M888.665,779.555c0,0-14.025-9.502-31.651,2.208C857.014,781.763,872.425,772.783,888.665,779.555z"/>
</g>
<path fill="#BB9E9A" d="M1008.427,852.458c0,0-47.265-54.009-120.525,17.482l10.635,5.16c0,0,44.738-64.75,110.124,1.977
	L1008.427,852.458z"/>
<g>
	<path fill="#BE7C81" d="M973.865,1150.618c0,0,100.008-13.668,140.958-4.205c0,0,78.67-10.507,143.809,6.307
		C1258.632,1152.72,1104.15,1255.75,973.865,1150.618z"/>
	<path fill="#832E30" d="M990.804,1154.126c0,0-4.191-5.238-12.691-3.926c0,0-4.28,3.794,10.54,7.203
		c0,0,117.841,25.534,256.736,1.927c0,0,14.173-2.084,9.971-6.224c0,0-6.344-1.966-12.762,2.918
		C1242.598,1156.026,1112.902,1179.431,990.804,1154.126z"/>
</g>
<path fill="#C2A29A" d="M1151.737,892.967c0,0-9.556,46.757,41.477,131.069c0,0-29.239-33.363-38.967-16.686
	c0,0-17.537-47.65-15.589-66.727c0,0-2.479-43.301,3.891-61.951L1151.737,892.967z"/>
<path fill="#C2A29A" d="M1177.486,869.137c0,0-7.098-21.453-16.551-19.068c-9.448,2.383,9.453-2.384,9.453-2.384
	s18.907-40.505,59.074-38.129C1229.464,809.555,1170.389,847.684,1177.486,869.137z"/>
</svg>
