<?xml version="1.0" encoding="utf-8"?>
<!-- Generator: Adobe Illustrator 16.0.0, SVG Export Plug-In . SVG Version: 6.00 Build 0)  -->
<!DOCTYPE svg PUBLIC "-//W3C//DTD SVG 1.1//EN" "http://www.w3.org/Graphics/SVG/1.1/DTD/svg11.dtd">
<svg version="1.1" xmlns="http://www.w3.org/2000/svg" xmlns:xlink="http://www.w3.org/1999/xlink" x="0px" y="0px" width="2400px"
	 height="2400px" viewBox="0 0 2400 2400" enable-background="new 0 0 2400 2400" xml:space="preserve">
<g id="Layer_2">
	<path fill="#28282A" d="M-215.598,1612.555c0,0-44.631,389.728-99.577,509.897C-315.175,2122.452-205.295,1833.4-215.598,1612.555z
		"/>
	<polygon fill="#333F4C" points="-1337.103,2405.001 -1314.606,1748.959 -1340.312,1677.507 -1558.841,1599.559 -1674.536,1573.584 
		-1758.085,2405.001 	"/>
	<path fill="#28282A" d="M-2243.344,1628.794c0,0-73.912,25.992-67.484,175.376c0,0-25.704,35.727-32.138,123.415
		c0,0-41.775,116.919-38.558,188.371c0,0,0,58.462-16.061,116.919c0,0-25.718,152.638-19.292,172.126h311.725l25.706-233.832
		l-99.621-461.184L-2243.344,1628.794z"/>
	<path fill="#28282A" d="M-29.159,2405.001c0,0,0-51.961-3.218-113.67c0,0-6.426-116.913-22.494-149.392
		c0,0-51.418-185.124-61.056-224.092c0,0-38.568-120.163-38.568-142.906c0,0,0-116.916-12.852-136.402
		c0,0-9.643-38.98-44.989-22.738l-93.204,12.993l-109.255,493.658l-22.494,237.081l-12.859,45.468H-29.159z"/>
	<polyline fill="#29313A" points="-1349.955,1688.873 -1314.606,1771.697 -1298.537,1755.461 -1338.706,1677.507 	"/>
	<path fill="#29313A" d="M-1339.061,1678.252c0,0-52.188,43.341-47.487,89.033c0,0-255.733-136.097-293.999-250.29
		c0,0,7.277-94.338,21.292-117.982L-1339.061,1678.252z"/>
	<path fill="#333F4C" d="M-1369.466,1675.904c0,0-33.509,30.731-29.572,67.761c0,0-225.175-117.253-256.055-209.949
		c0,0-0.728-86.376,10.302-105.472L-1369.466,1675.904z"/>
	<path fill="#29282A" d="M-1722.737,1437.176l-443.479,168.887l-70.694,12.985c0,0-80.345,233.839,102.831,623.572l-22.494,162.381
		h507.755c0,0-3.213-690.956,54.633-781.893C-1585.496,1609.444-1722.737,1437.176-1722.737,1437.176z"/>
	<path fill="#29282A" d="M-900.055,1404.699c0,0,366.353,77.941,568.818,175.378c0,0,99.617,19.481,118.9,32.478
		c0,0-44.998,396.22-138.189,623.566c0,0,16.068,129.911,0,168.88h-453.118L-900.055,1404.699z"/>
	<path fill="#29313A" d="M-1378.882,2405.001c0,0-6.419-191.322,0-214.422c0,0,12.852-151.75,3.225-194.637
		c0,0-9.644-148.439,48.2-217.71c0,0,44.987-56.071,44.987-82.469c0,0,93.198-49.493,99.625-65.979c0,0,9.643-9.892,83.551-145.14
		c0,0,64.27-85.771,77.129-128.663l48.207,155.047l96.402,893.973H-1378.882z"/>
	<path fill="#333F4C" d="M-1362.803,2405.001c0,0-6.427-188.356,0-211.105c0,0,12.856-149.4,3.211-191.613
		c0,0-9.638-146.149,48.207-214.352c0,0,44.995-55.205,44.995-81.197c0,0,93.192-48.708,99.629-64.941
		c0,0,9.636-9.752,83.544-142.91c0,0,64.27-84.436,77.128-126.658l48.199,152.644l96.414,880.134H-1362.803z"/>
	<path fill="#2C2C2D" d="M-1860.917,2405.001l-25.719-766.462l118.91-32.477l-41.78-133.162l234.603-146.953
		c0,0,17.676,102.297,24.102,121.793c0,0-22.496,77.939-28.922,97.42c0,0-69.095,252.517-69.095,859.841H-1860.917z"/>
	<path fill="#29313A" d="M-1279.265,1693.755c0,0,61.058,29.222,67.492,74.688c0,0,232.992-209.469,242.637-329.643
		c0,0-30.541-63.327-49.819-82.818L-1279.265,1693.755z"/>
	<path fill="#333F4C" d="M-1250.34,1684.009c0,0,39.903,21.567,44.988,58.454c0,0,220.536-202.913,228.176-300.414
		c0,0-21.675-54.021-36.95-69.825L-1250.34,1684.009z"/>
	<g>
		<path fill="#8D8D8D" d="M-1275.728,2252.915c10.657,10.417,10.939,27.569,0.643,38.317c-10.298,10.757-27.282,11.016-37.917,0.599
			c-10.652-10.42-10.936-27.571-0.646-38.319C-1303.354,2242.75-1286.37,2242.498-1275.728,2252.915z"/>
		<path fill="#39363A" d="M-1279.661,2257.024c8.386,8.208,8.633,21.751,0.503,30.22c-8.126,8.476-21.513,8.68-29.914,0.474
			c-8.394-8.214-8.62-21.749-0.502-30.218C-1301.448,2249.014-1288.057,2248.805-1279.661,2257.024z"/>
		<g>
			<path fill="#969795" d="M-1281.351,2258.784c7.434,7.272,7.631,19.261,0.449,26.768c-7.193,7.501-19.049,7.681-26.484,0.407
				c-7.438-7.271-7.635-19.264-0.454-26.758C-1300.642,2251.684-1288.782,2251.517-1281.351,2258.784z"/>
			<path fill="#242026" d="M-1296.33,2274.427c1.266,1.218,1.292,3.243,0.073,4.512c-1.219,1.269-3.213,1.291-4.473,0.069
				c-1.255-1.226-1.295-3.254-0.082-4.517C-1299.588,2273.223-1297.586,2273.183-1296.33,2274.427z"/>
			<path fill="#242026" d="M-1288.016,2265.741c1.255,1.229,1.287,3.25,0.078,4.51c-1.222,1.268-3.218,1.312-4.473,0.075
				c-1.255-1.228-1.299-3.25-0.086-4.519C-1291.27,2264.539-1289.279,2264.513-1288.016,2265.741z"/>
			<path fill="#242026" d="M-1287.875,2274.285c1.246,1.225,1.285,3.25,0.077,4.52c-1.209,1.26-3.216,1.3-4.471,0.067
				c-1.255-1.224-1.28-3.24-0.067-4.509C-1291.126,2273.092-1289.13,2273.063-1287.875,2274.285z"/>
			<path fill="#242026" d="M-1296.475,2265.874c1.253,1.23,1.3,3.241,0.083,4.519c-1.222,1.26-3.215,1.292-4.477,0.058
				c-1.255-1.227-1.289-3.235-0.074-4.51C-1299.726,2264.681-1297.729,2264.646-1296.475,2265.874z"/>
		</g>
	</g>
	<g>
		<path fill="#8D8D8D" d="M-1265.464,1834.387c-5.77,9.064-20.544,9.836-32.981,1.742c-12.454-8.109-17.844-22.024-12.066-31.086
			c5.772-9.064,20.54-9.825,32.975-1.742C-1265.07,1811.414-1259.682,1825.334-1265.464,1834.387z"/>
		<path fill="#39363A" d="M-1270.222,1831.287c-4.551,7.152-16.202,7.764-26.01,1.37c-9.81-6.392-14.067-17.36-9.516-24.509
			c4.549-7.143,16.205-7.758,26.005-1.367C-1269.922,1813.166-1265.668,1824.141-1270.222,1831.287z"/>
		<g>
			<path fill="#969795" d="M-1272.263,1829.96c-4.031,6.331-14.346,6.871-23.039,1.207c-8.685-5.658-12.45-15.376-8.418-21.703
				c4.033-6.321,14.352-6.87,23.036-1.202C-1271.988,1813.921-1268.223,1823.642-1272.263,1829.96z"/>
			<path fill="#242026" d="M-1290.361,1818.166c-0.667,1.076-2.416,1.169-3.885,0.217c-1.465-0.961-2.093-2.601-1.427-3.672
				c0.684-1.06,2.42-1.164,3.884-0.208C-1290.319,1815.46-1289.674,1817.105-1290.361,1818.166z"/>
			<path fill="#242026" d="M-1280.311,1824.71c-0.67,1.082-2.423,1.165-3.887,0.213c-1.47-0.956-2.103-2.6-1.42-3.663
				c0.688-1.068,2.416-1.165,3.884-0.216C-1280.269,1822.002-1279.627,1823.645-1280.311,1824.71z"/>
			<path fill="#242026" d="M-1287.666,1825.111c-0.679,1.059-2.424,1.154-3.884,0.197c-1.475-0.955-2.116-2.602-1.428-3.663
				c0.682-1.077,2.423-1.165,3.884-0.197C-1287.613,1822.4-1286.991,1824.027-1287.666,1825.111z"/>
			<path fill="#242026" d="M-1283.009,1817.778c-0.683,1.078-2.411,1.171-3.879,0.222c-1.473-0.969-2.107-2.606-1.423-3.672
				c0.686-1.074,2.423-1.167,3.886-0.213C-1282.965,1815.068-1282.318,1816.704-1283.009,1817.778z"/>
		</g>
	</g>
	<path fill="#C7A99F" d="M-1591.771,1178.986c0,0,22.682,280.114,28.914,307.719l256.573,270.369l274.583-386.475
		c0,0-3.132-164.007,3.101-181.876c0,0-1.557-64.949-1.557-81.197c0,0-9.347,99.06-127.917,167.259
		c0,0-98.288,73.087-268.331,40.602C-1426.405,1315.388-1544.972,1282.915-1591.771,1178.986z"/>
	<path fill="#C2A29A" d="M-995.247,1034.313"/>
	<path fill="#C2A29A" d="M-1007.026,1046.493c0,0,5.494-12.181,24.679-2.427c0,0,24.299,9.737,46.034-13.396
		c0,0,10.23-15.841,21.73-85.256c0,0,25.582-161.987,21.748-177.818c0,0-35.81-37.751-62.661,20.704
		C-955.496,788.3-986.57,807.79-1007.026,1046.493z"/>
	<path fill="#BA9893" d="M-969.943,936.884c0,0-7.232,20.705,0,29.237c0,0,7.231-3.66,8.443-21.926c0,0,12.045-9.748,20.479,3.648
		c0,0,7.228-3.648,7.228-12.173C-933.793,935.67-942.227,911.306-969.943,936.884z"/>
	<path fill="#BA9893" d="M-926.562,969.77h-7.231c0,0,8.436-17.052,13.259-15.832C-920.534,953.938-921.739,964.896-926.562,969.77z
		"/>
	<path fill="#BA9893" d="M-910.894,884.516c0,0-24.099-53.592-21.69-66.979c0,0,9.638-29.236,22.898-28.014
		C-909.686,789.522-906.071,850.421-910.894,884.516z"/>
	<path fill="#C2A29A" d="M-1639.731,1082.224c0,0-17.354-13.783-35.427-4.039c0,0-22.894,9.746-43.379-13.395
		c0,0-9.641-15.833-20.487-85.255c0,0-24.106-161.979-20.486-177.811c0,0,33.742-37.76,59.042,20.704
		C-1700.468,822.428-1659.012,843.511-1639.731,1082.224z"/>
	<path fill="#BA9893" d="M-1682.381,971.012c0,0,7.224,20.704,0,29.228c0,0-7.233-3.652-8.442-21.919c0,0-12.047-9.751-20.489,3.652
		c0,0-7.225-3.652-7.225-12.184C-1718.537,969.789-1710.104,945.434-1682.381,971.012z"/>
	<path fill="#BA9893" d="M-1725.769,1003.89h7.231c0,0-8.44-17.047-13.256-15.825
		C-1731.793,988.065-1730.584,999.02-1725.769,1003.89z"/>
	<path fill="#BA9893" d="M-1741.44,918.649c0,0,24.103-53.603,21.701-66.992c0,0-9.644-29.229-22.896-28.016
		C-1742.635,823.642-1746.257,884.542-1741.44,918.649z"/>
	<path fill="#BB9E9A" d="M-1675.59,913.765c0,0,45.059,233.311,66.404,260.228c0,0,71.138,132.357,201.55,143.578
		c0,0,156.511,24.678,220.536-24.677c0,0,111.46-42.621,154.132-136.841c0,0,23.713-134.608,33.196-145.828
		c0,0,37.943-226.577,52.171-228.818c0,0-21.339-197.423-59.279-244.532c0,0-52.172-148.063-170.736-143.574
		c0,0-258.475-40.382-369.919,17.948C-1547.536,411.248-1715.896,451.626-1675.59,913.765z"/>
	<path fill="#C7A6A0" d="M-1680.95,899.872c0,0,45.787,238.219,67.484,265.705c0,0,72.307,135.133,204.863,146.596
		c0,0,159.08,25.189,224.152-25.206c0,0,113.28-43.516,156.665-139.72c0,0,24.097-137.43,33.74-148.89
		c0,0,38.558-231.342,53.024-233.633c0,0-21.691-201.572-60.255-249.664c0,0-53.026-151.18-173.534-146.597
		c0,0-262.711-41.229-375.992,18.324C-1550.802,386.788-1721.926,428.021-1680.95,899.872z"/>
	<path fill="#C3A39F" d="M-1529.107,1265.532c0,0-85.567-55.901-107.257-168.835c0,0-13.259-54.731-14.461-66.372
		c0,0,79.535,0,138.585,147.875C-1512.24,1178.2-1511.03,1260.874-1529.107,1265.532z"/>
	<path fill="#C3A39F" d="M-1130.22,1262.68c0,0,85.559-36.096,109.665-157.188c0,0,14.458-64.041,15.665-75.689
		c0,0-86.472-0.006-145.513,147.871C-1150.402,1177.672-1148.299,1258.026-1130.22,1262.68z"/>
	<path fill="#A27965" d="M-1682.669,888.139c0,0,26.519-48.717,33.744-87.691c0,0,9.644-151.012,0-182.676
		c0,0,77.13-182.689,178.355-209.484c0,0,82.957-45.177,340.852,47.381c0,0,112.476,28.262,110.075,123.261
		c0,0,7.017,148.452,21.471,187.42c0,0,28.93,114.482,24.107,148.589l26.502-17.053c0,0,4.83-112.049,28.933-124.223
		c0,0,26.514,17.048,28.918,26.785c2.412,9.746,4.831-68.193-4.821-124.221c0,0-12.045-143.71-106.047-275.246
		c0,0-96.41-146.147-296.449-160.764c0,0-183.175-31.66-272.362,121.793l-19.272,19.485c0,0-101.234,26.791-139.798,146.146
		c0,0-31.326,138.841-28.92,192.428l9.642,17.057l-14.465,58.456l26.517,75.508
		C-1735.689,871.091-1694.716,851.602-1682.669,888.139z"/>
	<path fill="#A77D6D" d="M-1536.234,382.854c0,0,16.598-101.851,140.789-131.716
		C-1405.833,254.294-1501.851,291.395-1536.234,382.854z"/>
	<path fill="#A77D6D" d="M-1519.714,389.065c0,0,26.088-114.426,169.208-139.309
		C-1350.507,249.756-1469.739,277.869-1519.714,389.065z"/>
	<path fill="#A77D6D" d="M-1499.69,390.994c0,0,35.657-123.103,193.292-141.024C-1306.399,249.97-1438.188,272.949-1499.69,390.994z
		"/>
	<path fill="#A77D6D" d="M-1478.808,394.563c0,0,51.978-135.672,231.826-140.676
		C-1246.981,253.887-1398.096,267.107-1478.808,394.563z"/>
	<path fill="#A77D6D" d="M-1443.19,392.982c0,0,57.361-131.986,235.604-128.934C-1207.587,264.048-1357.752,270.41-1443.19,392.982z
		"/>
	<path fill="#A77D6D" d="M-1396.223,380.414c0,0,63.103-115.436,225.25-97.686C-1170.974,282.728-1308.306,275.913-1396.223,380.414
		z"/>
	<path fill="#A77D6D" d="M-1357.434,378.688c0,0,75.178-107.801,234.437-72.315
		C-1122.997,306.373-1258.776,284.484-1357.434,378.688z"/>
	<path fill="#A77D6D" d="M-1309.565,377.614c0,0,79.959-95.143,227.086-47.967C-1082.479,329.647-1208.615,297.316-1309.565,377.614
		z"/>
	<path fill="#A77D6D" d="M-1262.562,382.996c0,0,75.3-79.589,202.447-30.329C-1060.115,352.667-1169.545,317.584-1262.562,382.996z"
		/>
	<path fill="#A77D6D" d="M-1205.829,388.271c0,0,74.892-58.511,177.806,0.463C-1028.023,388.734-1117.537,344.255-1205.829,388.271z
		"/>
	<path fill="#A77D6D" d="M-1130.797,403.297c0,0,64.125-30.986,130.444,28.742C-1000.353,432.039-1059.09,385.095-1130.797,403.297z
		"/>
	<path fill="#A77D6D" d="M-1559.652,384.346c0,0,5.621-88.729,105.263-119.738C-1454.39,264.608-1534.18,300.526-1559.652,384.346z"
		/>
	<path fill="#A77D6D" d="M-1721.865,543.214c0,0,6.896-111.693,128.88-150.746C-1592.985,392.468-1690.652,437.696-1721.865,543.214
		z"/>
	<path fill="#A77D6D" d="M-1717.838,584.625c0,0,7.319-130.65,135.724-176.398C-1582.114,408.227-1684.932,461.176-1717.838,584.625
		z"/>
	<path fill="#A77D6D" d="M-1712.282,631.854c0,0,7.918-155.707,145.848-210.301C-1566.435,421.552-1676.89,484.726-1712.282,631.854
		z"/>
	<path fill="#A77D6D" d="M-1703.097,699.855c0,0-5.527-183.09,150.783-260.411C-1552.314,439.444-1675.634,524.132-1703.097,699.855
		z"/>
	<path fill="#7D6755" d="M-1355.349,1008.611c0,0-18.811-15.677-52.213-1.962
		C-1407.563,1006.649-1372.065,1011.551-1355.349,1008.611z"/>
	<path fill="#7D6755" d="M-1267.257,999.167c0,0-21.12-10.43-51.379,8.389C-1318.636,1007.556-1283.084,1005.058-1267.257,999.167z"
		/>
	<path fill="#704F47" d="M-1283.269,742.025c0,0,50.619-21.927,79.53-17.054c0,0,91.593-36.538,137.391,21.927
		c0,0-2.411-48.725-48.211-70.644c0,0-122.919-9.739-171.12,7.309C-1285.679,683.563-1268.803,724.972-1283.269,742.025z"/>
	<path fill="#72534D" d="M-1248.383,723.089c0,0-0.754-27.812,30.612-42.124C-1217.771,680.966-1243.464,694.582-1248.383,723.089z"
		/>
	<path fill="#72534D" d="M-1233.927,723.089c0,0-0.657-24.875,27.388-37.679C-1206.539,685.411-1229.511,697.585-1233.927,723.089z"
		/>
	<path fill="#72534D" d="M-1218.259,724.31c0,0-0.666-24.882,27.384-37.683C-1190.875,686.626-1213.849,698.808-1218.259,724.31z"/>
	<path fill="#72534D" d="M-1205.789,721.441c0,0,3.873-24.577,33.774-31.945C-1172.015,689.496-1196.819,697.192-1205.789,721.441z"
		/>
	<path fill="#72534D" d="M-1183.977,716.535c0,0,5.535-23.935,35.479-29.062C-1148.497,687.473-1173.456,693.294-1183.977,716.535z"
		/>
	<path fill="#72534D" d="M-1161.871,712.257c0,0,8.208-18.488,33.254-17.848C-1128.617,694.409-1149.727,695.129-1161.871,712.257z"
		/>
	<path fill="#72534D" d="M-1139.46,707.726c0,0,10.792-13.57,31.48-7.55C-1107.979,700.176-1125.682,696.146-1139.46,707.726z"/>
	<path fill="#72534D" d="M-1124.193,708.92c0,0,14.305-9.719,32.283,2.242C-1091.91,711.162-1107.635,701.997-1124.193,708.92z"/>
	<path fill="#C2A29A" d="M-1386.996,829.711c0,0,9.748,47.791-42.301,133.967c0,0,29.818-34.101,39.742-17.056
		c0,0,17.885-48.703,15.898-68.201c0,0,2.53-44.258-3.967-63.32L-1386.996,829.711z"/>
	<path fill="#EBE1DD" d="M-1240.69,801.296c0,0,58.652-72.674,109.262,1.621c0,0-25.306,40.187-101.232,12.99
		C-1232.66,815.907-1251.934,811.033-1240.69,801.296z"/>
	<path fill="#EBE1DD" d="M-1443.142,819.152c0,0,8.838-7.624,1.202-18.236c0,0-60.657-54.023-107.249,6.869
		c0,0,15.26,25.296,75.512,21.927C-1473.676,829.711-1455.188,826.386-1443.142,819.152z"/>
	<path fill="#474F3C" d="M-1468.254,806.562c0,14.464-11.595,26.187-25.904,26.187c-14.316,0-25.914-11.722-25.914-26.187
		c0-14.457,11.598-26.185,25.914-26.185C-1479.849,780.376-1468.254,792.104-1468.254,806.562z"/>
	<path fill="#090911" d="M-1487.234,806.562c0,3.873-3.106,7.001-6.924,7.001c-3.833,0-6.932-3.128-6.932-7.001
		c0-3.866,3.098-7.001,6.932-7.001C-1490.34,799.561-1487.234,802.696-1487.234,806.562z"/>
	<path fill="#EEE9E8" d="M-1495.067,799.869c0,2.522-2.02,4.563-4.519,4.563c-2.496,0-4.515-2.042-4.515-4.563
		c0-2.522,2.02-4.574,4.515-4.574C-1497.086,795.295-1495.067,797.346-1495.067,799.869z"/>
	<path fill="#474F3C" d="M-1157.333,798.653c0,14.457-11.606,26.185-25.911,26.185c-14.309,0-25.904-11.728-25.904-26.185
		c0-14.466,11.596-26.184,25.904-26.184C-1168.939,772.469-1157.333,784.187-1157.333,798.653z"/>
	<path fill="#090911" d="M-1176.317,798.653c0,3.872-3.102,7.002-6.927,7.002c-3.831,0-6.928-3.131-6.928-7.002
		c0-3.87,3.097-7.001,6.928-7.001C-1179.419,791.652-1176.317,794.783-1176.317,798.653z"/>
	<path fill="#EEE9E8" d="M-1184.148,791.958c0,2.517-2.025,4.567-4.518,4.567c-2.494,0-4.521-2.05-4.521-4.567
		c0-2.523,2.026-4.572,4.521-4.572C-1186.174,787.386-1184.148,789.435-1184.148,791.958z"/>
	<path fill="#C2A29A" d="M-1411.019,805.353c0,0,7.237-21.926,16.881-19.489c9.635,2.436-9.644-2.437-9.644-2.437
		s-19.283-41.401-60.252-38.972C-1464.033,744.455-1403.781,783.427-1411.019,805.353z"/>
	<path fill="#C2A29A" d="M-1403.556,1012.395c0,0,91.588,12.174,115.691,0C-1287.865,1012.395-1338.474,1036.756-1403.556,1012.395z
		"/>
	<path fill="#BB9E9A" d="M-1242.299,780.994c0,0,48.21-55.208,122.925,17.866l-10.846,5.279c0,0-48.604-65.362-115.284,2.844
		L-1242.299,780.994z"/>
	<path fill="#BB9B95" d="M-1544.375,1249.085c0,0,30.523,110.423,101.234,126.657c0,0,179.959,12.988,208.886-3.245
		c0,0,44.979-11.363,51.41-21.11c0,0,24.095,3.251,53.008-87.683c0,0-75.504,43.839-112.461,47.087c0,0-157.466,9.737-199.233,0
		C-1441.533,1310.791-1517.06,1291.309-1544.375,1249.085z"/>
	<path fill="#BB9B95" d="M-1451.18,1438.8c0,0,32.131,92.565,57.848,100.688c0,0,30.529,3.243,33.74-9.752
		c0,0-81.941-66.564-77.124-102.3L-1451.18,1438.8z"/>
	<path fill="#BB9E9A" d="M-1437.521,812.657c0,0-54.629,35.729-110.869-2.436C-1548.39,810.222-1485.728,873.549-1437.521,812.657z"
		/>
	<path fill="#BB9E9A" d="M-1129.816,803.733c0,0-54.272,29.821-111.639,8.429C-1241.456,812.162-1178.021,854.066-1129.816,803.733z
		"/>
	<g>
		<path fill="#704F47" d="M-1401.625,746.898c0,0-50.617-21.921-79.547-17.048c0,0-91.582-36.537-137.377,21.921
			c0,0,2.416-48.717,48.206-70.638c0,0,122.924-9.748,171.13,7.31C-1399.214,688.443-1416.091,729.851-1401.625,746.898z"/>
		<path fill="#72534D" d="M-1450.976,727.97c0,0,0.675-24.883-27.384-37.693C-1478.36,690.276-1455.38,702.465-1450.976,727.97z"/>
		<path fill="#72534D" d="M-1466.643,729.191c0,0,0.676-24.89-27.383-37.692C-1494.026,691.499-1471.04,703.68-1466.643,729.191z"/>
		<path fill="#72534D" d="M-1479.112,726.313c0,0-3.867-24.575-33.772-31.943C-1512.884,694.369-1488.08,702.064-1479.112,726.313z"
			/>
		<path fill="#72534D" d="M-1500.917,721.41c0,0-5.538-23.929-35.481-29.056C-1536.398,692.354-1511.445,698.174-1500.917,721.41z"
			/>
		<path fill="#72534D" d="M-1523.023,717.137c0,0-8.215-18.483-33.254-17.849C-1556.277,699.288-1535.175,700.002-1523.023,717.137z
			"/>
		<path fill="#72534D" d="M-1545.432,712.604c0,0-10.8-13.577-31.49-7.559C-1576.922,705.046-1559.211,701.024-1545.432,712.604z"/>
		<path fill="#72534D" d="M-1560.704,713.792c0,0-14.305-9.712-32.281,2.257C-1592.985,716.049-1577.268,706.87-1560.704,713.792z"
			/>
	</g>
	<path fill="#BB9E9A" d="M-1438.558,788.307c0,0-48.206-55.203-122.924,17.868l10.846,5.274c0,0,45.629-66.181,112.317,2.021
		L-1438.558,788.307z"/>
	<path fill="#2C2C2D" d="M-718.168,2405.001l25.719-766.462l-118.909-32.477l41.776-133.162l-263.025-159.135
		c0,0-32.135,97.424-38.563,116.914c0,0,54.145,94.188,60.57,113.678c0,0,80.341,253.319,80.341,860.644H-718.168z"/>
	<g>
		<path fill="#BE7C81" d="M-1473.808,1093.057c0,0,101.999-13.971,143.765-4.298c0,0,80.236-10.74,146.672,6.446
			C-1183.371,1095.205-1340.929,1200.513-1473.808,1093.057z"/>
		<path fill="#832E30" d="M-1456.532,1096.642c0,0-4.275-5.354-12.944-4.012c0,0-4.365,3.878,10.75,7.361
			c0,0,120.188,26.099,261.848,1.97c0,0,14.455-2.13,10.17-6.361c0,0-6.471-2.01-13.017,2.983
			C-1199.725,1098.584-1332.003,1122.506-1456.532,1096.642z"/>
	</g>
	<path fill="#C2A29A" d="M-1292.394,829.711c0,0-9.747,47.791,42.302,133.967c0,0-29.821-34.101-39.742-17.056
		c0,0-17.887-48.703-15.899-68.201c0,0-2.53-44.258,3.967-63.32L-1292.394,829.711z"/>
	<path fill="#C2A29A" d="M-1266.133,805.353c0,0-7.238-21.926-16.88-19.489c-9.635,2.436,9.642-2.437,9.642-2.437
		s19.283-41.401,60.251-38.972C-1213.119,744.455-1273.371,783.427-1266.133,805.353z"/>
</g>
<g id="Neck">
	<path fill="#F7E1DC" d="M1384.311,1291.607c0,0-9.001,242.337-9.001,250.239l-66.006,123.804l12.001,86.925l-57.006,55.315
		l-54.005,121.169l-105.011-31.608l-51.005-129.071c0,0-126.013-229.168-126.013-237.069c0-7.902-3-158.046-3-158.046v-192.29
		L1384.311,1291.607z"/>
</g>
<g id="Layer_29">
	<rect x="744.5" y="1916.5" fill="#323E4C" width="840" height="487.5"/>
	<path opacity="0.3" fill="#FBC5B2" d="M1202.5,1436.651c0,0,53.077,38.717,90-2.151c0,0-46.154,169.925-80.77,228
		C1211.73,1662.5,1267.115,1503.33,1202.5,1436.651z"/>
	<g id="Layer_31">
		<path opacity="0.3" fill="#F9BEAC" d="M1316.5,1380.5l-18,296l70,4c0,0,14-292,4-340"/>
	</g>
</g>
<g id="shirt">
	<path fill="#323E4C" d="M146.469,1934.309c0,0,21.251-156.649,121.712-197.389c0,0,349.681-157.134,407.639-174.594l202.853-93.116
		l104.929,56.21c0,0,67.014,179.007,135.419,184.261c3.068,0.236,0,0,0,0s49.926,87.378,49.269,226.569"/>
	<path fill="#323E4C" d="M1255.298,1744.602c0,0,156.015-280.352,141.014-309.453c0,0,226.024,114.469,247.026,123.199
		c0,0,360.221,75.839,435.131,143.654c0,0,124.928,92.193,142.929,234.248H1168.289L1255.298,1744.602z"/>
</g>
<g id="shirt_accents">
	<path fill="#20262D" d="M1238.469,1934.309c0,0,62-125.61,110-112.031c0,0,12,21.339,6,34.919
		C1354.469,1857.196,1290.469,1929.943,1238.469,1934.309z"/>
	<path fill="#20262D" d="M1154.469,1934.309c0,0-40-42.193-44-65.473c0,0-48-58.198-50,13.579
		C1060.469,1882.415,1116.469,1934.309,1154.469,1934.309z"/>
</g>
<g id="Shirt_Button">
	<path fill="#FFFFFF" d="M1251.877,1850.686c4.062-12.778,1.127-24.997-6.554-27.294c-7.682-2.298-17.201,6.197-21.263,18.976
		s-1.127,24.997,6.554,27.295C1238.296,1871.96,1247.815,1863.464,1251.877,1850.686z"/>
	<path fill="#FFFFFF" d="M1222.492,2079.953c0.441-13.366-5.714-24.401-13.747-24.651c-8.034-0.25-14.905,10.381-15.347,23.746
		c-0.441,13.364,5.714,24.4,13.747,24.65C1215.18,2103.948,1222.051,2093.317,1222.492,2079.953z"/>
	<path fill="#FFFFFF" d="M1212.484,2283.805c0.441-13.365-5.714-24.4-13.747-24.651c-8.034-0.25-14.905,10.381-15.347,23.747
		c-0.441,13.364,5.714,24.399,13.747,24.649C1205.172,2307.8,1212.043,2297.169,1212.484,2283.805z"/>
</g>
<g id="Layer_30">
	<path fill="#20262D" d="M1257.505,1741.164c0,0-113.005,205.633-97.005,240.551c0,0,24,38.799,8,182.354c0,0-48,170.714,12,244.432
		c0,0-52-83.417-4-240.552c0,0,14-182.354-8-190.112C1168.5,1977.836,1175.505,1931.277,1257.505,1741.164z"/>
</g>
<g id="Collar">
	<path fill="#20262D" d="M978.469,1781.539c0,0-58,89.236-58,96.996s0,7.76,0,7.76s-149-261.891-105.994-389.926l18.994-11.64
		L978.469,1781.539z"/>
	<path fill="#20262D" d="M1005.067,1781.094l-32.998,2.91c0,0,49.498-96.023,119.994-65.471c0,0,30.001,11.153,34.501,46.07
		l14.723,76.036c0,0-2.726,3.011-13.226-7.171c0,0-22.499-78.563-37.498-88.747"/>
	<path fill="#20262D" d="M1262.469,1740.8c0,0,56.083-39.726,54.583-57.185c0,0-23.999-74.2,0-87.293
		c0,0,40.999-26.188,46.999,26.188c0,0,7.998,52.859,0.499,74.683s0.499,51.893,7.999,60.621c0,0-22.499-4.366-20.999-71.29
		c0,0,10.5-62.558-13.499-59.648c0,0-13.5,1.455-9,50.92C1329.051,1677.795,1335.38,1726.697,1262.469,1740.8z"/>
	<g>
		<path fill="#20262D" d="M1366.469,1750.5l6.08,7.313c0,0,20.253-68.745,52.474-148.333c21.446-52.974,27.226-94.061,25.44-138.33
			c0,0-0.994-7.76-5.994-7.76L1366.469,1750.5z"/>
		<path fill="#20262D" d="M1420.469,1621.494c0,0-28.84,122.294-47.92,136.319
			C1372.549,1757.813,1399.469,1619.555,1420.469,1621.494z"/>
	</g>
	<path fill="#323E4C" d="M1258.465,1740.8c0,0,65.007-35.89,61.007-64.988c0,0-27.918-57.666-2.42-79.489
		c0,0,38.997-24.732,44.997,26.188c0,0,10.499,32.008,3,58.195c0,0-11.999,59.65,7.5,77.108c0,0,37.497-91.657,47.997-149.853
		c0,0,34.499-90.202,26.999-142.578c0,0,0.506-54.798-24.993-75.166c0,0-6.505-111.058-14.005-113.968c0,0-18-20.368-26.999-18.913
		c0,0,9,82.929-14.999,152.762c0,0-65.997,171.675-76.496,180.404C1290.053,1590.502,1278.878,1709.238,1258.465,1740.8z"/>
</g>
<g id="Collar_over_Jacket">
	<path fill="#20262D" d="M1090.563,1744.722c0,0-50.998-27.643-85.496,36.372"/>
	<path fill="#323E4C" d="M1141.287,1840.64c0,0-24.002-58.204-18.002-87.306c0,0-25.222-76.992-117.012-14.552
		c0,0-74.701,88.861-86.702,132.514c0,0-156.323-278.023-96.317-388.609c0,0,60.006-8.73,72.007-40.742c0,0-6-107.677,3-136.778
		c0,0,24.002-49.474,30.003-34.923c0,0,4.339,140.242,52.336,249.357c0,0,53.997,174.585,136.683,190.08
		c0,0,39.004,66.935,39.004,110.588L1141.287,1840.64z"/>
	<path fill="#20262D" d="M1063.564,1676.34c0,0-41.998-65.469-56.997-98.932c0,0-34.498,26.188-11.999,66.925
		C994.568,1644.333,1042.565,1679.25,1063.564,1676.34z"/>
</g>
<g id="Face_shape">
	<path fill="#F7E1DC" d="M794.78,889.623c0,0,32.445,240.493,43.261,260.326c0,0,0.467,79.672,237.056,234.844
		c4.206,2.758,9.509,3.81,14.4,5.649c0,0,97.338,71.899,213.603,39.668c0,0,126.183-81.816,166.741-176.031
		c0,0,60.667-192.682,84.725-297.514c0,0-5.417-42.149-24.343-71.9c0,0,18.926-151.237,27.037-180.989
		c0,0,17.085-180.989-1.842-185.947c0,0-263.134-371.895-739.007-42.148c0,0-37.854,52.064-45.965,131.402
		C770.445,606.983,802.891,847.475,794.78,889.623z"/>
</g>
<g id="Face_accent">
	<path opacity="0.3" fill="#FBC5B2" d="M1084.344,1395.15c0,0,140.579,27.069,183.833,1.288c0,0,52.718-30.938,58.124-61.876
		c0,0,5.406-50.273-114.897-45.117c0,0-20.275-20.625,10.815-23.203c0,0,105.434-7.734,120.303-30.938
		c0,0,31.987-30.939-7.212-69.61c0,0-49.561-47.695-37.396-97.969c0,0,35.144-60.587,58.123-48.986c0,0,6.758-15.468-2.702-29.648
		c0,0-33.794-108.282-43.256-123.752c0,0-18.924-39.96,1.352-58.007c0,0,43.255-132.775,56.772-137.932
		c0,0,79.481-54.578,171.666,45.118c0,0,2.887,29.351-1.076,52.463c-0.737,4.288-1.708,8.36-2.978,11.99
		c0,0,5.865,2.579-0.894,52.852c0,0-8.568,27.072-4.513,36.095c0,0-108.137,55.43-120.303,113.439c0,0-5.407,30.938,28.386,29.647
		l100.025-33.515c0,0-55.864,197.23-63.975,228.167c0,0-12.035,81.2-99.581,170.159c0,0-112.192,91.524-198.702,55.432
		L1084.344,1395.15z"/>
</g>
<g id="Lips">
	<path fill="#F0957E" d="M1132.356,1192.02c0,0,78.618-23.44,96.089-30.876c0,0,38.781,0.142,43.819,8.521
		c0,0,43.019,6.258,54.318-4.406c0,0,25.118,24.302,26.127,42.167l4.171,12.457c0,0-29.811-4.85-41.251-11.269
		c0,0-23.376-1.724-33.411,0.827c0,0-15.339,0.1-24.913-7.729c0,0-14.142-6.533-69.425-0.684
		C1187.88,1201.029,1128.227,1203.728,1132.356,1192.02z"/>
	<path fill="#2C1024" d="M1111.364,1187.89c0,0,17.902,2.113,21.023,7.559c0,0,62.368,10.541,87.477,6.373
		c0,0,38.561,0.44,47.743,12.158c0,0,28.074,2.991,42.907-0.91c0,0,31.273,14.193,55.992,7.692c0,0,9.94-3.172-0.648-12.71
		c0,0-11.478,13.391-44.39-2.669c0,0-3.456-8.35-42.099-1.318c0,0-12.073,0.112-19.564-10.312c0,0-13.683-8.655-49.774-3.13
		c0,0-63.229,5.489-73.271-3.426c0,0-14.803-16.227-20.866-9.271C1115.895,1177.925,1107.047,1182.341,1111.364,1187.89z"/>
	<path fill="#F8A997" d="M1130.046,1196.614c0,0,50.029,37.836,73.956,40.697c0,0,42.411,6.419,71.905,5.798
		c0,0,70.909,5.973,79.31-20.596l1.448-3.566c0,0-35.331-5.28-41.106-10.627c0,0-33.642,3.736-41.402,2.483
		c0,0-36.091-22.654-54.532-13.68c0,0-56.71,4.12-84.692-2.159l-7.701-2.645L1130.046,1196.614z"/>
</g>
<g id="Philtrum">
	<path fill="#F9C1B0" d="M1327.651,1151.514c0,0-35.145-20.625-29.737-85.08c0,0,48.662-43.828,59.476-43.828
		c0,0,10.814,9.022,1.352,23.203c0,0-39.199,12.89-39.199,36.094C1319.542,1081.903,1331.706,1138.622,1327.651,1151.514z"/>
</g>
<g id="Nose">
	<path fill="#240F1F" d="M1264.497,1056.044c0,0-37.851-79.926-81.107-31.798c0,0,5.406,12.032,15.32,6.876
		c0,0-6.309-9.454,7.208-12.032C1205.918,1019.09,1225.745,1009.636,1264.497,1056.044z"/>
	<path fill="#240F1F" d="M1300.543,1062.92c0,0,43.258-56.723,55.874-42.971c0,0-4.506,15.47-26.134,22.345
		C1330.283,1042.294,1318.567,1049.169,1300.543,1062.92z"/>
	<path fill="#F0C1AE" d="M1191.5,958.07c0,0,19.826-30.081,45.96-25.783c0,0,9.912,6.016,9.912,10.313
		C1247.373,942.6,1217.635,943.46,1191.5,958.07z"/>
	<path fill="#F0C1AE" d="M1343.801,966.664c0,0,15.32,41.252,15.32,47.269c0,0-22.53-7.735-29.739-7.735
		c0,0-8.111-52.423-13.519-56.721C1315.863,949.477,1341.098,957.211,1343.801,966.664z"/>
</g>
<g id="Eye_shadow">
	<path fill="#F4C2AF" d="M1343.801,948.616c0,0-39.653-80.787-39.653-103.132c0,0,7.211-92.817,61.281-175.323v113.445
		C1365.429,783.606,1320.37,787.044,1343.801,948.616z"/>
</g>
<g id="Left_Eye">
	<g>
		<path fill="#FCF7FA" d="M1018.847,797.207c0,0,14.468,32.191,65.103,33.341c0,0,48.222,3.45,68.718-25.293
			c0,0-49.429-73.583-111.317-31.427C1041.35,773.828,1027.286,783.41,1018.847,797.207z"/>
		<path opacity="0.3" fill="#F9DDBD" d="M1149.051,804.105h-16.878c0,0-44.607-63.235-106.092-3.449l-12.056-3.449
			c0,0,34.963-44.84,69.925-36.792C1083.949,760.415,1134.583,761.565,1149.051,804.105z"/>
		<path fill="#474F3C" d="M1112.521,787.153c2.046,17.601-11.092,33.429-29.349,35.36c-18.268,1.93-34.724-10.768-36.771-28.37
			c-2.045-17.591,11.095-33.428,29.363-35.359C1094.021,756.854,1110.476,769.561,1112.521,787.153z"/>
		<path fill="#090911" d="M1087.497,788.946c0.548,4.713-2.972,8.938-7.844,9.453c-4.892,0.519-9.287-2.871-9.835-7.583
			c-0.547-4.705,2.963-8.937,7.854-9.455C1082.544,780.846,1086.949,784.243,1087.497,788.946z"/>
		<path fill="#EEE9E8" d="M1076.557,781.858c0.357,3.069-1.932,5.826-5.121,6.163c-3.184,0.336-6.049-1.875-6.406-4.944
			c-0.356-3.07,1.93-5.838,5.113-6.174C1073.333,776.566,1076.2,778.789,1076.557,781.858z"/>
		<path fill="#090911" d="M1150.987,804.791c0,0-61.889-87.639-132.085-6.897c0,0-21.434,0.51-19.826-3.067
			c0,0,35.238-48.151,102.59-36.621c0.631,0.108,1.263,0.221,1.899,0.34c0,0,41.261,14.82,55.193,46.503L1150.987,804.791z"/>
	</g>
	<path fill="#F0C1AE" d="M1260.895,1082.587c0,0,5.408,37.814-7.209,49.846C1253.686,1132.433,1257.29,1091.18,1260.895,1082.587z"
		/>
</g>
<g id="Right_Eye_1_">
	<path fill="#FCF7FA" d="M1377.665,825.377c0,0,31.09,36.093,100.027,12.89l14.868-3.868c0,0-10.814-50.273-56.772-52.852
		C1435.788,781.548,1388.479,782.838,1377.665,825.377z"/>
	<path opacity="0.3" fill="#F9DDBD" d="M1478.146,836.977c0,0,11.711,2.58,11.711-6.443c0,0-37.848-95.391-113.543-11.603
		C1376.314,818.931,1457.871,751.897,1478.146,836.977z"/>
	<path fill="#474F3C" d="M1453.302,805.832c1.905,16.393-10.33,31.134-27.333,32.932c-17.013,1.799-34.485-9.93-34.246-26.42
		c0.163-11.068,10.332-27.561,27.346-29.359C1436.071,781.187,1451.397,789.448,1453.302,805.832z"/>
	<path fill="#090911" d="M1429.997,807.502c0.51,4.39-2.769,8.325-7.307,8.805c-4.555,0.481-8.649-2.674-9.16-7.064
		c-0.508-4.381,2.76-8.322,7.317-8.805C1425.384,799.958,1429.488,803.122,1429.997,807.502z"/>
	<path fill="#EEE9E8" d="M1419.808,800.901c0.333,2.858-1.799,5.425-4.77,5.739c-2.964,0.314-5.634-1.745-5.966-4.603
		c-0.332-2.861,1.798-5.438,4.762-5.752C1416.806,795.972,1419.477,798.042,1419.808,800.901z"/>
	<path fill="#090911" d="M1478.339,829.116c0,0,8.985,2.142,12.353-4.284c0,0-14.593-42.475-55.012-44.616
		c0,0-37.059-4.639-56.146,41.403l7.859-2.141c0,0,5.614-19.274,29.193-26.772c0,0,34.807-9.634,50.525,11.782
		C1467.112,804.488,1474.973,810.912,1478.339,829.116z"/>
</g>
<g id="Left_Eyebrow">
	<path fill="#C4A67E" d="M1209.287,721.265c0,0-99.045-36.615-143.305-43.813c0,0-74.252,17.427-103.368,50.277
		c0,0,5.554,1.105,39.992-7.339c0,0,60.278-21.012,86.238-6.991c0,0,63.613,10.244,89.221,20.976
		C1178.066,734.374,1205.662,738.254,1209.287,721.265z"/>
</g>
<g id="Right_Eyebrow">
	<path fill="#C4A67E" d="M1365.248,739.023c0,0,129.149-68.645,177.444-1.661c0,0-1.942,14.521-11.443,24.398
		c0,0-18.296-26.296-49.004-20.933c0,0-94.079,10.307-110.409,10.097C1355.504,750.717,1358.914,745.609,1365.248,739.023z"/>
</g>
<g id="Ear_Outline">
	<path fill="#FCF2F0" d="M2684.468,1748.375"/>
	<path fill="#F9E8E4" d="M822.492,1079.099c0,0-46.501,36.092-66.083-15.478c0,0-10.741-29.41-3.398-44.883
		c0,0-25.695-48.984-35.484-51.563c0,0-33.02-55.676-31.02-91.676c0,0-3-26,0.429-38.521c0,0-2.447-43.828,34.261-32.227
		c0,0,59.956,29.65,78.311,73.479C799.509,878.23,845.476,930.629,822.492,1079.099z"/>
</g>
<g id="Inner_Ear">
	<path fill="#FBD1CB" d="M800.732,1000.692c0,0,6.119-12.892-13.46-24.494c0,0-44.05-30.937-1.223-67.032
		c0,0-18.354-27.071-24.472-28.359c0,0-46.495-48.985-57.507-48.985c0,0-4.897,5.157-4.897,27.071c0,0,4.894,51.563,13.459,61.875
		c0,0,47.721,72.188,50.168,77.344C762.8,998.113,793.391,983.934,800.732,1000.692z"/>
</g>
<g id="Layer_22">
	<path fill="#C6A5A1" d="M740.454,860.179c0,0-14.362,38.676,2.769,38.676c0,0,17.13-3.868,18.354-18.047
		C761.577,880.808,746.616,864.392,740.454,860.179z"/>
	<path fill="#C6A5A1" d="M800.732,1000.692c0,0,9.789,19.336,18.354,5.156c0,0,8.566-23.205-17.13-38.672
		c0,0-12.237-23.205-8.565-33.517c0,0,0-24.492-7.341-24.492c0,0-28.143,21.914-14.684,47.697c0,0,11.334,17.618,24.794,26.64
		C796.16,983.504,802.489,982.994,800.732,1000.692z"/>
	<path fill="#C6A5A1" d="M712.371,918.822c0,0-14.702-28.587,0.356-83.381c0,0-6.966-9.436-11.066,0.775
		C700.793,838.376,688.338,890.749,712.371,918.822z"/>
</g>
<g id="Hair_left">
</g>
<g id="Layer_26">
	<path fill="#A08F65" d="M795.441,864.389c0,0,45.44-154.165,34.683-187.996c0,0,60.384-341.917,276.384-231.156
		c0,0-24,44.305,240-3.692c0,0,179.996-29.913,207.771,186.243c0,0,61.681-56.076-35.611-210.645
		c0,0-107.546-156.146-330.688-171.762c0,0-204.332-33.825-303.82,130.125l-21.498,20.818c0,0-112.926,28.623-155.944,156.145
		c0,0-34.943,148.339-32.26,205.591l2.466,19.741l8.585,93.721C685.508,871.523,678.725,762.255,795.441,864.389z"/>
	<path fill="#B5A174" d="M931.977,406.748c0,0,20.177-114.015,155.017-145.146C1075.701,264.946,971.141,304.741,931.977,406.748z"
		/>
	<path fill="#B5A174" d="M949.689,414.039c0,0,30.708-127.948,185.889-153.12C1135.579,260.918,1006.134,290.179,949.689,414.039z"
		/>
	<path fill="#B5A174" d="M971.281,416.59c0,0,41.239-137.503,211.949-154.58C1183.23,262.01,1040.333,285.263,971.281,416.59z"/>
	<path fill="#B5A174" d="M993.766,420.999c0,0,59.148-151.299,253.576-153.447C1247.342,267.552,1083.779,279.479,993.766,420.999z"
		/>
	<path fill="#B5A174" d="M1032.283,419.912c0,0,64.884-147.057,257.399-140.193C1289.682,279.718,1127.296,283.965,1032.283,419.912
		z"/>
	<path fill="#B5A174" d="M1083.306,406.709c0,0,70.723-128.367,245.524-105.314C1328.83,301.395,1180.598,291.096,1083.306,406.709z
		"/>
	<path fill="#B5A174" d="M1125.254,405.52c0,0,83.603-119.563,254.893-76.657C1380.146,328.863,1233.925,301.673,1125.254,405.52z"
		/>
	<path fill="#B5A174" d="M1176.998,405.238c0,0,88.487-105.262,246.411-49.466C1423.409,355.772,1287.838,317.044,1176.998,405.238z
		"/>
	<path fill="#B5A174" d="M1227.662,412.186c0,0,83.113-87.892,219.403-30.142C1447.065,382.044,1329.604,340.55,1227.662,412.186z"
		/>
	<path fill="#B5A174" d="M1288.843,419.201c0,0,82.206-64.237,192.103,3.95C1480.945,423.151,1385.209,371.494,1288.843,419.201z"/>
	<path fill="#B5A174" d="M1369.583,437.517c0,0,69.965-33.548,140.305,34.78C1509.888,472.297,1447.458,418.466,1369.583,437.517z"
		/>
	<path fill="#B5A174" d="M906.643,407.971c0,0,8.027-99.496,116.368-132.383C1023.011,275.587,936.011,314.369,906.643,407.971z"/>
	<path fill="#B5A174" d="M716.571,585.722c0,0,8.118-125.405,151.732-169.251C868.303,416.471,753.318,467.25,716.571,585.722z"/>
	<path fill="#B5A174" d="M721.312,632.217c0,0,8.617-146.689,159.79-198.054C881.102,434.163,760.053,493.613,721.312,632.217z"/>
	<path fill="#B5A174" d="M727.853,685.243c0,0,9.323-174.821,171.709-236.119C899.562,449.125,769.521,520.054,727.853,685.243z"/>
	<path fill="#B5A174" d="M738.667,761.594c0,0-6.507-205.568,177.519-292.38C916.186,469.213,771,564.297,738.667,761.594z"/>
</g>
<g id="Layer_24">
</g>
<g id="Layer_27">
	<path fill="#29282A" d="M867.792,1676.377c0.701-1.068,0.447-3.144-0.602-6.045c-0.611,3.291-1.234,6.701-1.868,10.236
		C866.133,1679.054,866.956,1677.652,867.792,1676.377z"/>
	<path fill="#F4D5CE" d="M1156.653,828.025c0,0-99.179,31.938-145.141-11.334C1011.512,816.691,1057.123,893.228,1156.653,828.025z"
		/>
	<path opacity="0.3" fill="#FBC5B2" d="M1052.561,1231.991c0,0,32.167,31.612,70.047,40.616
		C1122.608,1272.607,1048.653,1326.933,1052.561,1231.991z"/>
	<path opacity="0.2" fill="#FBC5B2" d="M870.508,918.27c0,0-68-11.639-72-54.318c0,0,16,240.551,60,318.149c0,0,32,62.077,52,69.837
		C910.508,1251.938,822.508,1073.464,870.508,918.27z"/>
	<path fill="#F4D5CE" d="M938.508,906.634c0,0,46.737,38.799,148,34.919C1086.508,941.553,938.508,999.75,938.508,906.634z"/>
	<path opacity="0.2" fill="#FBC5B2" d="M1214.508,774.715c0,0,40,23.279,8,54.318c0,0,4-46.559-24-50.438"/>
	<path fill="#28282A" d="M335.111,2300.669c-157.86-330.951-120.007-547.81-106.528-601.431l-2.736-3.405
		c0,0-73.912,25.612-67.484,172.808c0,0-25.704,35.203-32.138,121.607c0,0-41.775,115.206-38.558,185.611
		c0,0,0,57.605-16.061,115.207c0,0-10.279,60.116-16.216,109.188h265.72L335.111,2300.669z"/>
	<path fill="#28282A" d="M2085.772,2400.255h313.142c-0.475-15.291-1.154-32.599-2.132-50.783c0,0-6.426-113.402-22.494-144.905
		c0,0-51.418-179.563-61.056-217.361c0,0-38.568-116.554-38.568-138.613c0,0,0-113.405-12.852-132.306
		c0,0-9.643-37.81-44.989-22.056l-0.385,0.052c-4.549,37.305-49.579,392.87-137.805,601.638
		C2078.634,2295.92,2085.753,2351.767,2085.772,2400.255z"/>
	<path fill="#29282A" d="M854.99,1701.318c0.701-1.068,0.447-3.144-0.602-6.045c-0.611,3.292-1.234,6.701-1.868,10.236
		C853.331,1703.995,854.154,1702.594,854.99,1701.318z"/>
	<path fill="#29282A" d="M325.103,2302.224l-14,98.031h285.105l-23.661-683.969l118.91-31.501l-41.78-129.163l11.584-6.88
		l-368.295,136.043l-70.694,12.595c0,0-1.536,4.341-3.697,12.806C205.096,1762.969,167.243,1976.44,325.103,2302.224z"/>
	<path fill="#29282A" d="M1627.809,1684.785l118.909,31.501l-23.661,683.969h372.724c-0.02-48.488-7.139-104.335-7.139-104.335
		c88.226-208.768,133.256-564.333,137.805-601.638c0.256-2.1,0.385-3.2,0.385-3.2c-19.283-12.605-118.9-31.502-118.9-31.502
		c-162.464-75.838-430.441-139.496-529.995-161.691l91.649,57.733L1627.809,1684.785z"/>
	<path fill="#2C2C2D" d="M681.449,1684.785l-118.91,31.501l23.661,683.969h214.398c2.948-363.698,32.502-586.488,51.922-694.745
		c0.634-3.535,1.257-6.944,1.868-10.236c8.778-47.273,15.063-69.562,15.063-69.562c6.426-18.896,28.922-94.494,28.922-94.494
		c-6.426-18.911,0.923-129.786,0.923-129.786l-248.043,147.311l-11.584,6.88L681.449,1684.785z"/>
	<path fill="#2C2C2D" d="M1733.064,2400.255l23.661-683.969l-118.909-31.501l41.776-129.163l-91.649-57.733l-157.601-99.28
		c0,0,25.428,112.054,19,130.958c0,0-28.427,50.939-22.001,69.845c0,0,85.397,252.963,91.255,800.844H1733.064z"/>
</g>
<g id="Layer_3" display="none">
	
		<image display="inline" overflow="visible" width="1200" height="630" xlink:href="8D1AAC99.jpg"  transform="matrix(3.6427 0 0 3.6427 -968.582 105.0806)">
	</image>
</g>
<g id="Layer_28">
</g>
</svg>
