<?xml version="1.0" encoding="utf-8"?>
<!-- Generator: Adobe Illustrator 16.0.0, SVG Export Plug-In . SVG Version: 6.00 Build 0)  -->
<!DOCTYPE svg PUBLIC "-//W3C//DTD SVG 1.1//EN" "http://www.w3.org/Graphics/SVG/1.1/DTD/svg11.dtd">
<svg version="1.1" id="Layer_1" xmlns="http://www.w3.org/2000/svg" xmlns:xlink="http://www.w3.org/1999/xlink" x="0px" y="0px"
	 width="72px" height="72px" viewBox="0 0 72 72" enable-background="new 0 0 72 72" xml:space="preserve">
<g>
	<circle fill-rule="evenodd" clip-rule="evenodd" fill="#232F3E" cx="36.25" cy="36.25" r="34.451"/>
	<g>
		<path fill="#FFFFFF" d="M26.728,33.738c0,0.536,0.057,0.973,0.16,1.29c0.116,0.322,0.261,0.669,0.465,1.046
			c0.072,0.116,0.1,0.233,0.1,0.334c0,0.145-0.085,0.289-0.273,0.435l-0.916,0.611c-0.131,0.086-0.262,0.13-0.378,0.13
			c-0.145,0-0.29-0.073-0.435-0.203c-0.204-0.217-0.377-0.45-0.523-0.684c-0.145-0.246-0.29-0.523-0.448-0.855
			c-1.133,1.334-2.556,2.003-4.268,2.003c-1.22,0-2.192-0.35-2.903-1.046c-0.711-0.697-1.074-1.624-1.074-2.787
			c0-1.235,0.436-2.236,1.322-2.99c0.884-0.754,2.061-1.132,3.555-1.132c0.493,0,1.002,0.043,1.539,0.117
			c0.538,0.073,1.089,0.188,1.669,0.319v-1.06c0-1.103-0.232-1.872-0.682-2.322c-0.464-0.45-1.249-0.668-2.366-0.668
			c-0.509,0-1.031,0.058-1.569,0.188c-0.537,0.131-1.059,0.291-1.568,0.494c-0.232,0.101-0.405,0.16-0.506,0.188
			c-0.103,0.028-0.175,0.043-0.232,0.043c-0.204,0-0.305-0.146-0.305-0.45v-0.711c0-0.232,0.029-0.406,0.102-0.509
			c0.072-0.101,0.204-0.203,0.407-0.305c0.507-0.259,1.117-0.478,1.827-0.653c0.711-0.188,1.466-0.276,2.265-0.276
			c1.729,0,2.991,0.393,3.803,1.176c0.799,0.784,1.205,1.974,1.205,3.571v4.703H26.728z M20.835,35.944
			c0.479,0,0.972-0.087,1.494-0.261c0.523-0.175,0.988-0.493,1.38-0.928c0.231-0.277,0.406-0.582,0.492-0.929
			c0.088-0.35,0.146-0.771,0.146-1.265v-0.609c-0.421-0.102-0.872-0.188-1.335-0.246c-0.465-0.058-0.915-0.088-1.365-0.088
			c-0.972,0-1.683,0.189-2.163,0.581c-0.478,0.393-0.711,0.944-0.711,1.669c0,0.683,0.175,1.189,0.538,1.539
			C19.66,35.769,20.167,35.944,20.835,35.944L20.835,35.944z M32.49,37.511c-0.261,0-0.436-0.043-0.553-0.146
			c-0.115-0.087-0.217-0.29-0.304-0.565l-3.411-11.219c-0.087-0.29-0.132-0.479-0.132-0.582c0-0.232,0.119-0.361,0.35-0.361h1.423
			c0.275,0,0.464,0.043,0.566,0.144c0.116,0.088,0.202,0.292,0.29,0.566l2.439,9.607l2.265-9.607
			c0.069-0.29,0.158-0.479,0.273-0.566c0.116-0.086,0.32-0.144,0.581-0.144h1.162c0.276,0,0.466,0.043,0.58,0.144
			c0.115,0.088,0.219,0.292,0.275,0.566l2.294,9.724l2.511-9.724c0.088-0.29,0.189-0.479,0.291-0.566
			c0.115-0.086,0.305-0.144,0.565-0.144h1.351c0.231,0,0.362,0.116,0.362,0.361c0,0.074-0.015,0.147-0.028,0.233
			c-0.016,0.086-0.045,0.202-0.103,0.363l-3.497,11.218c-0.088,0.29-0.189,0.48-0.306,0.567c-0.118,0.087-0.305,0.146-0.553,0.146
			h-1.248c-0.274,0-0.465-0.046-0.577-0.146c-0.118-0.103-0.221-0.291-0.276-0.581l-2.252-9.362l-2.235,9.347
			c-0.072,0.29-0.16,0.479-0.275,0.58c-0.117,0.103-0.32,0.146-0.581,0.146H32.49z M51.142,37.902c-0.756,0-1.511-0.087-2.236-0.26
			c-0.726-0.175-1.293-0.364-1.668-0.582c-0.232-0.13-0.392-0.275-0.451-0.406c-0.059-0.128-0.088-0.277-0.088-0.405v-0.742
			c0-0.304,0.117-0.45,0.336-0.45c0.086,0,0.173,0.015,0.26,0.044c0.089,0.029,0.22,0.089,0.362,0.145
			c0.495,0.218,1.033,0.393,1.599,0.508c0.58,0.117,1.146,0.175,1.727,0.175c0.913,0,1.626-0.16,2.118-0.479
			c0.494-0.319,0.756-0.784,0.756-1.379c0-0.407-0.131-0.74-0.393-1.015c-0.263-0.277-0.756-0.522-1.465-0.755l-2.106-0.652
			c-1.057-0.334-1.841-0.829-2.321-1.481c-0.479-0.64-0.725-1.35-0.725-2.105c0-0.609,0.13-1.146,0.392-1.61
			c0.261-0.466,0.609-0.871,1.046-1.19c0.433-0.335,0.926-0.581,1.508-0.755c0.58-0.174,1.19-0.247,1.83-0.247
			c0.316,0,0.649,0.015,0.971,0.058c0.335,0.043,0.639,0.102,0.943,0.16c0.292,0.072,0.565,0.146,0.828,0.232
			c0.262,0.087,0.465,0.174,0.608,0.262c0.204,0.115,0.35,0.231,0.437,0.362c0.086,0.116,0.132,0.276,0.132,0.479v0.682
			c0,0.305-0.12,0.465-0.335,0.465c-0.117,0-0.304-0.059-0.554-0.175c-0.824-0.377-1.755-0.565-2.787-0.565
			c-0.825,0-1.479,0.131-1.928,0.406c-0.45,0.276-0.682,0.697-0.682,1.292c0,0.405,0.146,0.754,0.434,1.03
			c0.289,0.277,0.829,0.551,1.599,0.799l2.06,0.653c1.046,0.334,1.799,0.798,2.25,1.393c0.451,0.595,0.666,1.278,0.666,2.033
			c0,0.623-0.129,1.189-0.376,1.682c-0.264,0.493-0.611,0.929-1.059,1.278c-0.452,0.363-0.988,0.622-1.611,0.813
			C52.563,37.801,51.881,37.902,51.142,37.902L51.142,37.902z"/>
		<path fill="#F7981F" d="M53.884,44.957c-4.775,3.528-11.714,5.4-17.679,5.4c-8.36,0-15.893-3.093-21.581-8.229
			c-0.451-0.407-0.045-0.959,0.492-0.64c6.155,3.57,13.745,5.734,21.596,5.734c5.301,0,11.117-1.104,16.476-3.368
			C53.986,43.491,54.667,44.377,53.884,44.957L53.884,44.957z"/>
		<path fill="#F7981F" d="M55.873,42.693c-0.608-0.782-4.033-0.378-5.591-0.19c-0.462,0.058-0.535-0.347-0.113-0.653
			c2.728-1.915,7.213-1.363,7.736-0.725c0.521,0.65-0.146,5.14-2.7,7.285c-0.395,0.334-0.77,0.159-0.597-0.274
			C55.192,46.697,56.482,43.461,55.873,42.693z"/>
	</g>
</g>
</svg>
