<?xml version="1.0" encoding="utf-8"?>
<!-- Generator: Adobe Illustrator 16.0.0, SVG Export Plug-In . SVG Version: 6.00 Build 0)  -->
<!DOCTYPE svg PUBLIC "-//W3C//DTD SVG 1.1//EN" "http://www.w3.org/Graphics/SVG/1.1/DTD/svg11.dtd">
<svg version="1.1" id="Layer_1" xmlns="http://www.w3.org/2000/svg" xmlns:xlink="http://www.w3.org/1999/xlink" x="0px" y="0px"
	 width="72px" height="72px" viewBox="0 0 72 72" enable-background="new 0 0 72 72" xml:space="preserve">
<g>
	<path fill="#5294CF" d="M45.593,69.281h0.811l13.211-6.605l0.221-0.311V9.631l-0.221-0.312L46.403,2.719h-0.818L45.593,69.281"/>
	<path fill="#1F5B98" d="M28.401,69.281H27.58l-13.2-6.605l-0.268-0.461L13.976,9.9l0.404-0.581l13.2-6.601h0.832L28.401,69.281"/>
	<path fill="#2D72B8" d="M27.604,2.719H46.39v66.563H27.604V2.719z"/>
	<path fill="#1A476F" d="M66.53,34.505l-0.447-0.098l-6.373-0.595l-0.096,0.047L46.392,33.33H27.604l-13.224,0.529V23.776
		l-0.014,0.007l0.014-0.029l13.224-3.064h18.788l13.223,3.064l4.861,2.583v-1.661l2.055-0.225l-0.211-0.415l-6.508-4.651
		l-0.197,0.065l-13.223-4.098H27.604L14.379,19.45V9.319l-6.915,8.102v7.075l0.053-0.038l2.001,0.218v1.696l-2.054,1.099v7.04
		l0.053-0.005l2.001,0.03v2.954l-1.726,0.027l-0.328-0.031v7.041l2.054,1.105v1.717l-1.968,0.217L7.464,47.5v7.074l6.915,8.102
		V52.549l13.224,4.094h18.788l13.262-4.107l0.176,0.076l6.42-4.582l0.281-0.455l-2.055-0.227v-1.682l-0.27-0.107l-4.395,2.367
		l-0.158,0.332l-13.262,3.049v0.002H27.604v-0.002l-13.224-3.063V38.125l13.224,0.527v0.014h18.788l13.223-0.541l0.301,0.139
		l6.18-0.533l0.436-0.211l-2.055-0.031v-2.954L66.53,34.505"/>
	<path fill="#2D72B8" d="M59.614,52.549v10.127l6.916-8.102v-7.029l-6.877,4.99L59.614,52.549"/>
	<path fill="#2D72B8" d="M59.614,48.27l0.039-0.012l6.877-3.697v-7.072l-6.916,0.637V48.27"/>
	<path fill="#2D72B8" d="M59.653,23.762l-0.039-0.009v10.105l6.916,0.646v-7.067L59.653,23.762"/>
	<path fill="#2D72B8" d="M59.653,19.489l6.877,4.962v-7.028l-6.916-8.104v10.13l0.039,0.014V19.489"/>
</g>
</svg>
