<?xml version="1.0" encoding="utf-8"?>
<!-- Generator: Adobe Illustrator 16.0.0, SVG Export Plug-In . SVG Version: 6.00 Build 0)  -->
<!DOCTYPE svg PUBLIC "-//W3C//DTD SVG 1.1//EN" "http://www.w3.org/Graphics/SVG/1.1/DTD/svg11.dtd">
<svg version="1.1" id="Layer_2" xmlns="http://www.w3.org/2000/svg" xmlns:xlink="http://www.w3.org/1999/xlink" x="0px" y="0px"
	 width="72px" height="72px" viewBox="0 0 72 72" enable-background="new 0 0 72 72" xml:space="preserve">
<rect x="-0.25" y="-0.25" fill="#0C0C0C" width="72.5" height="72.5"/>
<rect x="3.375" y="3.375" fill="#282828" width="65.25" height="65.25"/>
<g>
	<path fill="#0ACF83" d="M26.534,64.4c5.229,0,9.466-4.238,9.466-9.469v-9.467h-9.466c-5.229,0-9.466,4.239-9.466,9.467
		C17.068,60.162,21.307,64.4,26.534,64.4z"/>
	<path fill="#A259FF" d="M17.068,36c0-5.228,4.237-9.466,9.466-9.466H36v18.932h-9.466C21.307,45.466,17.068,41.227,17.068,36z"/>
	<path fill="#F24E1E" d="M17.068,17.065c0-5.227,4.237-9.466,9.466-9.466H36v18.935h-9.466
		C21.307,26.534,17.068,22.295,17.068,17.065z"/>
	<path fill="#FF7262" d="M36,7.6h9.465c5.23,0,9.467,4.24,9.467,9.466c0,5.229-4.236,9.469-9.467,9.469H36V7.6z"/>
	<path fill="#1ABCFE" d="M54.932,36c0,5.227-4.236,9.466-9.467,9.466C40.238,45.466,36,41.227,36,36
		c0-5.228,4.238-9.466,9.465-9.466C50.695,26.534,54.932,30.772,54.932,36z"/>
</g>
</svg>
