<?xml version="1.0" encoding="utf-8"?>
<!-- Generator: Adobe Illustrator 16.0.0, SVG Export Plug-In . SVG Version: 6.00 Build 0)  -->
<!DOCTYPE svg PUBLIC "-//W3C//DTD SVG 1.1//EN" "http://www.w3.org/Graphics/SVG/1.1/DTD/svg11.dtd">
<svg version="1.1" xmlns="http://www.w3.org/2000/svg" xmlns:xlink="http://www.w3.org/1999/xlink" x="0px" y="0px" width="75px"
	 height="75px" viewBox="0 0 75 75" enable-background="new 0 0 75 75" xml:space="preserve">
<g id="Layer_1" display="none">
	<circle display="inline" fill="#6FCFF0" cx="37.648" cy="37.765" r="6.459"/>
	<path display="inline" fill="#6FCFF0" d="M37.647,22.93c-19.874,0-35.984,6.673-35.984,14.904c0,8.232,16.11,14.905,35.984,14.905
		c19.875,0,35.983-6.673,35.983-14.905C73.631,29.604,57.521,22.93,37.647,22.93z M37.477,49.475
		c-18.076,0-32.728-5.211-32.728-11.64c0-6.428,14.652-11.639,32.728-11.639c18.076,0,32.729,5.211,32.729,11.639
		C70.205,44.264,55.553,49.475,37.477,49.475z"/>
	<path display="inline" fill="#6FCFF0" d="M50.547,30.365C40.584,13.167,26.735,2.572,19.613,6.697
		c-7.124,4.125-4.823,21.41,5.137,38.609C34.71,62.5,48.559,73.098,55.684,68.973C62.805,64.848,60.506,47.563,50.547,30.365z
		 M27.49,43.521c-9.06-15.644-11.895-30.935-6.332-34.156c5.563-3.221,17.416,6.846,26.476,22.488
		c9.06,15.641,11.894,30.933,6.33,34.153C48.402,69.229,36.548,59.161,27.49,43.521z"/>
	<path display="inline" fill="#6FCFF0" d="M50.586,45.232c9.865-17.252,12.068-34.55,4.922-38.636
		c-7.145-4.086-20.935,6.587-30.8,23.841c-9.863,17.252-12.067,34.549-4.921,38.636C26.933,73.159,40.723,62.484,50.586,45.232z
		 M27.627,31.91C36.6,16.217,48.396,6.083,53.979,9.274c5.578,3.191,2.832,18.497-6.143,34.19
		c-8.969,15.691-20.767,25.824-26.348,22.634C15.908,62.906,18.656,47.6,27.627,31.91z"/>
</g>
<g id="Layer_2" display="none">
	
		<image display="inline" overflow="visible" width="1024" height="1024" xlink:href="511D8291.jpg"  transform="matrix(0.2793 0 0 0.2793 92 -91)">
	</image>
</g>
<g id="Orbs">
</g>
<g id="triangle">
</g>
<g id="hexagon">
	<path fill="none" d="M243.38,147.64c-0.075,0.324-0.15,0.648-0.247,0.965l33.162,19.088l0.274,0.099
		c2.709-2.817,6.509-4.578,10.726-4.578c4.253,0,8.08,1.792,10.793,4.651l32.932-18.846c-0.175-0.512-0.325-1.034-0.443-1.569
		L243.38,147.64z"/>
	<path fill="none" d="M238.528,133.723c2.044,2.336,4.089,7.593,4.089,7.593l0.88-0.003l87.077-0.287l0.812-0.003
		c0-3.796,4.38-7.008,4.38-7.008l-0.524-0.911l-43.388-75.357c-1.604,0.592-3.332,0.931-5.143,0.931
		c-1.54,0-3.026-0.234-4.424-0.668l-43.442,75.167L238.528,133.723z"/>
	<path fill="none" d="M330.996,73.084l-0.192-0.111l-33.12-19.145c-0.175,0.19-0.345,0.385-0.529,0.565l43.824,75.541l0.335,0.576
		l-9.929,16.937l-0.809,0.002l-87.196,0.19l-0.763,0.002l-9.928-17.131l0.331-0.578l43.247-75.539
		c-0.179-0.176-0.344-0.363-0.514-0.548l-32.167,18.486l-0.97,0.558l-10.12,5.84l-0.392,12.459v0.531v37.978v0.424l0.585,11.688
		l10.122,6.611l0.32,0.185l33.162,19.088l0.274,0.099l10.043,3.6l11.096-3.309l0.38-0.218l32.932-18.846l0.365-0.209l9.926-7.204
		l0.197-11.095l0.004-0.714l0.189-38.239l0.002-0.369l0.389-13.627L330.996,73.084z"/>
	<path fill="#E535AB" d="M297.318,53.617l-0.565-0.005l0.401,0.781c0.185-0.181,0.354-0.375,0.529-0.565L297.318,53.617z"/>
	<path fill="#E535AB" d="M276.763,53.426l-0.273-0.003l-0.735,0.423c0.17,0.185,0.335,0.372,0.514,0.548L276.763,53.426z"/>
	<path fill="#E535AB" d="M64.744,45.827V28.914c2.916-0.683,5.088-3.293,5.088-6.416c0-3.643-2.953-6.596-6.596-6.596
		c-1.926,0-3.654,0.831-4.861,2.15L43.707,9.572c0.166-0.578,0.26-1.187,0.26-1.818c0-3.643-2.953-6.596-6.596-6.596
		s-6.596,2.953-6.596,6.596c0,0.537,0.067,1.347,0.188,1.957l-14.22,8.186c-1.198-1.23-2.87-1.995-4.722-1.995
		c-3.642,0-6.595,2.953-6.595,6.596c0,2.999,2.002,5.526,4.742,6.328v17.025c-2.871,0.714-5,3.303-5,6.394
		c0,3.643,2.953,6.596,6.595,6.596c1.888,0,3.585-0.796,4.787-2.066l14.763,8.581c-0.179,0.601-0.279,1.233-0.279,1.893
		c0,3.642,2.954,6.595,6.596,6.595c3.642,0,6.595-2.953,6.595-6.595c0-0.759-0.135-1.484-0.369-2.164l14.439-8.479
		c1.211,1.368,2.973,2.236,4.941,2.236c3.643,0,6.596-2.953,6.596-6.596C69.832,49.12,67.66,46.512,64.744,45.827z M13.186,45.806
		V28.985c3.087-0.55,5.432-3.241,5.432-6.487c0-0.734-0.125-1.439-0.348-2.099l14.248-8.188l0.325-0.188l0.122,0.001l-0.219,0.429
		L13.59,45.91C13.458,45.872,13.322,45.836,13.186,45.806z M42.41,62.711c-1.201-1.267-2.896-2.06-4.781-2.06
		c-1.868,0-3.551,0.778-4.75,2.027l-0.122-0.045l-14.688-8.453c0.043-0.142,0.076-0.285,0.11-0.427l38.62-0.086
		c0.053,0.237,0.119,0.469,0.197,0.696L42.41,62.711z M56.799,50.823l-38.568,0.128c-0.283-1.421-1.026-2.672-2.061-3.604
		l19.242-33.292c0.619,0.192,1.277,0.295,1.959,0.295c0.802,0,1.566-0.15,2.277-0.412l19.217,33.377
		C57.842,48.222,57.102,49.44,56.799,50.823z M61.643,45.851c-0.08,0.02-0.158,0.038-0.236,0.061l-19.41-33.458l-0.178-0.346
		l0.25,0.002l0.162,0.093l14.67,8.48c-0.166,0.578-0.26,1.185-0.26,1.815c0,3.123,2.172,5.732,5.086,6.416L61.643,45.851z"/>
</g>
</svg>
