<?xml version="1.0" encoding="utf-8"?>
<!-- Generator: Adobe Illustrator 16.0.0, SVG Export Plug-In . SVG Version: 6.00 Build 0)  -->
<!DOCTYPE svg PUBLIC "-//W3C//DTD SVG 1.1//EN" "http://www.w3.org/Graphics/SVG/1.1/DTD/svg11.dtd">
<svg version="1.1" id="Layer_1" xmlns="http://www.w3.org/2000/svg" xmlns:xlink="http://www.w3.org/1999/xlink" x="0px" y="0px"
	 width="72px" height="72px" viewBox="0 0 72 72" enable-background="new 0 0 72 72" xml:space="preserve">
<g id="Layer_4">
	<path fill="#F15A30" d="M69.627,22.778c0,0,0.733-3.632-2.924-6.356L38.674,1.439c0,0-3.167-1.816-6.824,0.682L6.989,15.514
		c0,0-4.63,1.814-4.63,6.81v26.785c0,0-0.836,5.266,4.56,7.465l24.667,13.301l-0.005-0.088l0.756,0.434c0,0,3.409,2.04,6.823,0.228
		l27.785-14.755c0,0,3.172-0.909,2.682-7.266V22.778z"/>
</g>
<polygon fill="#FFFFFF" points="21.548,46.912 22.636,57.346 35.673,61.259 49.365,57.346 51.322,37.135 27.419,37.135 
	26.982,30.834 52.191,30.616 52.406,23.879 19.594,23.879 21.114,43.654 43.932,43.654 43.496,51.913 35.892,54.303 28.586,52.184 
	28.505,47.212 "/>
<g>
	<path fill="#FFFFFF" d="M26.858,21.042h-1.772v-3.616h-3.316v3.616h-1.777v-8.378h1.777v3.283h3.316v-3.283h1.772V21.042z"/>
	<path fill="#FFFFFF" d="M32.204,21.042h-1.776v-6.899h-2.275v-1.478h6.327v1.478h-2.275V21.042L32.204,21.042z"/>
	<path fill="#FFFFFF" d="M39.315,21.042l-2.017-6.573h-0.051c0.071,1.338,0.109,2.23,0.109,2.677v3.897H35.77v-8.378h2.419
		l1.981,6.406h0.033l2.104-6.406h2.418v8.377H43.07v-3.966c0-0.187,0.003-0.405,0.009-0.647c0.004-0.245,0.031-0.895,0.076-1.949
		h-0.05l-2.16,6.56h-1.63V21.042L39.315,21.042z"/>
	<path fill="#FFFFFF" d="M46.833,21.042v-8.378h1.776v6.909h3.397v1.467L46.833,21.042L46.833,21.042z"/>
</g>
</svg>
