<?xml version="1.0" encoding="utf-8"?>
<!-- Generator: Adobe Illustrator 16.0.0, SVG Export Plug-In . SVG Version: 6.00 Build 0)  -->
<!DOCTYPE svg PUBLIC "-//W3C//DTD SVG 1.1//EN" "http://www.w3.org/Graphics/SVG/1.1/DTD/svg11.dtd">
<svg version="1.1" id="Layer_2" xmlns="http://www.w3.org/2000/svg" xmlns:xlink="http://www.w3.org/1999/xlink" x="0px" y="0px"
	 width="75px" height="75px" viewBox="0 0 75 75" enable-background="new 0 0 75 75" xml:space="preserve">
<g>
	<path fill="#7152A1" d="M40.077,3.352c0,0-19.757-3.418-23.389,22.854c0,0-1.76,10.771,5.529,23.745
		c-0.366,0.705-0.574,1.506-0.574,2.355c0,2.832,2.295,5.127,5.126,5.127c2.831,0,5.125-2.295,5.125-5.127
		c0-2.83-2.295-5.125-5.125-5.125c-0.345,0-0.681,0.035-1.006,0.1c-1.547-2.801-5.841-11.527-4.697-20.327
		c0,0,1.175-11.748,8.758-16.981c0,0,17.301-11.214,22.214,14.418l4.592,1.388C56.631,25.779,56.203,6.896,40.077,3.352z"/>
	<path fill="#7152A1" d="M69.66,65.722c0,0,11.962-16.447-8.44-32.001c0,0-8.465-6.888-23.346-7.024
		c-0.43-0.669-1.021-1.248-1.757-1.67c-2.456-1.409-5.589-0.561-6.998,1.895c-1.409,2.455-0.561,5.588,1.894,6.997
		c2.456,1.41,5.589,0.561,6.998-1.894c0.171-0.298,0.309-0.607,0.414-0.921c3.198,0.051,12.904,0.671,19.968,6.044
		c0,0,9.604,6.867,10.368,16.048c0,0,1.759,20.703-22.917,12.207l-3.311,3.416C42.533,68.817,60.688,77.255,69.66,65.722z"/>
	<path fill="#7152A1" d="M3.037,60.206c0,0,7.47,18.609,31.733,7.9c0,0,10.091-4.158,17.304-17.176
		c0.792-0.059,1.583-0.303,2.306-0.748c2.409-1.488,3.157-4.646,1.67-7.057c-1.487-2.408-4.645-3.156-7.056-1.67
		c-2.408,1.488-3.156,4.646-1.669,7.057c0.181,0.293,0.387,0.561,0.612,0.803c-1.569,2.787-6.741,11.023-14.831,14.672
		c0,0-10.614,5.172-19.049,1.467c0,0-18.622-8.383-0.359-26.326l-0.854-4.165C12.843,34.963-2.428,44.147,3.037,60.206z"/>
</g>
</svg>
