<?xml version="1.0" encoding="utf-8"?>
<!-- Generator: Adobe Illustrator 16.0.0, SVG Export Plug-In . SVG Version: 6.00 Build 0)  -->
<!DOCTYPE svg PUBLIC "-//W3C//DTD SVG 1.1//EN" "http://www.w3.org/Graphics/SVG/1.1/DTD/svg11.dtd">
<svg version="1.1" id="Layer_1" xmlns="http://www.w3.org/2000/svg" xmlns:xlink="http://www.w3.org/1999/xlink" x="0px" y="0px"
	 width="72px" height="72px" viewBox="0 0 72 72" enable-background="new 0 0 72 72" xml:space="preserve">
<g id="Layer_4">
	<path fill="#CD669A" d="M69.627,22.778c0,0,0.733-3.632-2.924-6.356L38.674,1.439c0,0-3.167-1.816-6.824,0.682L6.989,15.514
		c0,0-4.63,1.814-4.63,6.81v26.785c0,0-0.836,5.266,4.56,7.465l24.667,13.301l-0.005-0.088l0.756,0.434c0,0,3.409,2.04,6.823,0.228
		l27.785-14.755c0,0,3.172-0.909,2.682-7.266V22.778z"/>
</g>
<path fill="#FFFFFF" d="M15.262,32.655c0,0,0.075,2.938,4.896,6.628c0,0,4.862,3.463,7.518,5.652
	c-2.416,1.096-5.858,2.9-7.818,5.043c0,0-9.339,10.244,2.411,10.695c0,0,12.353-0.602,10.017-13.934c0,0,6.479-2.938,9.942,1.279
	c0,0,3.014,3.391-0.979,5.727c0,0-0.678,0.752,0.452,0.828c0,0,3.539-2.035,3.013-4.973c0,0-0.829-9.338-14.312-5.799
	c0,0-0.027,0.012-0.042,0.016c-0.291-0.402-2.368-2.652-6.284-5.438c0,0-6.177-4.143-2.787-10.47c0,0,5.65-8.06,18.153-11.675
	c0,0,17.926-4.142,12.276,7.156c0,0-3.841,7.08-14.009,8.209c0,0-4.972,0.603-6.93-2.259c0,0-2.336,0.452,2.033,3.464
	c0,0,8.284,4.293,18.755-3.615c-0.002-0.001,12.728-11.676-1.282-17.174c0,0-10.018-3.464-23.726,5.122
	C26.56,17.139,13.755,25.047,15.262,32.655z M29.345,46.814c1.433,6.402-3.916,9.416-3.916,9.416
	c-4.67,2.41-4.218-0.604-4.218-0.604C21.361,50.355,29.345,46.814,29.345,46.814z"/>
</svg>
