<?xml version="1.0" encoding="utf-8"?>
<!-- Generator: Adobe Illustrator 22.0.1, SVG Export Plug-In . SVG Version: 6.00 Build 0)  -->
<svg version="1.1" id="Layer_1" xmlns="http://www.w3.org/2000/svg" xmlns:xlink="http://www.w3.org/1999/xlink" x="0px" y="0px"
	 viewBox="0 0 512 512" style="enable-background:new 0 0 512 512;" xml:space="preserve">
<style type="text/css">
	.st0{display:none;}
	.st1{display:inline;}
	.st2{fill:#FFFFFF;}
	.st3{fill:#37C5F3;}
</style>
<g id="Layer_1_1_" class="st0">
	<g class="st1">
		<path class="st2" d="M370.7,0H141.3C63.4,0,0,63.4,0,141.3v229.4C0,448.6,63.4,512,141.3,512h229.4c77.9,0,141.3-63.4,141.3-141.3
			V141.3C512,63.4,448.6,0,370.7,0z M466.6,370.7c0,52.9-43,95.9-95.9,95.9H141.3c-52.9,0-95.9-43-95.9-95.9V141.3
			c0-52.9,43-95.9,95.9-95.9h229.4c52.9,0,95.9,43,95.9,95.9L466.6,370.7L466.6,370.7z"/>
		<path class="st2" d="M256,124.1c-72.7,0-131.9,59.2-131.9,131.9c0,72.7,59.2,131.9,131.9,131.9S387.9,328.7,387.9,256
			C387.9,183.3,328.7,124.1,256,124.1z M256,342.5c-47.7,0-86.5-38.8-86.5-86.5c0-47.7,38.8-86.5,86.5-86.5
			c47.7,0,86.5,38.8,86.5,86.5C342.5,303.7,303.7,342.5,256,342.5z"/>
		<path class="st2" d="M393.5,85.6c-8.8,0-17.4,3.5-23.5,9.8c-6.2,6.2-9.8,14.8-9.8,23.6c0,8.8,3.6,17.4,9.8,23.6
			c6.2,6.2,14.8,9.8,23.5,9.8c8.8,0,17.4-3.6,23.6-9.8c6.2-6.2,9.8-14.8,9.8-23.6c0-8.8-3.5-17.4-9.8-23.6
			C410.8,89.1,402.2,85.6,393.5,85.6z"/>
	</g>
</g>
<g id="Layer_2_1_">
	<path class="st3" d="M474.1,116.7l-50.9-28.5c-48-5.1-87.3,105.9-87.3,105.9C324.7,223.6,364,263,364,263
		c29.5,26.7,29.5,40.8,29.5,40.8c-2.8,50.6-47.8,32.4-47.8,32.4c-19.7-11.3-16.9-38-16.9-38c-1.4-26.7-21.1-29.5-21.1-29.5
		c-31,8.4-40.8,81.6-40.8,81.6c14.1,25.3,2.8,38,2.8,38c-26.7,42.2-63.3,4.2-63.3,4.2c-16.9-40.8,18.3-54.9,18.3-54.9
		c5.6-9.8,30.9-109.7,30.9-109.7l-18.3,39.4l-5.6-7c-9.8,1.4-39.4,28.1-39.4,28.1c-5.6,22.5-22.5,26.7-22.5,26.7
		c-39.4,15.5-43.6-33.8-43.6-33.8c-2.8-19.7,31-29.5,31-29.5c16.9-2.8,98.5-67.5,98.5-67.5l-39.4,19.7l-21.1,2.8
		c-15.5-1.4-29.5,14.1-29.5,14.1c-42.2,8.4-40.8-32.4-40.8-32.4c16.9-33.8,42.2-21.1,42.2-21.1c64.7,8.4,85.8-14.1,85.8-14.1
		c31-14.1,52.1-70.3,52.1-70.3c25.3-32.4,5.6-57.7,5.6-57.7l-22.2-12.7c-4.4-3-10.8-4.5-17.2-5.3l0-0.3c0,0-5-0.5-11.8-0.4
		C252.6,6.5,247.6,7,247.6,7l0,0.3c-6.4,0.8-12.7,2.4-17.2,5.3L44.7,116.7c0,0-15.5,18.3-16.9,42.2v204c0,0,8.4,28.1,26.7,35.2
		l177.3,98.5c0,0,11.7,10.1,27.6,9.5c15.9,0.6,27.6-9.5,27.6-9.5l177.3-98.5c18.3-7,26.7-35.2,26.7-35.2v-204
		C489.6,135,474.1,116.7,474.1,116.7z"/>
</g>
</svg>
