<?xml version="1.0" encoding="utf-8"?>
<!-- Generator: Adobe Illustrator 16.0.0, SVG Export Plug-In . SVG Version: 6.00 Build 0)  -->
<!DOCTYPE svg PUBLIC "-//W3C//DTD SVG 1.1//EN" "http://www.w3.org/Graphics/SVG/1.1/DTD/svg11.dtd">
<svg version="1.1" id="Layer_1" xmlns="http://www.w3.org/2000/svg" xmlns:xlink="http://www.w3.org/1999/xlink" x="0px" y="0px"
	 width="72px" height="72px" viewBox="0 0 72 72" enable-background="new 0 0 72 72" xml:space="preserve">
<g id="Layer_4">
	<g>
		<path fill="#0279D3" d="M69.926,22.778c0,0,0.733-3.632-2.924-6.356L38.973,1.439c0,0-3.167-1.816-6.824,0.682L7.288,15.514
			c0,0-4.63,1.814-4.63,6.81v26.785c0,0-0.836,5.266,4.56,7.465l24.667,13.301l-0.005-0.088l0.756,0.434c0,0,3.409,2.04,6.823,0.228
			l27.785-14.755c0,0,3.172-0.909,2.682-7.266V22.778z"/>
	</g>
</g>
<g>
	<g>
		<g>
			<path fill="#F8FBFF" d="M36.255,38.332V54.07h4.624V38.96c0.045-0.228,0.096-0.433,0.148-0.628H36.255z"/>
			<path fill="#F8FBFF" d="M45.961,38.332c0.023,0.031,0.038,0.05,0.038,0.05l0.082-0.05H45.961z"/>
		</g>
		<g>
			<path fill="#F8FBFF" d="M46.703,33.955H30.966v4.624h15.109c0.228,0.045,0.434,0.096,0.628,0.148V33.955z"/>
			<path fill="#F8FBFF" d="M46.703,43.66c-0.03,0.023-0.05,0.039-0.05,0.039l0.05,0.082V43.66z"/>
		</g>
		<path fill="#F8FBFF" d="M59.427,38.756l3.716-2.146c0,0-1.815-5.037-8.422-3.386c0,0-4.13,0.99-4.789,5.698
			c0,0-0.66,4.457,3.881,6.191c0,0,5.779,1.898,6.026,3.965c0,0-0.165,2.395-3.633,2.145c0,0-2.229,0.082-3.798-2.807l-3.635,2.395
			c0,0,3.635,7.02,12.718,3.387c0,0,8.009-4.377-0.083-10.486c0,0-3.387-2.314-5.532-2.891c0,0-2.313-0.744-0.743-3.141
			C55.133,37.682,57.279,35.122,59.427,38.756z"/>
	</g>
</g>
</svg>
